<?xml version="1.0" encoding="UTF-8"?>
<svg id="Capa_1" data-name="Capa 1" xmlns="http://www.w3.org/2000/svg" viewBox="0 0 290 262">
  <path d="M147.92,236.51s0,0,0,0h0s0,0,0,0c0,0,0,0-.01,0ZM231.73,164.77c-1.21.26-2.44.46-3.65.71-4.23.86-8.47,1.66-12.63,2.87-5.52,1.61-11.05,3.16-16.64,4.47-3.68.86-7.29,1.99-10.72,3.67-3.62,1.77-6.98,3.99-10.22,6.41-2.88,2.15-5.77,4.29-8.87,6.09-3.98,2.31-8.21,3.75-12.77,4.15-2.58.22-5.16.26-7.74.32-.61.02-.68-.05-.73-.74-.17-2.65-.36-5.29-.5-7.94-.06-1.12-.18-2.24-.11-3.38.04-.73,0-1.45.32-2.11.59-1.24,1.42-2.25,2.64-2.87,1.05-.53,2.09-1.07,3.16-1.53,2.9-1.25,5.89-2.16,8.93-2.92,3.02-.76,5.93-1.86,8.64-3.49,3.45-2.06,6.35-4.79,8.9-7.96,1.03-1.28,2.03-2.6,2.9-4.01,1.67-2.73,3.21-5.56,5.01-8.2.15-.22.28-.46.32-.73.03-.24-.02-.46-.29-.47-.7-.02-1.39-.24-2.08-.09-2.4.51-4.81.98-7.2,1.58-4.78,1.19-9.46,2.67-13.93,4.86-4.28,2.1-8,4.95-10.94,8.84-3.02,3.99-5.21,8.44-6.4,13.4-.07.28-.1.58-.36.99-.28-6.4-.77-12.63-1.16-18.86-.38-6.21-1.04-12.39-1.74-18.64.37.17.52.4.7.59,2.4,2.5,4.53,5.26,6.69,8,.33.42.66.84,1.06,1.18.87.77,1.71.58,2.19-.49.28-.62.41-1.28.52-1.95.49-3.02.8-6.06,1.03-9.11.27-3.66-.16-7.24-1.4-10.69-.15-.4-.38-.79-.37-1.28.25.11.37.3.51.46,2.35,2.62,5.01,4.83,7.9,6.76,2.7,1.81,5.59,3.26,8.4,4.87.2.12.42.2.65.27.69.2,1.23-.11,1.45-.83.16-.53.15-1.07.11-1.61-.11-1.19-.22-2.37-.36-3.55-.46-4-1.5-7.84-2.82-11.61-.09-.24-.26-.48-.18-.77.06,0,.12-.02.15,0,1.26.9,2.71,1.32,4.16,1.7,2.89.74,5.84,1.08,8.79,1.46.54.07,1.08.09,1.62.02,1.05-.13,1.44-.85.97-1.83-.16-.34-.36-.66-.58-.96-1.61-2.22-3.17-4.48-4.84-6.65-1.56-2.01-3.25-3.85-5.44-5.12-.07-.04-.12-.1-.05-.23.16,0,.33,0,.51,0,2.53.06,5.06.04,7.59-.12,3.92-.25,7.69-1.23,11.41-2.49.49-.17.97-.38,1.4-.68.82-.59,1-1.42.51-2.33-.23-.43-.54-.79-.86-1.14-2.19-2.41-4.45-4.75-7-6.77-.2-.16-.38-.33-.58-.49.52-.11,1-.11,1.47-.03,1.63.27,3.24.09,4.85-.2,2.12-.39,4.14-1.15,6.16-1.87,2.08-.73,4.15-1.48,6.14-2.47.49-.24.96-.52,1.36-.92.87-.87.82-1.78-.16-2.51-.44-.33-.92-.6-1.4-.86-3.93-2.06-7.99-3.79-12.05-5.54-.4-.17-.79-.35-1.19-.52.16-.13.3-.15.44-.16,1.41-.18,2.83-.25,4.22-.59,5.11-1.25,9.88-3.45,14.63-5.71.31-.15.6-.33.85-.57.64-.61.59-1.33-.13-1.82-.37-.25-.79-.41-1.2-.56-3.22-1.18-6.48-2.2-9.75-3.18-5.05-1.52-10.18-2.3-15.45-1.98-.09,0-.2.05-.25-.09.03-.13.14-.15.23-.18,2.67-1.18,5.22-2.61,7.75-4.06,6.35-3.64,11.83-8.4,16.51-14.17.75-.93,1.47-1.89,2.05-2.95.28-.52.51-1.06.58-1.67.1-.9-.25-1.53-1.05-1.86-.56-.23-1.15-.32-1.74-.38-3.97-.37-7.94-.44-11.92-.22-.19.01-.39.08-.6-.06.35-.39.68-.73.98-1.1,1.64-2.07,2.74-4.44,3.58-6.97.17-.51.28-1.05.23-1.59-.07-.8-.38-1.16-1.13-1.32-.49-.11-.98-.1-1.47-.05-2.93.29-5.85.68-8.71,1.41-2.69.68-5.37,1.39-7.65,3.16-.03.02-.1,0-.15,0-.08-.18-.03-.37,0-.55.29-2.06.52-4.13.68-6.21.26-3.46.26-6.92-.08-10.38-.08-.83-.22-1.67-.51-2.45-.38-1.02-1.07-1.35-2.04-.96-.43.17-.85.39-1.25.63-1.12.66-2.24,1.34-3.35,2.03-2.83,1.74-5.62,3.55-8.14,5.77-.09.08-.18.2-.39.08.24-1.25.24-2.55.23-3.85-.01-2.15-.17-4.27-.7-6.35-.11-.44-.22-.94-.73-1.06-.53-.13-.77.34-1.05.68-.1.12-.19.26-.27.39-.78,1.21-1.58,2.41-2.33,3.64-1.27,2.08-2.39,4.24-3.04,6.64-.03.11-.05.26-.24.27-.06-.18-.12-.35-.17-.53-.6-2.08-1.42-4.07-2.52-5.91-1.07-1.79-2.15-3.57-3.25-5.33-1.15-1.83-2.44-3.56-3.51-5.45-.13-.23-.25-.47-.37-.71-.05-.11-.13-.18-.23-.17-.11.01-.17.1-.2.22-.02.08-.05.16-.06.24-.2,1.33-.74,2.53-1.31,3.72-1.56,3.24-3.4,6.31-5.25,9.38-.05.08-.1.2-.28.09-.02-.15-.05-.33-.07-.51-.03-.21-.06-.43-.09-.64-.74-4.03-2.37-7.65-4.72-10.92-.29-.41-.6-.81-1-1.13-.59-.47-1.1-.39-1.51.26-.32.5-.52,1.06-.74,1.61-1.12,2.89-1.96,5.87-2.64,8.9-.66,2.92-.96,5.86-.64,8.86.01.11.08.26-.06.35-.15-.04-.19-.17-.26-.28-2.47-4.34-5.61-8.09-9.09-11.56-2.42-2.41-5.01-4.6-7.86-6.44-.48-.31-.98-.6-1.54-.75-.81-.21-1.43.07-1.81.85-.17.36-.3.75-.41,1.14-1.1,3.88-1.8,7.84-2.15,11.86-.48,5.53.03,10.97,1.48,16.32.05.18.15.37.05.64-1.42-1.44-3.06-2.4-4.75-3.28-4.9-2.52-10.11-3.68-15.55-3.87-.77-.03-1.55-.03-2.32,0-1.53.04-2.03.71-1.72,2.3.13.69.39,1.35.69,1.98,2.15,4.46,5.19,8.11,9.12,10.95.16.12.4.15.45.41-.11.11-.24.05-.36.04-1.31-.15-2.62-.23-3.94-.28-4.06-.15-8.11-.01-12.15.36-1.8.16-3.6.37-5.36.79-.45.11-.91.23-1.31.48-.63.39-.7,1.01-.17,1.54.18.18.41.33.63.46.41.23.82.45,1.25.65,5.44,2.55,10.57,5.67,15.46,9.22.15.11.35.17.42.46-1.79-.51-3.55-.79-5.32-.93-4.99-.39-9.84.32-14.49,2.3-1.05.45-2.11.9-3.06,1.55-.88.6-.94,1.27-.22,2.08.5.56,1.11.97,1.74,1.34,2.78,1.61,5.74,2.69,8.85,3.31.72.15,1.47.07,2.2.21-.02.06-.02.1-.04.11-.19.08-.38.16-.57.22-1.93.62-3.78,1.45-5.58,2.41-4.73,2.53-8.88,5.91-12.7,9.75-1.4,1.4-2.78,2.83-3.71,4.64-.06.11-.15.14-.25.16-.16.03-.32.08-.28.3.03.19.22.22.36.26.61.17,1.24.12,1.85.03,1.59-.22,3.17-.48,4.72-.88,3.33-.85,6.66-1.72,10-2.56,1.26-.32,2.52-.63,3.84-.85-.18.27-.41.35-.61.47-3.14,1.89-5.89,4.28-8.37,7.03-2.49,2.77-4.47,5.87-5.9,9.37-.12.3-.25.6-.34.91-.31,1.04.08,1.57,1.13,1.49.41-.03.82-.13,1.22-.23,2.04-.5,4.08-.94,6.17-1.12,1.7-.15,3.39-.33,5.07-.67,2.46-.51,4.81-1.43,7.13-2.41.21-.09.41-.26.74-.2-.27.25-.48.45-.69.65-1.13,1.03-2.22,2.11-3.18,3.32-3.81,4.82-6.59,10.2-7.94,16.34-.54,2.45-.99,4.92-1.32,7.42-.16,1.24.38,1.67,1.5,1.28.76-.27,1.47-.66,2.18-1.04,3.29-1.75,6.55-3.56,9.89-5.21.17-.08.32-.27.57-.14-.25.36-.5.71-.74,1.06-1.23,1.74-2.08,3.67-2.59,5.77-.38,1.58-.65,3.17-.92,4.77-.02.13-.04.27-.04.4-.02.86.41,1.15,1.13.77.18-.1.35-.22.53-.34,1.59-1.12,3.18-2.22,4.75-3.36.66-.47,1.31-.97,1.92-1.51,1.3-1.14,2.38-2.48,3.04-4.15-.47.21-.78.62-1.1,1-1.74,2.1-3.81,3.78-6.07,5.23-.9.58-1.76,1.23-2.64,1.85-.21.14-.39.35-.72.39-.05-.75.12-1.44.23-2.15.4-2.75,1.16-5.37,2.6-7.74.4-.66.82-1.31,1.3-1.91.56-.69,1.21-1.23,1.99-1.64,2.43-1.26,4.85-2.52,7.21-3.9.13-.08.27-.13.4-.19.14.11.08.2.03.29-1.23,2.36-2.07,4.88-2.71,7.48-.1.42-.19.84-.46,1.19.25.1.15.32.12.48-.5,2.67-.65,5.36-.63,8.08.02,2.74.24,5.46.82,8.14.09.42.21.84.38,1.23.42.96,1.17,1.06,1.82.27.2-.24.38-.52.56-.78,1.77-2.5,3.65-4.92,5.86-7.01.24-.23.46-.51.79-.64.1.25-.07.42-.14.61-.82,2.16-1.25,4.4-1.22,6.73.04,2.64.53,5.22.94,7.8,0,.03,0,.05.01.08.23.91.62,1.12,1.41.72.26-.13.51-.27.74-.44,2.34-1.71,4.52-3.6,6.33-5.94.14-.18.23-.43.48-.49.15.11.15.28.17.44.23,1.63.57,3.25.96,4.85.61,2.55,1.37,5.05,2.35,7.47.17.42.36.84.66,1.19.47.54,1.08.56,1.55.02.26-.3.48-.64.66-1,1.55-3.03,3.26-5.96,4.95-8.91,1.78-3.11,3.31-6.37,4.89-9.59.11-.22.18-.49.45-.7.01.22.03.35.03.48-.03,1.49.12,2.97.35,4.44.64,4.03,2.45,7.56,4.36,11.04.11.21.26.4.43.57.39.37.81.34,1.14-.09.18-.23.31-.5.43-.77,1.48-3.35,2.7-6.8,3.39-10.42.37-1.97.82-3.95.61-6.13.5.6.92,1.1,1.33,1.62.08.1.13.24.15.37.23,1.22.51,2.43.63,3.67.52,5.25.76,10.53.87,15.8.15,7.04.5,14.06.94,21.09.19,3.03.37,6.05.65,9.07.03.33.09.67.02.98-.16.03-.2-.05-.23-.11-1.55-2.6-3.69-4.58-6.07-6.3-3.7-2.67-7.8-4.41-12.12-5.62-6.06-1.7-12.26-2.45-18.52-2.74-4.11-.18-8.21-.08-12.31.18-5.39.34-10.78.61-16.18.5-3.2-.06-6.4-.28-9.58-.66-.84-.1-1.69-.24-2.55-.2-1.03.05-1.49.58-1.47,1.66,0,.61.2,1.17.42,1.72.55,1.41,1.32,2.69,2.18,3.92,3.27,4.63,7.16,8.6,11.65,11.91,5.68,4.19,11.89,7.28,18.48,9.54,4.83,1.66,9.78,2.74,14.83,3.19,4.41.39,8.82.3,13.24,0,1.72-.12,3.45-.24,5.15-.6.75-.16,1.49-.32,2.28-.49-.1.36-.33.51-.51.7-1.52,1.64-2.87,3.41-3.97,5.38-1.4,2.5-2.4,5.15-2.61,8.08-.28,3.94.98,7.17,4.08,9.53.86.66,1.78,1.21,2.74,1.67,1.55.75,3.15,1.36,4.76,1.93,1.05.37,2.12.7,3.12,1.2,1.85.93,3,2.41,3.36,4.56.37,2.22.51,4.46.4,6.71-.11,2.35-.26,4.7-.4,7.05-.17,2.89-.16,5.79-.21,8.69-.02,1.03,0,2.06,0,3.08,0-.06.16-3.03.24-4.54.24-4.65.82-9.27,1.4-13.88.28-2.26.38-4.53.07-6.8-.23-1.72-.76-3.31-1.99-4.57-.17-.18-.26-.38-.32-.63-.37-1.8-1.17-3.4-2.21-4.87-1.3-1.84-2.89-3.38-4.45-4.97-.91-.93-1.81-1.85-2.6-2.89-1.95-2.58-2.9-5.47-2.51-8.77.22-1.91.78-3.63,2.2-5.04,2.86-2.85,6.01-5.19,9.76-6.56.28-.1.56-.28.95-.18-.96,1.61-1.47,3.37-1.96,5.13-.74,2.66-.99,5.36-.59,8.11.3,2.05.97,3.92,2.29,5.5.42.51.84,1.03,1.29,1.52,1.57,1.73,3.01,3.57,4.1,5.68.34.67.7,1.34.84,2.08.55,3.04.55,6.09-.14,9.11-.27,1.17-.5,2.37-1.03,3.46.22.04.31-.12.38-.3.78-1.98,1.36-4.03,1.58-6.17.31-2.94,0-5.83-.56-8.71-.47-2.48-.74-4.98-.43-7.5.61-4.89,2.51-9.18,5.62-12.87,1.61-1.91,3.3-3.73,4.89-5.66.76-.92,1.58-1.59,2.76-1.72.15-.02.3-.09.45-.13,3.57-1.1,6.84-2.88,9.97-4.95,2.51-1.66,4.91-3.5,7.34-5.28.17-.13.33-.3.64-.34-.32.91-.63,1.73-.9,2.57-.9,2.82-1.73,5.67-2.68,8.47-2.49,7.34-6.21,13.83-11.88,19-2.21,2.01-4.2,4.24-5.86,6.78-.22.33-.47.64-.71.96-1.66,2.18-3.25,4.42-4.42,6.94-1.17,2.53-2.41,5.03-3.7,7.5-2.13,4.09-3.71,8.39-4.62,12.95-.52,2.6-.88,5.22-.99,7.88-.02.6,0,1.19.15,1.87.01.05.03.11.04.16.02-.08.03-.15.04-.23.14-.69.27-1.28.36-1.89.21-1.47.4-2.95.6-4.42.71-5.13,2.14-10.02,4.44-14.62,1.56-3.11,3.13-6.22,4.56-9.4,2.45-5.45,6.35-9.33,11.68-11.63,2.29-.99,4.64-1.82,7.01-2.55,2.89-.89,5.83-1.64,8.67-2.72,2.58-.97,5.06-2.16,7.54-3.37.63-.31,1.28-.57,1.83-1.05.5-.44,1.04-.8,1.58-1.16,1.13-.76,2.24-1.55,3.31-2.4,4.65-3.67,8.71-7.97,12.35-12.71,1.85-2.4,3.65-4.84,5.61-7.15,5.2-6.16,10.65-12.02,17.41-16.36.33-.21.61-.48.82-.83v-.33c-.26-.43-.62-.47-1.07-.38ZM175.31,163.2c-3.24,3.13-7.01,5.3-11.21,6.68-2.41.79-4.86,1.46-7.22,2.4-2.48.99-4.91,2.13-7.29,3.37-.45.24-.86.55-1.29.87-.07-.27.06-.38.14-.51,2.65-4.57,6.22-8.2,10.43-11.16.7-.49,1.52-.64,2.33-.84,3.11-.77,6.27-.98,9.45-1.08,1.63-.05,3.25-.17,4.86-.41.12-.02.24-.1.39.07-.19.2-.38.41-.58.61ZM186.37,147.96c-.02.1-.02.18-.06.24-1.82,2.56-3.38,5.31-5.11,7.93-1.19,1.81-2.55,3.47-3.97,5.08-.26.29-.56.45-.93.53-1.9.43-3.83.57-5.76.63-3.13.1-6.23.33-9.28,1.13-.09.02-.19.05-.33-.1.35-.24.69-.47,1.03-.69,3.32-2.14,6.73-4.12,10.12-6.11,4.32-2.54,8.49-5.34,12.69-8.09.49-.32.99-.57,1.6-.55ZM148.69,171.74c1.77-4.3,4.19-8.13,7.39-11.4,2.45-2.5,5.32-4.35,8.38-5.91,4.06-2.06,8.34-3.44,12.71-4.54,1.9-.48,3.81-.93,5.84-1.32-.2.35-.45.44-.66.58-4.96,3.37-10.07,6.47-15.24,9.48-3.43,2-6.81,4.07-9.96,6.55-2.97,2.34-5.62,5.01-7.76,8.21-.72,1.07-1.36,2.17-1.9,3.34-.08.18-.12.4-.34.56.24-1.96.81-3.77,1.54-5.54ZM132.39,216.91c.74.98,1.59,1.85,2.44,2.71,1.28,1.3,2.59,2.57,3.76,3.97,1.13,1.35,2.09,2.82,2.7,4.51.08.23.15.46.21.69.01.04-.02.1-.04.15-2.42-1.47-5.17-2.07-7.73-3.18-.81-.35-1.62-.71-2.39-1.14-1.13-.62-2.15-1.38-3.04-2.34-1.33-1.44-2-3.17-2.14-5.17-.16-2.32.3-4.52,1.15-6.64.6-1.5,1.37-2.91,2.27-4.23.07-.11.15-.22.24-.31.03-.03.09-.03.17-.05-.19.99-.38,1.97-.39,2.97-.05,3.06.99,5.7,2.79,8.06ZM171.54,130.34c.23,1.66.44,3.32.46,5.01,0,.29.04.59-.07.82-.16.09-.26.04-.34,0-2.82-1.65-5.72-3.13-8.44-4.96-5.45-3.67-9.8-8.43-13.06-14.28-1.53-2.75-2.57-5.71-3.06-8.88-.36-2.33-.23-4.64.2-6.94.04-.22.06-.42.35-.44.68-.06,1.05-.52,1.26-1.15.02-.05.05-.09.08-.14.01-.02.04-.02.15-.07.92,2.95,2.11,5.79,3.44,8.55,1.33,2.77,2.68,5.52,4.65,7.92.17-.25.04-.36-.02-.44-1.37-1.73-2.29-3.72-3.11-5.77-1.24-3.09-2.5-6.18-3.58-9.34-.1-.3-.24-.59-.17-.96,1.84,2.08,3.38,4.4,4.98,6.67,1.61,2.28,3.11,4.63,4.31,7.36.18-.55-.02-.85-.14-1.15-.77-1.9-1.8-3.65-2.82-5.41-1.43-2.45-2.97-4.82-4.67-7.07-.09-.12-.17-.26-.28-.41.55-.45.76-1.09.91-1.78,1.35.62,2.54,1.41,3.63,2.37,3.35,2.96,6.14,6.43,8.38,10.36,3.57,6.24,5.97,12.94,6.97,20.16ZM126.38,99.41c-.34-.99-1.22-1.18-1.97-.46-.27.26-.5.55-.75.82-.13.13-.26.26-.41.37-.14.11-.27.29-.47.18-.19-.1-.17-.32-.19-.5-.05-.44.04-.86.08-1.29.04-.45.22-.94-.22-1.28-.43-.34-.84-.03-1.23.16-.56.27-1.1.6-1.69.8-.84.28-1.09.04-.96-.89.07-.51.27-.99.45-1.46.16-.42.44-.88.1-1.3-.36-.45-.85-.25-1.3-.12-.65.19-1.29.4-1.93.6-.15.05-.29.11-.46.03-.16-.18-.04-.35.03-.51.28-.67.66-1.29,1.1-1.86.13-.17.27-.33.37-.52.18-.36.01-.64-.38-.66-.29-.01-.55.12-.82.21-.64.21-1.27.48-1.95.5-.44.01-.55-.11-.35-.53.27-.57.51-1.17.93-1.65.14-.16.29-.34.14-.57-.15-.23-.35-.14-.55-.05-.46.19-.91.38-1.38.55-.19.07-.4.13-.6.14-.61.04-.94-.37-.75-.98.25-.8.77-1.34,1.55-1.55.38-.1.75-.19,1.1-.37.25-.13.42-.32.37-.64-.05-.31-.27-.46-.55-.49-.41-.05-.82-.04-1.23.04-.42.08-.83.03-1.22-.1-.27-.09-.57-.2-.63-.53-.06-.34.19-.54.42-.71.21-.15.44-.28.67-.41.3-.18.58-.38.54-.81-.04-.41-.32-.61-.65-.73-.49-.18-.96-.4-1.41-.67-.22-.13-.43-.29-.64-.46-.24-.2-.27-.43-.07-.7.3-.41.67-.75,1.09-1.03.3-.2.62-.4.9-.64.5-.43.49-.85.02-1.29-.04-.04-.08-.07-.12-.1-.75-.55-.9-.55-.02-1.41.43-.42.89-.8,1.07-1.45.08-.28.06-.45-.13-.63-.29-.27-.48-.63-.74-.93-.57-.67-.52-1.22.12-1.83.34-.33.73-.6,1.1-.9.34-.28.49-.61.28-1.06-.15-.31-.28-.64-.4-.96-.21-.54-.07-.81.49-.89.56-.08,1.08.11,1.55.4.41.26.76.24,1.16,0,.53-.32.66-.76.27-1.26-.31-.4-.66-.76-.94-1.19-.76-1.16-.58-1.71.73-2.12.17-.06.35-.08.53-.13.69-.19.86-.58.57-1.28-.13-.3-.29-.58-.41-.88-.27-.69,0-1.14.72-1.21.41-.04.83-.09,1.23.03.42.13.53-.07.61-.46.1-.47.1-.9-.06-1.35-.16-.43-.33-.86-.36-1.32-.04-.59.26-.87.81-.73.42.11.83.31,1.25.43,1.09.33,1.78-.18,1.84-1.35,0-.05,0-.11,0-.16.05-1.07.3-1.21,1.23-.7.54.3.95.74,1.3,1.25.16.24.29.51.67.58.07-.27,0-.53-.02-.78-.04-.66.04-1.3.31-1.9.25-.56.47-.63.96-.31.38.24.68.58.98.92.12.14.23.3.36.42.47.44.95.28,1.09-.36.04-.18.04-.38.06-.56.04-.38.17-.74.36-1.06.25-.42.41-.47.83-.28.09.04.18.11.27.16.61.28.99.12,1.16-.58.14-.53.34-1.02.66-1.45.46-.61.66-.63,1.16-.08.2.21.37.45.57.66.43.46.61.43.8-.16.17-.5.4-.92.84-1.22.43-.3.83-.26,1.22.02.37.26.67.6.9,1,.08.14.14.29.22.43.46.76.93.79,1.44.07.28-.39.51-.82.87-1.14.48-.44.7-.41,1.06.14.07.11.13.24.2.35.38.57.77.64,1.3.21.12-.1.23-.22.35-.31.8-.64,1.33-.56,1.93.5.3.53.35,1.12.42,1.72.03.24,0,.49.05.73.06.34.1.69.41.9.29-.1.32-.36.41-.57.3-.67.7-1.27,1.22-1.77.54-.53.97-.42,1.24.29.11.3.17.62.26.93.24.8.85.97,1.39.36.39-.44.75-.9,1.19-1.28.12-.1.24-.21.37-.29.43-.29.67-.17.69.38.01.43-.05.86-.04,1.3.02.56.19.65.68.4.21-.1.41-.24.62-.32.62-.24,1.06.02,1.19.71.09.44-.05.86-.16,1.27-.08.31-.19.62-.29.93-.07.23-.06.43.13.58.17.13.34.07.51-.03.4-.26.81-.48,1.27-.59.23-.05.45-.07.68.01.39.14.59.41.59.84,0,.58-.11,1.13-.27,1.67-.09.31-.17.62-.22.94-.05.32.05.6.33.77.3.18.6.15.86-.09.27-.25.51-.54.78-.79.19-.18.39-.37.61-.5.47-.28.74-.09.7.5-.08,1.01-.32,1.97-.93,2.8-.09.13-.2.25-.28.39-.05.09-.05.21.05.29.09.07.2.09.29.03.15-.11.27-.24.41-.37.67-.61,1.45-.82,2.3-.69.77.12.94.54.58,1.26-.33.67-.91,1.09-1.44,1.56-.23.21-.52.35-.67.63.12.24.3.21.48.15.39-.13.78-.27,1.17-.43.22-.09.44-.16.67-.13.79.08,1.05.57.63,1.28-.2.34-.46.65-.71.96-.11.15-.25.27-.36.42-.35.46-.42.79-.21,1.1.26.38.61.31.98.22.27-.07.55-.15.83-.16.33-.01.46.2.37.54-.08.29-.25.54-.46.74-.42.44-.86.86-1.29,1.28-.17.17-.36.32-.5.51-.41.55-.24,1.12.4,1.32.19.06.41.06.61.07.53.03.69.07,1.28.4-.39.72-.73,1.47-1.52,1.85-.25.12-.56.26-.5.64.05.31.27.5.58.57.26.06.44.27.62.46.82.88.81,1.6-.05,2.43-.42.41-.93.68-1.44.94-.33.16-.67.3-.98.48-.69.39-.78.82-.33,1.52.22.34.45.66.67,1,.21.31.37.65.48,1.01.24.79.02,1.31-.71,1.63-.31.13-.63.24-.97.25-.18,0-.36.01-.54.05-.59.13-.82.51-.66,1.13.11.42.29.81.4,1.23.17.64.01,1.03-.56,1.33-.5.27-1.03.29-1.58.2-.58-.1-1.16-.21-1.76-.1-.52.09-.73.49-.92.88-.17.36.07.67.32.93.07.08.15.15.22.23.13.14.28.27.21.48-.09.25-.29.37-.54.4-.27.02-.51-.08-.74-.19-.26-.13-.49-.3-.74-.45-.3-.18-.6-.58-.96-.27-.37.32-.04.69.09,1.02.12.3.25.59.35.9.1.28.13.58.1.88-.06.57-.33.71-.78.39-.17-.12-.31-.28-.46-.43-.18-.19-.35-.4-.54-.58-.23-.22-.49-.46-.82-.23-.3.21-.18.52-.1.81.1.42.19.84.27,1.27.06.38.03.76-.11,1.12-.19.46-.43.51-.81.2-.14-.12-.28-.29-.44-.32-.43-.08-.66-.39-.9-.72-.19-.26-.4-.5-.66-.68-.18-.13-.39-.17-.58-.05-.2.12-.25.34-.23.57.04.43.11.86.13,1.29.02.46.08.99-.35,1.26-.43.28-.84-.06-1.23-.26-.3-.16-.53-.42-.79-.65-.53-.46-.79-.36-.96.35-.06.26-.09.53-.13.8-.06.41-.19.79-.42,1.12-.31.43-.57.47-.99.16-.38-.29-.66-.69-.91-1.1-.31-.5-.54-1.05-.75-1.6-.1-.26-.24-.52-.55-.47-.35.06-.39.37-.39.69,0,.92,0,1.84-.36,2.71-.38.02-.49-.3-.62-.54-.27-.52-.52-1.06-.76-1.6-.17-.39-.37-.75-.82-.75-.49,0-.7.4-.85.83-.18.53-.34,1.08-.51,1.62-.04.12-.12.23-.19.37-.38-.23-.53-.62-.71-.96-.11-.21-.2-.45-.33-.64-.3-.45-.71-.44-.99.03-.23.39-.38.83-.6,1.23-.23.41-.41,1.05-.91.96-.44-.07-.47-.71-.6-1.14-.04-.13-.06-.26-.12-.39-.2-.43-.57-.5-.84-.12-.17.23-.27.52-.4.78-.1.22-.19.44-.31.66-.26.48-.64.47-.91-.02-.18-.31-.2-.67-.26-1.01-.04-.21-.04-.43-.08-.64-.15-.7-.67-.9-1.22-.46-.33.27-.58.62-.82.97-.16.24-.33.48-.5.73-.18-.13-.24-.26-.2-.35.21-.57-.15-1.03-.31-1.5ZM124.91,101.15c-.93.73-1.73,1.58-2.51,2.53.08-.7.16-1.4.24-2.1.02-.15.08-.25.24-.27.6-.06,1.01-.48,1.47-.83.25-.19.49-.39.8-.43.21.72.22.74-.24,1.1ZM136.7,48.67c.15-1.28.3-2.56.45-3.84,0-.01.05-.02.12-.05.59,1.57,1.55,2.9,2.58,4.17.2.25.17.41-.02.61-.24.27-.3.81-.62.87-.36.07-.52-.45-.79-.68-.4-.36-.85-.61-1.37-.69-.23-.03-.39-.09-.35-.39ZM177.96,111.75c1.72,2.02,3.28,4.18,4.82,6.35.62.87,1.22,1.75,1.82,2.63.16.23.42.51.26.79-.15.26-.51.24-.79.21-.92-.09-1.85-.19-2.77-.3-2.59-.33-5.16-.72-7.69-1.43-1.41-.4-2.71-1.03-3.97-1.79-.3-.18-.42-.45-.54-.75-.9-2.25-1.85-4.47-3.02-6.58-1.07-1.92-2.25-3.76-3.53-5.53-.19-.26-.37-.51-.56-.77.02-.03.04-.06.07-.1.81.34,1.62.67,2.42,1.02,2.38,1.03,4.84,1.69,7.4,1.99.47.06.9.22,1.32.43,1.85.92,3.41,2.22,4.77,3.82ZM194.41,102.15s.03.04.05.06c.76.92.75,1.09-.31,1.5-3.83,1.49-7.72,2.71-11.84,2.99-3.02.2-6.03.31-9.06.29-.73,0-1.43-.16-2.14-.33-.96-.23-1.95-.13-2.9-.42-.79-.25-1.58-.48-2.34-.83-.85-.4-1.74-.68-2.61-1.02-1.41-.55-2.66-1.31-3.69-2.55-1.54-1.85-3.33-3.46-5.46-4.7,1.06-.78.81-1.8.55-2.92.95.32,1.85.68,2.58-.25.34.11.51.4.72.63,1.39,1.53,2.9,2.93,4.59,4.1,1.4.96,2.95,1.54,4.56,1.94.04,0,.09-.03.13-.04-4.35-1.82-5.59-3.76-8.77-7.49.19-.16.33.02.48.07,1.79.57,3.42,1.52,5.08,2.38,1.44.74,2.89,1.44,4.43,1.91,1.71.52,3.46.83,5.3,1.18-.16-.34-.42-.33-.6-.37-2.44-.5-4.67-1.51-6.82-2.79-1.41-.84-2.84-1.66-4.27-2.47-.49-.28-1.02-.51-1.57-.78.49-.59.99-.71,1.7-.55,2.39.56,4.8,1.04,7.13,1.84,1.84.63,3.57,1.56,5.34,2.37.32.15.62.37,1,.38.02-.21-.12-.26-.21-.31-2.45-1.38-4.83-2.93-7.48-3.9-1.85-.68-3.7-1.38-5.67-1.56-.21-.02-.35-.08-.33-.33.07-.67-.16-1.28-.42-1.98.49-.06.93-.13,1.38-.16,2.74-.14,5.48-.17,8.2.14,4.77.55,9.17,2.24,13.22,4.95,3.75,2.51,7.01,5.61,10.02,9.02ZM204.77,85.88c.58.29,1.15.61,1.71.95.4.24.4.34.07.65-.45.42-.97.72-1.49,1.01-2.24,1.25-4.61,2.18-6.99,3.07-1.65.62-3.3,1.28-5.05,1.51-1.74.23-3.47.53-5.24.29-.53-.07-.98-.2-1.43-.52-2.88-2.04-5.95-3.68-9.29-4.73-3.58-1.12-7.23-1.46-10.95-1.29-.81.04-1.63,0-2.47,0,.84-1.28.15-2.37-.59-3.53,1.61-.43,3.21-.35,4.77-.58,1.56-.23,3.14-.16,4.69-.23.06-.31-.13-.31-.27-.36-.4-.14-.81-.17-1.22-.2-2.08-.14-4.16-.45-6.26-.13-.07.01-.15-.01-.38-.04,2.44-1.19,4.91-1.75,7.38-2.37-2.03-.34-3.95.21-5.98.81.23-.6.5-1.13.32-1.73-.17-.59-.54-1.04-.98-1.49.4-.33.85-.42,1.29-.55,4.68-1.28,9.36-1.46,14.09-.26,3.87.98,7.61,2.38,11.31,3.89,4.38,1.79,8.7,3.7,12.94,5.82ZM187.86,65.41c4.95-.02,9.74.99,14.46,2.47,2.64.83,5.28,1.68,7.9,2.6.41.15.84.26,1.22.51-.06.18-.21.24-.35.3-3.49,1.56-6.85,3.42-10.43,4.75-1.7.63-3.43,1.18-5.18,1.65-1.3.35-2.66.33-3.99.53-.32.05-.6-.13-.89-.24-3.02-1.18-6.06-2.31-9.22-3.06-2.17-.51-4.34-.97-6.58-.96-2.55,0-5.04.42-7.49,1.12-.24.07-.47.2-.75.18.65-1.16.61-1.39-.38-2.43,3.63-1.71,7.38-2.69,11.17-3.14-3.81-.77-7.49.29-11.27,1.85.4-.73.77-1.25.74-1.93,0-.2.15-.26.32-.28.33-.03.67-.05,1-.09,3.83-.45,7.58-1.37,11.24-2.6,2.77-.93,5.59-1.2,8.47-1.21ZM209.45,40.33c.64.05,1.29.11,1.92.25.53.11.61.27.43.79-.21.62-.55,1.16-.91,1.69-1.41,2.05-3.06,3.88-4.76,5.65-6.8,7.05-14.71,12.29-23.68,15.75-4.12,1.59-8.38,2.71-12.68,3.61-1.03.22-2.1.28-3.15.42-.5.06-.81-.45-1.37-.39.32-.72.63-1.27,1.27-1.64,3.09-1.8,6.29-3.39,9.48-4.97.93-.46,1.86-.92,2.86-1.55-.42-.02-.66.11-.92.19-1.7.57-3.3,1.39-4.9,2.21-2.29,1.18-4.59,2.34-6.8,3.7-.06.04-.14.05-.25.09-.15-.64-.56-1.07-1.14-1.41,5.19-3.9,10.74-6.97,16.32-9.98-5.79,1.86-10.8,5.23-15.72,8.82.07-.3.29-.47.48-.66,3.04-3.1,6.51-5.57,10.2-7.72,1.98-1.16,4.06-2.12,6.08-3.22.24-.13.51-.21.72-.52-1.1.24-2.08.63-3.04,1.08-4.96,2.33-9.47,5.4-13.52,9.2-.48.45-.88.97-1.4,1.55-.46-1.52-1.55-1.47-2.68-1.41.07-.35.25-.59.4-.82,1.39-2.18,2.81-4.35,4.44-6.35,2.6-3.19,5.71-5.78,9.13-7.97,4.67-2.98,9.72-4.82,15.12-5.72,6-1,12.02-1.14,18.06-.67ZM184.42,32.64c1.07-.72,2.22-1.25,3.42-1.69,2.94-1.06,5.98-1.65,9.05-2.1,1.2-.17,2.41-.33,3.62-.38,1.39-.06,1.66.24,1.22,1.64-.81,2.62-1.99,5.05-3.72,7.15-.24.29-.53.54-.69.87-.29.61-.76.72-1.33.76-2.37.17-4.72.56-7.04,1.06-2.71.59-5.35,1.4-7.9,2.56-.13.06-.26.2-.42.09-.06-.12.02-.21.07-.29,1.31-2.4,2.05-5.02,2.51-7.72.15-.87.52-1.49,1.21-1.96ZM161.03,21.16c.73-2.29,1.72-4.46,2.93-6.51.86-1.48,1.82-2.89,2.77-4.3.12-.17.22-.36.46-.5.35.74.41,1.51.5,2.27.21,1.83.26,3.67.25,5.51-.01,1.2-.21,2.36-.48,3.52-.07.3-.18.55-.39.77-2.24,2.35-4.13,4.97-5.52,7.97,0,.02-.03.03-.16.15,0-.76,0-1.4,0-2.05,0-1.76-.13-3.51-.46-5.24-.11-.55-.05-1.05.12-1.58ZM160.9,35.15c.08-.59.15-1.18.21-1.77.05-.55.2-1.05.39-1.56,1.24-3.34,3.23-6.13,5.62-8.65,2.98-3.15,6.47-5.53,10.1-7.74,1.38-.84,2.79-1.64,4.2-2.43,1.12-.63,1.3-.53,1.59.79.36,1.59.42,3.21.48,4.84.14,4.02-.17,8-.72,11.97-.3,2.14-.56,4.29-1.12,6.38-.32,1.23-.76,2.41-1.2,3.6-.43,1.13-1.18,2.03-1.79,3.03-.17.29-.5.37-.77.53-3.39,1.91-6.45,4.28-9.14,7.18-1.6,1.74-3.05,3.61-4.27,5.65-.74,1.23-1.48,2.46-2.27,3.69,0-.6.17-1.21-.16-1.77-.37-.62-.94-.69-1.68-.55.93-2.12,1.94-4.05,3.09-5.91,1.14-1.84,2.51-3.49,3.88-5.29-.94.43-2.35,1.91-4.32,4.43-1.28,1.63-2.35,3.4-3.31,5.27-.27-.32-.48-.58-.71-.85.47-.32.73-.91,1.02-1.48,1.65-3.29,3.57-6.4,5.75-9.33,1.61-2.16,3.33-4.21,5.33-5.98.12-.1.23-.22.33-.34.03-.04.03-.1.05-.16-.17-.21-.31-.05-.45.05-.79.57-1.49,1.26-2.2,1.93-3.82,3.62-7.03,7.76-9.51,12.51-.07.14-.16.28-.24.41-.03.04-.07.07-.16.09.93-2.94,2.11-5.77,3.44-8.53,1.34-2.78,2.82-5.47,4.88-7.77-.4.03-.63.31-.88.56-.77.8-1.45,1.69-2.08,2.62-2.94,4.35-5.41,8.96-7.03,14.03-.11.36-.21.72-.29,1.09-.04.16-.04.33-.21.4-.07.03-.16.05-.22.02-.07-.02-.09-.11-.07-.2.05-.24.1-.48.13-.72.16-1.53-.61-2.25-2.04-1.9-.07.02-.15.04-.28.07,0-.6-.01-1.18,0-1.75,0-.25.17-.43.35-.6,1.28-1.22,2.23-2.69,2.99-4.31,1.71-3.65,2.73-7.52,3.3-11.54ZM147.56,10.49c1.17-2.15,2.42-4.27,3.06-6.84.26.47.48.83.67,1.2,1.55,3.06,3.3,6,4.93,9.01,1.64,3.01,2.86,6.18,3.37,9.62.42,2.85.44,5.72.21,8.58-.34,4.26-1.18,8.4-2.78,12.35-.67,1.65-1.43,3.24-2.56,4.61-.68.82-1.41,1.57-2.39,2-.43.19-.78.53-1.16.89q-1.25-1.31-2.98-1.07c1-4.45,3.07-8.35,5.5-12.2-.67.46-1.98,2.29-3.33,4.66-.94,1.64-1.79,3.33-2.47,5.13.44-6.13.98-12.23,2.78-18.14-.32.21-.38.56-.49.87-.97,2.86-1.59,5.82-2.15,8.8-.62,3.3-1.06,6.62-1.3,9.97,0,.08-.03.16-.05.26-.31-.04-.47-.24-.49-.53-.08-1.33-.4-2.62-.54-3.93-.48-4.67-.23-9.29.69-13.89.03-.16.11-.31-.04-.63-1.52,6.03-2.37,11.95-1.14,18.07-.67,0-1.3.07-1.88.41-.21.13-.33,0-.44-.17-.15-.25-.31-.5-.48-.74-.11-.15-.24-.36-.41-.34-.5.07-.62-.35-.88-.63-2.49-2.75-3.08-6.15-3.04-9.77.04-4.05.95-7.93,2.13-11.75.79-2.56,1.9-4.97,3.11-7.33,1.47-2.86,3.01-5.67,4.55-8.49ZM133.68,11.99c.71-2.66,1.53-5.28,2.6-7.8.38-.89.51-.93,1.06-.2,2.88,3.82,4.76,8.08,5.1,13,.04.58-.09,1.04-.37,1.52-1.69,2.87-3.08,5.88-4.03,9.1-.69,2.33-1.19,4.7-1.49,7.12,0,.07-.04.14-.06.23-.25-.13-.21-.37-.25-.57-.71-3.14-1.75-6.17-3.16-9.04-.47-.95-.63-1.92-.69-2.95-.22-3.56.39-7,1.3-10.41ZM109.87,18.16c.3-3.84.96-7.61,1.93-11.33.11-.44.25-.88.43-1.3.21-.5.37-.56.85-.33.47.23.92.49,1.35.79,3.46,2.35,6.56,5.16,9.44,8.25,2.72,2.92,5.13,6.08,7.09,9.61,3.2,5.75,4.94,11.93,5.02,18.61.03,2.3-.04,4.6-.35,6.88-.06.48-.4.73-.6,1.18-1.54-1.65-1.56-1.65-3.21-.31-.94-3.95-2.36-7.66-4.42-11.08.48,1.26.95,2.53,1.34,3.82.39,1.28.75,2.56.94,3.91-1.4-3.61-3.42-6.77-6.11-9.45,1.36,1.89,2.52,3.91,3.56,6.01,1.05,2.12,1.82,4.34,2.38,6.65-1-.91-1.81-2-2.83-2.87-1-.86-2.13-1.52-3.22-2.26-.11.22.05.27.12.35,1.97,1.89,3.56,4.13,5.27,6.27.22.27.33.52.1.86-.16.23-.24.52-.41.88-.94-.96-2.07-1.42-3.23-1.84-6.24-2.27-10.19-6.97-12.58-13.25-2.44-6.44-3.4-13.13-2.85-20.05ZM88.83,34.02c-.75-1.17-1.4-2.4-1.87-3.72-.15-.43-.28-.87-.29-1.34-.01-.39.16-.62.54-.63.54-.01,1.08,0,1.62,0,6.34-.02,12.32,1.49,17.91,4.64.96.54,1.88,1.14,2.71,1.88.85.77,1.52,1.65,1.91,2.79,1.33,3.81,3.29,7.21,6.15,10,2.33,2.27,4.99,3.91,8.07,4.78.07.02.14.06.31.14-.55.66-.62,1.41-.68,2.2-.3-.07-.38-.33-.52-.49-.39-.44-.79-.86-1.35-1.06-.94-.34-1.72.11-1.94,1.12-.07.34-.04.7-.23,1.07-.3-.33-.57-.64-.86-.95-2.52-2.7-5.46-4.77-8.65-6.48-4.09-2.2-8.38-3.77-12.94-4.5-.26-.04-.49-.13-.72-.27-3.71-2.34-6.76-5.4-9.17-9.16ZM88.87,53.56c-4.38-3.1-9-5.71-13.82-7.97-.21-.1-.44-.15-.67-.41.67-.33,1.37-.43,2.04-.57,1.67-.35,3.37-.49,5.07-.61,3.53-.26,7.06-.34,10.6-.2,4.88.19,9.66.93,14.24,2.77,3.85,1.54,7.5,3.49,10.75,6.17.91.75,1.77,1.55,2.65,2.54-.29.05-.45.06-.6.1-.95.26-1.41,1-1.23,2.02.07.42.2.83.31,1.3-.33-.1-.51-.33-.72-.51-4.21-3.57-8.81-6.41-13.94-8.28-3.79-1.38-7.7-2-11.7-2.07-.39,0-.79-.04-1.2.11.15.29.35.21.51.2,4.1-.17,7.99.85,11.78,2.35,3.97,1.58,7.73,3.6,11.18,6.22.12.09.24.19.41.33-.29.14-.48-.05-.66-.12-2.39-1.01-4.77-2.08-7.27-2.77-2.74-.76-5.51-1.12-8.51-.88.43.28.78.24,1.11.25,1.42.02,2.83.16,4.23.45,1.96.41,3.81,1.16,5.64,1.98,2.06.93,4.09,1.93,6.14,2.9.16.07.35.1.48.36-.56.06-1.07-.11-1.58-.2-1.94-.32-3.87-.68-5.8-1.01-1.65-.28-3.29-.11-4.94.12-.15.02-.3.08-.45.13-.07.02-.16.01-.19.14.3.08.61.05.91,0,2.24-.35,4.43-.09,6.59.55,1.59.47,3.17.98,4.75,1.45.43.13.71.28.73.84.02.44.23.87.36,1.3-.23.17-.46.07-.69.1-.86.1-1.54.52-1.91,1.33-.2.45-.49.58-.89.62-1.24.13-2.47.06-3.69-.26-4.69-1.24-9.09-3.21-13.15-5.96-2.32-1.57-4.61-3.19-6.9-4.81ZM73.47,64.16c-1.46-.56-2.87-1.21-4.2-2.06-.42-.27-.83-.55-1.16-.94-.28-.33-.28-.47.06-.73.27-.2.57-.37.87-.53,5.3-2.72,10.9-3.75,16.77-3.17,2.32.23,4.61.58,6.79,1.52.65.28,1.27.59,1.86.99,4.04,2.75,8.37,4.8,13.08,5.91,1.75.41,3.51.65,5.28.13.37-.11.6-.03.68.39.04.21.2.38.19.66-.37.08-.71.04-1.04.15-1.35.43-1.82,1.65-1.1,2.93.14.26.31.49.51.79-.47.26-.81.49-1.44.2-3.53-1.65-6.96-3.55-10.78-4.44-3.66-.85-7.35-1.04-11.08-.77-1.86.13-3.7.39-5.51.82-.38.09-.77.05-1.16.04-2.97-.11-5.82-.81-8.6-1.88ZM75.99,79.44c-4.28.99-8.49,2.3-12.74,3.41-1.53.4-3.06.76-4.62,1-.15.02-.3.08-.53-.04.13-.47.41-.8.7-1.09,5.28-5.36,11-10.08,17.8-13.17,3.48-1.58,7.13-2.5,10.91-2.88,2.66-.27,5.31-.27,7.96-.01,3.74.37,7.28,1.48,10.67,3.16,1.1.54,2.21,1.05,3.32,1.55.36.16.65.28.51.79-.05.17.02.37.05.66-2.32-.86-4.66-1.32-7.06-1.41-3.23-.12-5.97.3-7.04,1.19,2.24-.37,4.35-.71,6.48-.45,2.1.26,4.12.84,6.11,1.62-4.08-.04-8.02.61-11.84,2.08,4.73-1.25,9.48-1.24,14.31-.28-.13.39-.38.54-.56.74-.72.84-.7,1.29.12,2.03.1.09.19.17.33.3-.29.36-.62.51-1.04.6-1.82.39-3.65.28-5.48.08-3.05-.33-6.1-.73-9.15-1.1-2.59-.32-5.19-.49-7.8-.41-3.86.11-7.65.77-11.41,1.64ZM81.93,94.71c-2.16.96-4.41,1.69-6.76,1.97-1.44.17-2.88.31-4.31.46-2.06.22-4.08.64-6.09,1.14-.32.08-.64.19-.96.07-.05-.23.06-.4.13-.57,1.19-3.08,2.73-5.93,4.83-8.45,2.74-3.29,5.8-6.14,9.38-8.4,1.41-.89,2.89-1.36,4.51-1.55,3.66-.42,7.32-.51,10.97-.14,2.31.23,4.61.59,6.92.87,2.59.31,5.17.72,7.79.55.07,0,.15.03.27.05-.08.4-.14.79-.02,1.16-.19.17-.37.07-.54.04-4.14-.71-8.23-.47-12.26.75-.26.08-.54.14-.72.47,2.18-.51,4.37-.75,6.59-.6,2.21.15,4.4.49,6.58,1-1.6.06-3.19.09-4.77.24-1.62.16-3.23.4-4.81.79-1.58.39-3.12.89-4.6,1.58,0,.06.02.11.02.17.28-.05.55-.09.83-.14.3-.06.61-.13.91-.19,4.35-.91,8.74-1.25,13.17-1.05.53.02.53.03.53.59,0,.74.32,1.29.92,1.67.27.17.55.3.85.37.12.03.18.12.16.23-.02.07-.09.13-.15.18-.17.11-.35.04-.53.02-1.67-.14-3.35-.27-5.03-.17-5,.29-9.9,1.07-14.61,2.94-.31.13-.63.24-.92.41-2.63,1.51-5.52,2.33-8.26,3.55ZM95.32,110.35c-4.43,2.51-8.96,4.8-13.43,7.21-2.75,1.48-5.49,3-8.24,4.5-.43.23-.85.49-1.36.62-.13-.79.05-1.51.15-2.22.42-2.97.92-5.94,1.87-8.78,2.04-6.13,5.07-11.6,9.89-15.83,3.04-2.67,6.51-4.44,10.31-5.57,3.27-.97,6.6-1.48,9.97-1.84,1.75-.18,3.51-.14,5.26-.1.36,0,.71.07,1.16.11-.29.81-.34,1.49.19,2.06-.07.28-.29.22-.45.26-1.63.39-3.3.62-4.92,1.09-3.53,1.02-6.72,2.75-9.57,5.16-.58.49-1.21.92-1.75,1.6.37.04.56-.18.77-.32,1.42-.98,2.88-1.89,4.38-2.75,2.71-1.54,5.61-2.43,8.62-3.02.3-.06.61-.12.91-.17.05,0,.1.02.18.04-.17.23-.43.27-.65.36-3.19,1.24-6.13,2.96-8.89,5.04-.66.5-1.29,1.05-1.87,1.79.32,0,.47-.15.62-.27,4.03-3.08,8.56-5.08,13.24-6.74.2-.07.39-.13.59-.19.15-.04.32-.07.42.1.2.35.56.44.95.61-1.28,1.56-2.23,3.31-3.5,4.8-4.29,5.03-9.2,9.22-14.88,12.44ZM95.12,136.64c-.31.43-.62.86-.95,1.32-.27-.25-.3-.56-.36-.83-.7-3.59-1.04-7.22-.85-10.89.2-3.92.98-7.71,2.39-11.36.45-1.17.75-2.41,1.44-3.49.22-.35.47-.63.82-.83,4.93-2.87,9.11-6.71,12.88-11.06,1.66-1.91,3.01-4.06,4.23-6.29.2-.36.4-.61.86-.5-.24.45-.47.86-.69,1.29-.1.19-.17.4-.23.6-.25.93.18,1.44,1.08,1.27.45-.08.88-.22,1.5-.38-2.05,3.09-4,6.03-5.94,8.96.05.05.11.09.16.13,2.19-2.38,4.21-4.91,6.19-7.56.09.71.08.7-.2,1.01-1.82,2.03-3.27,4.32-4.3,6.89-.42,1.05-.89,2.07-1.15,3.19-.04.18-.11.36-.06.64.33-.26.43-.61.58-.91.81-1.73,1.75-3.37,2.67-5.04.71-1.3,1.58-2.47,2.5-3.61.21-.26.37-.39.7-.18.29.19.64.16.98.07.56-.14,1.07-.39,1.59-.63.27-.13.52-.35.92-.34-.21,1.2.02,2.38-.03,3.57-.01.27-.1.53-.14.8-.87,5.13-3.06,9.6-6.11,13.67-2.46,3.28-5.35,6.08-8.48,8.63-1.22,1-2.43,2.02-3.68,2.98-3.24,2.49-5.93,5.54-8.33,8.88ZM110.52,137.2c.08.84-.1,1.5-.59,2.16-1.86,2.5-4.14,4.52-6.62,6.29-.06.05-.13.09-.2.12-.54.28-.64.25-.75-.41-.37-2.13-.75-4.25-.9-6.41-.21-3.04.29-5.92,1.59-8.65.3-.64.7-1.17,1.25-1.61,2.77-2.21,5.55-4.41,8.11-6.9.07-.07.16-.11.25-.18.15.29-.04.49-.12.71-1.7,4.81-2.46,9.76-2.01,14.88ZM121.85,141.11c-1.4,2.68-3.03,5.22-4.45,7.9-.41.78-.82,1.57-1.23,2.35-.16.3-.33.6-.55,1-.36-.5-.5-.97-.67-1.42-1.71-4.56-2.88-9.26-3.28-14.14-.36-4.38.09-8.71,1.22-12.94.62-2.31,1.64-4.41,3.14-6.27,1.63-2.03,3.04-4.23,4.18-6.62.64-1.34,1.19-2.71,1.5-4.17.15-.7.45-1.29.87-1.87.72-.99,1.39-2.02,2.27-2.87.16-.16.28-.39.55-.42.2.2.19.49.3.73.36.76.97.9,1.56.32.38-.37.62-.86.89-1.32.13-.22.2-.5.44-.65.39.6.3,1.09-.17,1.64-1.44,1.71-2.7,3.56-3.76,5.55-.55,1.04-.95,2.14-1.33,3.27,1.48-2.14,2.88-4.33,4.62-6.35.07.36-.1.57-.2.79-1.08,2.37-2.01,4.8-2.76,7.31-.18.62-.37,1.24-.49,1.88-.04.22-.12.45.01.72.3-.17.31-.47.38-.71,1.2-3.88,3.04-7.45,4.87-11.03.19-.36.38-.67.8-.8.33-.11.5-.45.68-.75.13-.22.17-.51.42-.67.15.26.28.52.44.77.23.36.56.61.98.52.4-.09.47.07.52.44.72,5.52.23,10.9-1.68,16.12-.86,2.35-1.79,4.67-2.86,6.92-2.36,4.96-4.71,9.92-7.24,14.78ZM137.25,132.65c-.2,5.58-1.74,10.79-3.96,15.82-.07.17-.12.36-.37.52-.49-.65-.84-1.38-1.22-2.08-1.41-2.59-2.6-5.29-3.25-8.21-.43-1.93-.6-3.89-.54-5.88.02-.66.16-1.27.46-1.86,1.56-3.14,3.03-6.33,4.29-9.62.06-.14.07-.32.31-.42.09.55.17,1.09.27,1.63.56,3.03,1.78,5.75,3.51,8.22.41.59.54,1.17.51,1.88ZM137.11,129.07c-1.97-3.05-3.1-6.4-3.35-10.07-.03-.47.01-.91.15-1.36,1.49-4.89,1.66-9.88.94-14.93-.03-.21-.06-.44-.16-.62-.23-.43-.14-.77.24-1.12.26.4.5.81.77,1.18.62.85,1.32.82,1.85-.09.24-.41.41-.86.64-1.34.11.16.17.27.26.37.48.56.55,1.12.18,1.82-.33.64-.39,1.39-.49,2.12-.24,1.69-.26,3.39-.23,5.1,0,0,0,0,0,0,.29-.29.25-.7.33-1.05.25-.99.44-2,.67-3,.07-.28.08-.59.37-.99.27,5.13.99,10.02,2.67,14.72-.98-4.83-1.62-9.69-1.29-14.66.5,1.92.92,3.86,1.88,5.63-.06-.79-.09-1.58-.17-2.37-.2-1.77-.44-3.54-.62-5.32-.07-.68-.19-1.38.05-2.07.32.14.44.43.65.63.97.97,2.02.82,2.67-.42.2-.37.32-.79.48-1.17.04,0,.07-.02.09,0,.36.21.87.26,1.04.62.16.34-.18.75-.26,1.15-.77,3.65-.63,7.25.42,10.82,1,3.43,2.63,6.52,4.72,9.34.34.45.6.94.79,1.48.37,1.04.77,2.06,1.16,3.1,1.14,3.05,1.58,6.22,1.42,9.47-.18,3.6-.73,7.15-1.35,10.69-.05.29-.14.58-.22.86-.03.1-.1.19-.16.31-.45-.27-.73-.7-1.04-1.09-1.25-1.55-2.48-3.12-3.73-4.66-1.86-2.29-3.97-4.33-5.98-6.47-1.94-2.06-3.82-4.18-5.38-6.59ZM141.96,147.67c-.23-3.99-.48-7.99-1.46-11.89-.01-.05,0-.1.01-.16.84.85,1.66,1.67,2.47,2.49.16.16.21.36.23.58.46,4.35.97,8.7,1.28,13.08.46,6.34.7,12.69,1.15,19.03.25,3.48.3,6.97.51,10.45.23,3.78.53,7.55.8,11.33.02.21.02.43.02.64,0,.21-.1.34-.32.37-.74.09-1.48.19-2.21.29-.15-.35-.1-.68-.12-1-.24-4.13-.47-8.26-.71-12.39-.28-4.67-.56-9.34-.86-14.01-.4-6.26-.44-12.54-.8-18.81ZM71.67,171.68c5.26.43,10.52.33,15.78.1,2.22-.1,4.43-.25,6.65-.4.75-.05,1.49.03,2.22.21,1.41.34,2.83.6,4.24.94,3.14.75,5.95,2.28,8.56,4.22,3.03,2.25,6.04,4.54,9.14,6.7,2.43,1.69,4.97,3.19,7.59,4.55.16.08.34.12.54.4-.95-.13-1.81-.24-2.68-.36-4.32-.59-8.65-1.12-12.98-1.59-3.23-.35-6.46-.74-9.69-1.1-2.69-.3-5.37-.7-8.05-1.13-.8-.13-1.48-.45-2.12-.93-2.02-1.5-4.04-3-6.04-4.54-3.01-2.31-6.22-4.25-9.69-5.7-1.3-.54-2.63-.92-3.99-1.28.16-.2.36-.1.53-.09ZM65.66,171.09c1.34.13,2.67.28,4.01.4.32.03.59.19.87.3,3.52,1.35,6.98,2.83,10.19,4.88,2.16,1.38,4.2,2.96,6.28,4.46,1.12.81,2.25,1.61,3.39,2.43-.11.2-.28.12-.4.09-3.98-.79-7.95-1.64-11.76-3.12-4.44-1.72-8.37-4.32-11.91-7.58-.47-.43-.89-.91-1.29-1.4-.08-.1-.19-.19-.18-.35.24-.21.53-.15.81-.12ZM82,190.49c-5.82-3.68-10.76-8.38-14.86-14.04-.72-.99-1.37-2.04-1.91-3.15-.16-.33-.36-.65-.39-1.24.79,1.02,1.6,1.76,2.43,2.48,4.82,4.2,10.36,6.83,16.43,8.32,4.6,1.13,9.25,1.98,13.93,2.62,4.66.64,9.33,1.1,14,1.62.82.09,1.65.11,2.46.41-.86.07-1.73.15-2.59.2-6.63.35-13.22,1.1-19.76,2.23-2.8.48-5.63.78-8.47.84-.44.01-.85-.04-1.25-.3ZM134.29,198.98c-.81.86-1.8,1.14-2.91,1.25-3.24.32-6.47.63-9.73.71-1.28.03-2.55.09-3.89.04.11-.09.17-.16.23-.17,2.76-.68,5.43-1.71,8.19-2.42,2.37-.62,4.75-.99,7.2-.9.75.03,1.48.15,2.34.35-.55.44-1.04.74-1.43,1.15ZM141.45,194.76c-1.68.64-3.27,1.47-4.78,2.47-.32.22-.62.31-1.01.19-2.31-.68-4.65-.57-6.99-.19-2.84.46-5.56,1.43-8.3,2.28-1.49.46-2.97.92-4.47,1.32-.78.21-1.6.07-2.39.02-4.47-.28-8.87-1.02-13.2-2.24-5.5-1.55-10.77-3.73-15.77-6.61-.22-.13-.47-.22-.71-.52,1.34-.11,2.6-.2,3.85-.31,2.5-.23,4.96-.71,7.43-1.1,3.75-.59,7.51-1.09,11.3-1.4,3.32-.27,6.64-.51,9.96-.85,1.05-.11,2.05.09,3.07.22,3.25.41,6.51.78,9.73,1.47,3.57.76,7.11,1.65,10.37,3.43.82.45,1.63.92,2.37,1.5-.08.26-.28.24-.45.31ZM143.1,194.2c-.21.13-.39,0-.57-.13-4-2.97-8.59-4.25-13.31-5.18-.77-.15-1.49-.43-2.2-.76-3.36-1.57-6.44-3.65-9.48-5.8-2.74-1.94-5.4-3.99-8.07-6.03-3.54-2.7-7.46-4.36-11.82-4.84-.09,0-.21.02-.25-.18.34-.13.7-.08,1.04-.09,4.21-.1,8.41,0,12.6.43,4.71.48,9.37,1.22,13.92,2.61,4.06,1.24,7.91,2.97,11.38,5.56,2.42,1.81,4.48,3.99,6.1,6.62.24.39.43.79.45,1.27.09,2,.21,4,.31,6,0,.17.11.4-.1.51ZM158.54,195.01c-1.41,1.65-2.84,3.3-4.24,4.95-2.37,2.78-4.17,5.9-5.25,9.47-.99,3.28-1.3,6.61-.75,10.02.04.24.05.48.07.73,0,.04-.04.08-.07.13-.2-.06-.25-.26-.33-.41-.84-1.44-1.86-2.73-3.02-3.9-.45-.45-.89-.9-1.32-1.37-1.65-1.84-2.58-4-2.74-6.54-.26-4.11.8-7.86,2.61-11.44.02-.05.06-.09.08-.14.36-.71.85-1.11,1.67-1.22,1.69-.22,3.39-.34,5.09-.36,2.61-.03,5.21-.13,7.8-.52.27-.04.55-.05.89-.08-.12.33-.32.5-.49.69ZM195.49,175.26c3.05-.81,6.09-1.63,9.13-2.45.07.2-.04.28-.12.36-2.08,2.23-3.91,4.68-5.8,7.08-2.01,2.54-4.29,4.75-6.91,6.58-1.35.94-2.7,1.9-3.98,2.96-.11.09-.21.25-.39.17-.07-.16.04-.25.11-.35,2.19-3.2,3.86-6.71,5.52-10.22.55-1.16,1.14-2.3,1.7-3.46.16-.33.36-.57.72-.66ZM176.05,199.07c1.42-3.16,2.47-6.48,3.46-9.81.7-2.38,1.42-4.75,2.31-7.06.1-.27.22-.47.45-.62,3.54-2.36,7.24-4.37,11.26-5.69.14-.04.28-.15.48-.02-.15.33-.28.67-.45,1-1.2,2.45-2.38,4.92-3.63,7.35-2,3.91-4.44,7.47-7.48,10.6-2.1,2.17-4.27,4.25-6.48,6.29-.5.46-.98.95-1.47,1.43-.03-.03-.06-.05-.09-.08.54-1.13,1.11-2.25,1.63-3.39ZM193.38,203.08c-4.17,2.99-8.74,5.08-13.51,6.74-3.6,1.25-7.2,2.48-10.74,3.91-2.63,1.07-5.14,2.38-7.47,4.06-.2.15-.39.32-.66.54.11-.36.31-.48.46-.65.67-.7,1.43-1.29,2.04-2.08.61-.79,1.44-1.39,2.18-2.06,2.11-1.88,4.09-3.89,5.74-6.24.52-.74,1.03-1.49,1.49-2.27.44-.75.96-1.4,1.59-1.98,1.92-1.77,3.82-3.57,5.75-5.32,1.94-1.76,3.75-3.64,5.44-5.66.66-.79,1.5-1.32,2.3-1.91,1.16-.86,2.34-1.68,3.54-2.48,3.09-2.08,5.78-4.62,8.11-7.59,1.72-2.2,3.43-4.4,5.29-6.47.77-.85,1.61-1.43,2.71-1.74,3.09-.86,6.12-1.93,9.22-2.77.1-.03.2-.04.36-.07-.05.24-.22.31-.34.4-2.46,1.79-4.6,3.92-6.48,6.36-3.49,4.53-6.82,9.18-9.62,14.23-1.3,2.34-2.37,4.81-3.59,7.19-.82,1.6-1.66,3.18-2.64,4.68-.31.48-.7.84-1.16,1.17ZM230.07,166.47c-3.91,2.59-7.34,5.78-10.66,9.12-3.72,3.76-7.13,7.83-10.47,11.96-2.37,2.93-4.71,5.89-7.37,8.55-1.61,1.61-3.28,3.14-5.03,4.58-.17.14-.32.32-.57.37,0-.1-.03-.16-.01-.19,1.73-2.99,3.12-6.16,4.7-9.24,1.99-3.87,4.37-7.47,6.89-10.97,1.69-2.35,3.38-4.72,5.32-6.86,1.56-1.73,3.19-3.39,5.07-4.75.28-.2.57-.36.9-.44,3.74-.95,7.52-1.65,11.29-2.45.05-.01.1,0,.2.02-.04.2-.17.25-.28.32Z" fill="#a37600"/>
  <path d="M230.35,166.16c-.04.2-.17.25-.28.32-3.91,2.59-7.34,5.78-10.66,9.12-3.72,3.76-7.13,7.83-10.47,11.96-2.37,2.93-4.71,5.89-7.37,8.55-1.61,1.61-3.28,3.14-5.03,4.58-.17.14-.32.32-.57.37,0-.1-.03-.16-.01-.19,1.73-2.99,3.12-6.16,4.7-9.24,1.99-3.87,4.37-7.47,6.89-10.97,1.69-2.35,3.38-4.72,5.32-6.86,1.56-1.73,3.19-3.39,5.07-4.75.28-.2.57-.36.9-.44,3.74-.95,7.52-1.65,11.29-2.45.05-.01.1,0,.2.02Z" fill="#a37600" opacity=".62"/>
  <path d="M204.5,173.17c-2.08,2.23-3.91,4.68-5.8,7.08-2.01,2.54-4.29,4.75-6.91,6.58-1.35.94-2.7,1.9-3.98,2.96-.11.09-.21.25-.39.17-.07-.16.04-.25.11-.35,2.19-3.2,3.86-6.71,5.52-10.22.55-1.16,1.14-2.3,1.7-3.46.16-.33.36-.57.72-.66,3.05-.81,6.09-1.63,9.13-2.45.07.2-.04.28-.12.36Z" fill="#a37600" opacity=".62"/>
  <path d="M194.01,175.88c-.15.33-.28.67-.45,1-1.2,2.45-2.38,4.92-3.63,7.35-2,3.91-4.44,7.47-7.48,10.6-2.1,2.17-4.27,4.25-6.48,6.29-.5.46-.98.95-1.47,1.43-.03-.03-.06-.05-.09-.08.54-1.13,1.11-2.25,1.63-3.39,1.42-3.16,2.47-6.48,3.46-9.81.7-2.38,1.42-4.75,2.31-7.06.1-.27.22-.47.45-.62,3.54-2.36,7.24-4.37,11.26-5.69.14-.04.28-.15.48-.02Z" fill="#a37600" opacity=".5"/>
  <path d="M217.22,169.05c-.05.24-.22.31-.34.4-2.46,1.79-4.6,3.92-6.48,6.36-3.49,4.53-6.82,9.18-9.62,14.23-1.3,2.34-2.37,4.81-3.59,7.19-.82,1.6-1.66,3.18-2.64,4.68-.31.48-.7.84-1.16,1.17-4.17,2.99-8.74,5.08-13.51,6.74-3.6,1.25-7.2,2.48-10.74,3.91-2.63,1.07-5.14,2.38-7.47,4.06-.2.15-.39.32-.66.54.11-.36.31-.48.46-.65.67-.7,1.43-1.29,2.04-2.08.61-.79,1.44-1.39,2.18-2.06,2.11-1.88,4.09-3.89,5.74-6.24.52-.74,1.03-1.49,1.49-2.27.44-.75.96-1.4,1.59-1.98,1.92-1.77,3.82-3.57,5.75-5.32,1.94-1.76,3.75-3.64,5.44-5.66.66-.79,1.5-1.32,2.3-1.91,1.16-.86,2.34-1.68,3.54-2.48,3.09-2.08,5.78-4.62,8.11-7.59,1.72-2.2,3.43-4.4,5.29-6.47.77-.85,1.61-1.43,2.71-1.74,3.09-.86,6.12-1.93,9.22-2.77.1-.03.2-.04.36-.07Z" fill="#a37600" opacity=".5"/>
  <path d="M159.03,194.32c-.12.33-.32.5-.49.69-1.41,1.65-2.84,3.3-4.24,4.95-2.37,2.78-4.17,5.9-5.25,9.47-.99,3.28-1.3,6.61-.75,10.02.04.24.05.48.07.73,0,.04-.04.08-.07.13-.2-.06-.25-.26-.33-.41-.84-1.44-1.86-2.73-3.02-3.9-.45-.45-.89-.9-1.32-1.37-1.65-1.84-2.58-4-2.74-6.54-.26-4.11.8-7.86,2.61-11.44.02-.05.06-.09.08-.14.36-.71.85-1.11,1.67-1.22,1.69-.22,3.39-.34,5.09-.36,2.61-.03,5.21-.13,7.8-.52.27-.04.55-.05.89-.08Z" fill="#a37600" opacity=".5"/>
  <path d="M141.48,228.94c-2.42-1.47-5.17-2.07-7.73-3.18-.81-.35-1.62-.71-2.39-1.14-1.13-.62-2.15-1.38-3.04-2.34-1.33-1.44-2-3.17-2.14-5.17-.16-2.32.3-4.52,1.15-6.64.6-1.5,1.37-2.91,2.27-4.23.07-.11.15-.22.24-.31.03-.03.09-.03.17-.05-.19.99-.38,1.97-.39,2.97-.05,3.06.99,5.7,2.79,8.06.74.98,1.59,1.85,2.44,2.71,1.28,1.3,2.59,2.57,3.76,3.97,1.13,1.35,2.09,2.82,2.7,4.51.08.23.15.46.21.69.01.04-.02.1-.04.15Z" fill="#a37600" opacity=".5"/>
  <path d="M135.72,197.83c-.55.44-1.04.74-1.43,1.15-.81.86-1.8,1.14-2.91,1.25-3.24.32-6.47.63-9.73.71-1.28.03-2.55.09-3.89.04.11-.09.17-.16.23-.17,2.76-.68,5.43-1.71,8.19-2.42,2.37-.62,4.75-.99,7.2-.9.75.03,1.48.15,2.34.35Z" fill="#a37600" opacity=".5"/>
  <path d="M114.09,187.52c-.86.07-1.73.15-2.59.2-6.63.35-13.22,1.1-19.76,2.23-2.8.48-5.63.78-8.47.84-.44.01-.85-.04-1.25-.3-5.82-3.68-10.76-8.38-14.86-14.04-.72-.99-1.37-2.04-1.91-3.15-.16-.33-.36-.65-.39-1.24.79,1.02,1.6,1.76,2.43,2.48,4.82,4.2,10.36,6.83,16.43,8.32,4.6,1.13,9.25,1.98,13.93,2.62,4.66.64,9.33,1.1,14,1.62.82.09,1.65.11,2.46.41Z" fill="#a37600" opacity=".5"/>
  <path d="M90.4,183.56c-.11.2-.28.12-.4.09-3.98-.79-7.95-1.64-11.76-3.12-4.44-1.72-8.37-4.32-11.91-7.58-.47-.43-.89-.91-1.29-1.4-.08-.1-.19-.19-.18-.35.24-.21.53-.15.81-.12,1.34.13,2.67.28,4.01.4.32.03.59.19.87.3,3.52,1.35,6.98,2.83,10.19,4.88,2.16,1.38,4.2,2.96,6.28,4.46,1.12.81,2.25,1.61,3.39,2.43Z" fill="#a37600" opacity=".5"/>
  <path d="M126.39,188.38c-.95-.13-1.81-.24-2.68-.36-4.32-.59-8.65-1.12-12.98-1.59-3.23-.35-6.46-.74-9.69-1.1-2.69-.3-5.37-.7-8.05-1.13-.8-.13-1.48-.45-2.12-.93-2.02-1.5-4.04-3-6.04-4.54-3.01-2.31-6.22-4.25-9.69-5.7-1.3-.54-2.63-.92-3.99-1.28.16-.2.36-.1.53-.09,5.26.43,10.52.33,15.78.1,2.22-.1,4.43-.25,6.65-.4.75-.05,1.49.03,2.22.21,1.41.34,2.83.6,4.24.94,3.14.75,5.95,2.28,8.56,4.22,3.03,2.25,6.04,4.54,9.14,6.7,2.43,1.69,4.97,3.19,7.59,4.55.16.08.34.12.54.4Z" fill="#a37600" opacity=".62"/>
  <path d="M141.9,194.46c-.08.26-.28.24-.45.31-1.68.64-3.27,1.47-4.78,2.47-.32.22-.62.31-1.01.19-2.31-.68-4.65-.57-6.99-.19-2.84.46-5.56,1.43-8.3,2.28-1.49.46-2.97.92-4.47,1.32-.78.21-1.6.07-2.39.02-4.47-.28-8.87-1.02-13.2-2.24-5.5-1.55-10.77-3.73-15.77-6.61-.22-.13-.47-.22-.71-.52,1.34-.11,2.6-.2,3.85-.31,2.5-.23,4.96-.71,7.43-1.1,3.75-.59,7.51-1.09,11.3-1.4,3.32-.27,6.64-.51,9.96-.85,1.05-.11,2.05.09,3.07.22,3.25.41,6.51.78,9.73,1.47,3.57.76,7.11,1.65,10.37,3.43.82.45,1.63.92,2.37,1.5Z" fill="#a37600" opacity=".62"/>
  <path d="M143.1,194.2c-.21.13-.39,0-.57-.13-4-2.97-8.59-4.25-13.31-5.18-.77-.15-1.49-.43-2.2-.76-3.36-1.57-6.44-3.65-9.48-5.8-2.74-1.94-5.4-3.99-8.07-6.03-3.54-2.7-7.46-4.36-11.82-4.84-.09,0-.21.02-.25-.18.34-.13.7-.08,1.04-.09,4.21-.1,8.41,0,12.6.43,4.71.48,9.37,1.22,13.92,2.61,4.06,1.24,7.91,2.97,11.38,5.56,2.42,1.81,4.48,3.99,6.1,6.62.24.39.43.79.45,1.27.09,2,.21,4,.31,6,0,.17.11.4-.1.51Z" fill="#a37600" opacity=".5"/>
  <path d="M146.98,193.22c0,.21-.1.34-.32.37-.74.09-1.48.19-2.21.29-.15-.35-.1-.68-.12-1-.24-4.13-.47-8.26-.71-12.39-.28-4.67-.56-9.34-.86-14.01-.4-6.26-.44-12.54-.8-18.81-.23-3.99-.48-7.99-1.46-11.89-.01-.05,0-.1.01-.16.84.85,1.66,1.67,2.47,2.49.16.16.21.36.23.58.46,4.35.97,8.7,1.28,13.08.46,6.34.7,12.69,1.15,19.03.25,3.48.3,6.97.51,10.45.23,3.78.53,7.55.8,11.33.02.21.02.43.02.64Z" fill="#a37600" opacity=".56"/>
  <path d="M183.01,148.57c-.2.35-.45.44-.66.58-4.96,3.37-10.07,6.47-15.24,9.48-3.43,2-6.81,4.07-9.96,6.55-2.97,2.34-5.62,5.01-7.76,8.21-.72,1.07-1.36,2.17-1.9,3.34-.08.18-.12.4-.34.56.24-1.96.81-3.77,1.54-5.54,1.77-4.3,4.19-8.13,7.39-11.4,2.45-2.5,5.32-4.35,8.38-5.91,4.06-2.06,8.34-3.44,12.71-4.54,1.9-.48,3.81-.93,5.84-1.32Z" fill="#a37600" opacity=".5"/>
  <path d="M186.37,147.96c-.02.1-.02.18-.06.24-1.82,2.56-3.38,5.31-5.11,7.93-1.19,1.81-2.55,3.47-3.97,5.08-.26.29-.56.45-.93.53-1.9.43-3.83.57-5.76.63-3.13.1-6.23.33-9.28,1.13-.09.02-.19.05-.33-.1.35-.24.69-.47,1.03-.69,3.32-2.14,6.73-4.12,10.12-6.11,4.32-2.54,8.49-5.34,12.69-8.09.49-.32.99-.57,1.6-.55Z" fill="#a37600" opacity=".62"/>
  <path d="M175.89,162.59c-.19.2-.38.41-.58.61-3.24,3.13-7.01,5.3-11.21,6.68-2.41.79-4.86,1.46-7.22,2.4-2.48.99-4.91,2.13-7.29,3.37-.45.24-.86.55-1.29.87-.07-.27.06-.38.14-.51,2.65-4.57,6.22-8.2,10.43-11.16.7-.49,1.52-.64,2.33-.84,3.11-.77,6.27-.98,9.45-1.08,1.63-.05,3.25-.17,4.86-.41.12-.02.24-.1.39.07Z" fill="#a37600" opacity=".5"/>
  <path d="M164.14,77.32c-.32-.07-.53-.26-.58-.57-.06-.37.25-.52.5-.64.79-.37,1.13-1.12,1.52-1.85-.59-.33-.75-.38-1.28-.4-.2-.01-.42,0-.61-.07-.64-.2-.82-.77-.4-1.32.14-.19.33-.34.5-.51.43-.43.87-.85,1.29-1.28.2-.21.38-.45.46-.74.09-.34-.04-.55-.37-.54-.28.01-.56.09-.83.16-.37.1-.72.16-.98-.22-.21-.31-.15-.64.21-1.1.11-.15.25-.27.36-.42.24-.32.5-.62.71-.96.42-.7.16-1.19-.63-1.28-.24-.02-.45.04-.67.13-.38.16-.78.29-1.17.43-.18.06-.36.09-.48-.15.16-.28.45-.42.67-.63.53-.47,1.11-.89,1.44-1.56.36-.73.19-1.15-.58-1.26-.85-.13-1.64.09-2.3.69-.13.12-.26.26-.41.37-.09.06-.2.04-.29-.03-.1-.08-.1-.2-.05-.29.07-.14.18-.26.28-.39.6-.82.85-1.79.93-2.8.05-.59-.23-.78-.7-.5-.22.13-.42.32-.61.5-.27.25-.51.54-.78.79-.26.24-.56.27-.86.09-.28-.17-.38-.45-.33-.77.05-.32.13-.63.22-.94.16-.55.28-1.1.27-1.67,0-.44-.2-.71-.59-.84-.23-.08-.45-.06-.68-.01-.46.1-.87.33-1.27.59-.16.1-.33.17-.51.03-.19-.15-.21-.35-.13-.58.1-.31.21-.61.29-.93.11-.42.24-.83.16-1.27-.13-.69-.57-.95-1.19-.71-.22.08-.41.22-.62.32-.5.25-.67.16-.68-.4-.01-.43.05-.86.04-1.3-.02-.55-.25-.67-.69-.38-.13.09-.25.19-.37.29-.44.38-.8.84-1.19,1.28-.54.61-1.15.45-1.39-.36-.09-.31-.15-.63-.26-.93-.27-.72-.7-.82-1.24-.29-.51.5-.91,1.1-1.22,1.77-.1.21-.13.48-.41.57-.31-.21-.35-.57-.41-.9-.04-.24-.02-.49-.05-.73-.06-.59-.12-1.19-.42-1.72-.59-1.05-1.13-1.13-1.93-.5-.12.1-.23.22-.35.31-.53.43-.92.37-1.3-.21-.07-.11-.13-.24-.2-.35-.36-.54-.58-.57-1.06-.14-.36.32-.59.75-.87,1.14-.51.72-.97.69-1.44-.07-.08-.14-.14-.29-.22-.43-.23-.4-.53-.74-.9-1-.4-.28-.79-.32-1.22-.02-.44.3-.67.72-.84,1.22-.2.59-.38.62-.8.16-.2-.21-.37-.45-.57-.66-.51-.55-.7-.53-1.16.08-.33.43-.53.92-.66,1.45-.18.7-.55.86-1.16.58-.09-.04-.18-.11-.27-.16-.42-.19-.58-.14-.83.28-.19.32-.32.68-.36,1.06-.02.19-.02.38-.06.56-.14.64-.62.8-1.09.36-.13-.12-.24-.28-.36-.42-.29-.34-.6-.68-.98-.92-.5-.32-.71-.26-.96.31-.27.6-.35,1.24-.31,1.9.02.25.09.51.02.78-.38-.07-.51-.35-.67-.58-.35-.51-.76-.95-1.3-1.25-.93-.51-1.18-.37-1.23.7,0,.05,0,.11,0,.16-.07,1.18-.75,1.68-1.84,1.35-.42-.13-.82-.32-1.25-.43-.55-.14-.85.13-.81.73.03.46.2.9.36,1.32.16.45.16.88.06,1.35-.08.39-.19.59-.61.46-.4-.13-.82-.07-1.23-.03-.73.07-.99.51-.72,1.21.12.3.28.58.41.88.29.69.12,1.08-.57,1.28-.17.05-.36.07-.53.13-1.31.41-1.49.95-.73,2.12.28.43.63.79.94,1.19.39.5.26.94-.27,1.26-.4.24-.75.26-1.16,0-.47-.3-.99-.49-1.55-.4-.56.08-.7.35-.49.89.13.32.26.65.4.96.21.45.07.78-.28,1.06-.37.3-.75.58-1.1.9-.64.61-.69,1.16-.12,1.83.26.3.46.66.74.93.19.18.21.35.13.63-.18.65-.64,1.03-1.07,1.45-.88.86-.74.86.02,1.41.04.03.08.06.12.1.47.44.47.86-.02,1.29-.28.24-.59.43-.9.64-.42.28-.78.62-1.09,1.03-.2.27-.17.5.07.7.2.17.41.33.64.46.45.26.92.48,1.41.67.32.12.61.32.65.73.04.42-.24.62-.54.81-.22.14-.46.26-.67.41-.23.17-.48.38-.42.71.06.33.36.44.63.53.4.13.81.18,1.22.1.41-.08.82-.09,1.23-.04.27.04.49.19.55.49.06.32-.12.51-.37.64-.35.18-.72.28-1.1.37-.79.2-1.31.75-1.55,1.55-.19.61.14,1.02.75.98.2-.01.41-.07.6-.14.46-.17.92-.36,1.38-.55.2-.08.4-.18.55.05.15.23,0,.41-.14.57-.42.48-.66,1.08-.93,1.65-.2.41-.09.54.35.53.68-.02,1.31-.29,1.95-.5.27-.09.53-.22.82-.21.4.02.56.3.38.66-.09.19-.24.35-.37.52-.44.57-.82,1.18-1.1,1.86-.07.16-.19.33-.03.51.16.08.31.02.46-.03.64-.2,1.28-.41,1.93-.6.44-.13.94-.33,1.3.12.34.42.06.88-.1,1.3-.18.48-.38.95-.45,1.46-.13.93.12,1.17.96.89.59-.2,1.13-.52,1.69-.8.39-.19.8-.49,1.23-.16.43.34.26.83.22,1.28-.04.43-.13.86-.08,1.29.02.18,0,.4.19.5.2.11.33-.07.47-.18.14-.11.28-.24.41-.37.25-.27.48-.57.75-.82.75-.72,1.63-.53,1.97.46.17.47.52.92.31,1.5-.03.09.03.21.2.35.17-.25.34-.49.5-.73.24-.36.49-.71.82-.97.55-.44,1.07-.24,1.22.46.04.21.04.43.08.64.06.35.09.7.26,1.01.28.49.66.49.91.02.11-.21.2-.44.31-.66.13-.26.23-.55.4-.78.28-.38.65-.32.84.12.06.12.08.26.12.39.12.44.16,1.07.6,1.14.5.08.69-.55.91-.96.22-.4.37-.84.6-1.23.28-.47.69-.48.99-.03.13.2.22.43.33.64.18.35.33.73.71.96.07-.14.15-.25.19-.37.18-.54.33-1.08.51-1.62.14-.42.36-.82.85-.83.45,0,.65.36.82.75.24.54.48,1.08.76,1.6.13.24.24.56.62.54.37-.87.36-1.79.36-2.71,0-.32.04-.63.39-.69.31-.06.45.2.55.47.22.55.45,1.1.75,1.6.25.41.53.81.91,1.1.42.31.68.27.99-.16.24-.33.36-.71.42-1.12.04-.27.07-.54.13-.8.17-.71.43-.8.96-.35.26.22.49.49.79.65.39.2.8.54,1.23.26.42-.27.37-.8.35-1.26-.02-.43-.09-.86-.13-1.29-.02-.23.03-.44.23-.57.2-.12.4-.08.58.05.26.18.47.42.66.68.23.33.46.64.9.72.16.03.3.2.44.32.38.31.62.26.81-.2.14-.35.18-.74.11-1.12-.07-.43-.16-.85-.27-1.27-.07-.29-.2-.6.1-.81.33-.23.59.02.82.23.19.18.36.39.54.58.15.15.29.31.46.43.45.32.72.18.78-.39.03-.3,0-.6-.1-.88-.11-.3-.23-.6-.35-.9-.13-.33-.46-.71-.09-1.02.36-.31.66.09.96.27.25.15.48.32.74.45.23.12.48.22.74.19.25-.02.45-.15.54-.4.08-.22-.08-.35-.21-.48-.07-.08-.15-.15-.22-.23-.25-.26-.5-.57-.32-.93.19-.39.41-.79.92-.88.61-.11,1.18,0,1.76.1.55.09,1.08.07,1.58-.2.57-.31.73-.69.56-1.33-.11-.41-.29-.81-.4-1.23-.16-.62.07-1,.66-1.13.18-.04.36-.05.54-.05.34-.01.66-.12.97-.25.73-.32.96-.84.71-1.63-.11-.36-.28-.7-.48-1.01-.22-.33-.45-.66-.67-1-.45-.69-.36-1.12.33-1.52.32-.18.66-.31.98-.48.51-.26,1.02-.53,1.44-.94.85-.83.87-1.56.05-2.43-.18-.19-.36-.4-.62-.46ZM122.91,70.22c0,.41-.33.72-.77.7-.62-.02-1.1-.43-1.07-.91.02-.41.37-.7.8-.68.53.03,1.03.46,1.04.89ZM120.9,65.08c.49-.12,1.33.55,1.36,1.07.02.36-.24.67-.6.72-.48.07-1.18-.49-1.26-.99-.05-.38.16-.72.5-.8ZM121.32,85.01c-.34.29-.74.46-1.12.53-.36,0-.61-.1-.73-.41-.12-.29-.02-.53.18-.73.32-.32.7-.54,1.14-.62.3-.05.57.07.71.36.16.32.1.64-.16.87ZM122.71,87.77c-.4,0-.73-.36-.69-.78.04-.43.58-1.06.98-1.12.42-.07.78.21.82.63.04.47-.65,1.26-1.1,1.27ZM130.04,94.14c-.09.34-.34.54-.69.52-.36-.02-.56-.26-.63-.6-.08-.35,0-.7.08-1.04.13-.52.4-.78.77-.73.37.04.61.39.62,1-.04.22-.06.54-.15.85ZM137.43,89.45c-.42.02-.72-.33-.72-.84,0-.52.27-.9.67-.92.4-.02.73.36.74.86.01.5-.28.89-.68.91ZM140.56,57.28c-.33.1-.62,0-.79-.32-.19-.35-.3-.75-.33-1.15-.03-.36.14-.63.48-.74.34-.11.61.04.79.34.21.34.28.75.35,1.13-.02.37-.15.65-.49.76ZM142.15,57.56c0-.11,0-.21,0-.36.04-.28.06-.6.12-.92.08-.39.32-.61.7-.62.35,0,.65.3.66.75,0,.43-.03.86-.1,1.28-.08.47-.43.75-.8.69-.35-.06-.56-.35-.58-.83ZM143.32,91.92c-.43.05-.72-.22-.81-.77-.03-.18-.05-.38-.03-.56.04-.43.33-.74.68-.75.32,0,.6.24.69.64.04.18.05.37.07.51,0,.58-.22.89-.61.93ZM147.01,91.37c-.31.08-.64-.1-.81-.46-.15-.32-.22-.66-.21-1.01,0-.36.18-.62.52-.71.35-.09.59.09.76.39.17.31.21.66.27.96,0,.43-.22.75-.53.83ZM151.37,63.23c.19-.46.54-.78,1.01-.9.42-.11.77.19.79.63.03.61-.83,1.32-1.4,1.15-.36-.1-.57-.51-.41-.89ZM150.4,75.93c.07-.36.33-.54.66-.57.44-.04.87.06,1.28.2.36.12.55.49.49.81-.06.34-.33.55-.73.58-.08,0-.15,0-.23,0-.36-.02-.71-.09-1.04-.26-.29-.15-.51-.39-.44-.77ZM152.87,85.18c-.15.29-.4.39-.75.36-.31-.09-.66-.21-.94-.44-.24-.2-.35-.46-.24-.79.11-.32.35-.48.65-.48.45,0,.86.17,1.17.53.21.23.27.52.11.82ZM155.09,75.7c-.27.07-.56.07-.72.09-.39-.02-.68.02-.95-.08-.29-.11-.49-.31-.5-.64-.01-.36.18-.64.51-.71.55-.11,1.12-.17,1.67-.03.33.08.53.32.54.69,0,.38-.22.6-.55.68ZM159.59,78.73c-.51,0-.91-.34-.91-.79,0-.43.31-.72.77-.71.52.02.89.37.87.83-.02.4-.31.67-.73.67Z" fill="#a37600" opacity=".5"/>
  <path d="M147.94,236.62s-.01-.07-.02-.12c0,0,0,0,0,0,0,0,0,0,0,0,0,.04,0,.07,0,.11Z" fill="#a37600"/>
  <path d="M147.78,237.38c-.02-.34.15-.54.16-.75.04.26.02.31-.16.75Z" fill="#a37600"/>
  <path d="M155.64,75.02c0,.38-.22.6-.55.68-.27.07-.56.07-.72.09-.39-.02-.68.02-.95-.08-.29-.11-.49-.31-.5-.64-.01-.36.18-.64.51-.71.55-.11,1.12-.17,1.67-.03.33.08.53.32.54.69Z" fill="#a37600"/>
  <path d="M143.63,56.42c0,.43-.03.86-.1,1.28-.08.47-.43.75-.8.69-.35-.06-.56-.35-.58-.83,0-.11,0-.21,0-.36.04-.28.06-.6.12-.92.08-.39.32-.61.7-.62.35,0,.65.3.66.75Z" fill="#a37600"/>
  <path d="M152.83,76.37c-.06.34-.33.55-.73.58-.08,0-.15,0-.23,0-.36-.02-.71-.09-1.04-.26-.29-.15-.51-.39-.44-.77.07-.36.33-.54.66-.57.44-.04.87.06,1.28.2.36.12.55.49.49.81Z" fill="#a37600"/>
  <path d="M130.19,93.29c-.04.22-.06.54-.15.85-.09.34-.34.54-.69.52-.36-.02-.56-.26-.63-.6-.08-.35,0-.7.08-1.04.13-.52.4-.78.77-.73.37.04.61.39.62,1Z" fill="#a37600"/>
  <path d="M121.32,85.01c-.34.29-.74.46-1.12.53-.36,0-.61-.1-.73-.41-.12-.29-.02-.53.18-.73.32-.32.7-.54,1.14-.62.3-.05.57.07.71.36.16.32.1.64-.16.87Z" fill="#a37600"/>
  <path d="M141.05,56.52c-.02.37-.15.65-.49.76-.33.1-.62,0-.79-.32-.19-.35-.3-.75-.33-1.15-.03-.36.14-.63.48-.74.34-.11.61.04.79.34.21.34.28.75.35,1.13Z" fill="#a37600"/>
  <path d="M147.53,90.54c0,.43-.22.75-.53.83-.31.08-.64-.1-.81-.46-.15-.32-.22-.66-.21-1.01,0-.36.18-.62.52-.71.35-.09.59.09.76.39.17.31.21.66.27.96Z" fill="#a37600"/>
  <path d="M152.87,85.18c-.15.29-.4.39-.75.36-.31-.09-.66-.21-.94-.44-.24-.2-.35-.46-.24-.79.11-.32.35-.48.65-.48.45,0,.86.17,1.17.53.21.23.27.52.11.82Z" fill="#a37600"/>
  <path d="M123.82,86.5c.04.47-.65,1.26-1.1,1.27-.4,0-.73-.36-.69-.78.04-.43.58-1.06.98-1.12.42-.07.78.21.82.63Z" fill="#a37600"/>
  <path d="M143.93,90.98c0,.58-.22.89-.61.93-.43.05-.72-.22-.81-.77-.03-.18-.05-.38-.03-.56.04-.43.33-.74.68-.75.32,0,.6.24.69.64.04.18.05.37.07.51Z" fill="#a37600"/>
  <path d="M121.66,66.87c-.48.07-1.18-.49-1.26-.99-.05-.38.16-.72.5-.8.49-.12,1.33.55,1.36,1.07.02.36-.24.67-.6.72Z" fill="#a37600"/>
  <path d="M153.18,62.96c.03.61-.83,1.32-1.4,1.15-.36-.1-.57-.51-.41-.89.19-.46.54-.78,1.01-.9.42-.11.77.19.79.63Z" fill="#a37600"/>
  <path d="M122.91,70.22c0,.41-.33.72-.77.7-.62-.02-1.1-.43-1.07-.91.02-.41.37-.7.8-.68.53.03,1.03.46,1.04.89Z" fill="#a37600"/>
  <path d="M138.11,88.54c.01.5-.28.89-.68.91-.42.02-.72-.33-.72-.84,0-.52.27-.9.67-.92.4-.02.73.36.74.86Z" fill="#a37600"/>
  <path d="M160.32,78.06c-.02.4-.31.67-.73.67-.51,0-.91-.34-.91-.79,0-.43.31-.72.77-.71.52.02.89.37.87.83Z" fill="#a37600"/>
  <path d="M121.5,43.68c.59.15.9.46,1.26.79-.61-.05-.72-.12-1.26-.79Z" fill="#a37600"/>
  <path d="M137.9,110.12v1.38c-.09-.55,0-.96,0-1.38,0,0,0,0,0,0Z" fill="#a37600"/>
  <path d="M180.57,182.88c-.32.91-.63,1.73-.9,2.57-.9,2.82-1.73,5.67-2.68,8.47-2.49,7.34-6.21,13.83-11.88,19-2.21,2.01-4.2,4.24-5.86,6.78-.22.33-.47.64-.71.96-1.66,2.18-3.25,4.42-4.42,6.94-1.17,2.53-2.41,5.03-3.7,7.5-2.13,4.09-3.71,8.39-4.62,12.95-.52,2.6-.88,5.22-.99,7.88-.02.6,0,1.19.15,1.87l-2.37,1.83c0-.06.16-3.03.24-4.54.24-4.65.82-9.27,1.4-13.88.28-2.26.38-4.53.07-6.8-.23-1.72-.76-3.31-1.99-4.57-.17-.18-.26-.38-.32-.63-.37-1.8-1.17-3.4-2.21-4.87-1.3-1.84-2.89-3.38-4.45-4.97-.91-.93-1.81-1.85-2.6-2.89-1.95-2.58-2.9-5.47-2.51-8.77.22-1.91.78-3.63,2.2-5.04,2.86-2.85,6.01-5.19,9.76-6.56.28-.1.56-.28.95-.18-.96,1.61-1.47,3.37-1.96,5.13-.74,2.66-.99,5.36-.59,8.11.3,2.05.97,3.92,2.29,5.5.42.51.84,1.03,1.29,1.52,1.57,1.73,3.01,3.57,4.1,5.68.34.67.7,1.34.84,2.08.55,3.04.55,6.09-.14,9.11-.27,1.17-.5,2.37-1.03,3.46,0,0,0,0-.01,0,0,.04.01.08.02.12-.02.21-.18.41-.16.75.18-.44.2-.49.16-.75,0-.04,0-.07,0-.11,0,0,0,0,0,0h0s0,0,0,0c.22.04.31-.12.38-.3.78-1.98,1.36-4.03,1.58-6.17.31-2.94,0-5.83-.56-8.71-.47-2.48-.74-4.98-.43-7.5.61-4.89,2.51-9.18,5.62-12.87,1.61-1.91,3.3-3.73,4.89-5.66.76-.92,1.58-1.59,2.76-1.72.15-.02.3-.09.45-.13,3.57-1.1,6.84-2.88,9.97-4.95,2.51-1.66,4.91-3.5,7.34-5.28.17-.13.33-.3.64-.34Z" fill="#a37600" opacity=".62"/>
  <line x1="145.04" y1="257.73" x2="144.96" y2="257.8" fill="none"/>
</svg>