<?xml version="1.0" encoding="UTF-8"?>
<svg id="Capa_1" data-name="Capa 1" xmlns="http://www.w3.org/2000/svg" viewBox="0 0 290 262">
  <path d="M140.19,42.4c-1.21.99-2.61,1.12-3.99,1.47-3.84.98-6.78,3.69-8.02,7.36-.34.06-.58-.08-.65-.18-.15-.23.9-7.35,8.02-8.13l4.64-.51Z" fill="#ae665e" opacity=".81"/>
  <path d="M138.63,44.29c-4.04,1.3-7.27,3.91-8.99,7.76-.19.42-.75.01-.84-.15-.18-.32-.15-.64.04-1.1,1.61-3.9,5.11-6.35,9.37-6.7.22-.68.99-.14.42.19Z" fill="#ae665e" opacity=".81"/>
  <path d="M140.81,48.53l-4.07,2.7c-1.21.8-2.7,1.25-3.98.82l.15-.17c2.14-1.91,5-3.3,7.9-3.35Z" fill="#ae665e"/>
  <path d="M155.41,40.89c-3.71-2.55-8.51-2.43-12.38-.12-.93.55-1.7.8-2.25,1.92-.29.37-1.37.41-1.58,1.15,1.52-.33,2.83-.51,4.38-.28-.26.58-.65.61-1.25.57-3.83-.24-10.54,3.55-12.12,7.89.66.37,1.75.34,2.34-.14.09-.07.14-.2.15-.31,2.67-2.72,6.23-3.4,9.83-3.96,4.07-.62,8.32-.44,11.44,2.69,1.14-.78,2.24-1.68,3.08-2.9,1.58-2.28.58-4.97-1.65-6.5ZM140.49,46.34c-2.27.11-4.38,1.17-6.27,2.38l-1.65,1.6-.23-.23c2.25-3.47,8.75-5.23,13.14-3.99l-5,.25Z" fill="#ae665e" opacity=".81"/>
  <path d="M156.15,60.98c-3.58,3.5-7.53,6.24-10.71,10.07-5.94-.97-12.25-3.1-15.5-8.06-2.01-3.07-3.01-6.73-2.7-10.42,1.14,1.09,1.74,1.91,2.81,2.57,8.6,5.31,19.84,1.01,27.18-5.65,1.88,3.02.64,9.81-1.07,11.48Z" fill="#ae665e" opacity=".81"/>
  <path d="M154.09,170.8c-1.18-.07-1.93-.69-3.05-1.08l-.66-3.06,2.62.72c-.83-.62-1.63-.9-2.75-1.16l-1.62-5.84c1.06.11,1.79.11,2.64-.45l1.15,3.83c-.77.47-1.48.32-2.41.31.61.79,1.55.34,2.51.05l1.57,6.67Z" fill="#ae665e" opacity=".43"/>
  <path d="M148.17,151.24c-1.31.58-2.94.3-3.37-1.17.79-.27,1.64-.72,2.51-.65.5.21.74,1.22.86,1.82Z" fill="#ae665e" opacity=".43"/>
  <path d="M150.96,159.48c-.19.62-1.7.85-2.44.38-.36-.23-.21-.89-.36-1.31l-2.58-6.84c.92.08,1.71.33,2.71-.08l2.2,5.98-2.11.56c.68.58,1.5-.03,2.13-.02.44.25.54,1.03.45,1.33Z" fill="#ae665e" opacity=".43"/>
  <path d="M147.2,254.27c-.31.91-.93,1.31-1.78.99-1-.37-.74-1.05-.41-2,8.59-25.4,11.79-53.09,6.79-79.67.59-.1.91.28,1.19.41l.25-.27c-.42-.36-.93-.58-1.56-.87l-.57-2.79c1.17.64,1.8,1.07,3.07,1.11,5.23,27.95,1.99,56.19-6.99,83.08Z" fill="#ae665e" opacity=".43"/>
  <path d="M203.17,148.03l5.2,1.36c5.28,1.38,10.17,1.54,10.94,8.46.44-.99.85-2.22.78-3.16-1.62-5.46-6.46-7.15-12.09-7.45-3.95-.21-7.1-2.31-10.87-2.57-9.22,1.73-17.57,6.16-24.23,12.71-9.06,8.9-13.19,21.07-14.85,33.49l.07,5.38,7.65-10.39c11.12-15.1,26.38-25.52,44.5-31.25-1.02-1.19-2.67-1.47-4.01-2.2-2.97-1.61-5.93-2.67-9.47-2.36,1.55-1.29,5.58-.08,7.93,1.1,2.07,1.04,4.3,1.66,6.07,3.3.86-.28,1.43-.82,2.4-.45l-4.79,2.34c2.72,1.72,3.73,4.55,3.7,7.64-.07,6.59-2.97,12.7-7.16,17.74.6-1.85,1.87-3.06,2.81-4.72,3.64-6.44,6.75-16.63.01-20.44l-3.72,1.53c.98.75,1.77,1.41,2.11,2.32l.17.19c.69,1.24,1.22,2.92.96,4.48-.39,2.31-.79,4.46-1.99,6.39-.09-1.3.62-2.22.96-3.38.72-2.48.8-5.06-.15-7.32-.02-.05-.04-.14-.22-.31-.61-.54-1.3-1.85-2.25-1.96-1.09-.12-2.27.8-3.09,1.29.61.25,1.01.34,1.36.59l.24.17c3.65,2.61,2.88,7.37,1.32,11.53.51-4.49,2.27-8.36-1.72-11.3-.03-.04-.08-.13-.2-.18l-1.61-.58c-13.1,5.49-25.36,16.03-33.77,27.45l-7.23,9.81c6.27,1.24,12.41,2.29,18.83,2.15,16.24-.35,29.17-9.36,36.03-23.82,3.28-6.92,5.11-14.94,1.12-21.32,3.2,2.58,2.85,8.09,2.44,12.26.91-1.66.97-3.53,1.53-5.34,1.05-3.38-1.12-8.65-4.31-9.61l-4.28-1.29c-2.4-.72-4.85-.95-7.22-1.8-3.87-1.38-7.52-.59-11.26,1.27,3.04-2.91,7.49-2.76,11.36-1.75ZM203.04,172.93c-.41,1.82-1.09,3.75-2.94,4.95,1.1-1.49,1.89-3.21,2.94-4.95ZM171.39,194.98c-1.08-.26-2.55.43-3.67-.53.96-.36,2.04.15,3.13.14l5.77-.07c8.02-.49,15.55-3.1,21.83-8.21l4.48-4.34.25.25-4.27,4.28c-6.28,5.35-14.25,8.04-22.49,8.56-1.8.11-3.16.38-5.02-.08ZM210.75,177.33c-6.52,11.34-18.48,18.87-31.48,20.13-2.07.2-3.69.51-5.6.11l3.98-.38c18.65-1.79,33.98-13.75,36.75-32.34.03,4.45-1.41,8.59-3.65,12.48ZM214.6,161.13c.18,1.08.79,2.41-.32,3.42.13-3.3-.37-6-2.23-8.7,1.9,1.06,2.22,3.27,2.55,5.28ZM191.74,148.21c.95-1.55,2.78-1.44,4.22-1.08-1.53.15-2.65.62-4.22,1.08Z" fill="#ae665e" opacity=".43"/>
  <path d="M231.36,60.15l-3.54-2.69c-2.17-1.65-5-2.29-7.4-3.31.82-.37,1.57.06,2.28.34l3.74,1.44c-.52-.74-.96-1.74-1.72-2.18-3.22-1.84-6.78-2.28-10.26-3.33,3.48-.1,6.42,1.32,9.79,2.41-3.83-5.38-9.83-6.66-16.25-6.31-.16,8.67-3.09,17.54-7.31,25.24,5.2-1.15,11.28.21,15.8,2.28l-9.71-1.74c-2.27-.41-4.77-.22-6.76,1-.85.76-1.27,2.03-1.93,3,2.23-.54,4.29-.67,6.55-.35,5.3.75,10.42,2.08,15.2,4.38-7.4-1.51-16.3-5.41-22.86-2.38-6.34,10.15-14.8,18.32-24.69,24.89-8.83,5.86-15.32,11.13-21.87,19.92l12.1-1.49c13.64-1.68,33.37-7.1,44.11-15.67,1-.8.95-2.36,1.17-3.67.68.68.31,1.65-.05,2.65.89-.38,2.22-1.09,2.23-2l.04-2.41c.05.01.25.05.35.05l.16,2.2,1.72-1.68c-.34-1.92-1.53-3.3-2.07-5.28,1.27,1.36,1.75,3.01,2.53,4.86,2.42-2.45,4.55-5.02,6.42-7.92-.52-1.03-1.16-1.77-1.43-2.85,1.02.53,1.1,1.41,1.53,2.32.52-.4.88-.9,1.08-1.51-.68-.77-1.39-1.49-1.43-2.63l1.69,2.29,6.04-11.21c1.28-2.38,2.24-4.51,2.52-7.25.74,1.29-.09,2.28-.09,3.57.61-.62,1.42-1.27,1.66-2,1.43-4.4-.03-8.84-3.91-11.28-4.14-2.97-8.97-4.02-14-5.14,6.07.07,16.24,3.88,18.29,9.48.73,1.99.54,4,.45,6.15l1.62-1.03c1.31-11.14-8.36-13.68-17.76-16.35,5.14.38,9.99,2.46,14.14,5.38,3.34,2.35,4.59,6.42,4.2,10.32,3.06-1.23.88-8.04-2.4-10.53ZM207.59,101.17l-2.19-4.53c.69-.23,2.57,2.98,2.19,4.53ZM203.93,90.26c2.31,1.13,4.48,2.59,5.96,4.9l-5.96-4.9ZM209.74,88.54l-7.36-3.78c1.89.05,3.25,1.23,4.8,1.97,1.94.93,4,1.64,5.11,3.53l-2.55-1.72ZM213.74,98.71c-.63-1.49-.95-2.67-1.37-4.18,1.02,1.11,1.59,2.59,1.37,4.18ZM216.17,94.98c-.71-1.5-1.64-2.54-2.65-3.99,1.45.57,1.97,2.04,2.85,3.52.68.2.23.99-.21.47ZM221.5,77.57c2.35-4.26,2.91-9.04-1.5-12.04,2.37.46,3.13,2.61,3.77,4.75.06,2.46-.07,5.37-2.27,7.29ZM223.22,78.48l2.37-5.48c-.08,2.21-1.02,3.93-2.37,5.48ZM225.79,72.65l-.28-4.51c-.55-2.1-2.4-3.04-3.91-4.54,3.82,1.3,5.53,5.47,4.19,9.05ZM229.28,70.17c-.88-.97-.44-2.23-1.04-3.24-2.76-4.64-7.98-6.11-12.83-7.9,5.68.58,14.53,5.32,13.87,11.14Z" fill="#ae665e" opacity=".81"/>
  <path d="M171.38,121.16c-5.41.99-10.58,1.97-16.05,2.45-.74.07-1.33.43-1.95.62-9.73,1.1-19.16,2.78-28.69,5.07l-8.94,2.15c2.66,4.07,7.17,5.13,10.79,7.5-4.23-1.23-9.94-3.58-11.55-7.47l-4.82.83,4.72,3.37,15.74,10.23c5.59,3.63,12.62,3.99,18.59,1.13,3.82-1.83,7.65-3.68,11.9-3.64,2.02.02,3.5.03,5.42-1.28l3.96-2.7c-1.1,2.01-3.25,2.5-5.14,3.81.58.26,1.66.49,2.27.17,4.15-2.21,7.48-5.64,9.66-9.78,1.59-3.05,1.93-6.14,2.93-9.47-.42,8.35-4.37,14.64-11.6,19.25,3.03.6,4.83-1.3,4.78-1.35l.57.51c3.94-1.46,7.4-5.64,9.3-9.53l4.26-8.73c1.59-3.26,3.15-6.29,5.34-9.36-7.15,2.7-14.06,4.86-21.49,6.22ZM139.54,144.41s.15-.17.14-.39l5.43-.75c.08.24.04.43-.15.56l-5.42.58ZM155.15,143.92l-11.41,1.88c-.14-.17-.19-.26-.22-.45l8.8-1.37c4.44-.69,8.25-2.27,12.36-4.16-2.82,2-6.09,3.54-9.53,4.1ZM163.5,138.43c-4.89,2.71-10.05,4.33-15.76,4.56-.28.67-1.04.09-.5-.26,7.5-.68,13.28-2.75,19.49-6.7.74-.47,1.02-1.51,2.05-1.76-1.14,2.19-3.26,3.03-5.28,4.16ZM164.95,135.51c-3.48,2.07-7.05,3.67-10.97,4.81-4.51,1.31-8.93,2.33-13.59,3.1l-6.31.1c.61-1.35,1.72-.26,2.3-.31,1.29-.11,2.25-.5,3.46-.27,1.09.21,1.89-.44,2.85-.6,5.49-.95,10.8-2.01,15.94-4.18,2.83-1.19,5.66-2.4,7.9-4.51,2.37-2.23,2.43-5.54,2.53-8.72.78,4.36-.13,8.21-4.11,10.58ZM172.93,128.82c.14-.13.28-.14.36-.1-.39,1.63-1.07,3.27-1.78,4.76-.06.09-.26.23-.42-.03l1.85-4.64ZM171.14,136.38l3.08-5.27c-.37,2.01-1.42,3.89-3.08,5.27ZM178.31,136.37c2.36-4.69,3.58-9.47,4.17-14.87.33,5.09-1.07,10.5-4.17,14.87Z" fill="#ae665e" opacity=".81"/>
  <path d="M160.9,9.69c-.83.53-1.36,1.07-2.49.87,1.95-1.75,4.22-2.39,6.7-3.19-3.18-.76-5.98-.68-8.7-.52l-4.03.24c-2.65,2.31-5.14,4.52-7.14,7.42-.64.93-.91,2.12-2.07,2.66,1.92-3.84,4.63-6.82,7.93-9.57-2.95.03-5.63,1.91-5.46,2.06l-.53-.44c-5.48,2.2-10.58,5.61-15.07,9.86l6.89,1.96c4.03,1.15,8.21,5.04,8.05,5.18l.63-.53c2.01-1.04,4.22-1.4,6.46-1.89.56-1.03.92-2.09,1.57-2.9.06-.07.12-.14.17-.29.81-1.73,2.11-3.02,3.29-4.48l1.53-1.9c2.98-4.19,7.98-5.81,12.92-5.19-4.2-1.96-6.82-1.79-10.63.65ZM147.94,22.92c-.12.22-.49.21-.62.11l3.17-5.57.3.24-2.85,5.22ZM144.98,22.77c1.91-4.13,4.57-8.35,8.26-11.45-3.14,3.54-5.35,7.34-8.26,11.45ZM156.8,13.68c-.85,1.09-1.49,2.17-2.74,2.82.58-1.2,1.26-1.86,2.02-2.62l2.66-2.64c-.18,1.23-1.3,1.62-1.94,2.44Z" fill="#ae665e" opacity=".81"/>
  <path d="M162.15,99.69c-5.56-6.63-15.01-10.12-23.42-10.79l-11.19-.9c-3.22-.26-6.33-1.51-8.54-3.82l-4.55-4.75c-1.97-2.06-4.18-3.59-7.16-3.7-4.13-.16-7.42-2.84-8.15-7.05-.72-4.19.39-8.38,2.15-12.25,4,6.85,11.34,11.06,18.7,13.19,12.34,3.56,26.46,9.78,35.41,19.06,2.96,3.22,5.4,6.66,6.76,11.02Z" fill="#ae665e" opacity=".81"/>
  <path d="M188.23,32.99l-3.03-7.34c-1-2.43-2.36-4.72-3.89-6.89-2.14-3.05-6.86-7.27-10.26-7.33,3.25,1.38,5.66,3.31,7.6,5.86.03.04.09.08.13.1l3.78,5.39c1.18,2.17,2.26,4.29,3.11,6.58-1.61-1.36-1.77-3.29-2.66-4.84l-1.26-2.17-3.25-4.66-.21-.21c-2.24-2.32-4.49-4.65-7.66-5.66-3.34-1.07-6.16.83-9.36,2.59,3.27-3.33,8.78-4.65,13.15-2.37,4.99,2.6,8.43,6.99,10.61,12.03l3.12,7.22c.18-1.86-.74-3.25-1.16-4.81-1.64-6.04-6.77-13.27-12.53-15.95-6-2.79-12.81-.2-16.35,5.06-1.33,1.98-3.11,3.32-4.1,5.35-.11,0-.21.09-.23.24-.1.91-.67,1.37-1.15,2.28,2.85.85,2.11-1.63,3.97-2.89-.15,1.03-.72,1.66-1.34,2.62.65.57,1.83.43,2.27-.38.43-.77.73-1.49,1.57-1.93l-1.37,2.56c2.9.24,5.57.84,7.82,2.4,2.38,1.66,4.45,3.36,5.91,5.89,2.76,4.16,3.36,9.26,1.45,13.98,1.84,3.54,3.06,7.08,3.52,11.22,2.27-3.65,3.74-7.45,5.39-11.42.14,2.46-1.27,4.19-2.01,6.38,1.33-.76,2.01-1.98,2.61-3.35,1.76-4,2.71-8.13,3.65-12.42.16-.76.19-1.51.77-1.97.33.75-.13,1.31-.22,1.92-.63,4.44-1.71,8.51-3.41,12.68,4.36-3.96,7.12-10.69,5.03-15.77ZM158.24,19.25c.28-1.66,1.84-2.64,3.19-2.92l-3.19,2.92ZM183.14,29.48l-1.95-3.46c-2.68-4.74-6.86-11.32-12.2-11.92-2.39-.27-4.14,1.29-6.25,2.17,1.24-1.67,3.5-2.57,5.69-2.71,5.57-.36,11.18,8.09,13.79,13.3,1.18,2.34,2.78,4.4,3.19,7.15-1.16-1.28-1.38-2.96-2.27-4.53Z" fill="#ae665e" opacity=".81"/>
  <path d="M137.54,22.85c-4.63-1.75-9.43-2.8-14.18-3.53l3.41,1.4-4.79-.89c-3.87-.72-7.41.52-11.33,1.41,2.83-1.78,6.09-1.57,9.47-2.32-6.44-.66-10.79-.21-16.45,3.27-1.06.66-1.79,1.49-2.61,2.42l-.58-.65c-1.05.55-1.48,1.52-2.35,2.35-6.29,5.96-9.04,14.94-7.03,23.48l4.56.39c.59.09.47.59-.08.51-1.53-.31-2.82-.56-4.23-.17.92,2.56,2.13,4.75,3.99,6.53.43.41,1.49.07,2.13.09-.32.44-.71.38-1.49.63.77.92,1.45,1.62,2.55,2.13.66-2.22,1.57-5.11,2.73-5.31.19-.03.63.08.77.38,1.17,2.55,2.94,4.63,5.22,6.27-2.61-5.05-5.18-9.73-7.1-14.79-.02-.07-.08-.13-.14-.17-.18.33-.18.71-.05,1.14l1.72,5.93c-1.81-3.39-3.05-7.48-2.62-11.56.68-6.41,2.3-13.86,8.07-17.01,4.9-2.68,10.66-3.65,16.09-2.7-7.61-.23-17.27,1.15-20.86,8.44-2.02,4.11-3.86,11.93-2.17,15.58.04.09.1.15.2.15l5.8,11.35,3.55,5.5c-.42-2.03-2.09-3.3-1.76-5.54,1.01,2.3,1.66,4.5,3.33,6.51-1.17-4.95.32-9.11,3.67-12.87-2.12-1.88-4.06-3.95-4.22-6.8-.29-4.82,2.69-8.77,6.84-10.96-1.44-.24-2.53.45-3.87.73,1.22-1.43,3.21-.91,4.8-1.46l4.4-1.51c-2.36-.5-4.42-.18-6.55.01-2.37.22-4.03,1.41-5.99,2.79,3.07-4.39,9.86-3.63,15.15-3.31,1.9.11,3.68-.23,5.73-.28-2.1-.55-4.09-1.24-6.33-1.42l-3.7-.31c-4-.33-7.61.7-11.23,2.48,2.2-2.58,7.13-3.02,10.67-2.96,4.59.08,9.02.87,13.37,2.41l3.21.46c1.86-1.76,3.88-2.99,6.07-4.16-1.61-2.04-3.55-3.22-5.82-4.08ZM92.63,39.4c.52-3.02.95-6.08,2.62-8.64-1.33,4.2-2.56,8.02-2.18,12.49-.91-1.19-.68-2.49-.44-3.85ZM94.62,41.96c-.02-1.58-.21-3.2.84-4.41l-.31,2.81c-.41,3.69.24,5.94.56,9.13-1.38-2.39-1.07-4.98-1.1-7.53ZM95.4,37.41c-.19-2.19.54-4.13,1.37-6.01.77-1.76,1.12-3.78,2.92-4.94-2.27,3.5-3.3,7.05-4.29,10.95ZM103.14,25.64c-2.27,2.47-3.67,5.15-4.5,8.32-1.28,4.82-1.69,9.47-.83,14.58-.98-.97-.53-2.3-.81-3.37-.4-1.52-.21-2.75-.05-4.22.48-4.47,1.31-8.9,3.7-12.77l2.16-2.81c1.11-1.45,5.04-3.75,7.37-4.07-2.5,1.4-5.13,2.27-7.04,4.35ZM130.69,23.19c-.16.72-.67.5-.88.28l-6.31-1.43c2.59-.23,4.8.6,7.2,1.15ZM109.52,26.24c3.23-2.51,10.6-3.25,14.55-2.07-1.92.51-3.71-.17-5.45-.05-5.07.34-8.01,1.83-12.45,4.58.53-1.42,2.25-1.61,3.35-2.46ZM101.14,42.49c.49-3.47.73-7.35,3.27-10.27-1.33,3.45-2.88,6.78-2.67,10.8-.29.2-.66-.15-.6-.53ZM105.62,33.85c-.83,2.49-1.61,4.88-1.96,7.63-.4,3.13.88,5.9,1.26,9.07-2.53-5.3-2.25-11.66.7-16.7ZM105.83,41.63c-.33,1.95.45,3.5.26,5.48-1.45-4.27-.63-9.27,2.12-12.96-.99,2.51-1.91,4.73-2.38,7.48ZM105.22,31.81c.86-1.72,2.63-2.64,4.44-3.31,2.1-.78,4-2.18,6.46-1.84-3.79,1.21-7.55,2.17-10.9,5.16ZM124.98,26.8l-7.8-.35c.38-.62,1.36-.24,1.71-.45,1.12-.66,2.08-.67,3.09,0,3.83.41,7.62.89,11.34,2.23l-8.34-1.42ZM133.31,26.34c-.77.22-1.57-.38-2.22-.69-1.24-.59-2.55-.28-3.84-1.12,2.02-.09,3.65.44,5.58.89.35.08.79.31.48.93Z" fill="#ae665e" opacity=".81"/>
  <path d="M203.17,182.21l-4.27,4.28c-6.28,5.35-14.25,8.04-22.49,8.56-1.8.11-3.16.38-5.02-.08-1.08-.26-2.55.43-3.67-.53.96-.36,2.04.15,3.13.14l5.77-.07c8.02-.49,15.55-3.1,21.83-8.21l4.48-4.34.25.25Z" fill="#ae665e"/>
  <path d="M214.4,164.85c.03,4.45-1.41,8.59-3.65,12.48-6.52,11.34-18.48,18.87-31.48,20.13-2.07.2-3.69.51-5.6.11l3.98-.38c18.65-1.79,33.98-13.75,36.75-32.34Z" fill="#ae665e"/>
  <path d="M195.96,147.13c-1.53.15-2.65.62-4.22,1.08.95-1.55,2.78-1.44,4.22-1.08Z" fill="#ae665e"/>
  <path d="M119.11,116.8c-3.49-1.5-6.7-4.94-7.74-8.99,1.89,3.65,4.23,6.25,7.74,8.99Z" fill="#ae665e"/>
  <path d="M115.65,116.44c-3.26-2.42-6-6.36-6.77-10.71,1.41,4.01,3.68,7.2,6.77,10.71Z" fill="#ae665e"/>
  <path d="M128.73,90.02c-3.33.45-6.09.76-9.38,1.77,2.82-1.76,6.23-1.95,9.38-1.77Z" fill="#ae665e"/>
  <path d="M111.88,81.94c-2.42,1.03-3.9,2.8-6.02,4.38,1.19-2.13,3.45-3.33,5.52-4.68.4-.26.64.24.5.3Z" fill="#ae665e"/>
  <path d="M108.67,104.84c-.89-1.45-.54-3.49.45-4.99l-.45,4.99Z" fill="#ae665e"/>
  <path d="M117.22,90.91c-1.59.61-2.2,1.71-3.64,2.53.53-1.26,1.73-1.93,2.94-2.66.19-.36.7-.31.7.13Z" fill="#ae665e"/>
  <path d="M78.84,86.92l-6.92,2.99c-3.27,1.41-5.88,3.66-8.73,5.89,2.86-4,10.57-7.83,15.64-8.88Z" fill="#ae665e"/>
  <g>
    <path d="M243.34,64.22c-6.6-4.41-12.52-3.81-17.67-11.74-3.96-6.09-10.41-7.79-17.67-7.25-.12-3.99-.85-7.93-2.39-11.72-1.45-3.59-4.21-5.88-7.69-7.52-3.07-1.76-6.73-2.04-10.39-2.25-3.12-7.33-8.18-13.35-15.85-16.08-15.93-5.67-31.51-.57-43.24,11.05-5.24-.96-10.27-1.91-15.58-1.24-14.38,1.81-25.09,15.1-23.71,29.69-9.48,3.4-18.59,10.98-17.79,21.44.12,2.94.93,5.6,2.08,8.5-3.46.97-6.67,2.29-9.22,4.8-1.45,1.43-2.36,3.26-3.25,5.09-3.3,6.85-7.96,10.23-14.59,13.61-.59.3-.72.83-.62,1.19.53,1.92,3.17-1.26,8.34.21,5.46,1.56,10.38,4.48,14.07,8.8l3.71,4.36c2.69,3.15,5.19,6.22,8.25,9.09,6.66,6.27,18.52,8.65,27.76,8.11,4.63,3.58,9.33,6.59,14.21,9.71l9.07,5.76c3.83,2,7.94,2.82,12.22,2.31,6.89,15.76,9.91,35.8,9.41,52.89-.5,17.01-3.59,33.64-9.02,49.68-.58,1.72-.32,3.27,1.32,3.79,1.8.57,2.91-.48,3.46-2.11,6.08-18.11,9.45-36.86,9.48-55.91,5.67,1.32,11.09,2.12,16.8,2.37,14.94.67,28.68-6.18,36.82-18.73,9.92-15.31,11.89-34.2,9.92-52.18-.06-.56-.15-.95-.53-1.18-.34-.21-.9-.13-1.22.26l-4.87,5.97c-4.17,4.26-9.43,6.59-15.32,7.61-9.54,1.65-18.32,5.53-25.64,11.8-4.2,3.86-7.64,8-10.21,13.08-3.17,5.58-4.83,11.54-6.23,17.77-1.31-12.88-3.89-24.77-8.86-36.38l3.96-1.88c3.9-1.85,8.2-2.56,12.61-2.14,4.48.42,8.83-.02,12.51-2.77,3.02-2.25,5.2-5.25,6.84-8.64l4.34-8.95c1.84-3.8,3.73-7.36,6.41-10.66,11.59-5.14,21.74-13.71,27.58-25.06l4.31-8.37c3.58-6.95,9.02-10.21,16-13.43.65-.3,1-.73,1-1.34,0-.6-.32-1.02-.92-1.43ZM203.04,143.33c2.84.8,5.61,1.73,8.62,1.83,1.66.05,2.83,1,4.45,1.49-2.7-2.83-7.86-1.46-12.24-3.62,7.52-2.02,12.2-6.22,16.46-12.32l.56,9.35c-1.39-.82-2.2-1.84-3.65-2.07l3.54,2.73c.45.35.33,1.6.06,2.03-.06.1-1.23.46-.62.49.1,0,.59.21.58.36l-.14,5.91-1.77-3.03c-.11-.18-.27-.14-.32-.09l1.81,4.01c.39.86.15,2.01-.33,2.97-2.01-4.78-6.5-6.19-11.55-6.58-1.81-.14-3.44-.49-5.18-1.02l-4.75-1.45,4.46-.97ZM172.91,157.37c6.66-6.55,15.01-10.98,24.23-12.71,3.77.26,6.92,2.37,10.87,2.57,5.63.3,10.47,1.99,12.09,7.45.07.94-.34,2.17-.78,3.16-.77-6.92-5.66-7.08-10.94-8.46l-5.2-1.36c-3.88-1.01-8.32-1.16-11.36,1.75,3.73-1.86,7.38-2.64,11.26-1.27,2.38.85,4.82,1.08,7.22,1.8l4.28,1.29c3.19.96,5.36,6.24,4.31,9.61-.56,1.81-.62,3.68-1.53,5.34.41-4.17.76-9.68-2.44-12.26,3.98,6.38,2.16,14.4-1.12,21.32-6.86,14.46-19.8,23.48-36.03,23.82-6.42.14-12.56-.91-18.83-2.15l7.23-9.81c8.41-11.42,20.68-21.97,33.77-27.45l1.61.58c.12.04.17.14.2.18,3.99,2.94,2.23,6.81,1.72,11.3,1.56-4.16,2.34-8.92-1.32-11.53l-.24-.17c-.35-.25-.75-.34-1.36-.59.82-.49,2-1.41,3.09-1.29.95.11,1.64,1.42,2.25,1.96.18.17.2.26.22.31.95,2.25.87,4.84.15,7.32-.34,1.16-1.05,2.08-.96,3.38,1.2-1.93,1.6-4.08,1.99-6.39.26-1.57-.27-3.24-.96-4.48l-.17-.19c-.33-.91-1.13-1.57-2.11-2.32l3.72-1.53c6.73,3.81,3.62,14-.01,20.44-.93,1.66-2.21,2.87-2.81,4.72,4.19-5.05,7.08-11.15,7.16-17.74.03-3.09-.98-5.91-3.7-7.64l4.79-2.34c-.97-.37-1.54.17-2.4.45-1.77-1.64-4-2.26-6.07-3.3-2.35-1.18-6.38-2.4-7.93-1.1,3.54-.31,6.5.76,9.47,2.36,1.34.72,2.99,1.01,4.01,2.2-18.12,5.72-33.37,16.14-44.5,31.25l-7.65,10.39-.07-5.38c1.66-12.43,5.79-24.59,14.85-33.49ZM206.22,42.84c.24,1.67.82,3.25.22,4.78-.96-2.29-1.31-4.68-3.55-5.85,1.09,1.77,2.22,2.88,2.66,4.82.25,1.08.99,2.19.84,3.44-1.36,12.06-7.26,23.56-14.96,33.28l3.16-7.37,2.26-6.14-2.7,5.41-5.45,10.96c-1.09,2.2-3.01,3.81-4.93,5.51,3.34-11.42,3.18-18.14-.12-29.08-1-3.31-2.1-6.31-2.78-9.73,3.36-2.53,5.56-5.6,7.9-8.8,1.35-1.58,4.56-1.68,6.42-1.82,5.91-.45,7.66,5.17,8.33,10.69.59,4.86-1.08,9.15-3.89,13.29,5.42-4.69,5.54-15.29,2.03-21.34-2.42-4.18-8.06-3.86-12.66-1.72l1.14-4.44c2.34-.78,4.54-1.05,7.02-1.23-2.27-.5-4.52-.13-6.84.79-.26-.57-.19-1.62.18-1.98,4.85-1.45,12.14-1.33,14.99,2.2.97,1.2.5,3,.7,4.35ZM181.41,94.02l-3.03,2.6c-.04-2.54-.2-4.81-.64-7.34-1.09-6.21-2.28-12.32-5.04-17.95,2.15,8.57,4.94,17.14,4.62,26.1l-11.85,8.55c-1.27-4.94-2.64-9.49-5.42-13.64-3.19-4.76-7.38-8.44-12.29-11.83,3.28-6.4,9.16-10.74,16.14-12.62,2.66-.72,5.27-1.38,7.66-2.5,2.67-1.26,3.88-3.26,4.92-5.73l3.27-5.48,3.33,11.14c2.4,8.03,2.39,16.28-.28,24.46-.41-4.92-.8-9.94-2.3-14.74.36,4.82,2.61,17.54.91,18.99ZM129.48,123.17c.44,1.21.78,2.11,1.69,3.22l-3.98.62c-.71.11-1.63-.76-2.21-1.11-.74-.44-.74-1.41-1.12-2.04-2.17-3.66-3.55-7.42-5.06-11.36.33,4.22,2.32,7.78,4.11,11.53.12.25-.43.46-.55.31-.08-.1-.18-.33-.27-.55-5.85-4.13-10.94-8.76-14.11-15.28-.63-1.3-.8-2.75-1.07-4.18-.67-3.44.44-6.68,2.58-9.43l4-4.17-.25-.25-4.05,4.1c-2.4,3.04-3.43,6.38-2.82,10.34-.65-1.54-1.56-3.12-1.6-4.82-.06-2.46,1.3-4.87,2.96-6.59l3.59-3.71-.25-.25-3.92,3.94c-1.47,1.48-2.2,3.36-2.78,5.22l-.69-3.21c.86-1.47,1.96-2.6,3.07-4.21-1.5.61-2.09,2.13-3.07,3.36-1.6-3.41,1.84-3.94,3.52-7.27-1.83,1.14-2.51,2.81-4,4.24-.36-1.12-.25-2.22.41-3.07-.27.1-.71,0-.72-.15l-.11-1.84,3.62-3.78c-1.56.58-2.22,1.94-3.56,3.12-.25-3.3-.04-6.29.16-9.79,3.13,1.28,6.8.59,9.17,3.11l3.3,3.5c3.28,4.06,7.79,6.49,13.03,6.85l9.8.67c10.24.7,23.12,6.16,26,16.6l-6.04,4.98c-3.86,3.19-6.78,7.23-9.85,11.26l-3.65.49c-.9.12-1.5.48-2.25.62l-10.29,1.93c-1.15-1.53-1.74-3.07-2.4-4.82-2.97-7.79-4.2-15.87-5.69-23.99.27,8.97,2.33,17.57,5.34,25.85ZM139.04,31.52c3.28-3.03,7.1-4.36,11.12-5.59,3.66-1.32,7.86-1.51,11.45-.2,6.51,2.36,11.28,7.96,11.04,15.01-.27,7.89-7.94,14.22-14.14,18.67l.93-4.09c.54-2.38-.02-4.75-1.35-6.84,1.82-2.77,1.23-6.2-1.32-8.29-3.74-3.08-8.81-3.34-13.22-1.32l-3.94,2.17-5.78.78c-2.79.38-5.03,2.26-6.34,5.01-2.95,6.2-1.86,13.08,2.55,18.57-6.02-2.57-12.59-5.56-13.15-12.58-.13-1.64-.86-2.77-2.08-3.82-1.61-1.39-2.8-3.36-2.69-5.53.33-6.5,7.11-10.44,13.62-11.28,4.07-.53,8.18-.3,12.21.5l6.77,1.34c-1.84-1.31-3.68-1.9-5.68-2.51ZM138.52,51.78l4.52-2.67c3.39-.88,6.98-.31,9.87,2-2.25,1.67-4.76,2.98-7.53,3.83-2.08-.07-4.06.2-6.03,1.3-3.31-.02-6.23-.71-8.98-2.61,3.2.24,5.61-.35,8.15-1.85ZM132.76,52.04l.15-.17c2.14-1.91,5-3.3,7.9-3.35l-4.07,2.7c-1.21.8-2.7,1.25-3.98.82ZM142.53,47.61c-3.61.55-7.16,1.23-9.83,3.96-.02.11-.06.24-.15.31-.59.48-1.68.51-2.34.14,1.58-4.34,8.29-8.14,12.12-7.89.61.04,1,0,1.25-.57-1.55-.22-2.86-.05-4.38.28.21-.74,1.29-.78,1.58-1.15.55-1.11,1.32-1.36,2.25-1.92,3.87-2.31,8.68-2.42,12.38.12,2.23,1.53,3.23,4.22,1.65,6.5-.85,1.22-1.95,2.12-3.08,2.9-3.12-3.13-7.37-3.31-11.44-2.69ZM129.64,52.04c-.19.42-.75.01-.84-.15-.18-.32-.15-.64.04-1.1,1.61-3.9,5.11-6.35,9.37-6.7.22-.68.99-.14.42.19-4.04,1.3-7.27,3.91-8.99,7.76ZM136.2,43.87c-3.84.98-6.78,3.69-8.02,7.36-.34.06-.58-.08-.65-.18-.15-.23.9-7.35,8.02-8.13l4.64-.51c-1.21.99-2.61,1.12-3.99,1.47ZM130.05,55.15c8.6,5.31,19.84,1.01,27.18-5.65,1.88,3.02.64,9.81-1.07,11.48-3.58,3.5-7.53,6.24-10.71,10.07-5.94-.97-12.25-3.1-15.5-8.06-2.01-3.07-3.01-6.73-2.7-10.42,1.14,1.09,1.74,1.91,2.81,2.57ZM157.73,61.7l8.16-6.4c2.8-2.19,4.79-5.02,6.34-8.13,2.71,6.41,5.3,13.49-1.08,16.81-2.28,1.31-4.83,1.78-7.41,2.47-7.29,1.96-13.45,6.32-17.09,13.26l-4.33-2.5c4.01-5.98,9.75-11.06,15.41-15.52ZM115.5,52.55c.87,9.11,8.53,11.79,16.18,15.21,4,2.11,7.95,3.8,12.6,4.53l-3.13,4.33c-6.76-3.65-13.81-6.4-21.24-8.53-2.17-.62-4.07-1.34-6.08-2.3-2.74-4.2-1.58-9.03,1.66-13.24ZM119.97,69.61c12.34,3.56,26.46,9.78,35.41,19.06,2.96,3.22,5.4,6.66,6.76,11.02-5.56-6.63-15.01-10.12-23.42-10.79l-11.19-.9c-3.22-.26-6.33-1.51-8.54-3.82l-4.55-4.75c-1.97-2.06-4.18-3.59-7.16-3.7-4.13-.16-7.42-2.84-8.15-7.05-.72-4.19.39-8.38,2.15-12.25,4,6.85,11.34,11.06,18.7,13.19ZM192.19,25.62c.84.09,1.62.57,2.56.98-1.65.21-3.24-.04-4.89.91l5.77-.48c1.19-.1,2.36.36,3.14,1.23-1.05.01-1.88-.24-2.67.29l3.42.2c1.12.07,1.95,1.12,2.62,2.04-3.51-.51-6.82-.45-10.33.37.92.67,1.91,0,2.88,0l5.3-.07c2.45-.03,3.42.61,4.27,2.87-3.48-1.76-8.08-1.6-11.76-.82,1.15.4,2.14.04,3.2-.08,3.05-.36,6.05.29,8.82,1.53.46,1.02.79,1.93.98,3-2.7-1.89-5.86-3.11-9.11-2.64-2.06.3-3.97.38-6.12.92.27-3.83-1.76-6.36.19-6.45-.32-.3-.7-.27-1.23-.24l-1.06-4,4.03.44ZM174.45,10.52c5.77,2.68,10.9,9.91,12.53,15.95.42,1.56,1.34,2.95,1.16,4.81l-3.12-7.22c-2.17-5.03-5.62-9.43-10.61-12.03-4.37-2.27-9.88-.96-13.15,2.37,3.19-1.76,6.02-3.66,9.36-2.59,3.18,1.01,5.43,3.34,7.66,5.66l.21.21,3.25,4.66,1.26,2.17c.9,1.55,1.06,3.48,2.66,4.84-.85-2.29-1.93-4.41-3.11-6.58l-3.78-5.39s-.1-.05-.13-.1c-1.94-2.55-4.36-4.48-7.6-5.86,3.4.05,8.12,4.28,10.26,7.33,1.52,2.16,2.88,4.46,3.89,6.89l3.03,7.34c2.09,5.07-.67,11.81-5.03,15.77,1.7-4.17,2.78-8.24,3.41-12.68.09-.61.55-1.17.22-1.92-.58.46-.6,1.21-.77,1.97-.93,4.29-1.89,8.41-3.65,12.42-.6,1.37-1.28,2.59-2.61,3.35.75-2.19,2.15-3.92,2.01-6.38-1.65,3.97-3.11,7.77-5.39,11.42-.45-4.15-1.68-7.69-3.52-11.22,1.91-4.72,1.31-9.82-1.45-13.98-1.46-2.53-3.53-4.23-5.91-5.89-2.25-1.57-4.92-2.17-7.82-2.4l1.37-2.56c-.85.44-1.15,1.16-1.57,1.93-.45.8-1.62.95-2.27.38.62-.97,1.19-1.6,1.34-2.62-1.87,1.26-1.13,3.74-3.97,2.89.48-.91,1.05-1.37,1.15-2.28.02-.15.12-.23.23-.24,1-2.02,2.77-3.37,4.1-5.35,3.53-5.26,10.34-7.85,16.35-5.06ZM145.1,9.22l.53.44c-.17-.14,2.51-2.02,5.46-2.06-3.29,2.75-6,5.73-7.93,9.57,1.16-.54,1.43-1.73,2.07-2.66,2-2.91,4.49-5.12,7.14-7.42l4.03-.24c2.72-.16,5.53-.23,8.7.52-2.48.8-4.76,1.44-6.7,3.19,1.13.2,1.66-.34,2.49-.87,3.8-2.44,6.43-2.61,10.63-.65-4.94-.62-9.94,1-12.92,5.19l-1.53,1.9c-1.17,1.46-2.48,2.74-3.29,4.48-.05.15-.12.22-.17.29-.66.81-1.01,1.86-1.57,2.9-2.24.5-4.45.86-6.46,1.89l-.63.53c.16-.14-4.02-4.03-8.05-5.18l-6.89-1.96c4.49-4.25,9.59-7.66,15.07-9.86ZM98.14,26.32c.87-.82,1.3-1.8,2.35-2.35l.58.65c.81-.93,1.54-1.76,2.61-2.42,5.66-3.49,10.01-3.93,16.45-3.27-3.39.75-6.65.54-9.47,2.32,3.92-.89,7.46-2.13,11.33-1.41l4.79.89-3.41-1.4c4.75.73,9.55,1.77,14.18,3.53,2.27.86,4.21,2.04,5.82,4.08-2.19,1.17-4.21,2.4-6.07,4.16l-3.21-.46c-4.35-1.54-8.78-2.33-13.37-2.41-3.54-.06-8.48.37-10.67,2.96,3.62-1.78,7.24-2.81,11.23-2.48l3.7.31c2.24.19,4.24.87,6.33,1.42-2.04.05-3.82.39-5.73.28-5.29-.32-12.08-1.08-15.15,3.31,1.96-1.38,3.62-2.57,5.99-2.79,2.13-.2,4.19-.52,6.55-.01l-4.4,1.51c-1.59.54-3.58.03-4.8,1.46,1.34-.28,2.43-.97,3.87-.73-4.16,2.19-7.13,6.14-6.84,10.96.17,2.85,2.11,4.92,4.22,6.8-3.35,3.77-4.84,7.92-3.67,12.87-1.68-2.01-2.32-4.21-3.33-6.51-.33,2.24,1.34,3.51,1.76,5.54l-3.55-5.5-5.8-11.35c-.1,0-.16-.06-.2-.15-1.7-3.65.14-11.46,2.17-15.58,3.59-7.29,13.24-8.67,20.86-8.44-5.43-.95-11.18.01-16.09,2.7-5.77,3.15-7.39,10.6-8.07,17.01-.43,4.08.81,8.17,2.62,11.56l-1.72-5.93c-.13-.43-.13-.81.05-1.14.06.04.11.1.14.17,1.92,5.06,4.49,9.74,7.1,14.79-2.29-1.63-4.06-3.71-5.22-6.27-.13-.29-.57-.41-.77-.38-1.16.2-2.07,3.09-2.73,5.31-1.1-.51-1.79-1.21-2.55-2.13.77-.25,1.16-.19,1.49-.63-.65-.02-1.7.32-2.13-.09-1.86-1.78-3.07-3.97-3.99-6.53,1.41-.38,2.7-.14,4.23.17.55.08.67-.42.08-.51l-4.56-.39c-2.01-8.54.74-17.52,7.03-23.48ZM89.34,48.62c.14.21.28.49.31,1.27-.96,0-1.97.11-3.19.02l2.88-1.29ZM89.69,50.27c.35.65.44,1.12.57,1.9-3.35-.26-6.3.7-9.68,1.23,3.08-2.79,5.12-3.01,9.12-3.13ZM74.6,60.34c3.2-3.46,7.89-4.94,12.47-5.46l3-.45c-5.31-.49-10.57,1.28-14.92,4.68.99-2,2.57-3.26,4.12-4.65,3.72-1.29,7.51-1.98,11.43-1.9.34,1.19.77,2.11,1.6,3.14-1.42.8-2.95.32-4.46.56-3.56.54-6.95,1.4-9.83,3.49l-3.19,3-2.08,3.92c.09-1.97.31-4.64,1.87-6.32ZM73.32,71.64c-.87-1.57-.71-3.25-.16-4.64,3.36-8.52,10.88-10.15,19.5-10.71l1.42,1.74-2.04.45c.81.37,1.62.1,2.58.1,1.11,1.12,2.24,1.93,3.53,2.85-1.37,5.29-.58,10.59,3.59,14.07-.4,8.93-.64,17.53,2.18,26.31-1.27-.33-2.04-1.24-2.88-2.16-3.04-3.33-5.45-6.93-7.79-10.79l-7.69-14.75c2.71,9.38,7.79,17.54,13.72,25.23-2.54-1.03-4.65-2.54-6.95-3.99-3.48-4.26-5.77-8.92-8.09-14.16.7,4.63,3.62,8.29,5.84,12.64-2.56-1.87-5.14-3.54-7.05-5.88-1.64-2.01-1.64-4.82-2.88-7.06-.19,2.1,1.05,3.72,1.44,5.74-.93-.68-1.61-1.47-2.22-2.47l-.29-1.8c-.89-2.3-.88-4.5-.93-7.1-.13-7.04,2.14-9.87,8.44-12.18-3.43.23-6.42,2.63-7.95,5.65-1.82,3.61-1.03,9.73-.11,14.21-.67-.7-1.37-1.52-1.71-2.42-1.67-4.41-1.14-11.52,2.11-15.19,3.19-3.6,8.85-4.55,13.92-4.48-.79-1.05-1.89-.58-3.05-.44-3.75.46-7.94,1.32-10.71,4.12-3.58,3.63-4.05,8.76-3.39,13.79-1.18-1.6-1.8-3.67-1.9-5.69-.08-1.59.67-3.08,1.09-4.52,2.1-7.18,9.76-9.17,16.98-9.58-4.5-.58-9.18.61-13.05,3.29-3.28,2.27-4.6,5.84-5.49,9.84ZM93.45,129.52c-4.04-1.15-7.95-2.64-11.05-5.3-3.37-2.9-6.25-5.94-8.92-9.41-2.33-3.04-4.93-5.53-7.51-8.27-1.2-1.27-.75-4-.19-5.43,1.16-2.94,3.59-4.61,5.92-6.45,1.67-1.32,3.49-1.93,5.52-3.33-2.41.45-4.47,1.96-6.54,3.49-3.44,2.55-6.1,5.67-5.93,10.04.04.27.68.68.28,1.26l-2.12-1.74c-1.07-3.18,1.84-7.88,5.1-9.86.52-.41-.18-.84-.36-.28-3.47,2.28-5.54,5.74-5.56,9.64-3.15-.83-.63-4.45.94-7.75-1.97,1.62-2.65,4.04-2.98,6.51-2.91.19-.78-5.56,1.36-7.75l3.75-3.84-.25-.25-3.91,3.94c-1.86,1.87-2.81,4.27-2.93,7.14-1.92-.94-3.66-1.25-5.7-1.67-.54-.11-.05-1.53.47-1.79,1.21-.6,1.94-1.46,3.06-2.24-.23,1.04-1.07,1.66-.89,2.86l1.83-3.48,3.52-4.52,3.89-7c2.31-3.14,6.09-4.79,9.76-5.6l2.03,3.75c3.06,4.46,6.89,8.11,11.21,11.45-3.93,3.16-6.99,7.12-8.75,11.88,2.93-4.14,5.34-8.42,9.58-11.27l5.09,3.33c-1.6.94-2.84,1.84-3.79,3.3-3.21,4.92-5.65,10.42-6.52,16.37,1.95-5.34,3.75-10.57,6.96-15.36,1.01-1.5,2.62-3.32,4.37-3.46l5.45,2.91,4.88,2.55c1.63,5.15,4.32,9.51,7.9,13.48,2.29,2.54,4.95,4.47,7.48,6.69,1.58,1.39,3.14,2.4,5.22,3.55l-10.46,2.52c-7.08,1.3-14.26,1.33-21.2-.63ZM144.79,150.07c.79-.27,1.64-.72,2.51-.65.5.21.74,1.22.86,1.82-1.31.58-2.94.3-3.37-1.17ZM147.2,254.27c-.31.91-.93,1.31-1.78.99-1-.37-.74-1.05-.41-2,8.59-25.4,11.79-53.09,6.79-79.67.59-.1.91.28,1.19.41l.25-.27c-.42-.36-.93-.58-1.56-.87l-.57-2.79c1.17.64,1.8,1.07,3.07,1.11,5.23,27.95,1.99,56.19-6.99,83.08ZM152.42,163.77c-.77.47-1.48.32-2.41.31.61.79,1.55.34,2.51.05l1.57,6.67c-1.18-.07-1.93-.69-3.05-1.08l-.66-3.06,2.62.72c-.83-.62-1.63-.9-2.75-1.16l-1.62-5.84c1.06.11,1.79.11,2.64-.45l1.15,3.83ZM150.49,157.61l-2.11.56c.68.58,1.5-.03,2.13-.02.44.25.54,1.03.45,1.33-.19.62-1.7.85-2.44.38-.36-.23-.21-.89-.36-1.31l-2.58-6.84c.92.08,1.71.33,2.71-.08l2.2,5.98ZM187.53,124.3l-4.26,8.73c-1.9,3.89-5.36,8.07-9.3,9.53l-.57-.51s-1.76,1.94-4.78,1.35c7.24-4.61,11.18-10.9,11.6-19.25-1,3.33-1.34,6.42-2.93,9.47-2.18,4.13-5.51,7.57-9.66,9.78-.61.33-1.69.1-2.27-.17,1.89-1.31,4.03-1.8,5.14-3.81l-3.96,2.7c-1.92,1.31-3.4,1.3-5.42,1.28-4.25-.05-8.08,1.81-11.9,3.64-5.97,2.86-13.01,2.5-18.59-1.13l-15.74-10.23-4.72-3.37,4.82-.83c1.61,3.89,7.32,6.24,11.55,7.47-3.62-2.36-8.14-3.43-10.79-7.5l8.94-2.15c9.53-2.29,18.96-3.97,28.69-5.07.62-.19,1.21-.56,1.95-.62,5.47-.49,10.64-1.46,16.05-2.45,7.43-1.36,14.34-3.52,21.49-6.22-2.19,3.07-3.75,6.1-5.34,9.36ZM233.75,70.68c.38-3.9-.86-7.97-4.2-10.32-4.14-2.92-9-5-14.14-5.38,9.4,2.68,19.06,5.21,17.76,16.35l-1.62,1.03c.09-2.15.28-4.16-.45-6.15-2.05-5.61-12.22-9.41-18.29-9.48,5.03,1.12,9.86,2.16,14,5.14,3.88,2.43,5.34,6.87,3.91,11.28-.24.74-1.05,1.39-1.66,2,0-1.29.83-2.28.09-3.57-.28,2.74-1.24,4.86-2.52,7.25l-6.04,11.21-1.69-2.29c.04,1.14.75,1.86,1.43,2.63-.2.61-.56,1.11-1.08,1.51-.43-.91-.52-1.79-1.53-2.32.27,1.08.91,1.82,1.43,2.85-1.87,2.89-4,5.47-6.42,7.92-.79-1.85-1.26-3.5-2.53-4.86.54,1.98,1.73,3.36,2.07,5.28l-1.72,1.68-.16-2.2c-.1,0-.3-.03-.35-.05l-.04,2.41c-.02.91-1.34,1.62-2.23,2,.36-1,.73-1.97.05-2.65-.22,1.31-.17,2.87-1.17,3.67-10.75,8.57-30.48,13.99-44.11,15.67l-12.1,1.49c6.55-8.79,13.04-14.06,21.87-19.92,9.89-6.57,18.35-14.73,24.69-24.89,6.57-3.04,15.47.86,22.86,2.38-4.78-2.3-9.9-3.63-15.2-4.38-2.27-.32-4.33-.19-6.55.35.66-.97,1.08-2.24,1.93-3,1.99-1.22,4.49-1.4,6.76-1l9.71,1.74c-4.53-2.07-10.6-3.42-15.8-2.28,4.23-7.7,7.16-16.56,7.31-25.24,6.42-.36,12.41.92,16.25,6.31-3.36-1.09-6.3-2.51-9.79-2.41,3.48,1.04,7.04,1.49,10.26,3.33.76.43,1.19,1.43,1.72,2.18l-3.74-1.44c-.71-.28-1.46-.71-2.28-.34,2.4,1.02,5.23,1.66,7.4,3.31l3.54,2.69c3.28,2.49,5.46,9.31,2.4,10.53ZM237.04,68.53c-.41.33-.88.67-1.48.94.41-3.2-.58-6.22-2.8-8.61,1.69,0,2.63,1.01,3.28,2.33.84,1.72,1.49,3.36,1.01,5.34ZM237.64,68.26c.29-2.32-.55-4.19-1.78-6.18.75.1,1.72.39,2.13,1,1.19,1.77,1.67,4.88-.35,5.17ZM239.57,67.18c-.17-1.48-.42-2.59-.93-3.79.95.15,1.92.55,2.04,1.17.22,1.08.55,2.19-1.12,2.61Z" fill="#ae665e"/>
    <path d="M119.89,124.07c-2.53-2.22-5.19-4.15-7.48-6.69-3.58-3.97-6.27-8.33-7.9-13.48l-4.88-2.55-5.45-2.91c-1.75.14-3.36,1.96-4.37,3.46-3.22,4.78-5.02,10.02-6.96,15.36.87-5.95,3.32-11.44,6.52-16.37.95-1.46,2.18-2.35,3.79-3.3l-5.09-3.33c-4.24,2.85-6.65,7.12-9.58,11.27,1.76-4.76,4.82-8.72,8.75-11.88-4.33-3.34-8.15-6.98-11.21-11.45l-2.03-3.75c-3.67.81-7.45,2.46-9.76,5.6l-3.89,7-3.52,4.52-1.83,3.48c-.18-1.21.66-1.83.89-2.86-1.12.78-1.84,1.64-3.06,2.24-.52.25-1.01,1.67-.47,1.79,2.03.41,3.78.73,5.7,1.67.12-2.86,1.08-5.27,2.93-7.14l3.91-3.94.25.25-3.75,3.84c-2.14,2.19-4.26,7.94-1.36,7.75.34-2.47,1.02-4.89,2.98-6.51-1.57,3.3-4.09,6.92-.94,7.75.02-3.9,2.09-7.36,5.56-9.64.18-.56.88-.12.36.28-3.27,1.99-6.18,6.68-5.1,9.86l2.12,1.74c.4-.58-.24-.98-.28-1.26-.17-4.37,2.49-7.49,5.93-10.04,2.06-1.53,4.13-3.04,6.54-3.49-2.02,1.4-3.85,2.01-5.52,3.33-2.33,1.84-4.77,3.51-5.92,6.45-.56,1.43-1.01,4.16.19,5.43,2.58,2.74,5.18,5.23,7.51,8.27,2.67,3.47,5.55,6.51,8.92,9.41,3.1,2.67,7.01,4.16,11.05,5.3,6.94,1.96,14.12,1.93,21.2.63l10.46-2.52c-2.08-1.16-3.65-2.17-5.22-3.55ZM75.65,82.63l-4.66,2.05c1.3-1.04,2.7-1.92,4.66-2.05ZM65.73,86.24l-3.58,2.86c1.77-2.96,4.4-3.52,3.58-2.86ZM60.14,93.29l-2.45,3.22c.73-2.05,2.09-3.45,3.34-5.09.21.88-.5,1.34-.9,1.87ZM62.14,91.56c.93-1.55,2.41-2.66,3.93-3.86.16-.48.86-.24.47.29-1.85.9-2.61,2.57-4.4,3.57ZM71.93,89.91c-3.27,1.41-5.88,3.66-8.73,5.89,2.86-4,10.57-7.83,15.64-8.88l-6.92,2.99ZM69.26,98.93c-1.09,1.64-1.77,3.09-2.45,4.97-.16-1.92.86-3.84,2.45-4.97ZM70.02,104.48c-.07,1.5.37,2.64.97,4.43-1.25-.89-1.91-2.92-.97-4.43ZM69.01,104.58c-.33-1.95.91-3.35,2.23-4.55,2.33-2.13,4.9-4.07,8.09-4.68-4.39,2.67-8.88,4.32-10.31,9.23Z" fill="#ae665e" opacity=".81"/>
    <path d="M111.1,102.42l-.24,3.11c-1.77-3.02,2.31-10.12,5.81-11.9-2.56,2.64-4.79,5.17-5.56,8.78Z" fill="#ae665e"/>
    <path d="M109.59,98.9c.36-1.87,1.62-3.65,3.37-4.92l-3.37,4.92Z" fill="#ae665e"/>
    <path d="M79.32,95.35c-4.39,2.67-8.88,4.32-10.31,9.23-.33-1.95.91-3.35,2.23-4.55,2.33-2.13,4.9-4.07,8.09-4.68Z" fill="#ae665e"/>
    <path d="M60.14,93.29l-2.45,3.22c.73-2.05,2.09-3.45,3.34-5.09.21.88-.5,1.34-.9,1.87Z" fill="#ae665e"/>
  </g>
  <path d="M66.55,88c-1.85.9-2.61,2.57-4.4,3.57.93-1.55,2.41-2.66,3.93-3.86.16-.48.86-.24.47.29Z" fill="#ae665e"/>
  <path d="M69.26,98.93c-1.09,1.64-1.77,3.09-2.45,4.97-.16-1.92.86-3.84,2.45-4.97Z" fill="#ae665e"/>
  <path d="M70.99,108.91c-1.25-.89-1.91-2.92-.97-4.43-.07,1.5.37,2.64.97,4.43Z" fill="#ae665e"/>
  <path d="M75.65,82.63l-4.66,2.05c1.3-1.04,2.7-1.92,4.66-2.05Z" fill="#ae665e"/>
  <path d="M65.73,86.24l-3.58,2.86c1.77-2.96,4.4-3.52,3.58-2.86Z" fill="#ae665e"/>
  <path d="M164.95,135.51c-3.48,2.07-7.05,3.67-10.97,4.81-4.51,1.31-8.93,2.33-13.59,3.1l-6.31.1c.61-1.35,1.72-.26,2.3-.31,1.29-.11,2.25-.5,3.46-.27,1.09.21,1.89-.44,2.85-.6,5.49-.95,10.8-2.01,15.94-4.18,2.83-1.19,5.66-2.4,7.9-4.51,2.37-2.23,2.43-5.54,2.53-8.72.78,4.36-.13,8.21-4.11,10.58Z" fill="#ae665e"/>
  <path d="M168.78,134.28c-1.14,2.19-3.26,3.03-5.28,4.16-4.89,2.71-10.05,4.33-15.76,4.56-.28.67-1.04.09-.5-.26,7.5-.68,13.28-2.75,19.49-6.7.74-.47,1.02-1.51,2.05-1.76Z" fill="#ae665e"/>
  <path d="M164.68,139.82c-2.82,2-6.09,3.54-9.53,4.1l-11.41,1.88c-.14-.17-.19-.26-.22-.45l8.8-1.37c4.44-.69,8.25-2.27,12.36-4.16Z" fill="#ae665e"/>
  <path d="M178.31,136.37c2.36-4.69,3.58-9.47,4.17-14.87.33,5.09-1.07,10.5-4.17,14.87Z" fill="#ae665e"/>
  <path d="M144.96,143.83l-5.42.58s.15-.17.14-.39l5.43-.75c.08.24.04.43-.15.56Z" fill="#ae665e"/>
  <path d="M174.22,131.11c-.37,2.01-1.42,3.89-3.08,5.27l3.08-5.27Z" fill="#ae665e"/>
  <path d="M173.29,128.72c-.39,1.63-1.07,3.27-1.78,4.76-.06.09-.26.23-.42-.03l1.85-4.64c.14-.13.28-.14.36-.1Z" fill="#ae665e"/>
  <path d="M124.07,24.17c-1.92.51-3.71-.17-5.45-.05-5.07.34-8.01,1.83-12.45,4.58.53-1.42,2.25-1.61,3.35-2.46,3.23-2.51,10.6-3.25,14.55-2.07Z" fill="#ae665e"/>
  <path d="M133.32,28.23l-8.34-1.42-7.8-.35c.38-.62,1.36-.24,1.71-.45,1.12-.66,2.08-.67,3.09,0,3.83.41,7.62.89,11.34,2.23Z" fill="#ae665e"/>
  <path d="M110.18,21.29c-2.5,1.4-5.13,2.27-7.04,4.35-2.27,2.47-3.67,5.15-4.5,8.32-1.28,4.82-1.69,9.47-.83,14.58-.98-.97-.53-2.3-.81-3.37-.4-1.52-.21-2.75-.05-4.22.48-4.47,1.31-8.9,3.7-12.77l2.16-2.81c1.11-1.45,5.04-3.75,7.37-4.07Z" fill="#ae665e"/>
  <path d="M104.92,50.55c-2.53-5.3-2.25-11.66.7-16.7-.83,2.49-1.61,4.88-1.96,7.63-.4,3.13.88,5.9,1.26,9.07Z" fill="#ae665e"/>
  <path d="M106.08,47.1c-1.45-4.27-.63-9.27,2.12-12.96-.99,2.51-1.91,4.73-2.38,7.48-.33,1.95.45,3.5.26,5.48Z" fill="#ae665e"/>
  <path d="M93.07,43.25c-.91-1.19-.68-2.49-.44-3.85.52-3.02.95-6.08,2.62-8.64-1.33,4.2-2.56,8.02-2.18,12.49Z" fill="#ae665e"/>
  <path d="M101.74,43.03c-.29.2-.66-.15-.6-.53.49-3.47.73-7.35,3.27-10.27-1.33,3.45-2.88,6.78-2.67,10.8Z" fill="#ae665e"/>
  <path d="M116.12,26.66c-3.79,1.21-7.55,2.17-10.9,5.16.86-1.72,2.63-2.64,4.44-3.31,2.1-.78,4-2.18,6.46-1.84Z" fill="#ae665e"/>
  <path d="M94.62,41.96c-.02-1.58-.21-3.2.84-4.41l-.31,2.81c-.41,3.69.24,5.94.56,9.13-1.38-2.39-1.07-4.98-1.1-7.53Z" fill="#ae665e"/>
  <path d="M133.31,26.34c-.77.22-1.57-.38-2.22-.69-1.24-.59-2.55-.28-3.84-1.12,2.02-.09,3.65.44,5.58.89.35.08.79.31.48.93Z" fill="#ae665e"/>
  <path d="M130.69,23.19c-.16.72-.67.5-.88.28l-6.31-1.43c2.59-.23,4.8.6,7.2,1.15Z" fill="#ae665e"/>
  <path d="M99.68,26.46c-2.27,3.5-3.3,7.05-4.29,10.95-.19-2.19.54-4.13,1.37-6.01.77-1.76,1.12-3.78,2.92-4.94Z" fill="#ae665e"/>
  <path d="M201.81,40.85c-.18.26-.36.44-.46.46s-.34-.17-.44-.31c-1.97-.93-4.02-1.11-6.25-1.34,2.47-.56,4.97.05,7.15,1.2Z" fill="#ae665e"/>
  <path d="M84.63,68.79c-2.28,1.84-3.03,5.66-2.56,8.26.23,1.3.5,2.58.38,3.99-.91-1.87-.83-3.83-.88-5.92-.12-5.14,3.83-9.18,9.06-8.57-2.16.45-4.27.85-6.01,2.25Z" fill="#ae665e"/>
  <path d="M79.9,76.61c-.05.73.53,1.7-.05,2.53-.78-3.53-.71-7.42,1.32-10.65.75-1.19,1.78-2.49,3.29-2.62-2.34,1.51-3.73,3.58-4.26,6.33l-.31,4.41Z" fill="#ae665e"/>
  <path d="M185.41,34.01c-1.16-1.28-1.38-2.96-2.27-4.53l-1.95-3.46c-2.68-4.74-6.86-11.32-12.2-11.92-2.39-.27-4.14,1.29-6.25,2.17,1.24-1.67,3.5-2.57,5.69-2.71,5.57-.36,11.18,8.09,13.79,13.3,1.18,2.34,2.78,4.4,3.19,7.15Z" fill="#ae665e"/>
  <path d="M161.43,16.33l-3.19,2.92c.28-1.66,1.84-2.64,3.19-2.92Z" fill="#ae665e"/>
  <path d="M153.24,11.32c-3.14,3.54-5.35,7.34-8.26,11.45,1.91-4.13,4.57-8.35,8.26-11.45Z" fill="#ae665e"/>
  <path d="M158.74,11.24c-.18,1.23-1.3,1.62-1.94,2.44-.85,1.09-1.49,2.17-2.74,2.82.58-1.2,1.26-1.86,2.02-2.62l2.66-2.64Z" fill="#ae665e"/>
  <path d="M150.78,17.7l-2.85,5.22c-.12.22-.49.21-.62.11l3.17-5.57.3.24Z" fill="#ae665e"/>
  <path d="M145.48,46.09l-5,.25c-2.27.11-4.38,1.17-6.27,2.38l-1.65,1.6-.23-.23c2.25-3.47,8.75-5.23,13.14-3.99Z" fill="#ae665e"/>
</svg>