<?xml version="1.0" encoding="UTF-8"?>
<svg id="Capa_1" data-name="Capa 1" xmlns="http://www.w3.org/2000/svg" viewBox="0 0 290 262">
  <path d="M110.6,33.29c-.24,1.15-.37,2.33-.37,3.51-.22-.92-.41-1.85-.62-2.78-.44-1.96-.68-3.94-.82-5.95-.01-.15-.22-.15-.23,0-.08,2.02,0,4.05.2,6.06.08.83.22,1.65.39,2.47-.41-.5-.82-1-1.22-1.5,0,0,0,0,0-.01l-.62-.8c-1.14-1.6-1.84-3.39-2.06-5.38-.22-2.08-.04-4.19.16-6.26.22-2.29.55-4.57,1.04-6.81.21-.99.45-1.98.71-2.96-.04,1.3.1,2.63.34,3.92.66,3.51,2.21,6.78,2.77,10.31.32,2.02.32,4.12.32,6.17Z" fill="#974b06" opacity=".7"/>
  <path d="M114.66,24.25s0,0,0,0c0,.01,0,0,0,0Z" fill="#974b06"/>
  <g>
    <path d="M150.87,82.3l-.53.91c.02-.05.27-.47.53-.91Z" fill="#974b06"/>
    <path d="M151.44,81.31c-.02.05-.27.46-.52.89l.52-.89Z" fill="#974b06"/>
    <path d="M131.47,145.32c-.03-.12-.05-.25-.08-.37l.05.47c.03.12.05.25.08.37h0s-.05-.47-.05-.47ZM131.47,145.32c-.03-.12-.05-.25-.08-.37l.05.47c.03.12.05.25.08.37l-.05-.47ZM131.47,145.32c-.03-.12-.05-.25-.08-.37l.05.47c.03.12.05.25.08.37l-.05-.47ZM131.47,145.32c-.03-.12-.05-.25-.08-.37l.05.47c.03.12.05.25.08.37l-.05-.47ZM238.06,128.54c-.02-.39-.54-.74-.93-.4-6.97,6-14.75,11.18-23.31,14.32-4.37,1.6-8.92,2.59-13.53,3.01-4.93.45-9.9.27-14.85.49-4.87.22-9.8.78-14.44,2.38-2.3.79-4.5,1.88-6.5,3.3-1.86,1.32-3.56,2.87-5.15,4.55-5.48,5.79-9.4,12.93-12.14,20.5.08-.39.15-.78.23-1.18.85-4.04,1.75-8.07,2.67-12.09,1.84-8.01,3.68-16.03,4.94-24.17.61-3.95,1.21-7.87,2.38-11.67.53-.06,1.05-.14,1.6-.13.69,0,1.38.09,2.05.22,1.39.26,2.75.67,4.14.89,1.24.19,2.44.2,3.64-.23.25-.09.49-.19.72-.31l4.47-.09c.63-.04,1.24-.2,1.83-.38,1.3-.27,2.58-.63,3.8-1.14,2.37-.99,4.53-2.45,6.55-4.07,1.9-1.52,3.67-3.2,5.3-5.03,3.21-3.59,5.76-7.76,7.56-12.28,1.07-2.69,1.86-5.51,2.56-8.33.71-2.85,1.36-5.73,1.84-8.64.53-3.26.85-6.58.72-9.9-.06-1.45.07-3.01-.49-4.45q-.6-1.52-1.7-2.31c-.9-.62-2.22-.83-3.35-.96-1.5-.17-3.02-.19-4.53-.05-6.05.53-11.9,3.28-16.23,7.73h0c.46-2.43.68-4.88.59-7.37-.06-1.55-.2-3.08-.46-4.61-.25-1.45-.52-3.01-1.08-4.38-.21-.52-.56-.99-1.1-1.15-.06-.02-.11-.01-.17-.02-.06-.05-.14-.09-.23-.07-.06.01-.12.03-.18.04-.27.01-.55.08-.81.17-.53.11-1.07.25-1.6.39-1.65-4.27-6.85-7.22-10.84-4.37-1.37.98-2.49,2.33-3.52,3.73,0,0-.02,0-.03.01-6.32,7.47-11.41,16.38-13.7,26.1-2.16,9.15-1.78,19.03,1.84,27.73.99,2.37,2.21,4.63,3.67,6.72.73,1.05,1.52,2.05,2.36,3,.12.13.24.26.36.39.34.48.7.93,1.11,1.33-.09,2.07-.42,4.1-.79,6.14-.4,2.2-.81,4.39-1.22,6.58-.84,4.42-1.73,8.83-2.59,13.24-1.7,8.83-3.38,17.67-4.73,26.56-.6,3.97-1.23,7.96-1.59,11.96-.05.59-.18,1.18-.37,1.75h0c-.12.56-.11.58-.13.65-.62,2.25-1.18,4.52-1.71,6.8-.25-2.96-.58-5.92-.89-8.88-.45-4.33-.9-8.66-1.35-12.99-.89-8.65-1.81-17.31-2.72-25.96-.9-8.55-1.82-17.11-2.65-25.67-.84-8.59-1.61-17.19-2.06-25.81-.22-4.31-.37-8.62-.48-12.93-.05-2.14-.08-4.27-.1-6.41,0-1.59-.2-3.43.47-4.92.16-.35.38-.64.65-.86,2.87-.54,5.66-1.45,8.33-2.7,1.89-.88,3.76-1.91,5.45-3.16.79-.59,1.55-1.24,2.16-2.04.65-.85,1.13-1.82,1.54-2.82.85-2.08,1.75-4.25,2.08-6.5.36-2.4-.05-4.81-.49-7.16-.75-3.95-1.52-7.92-2.45-11.84,0-.03.02-.05.02-.08.06-2.02-.32-4.09-.7-6.07-.38-2.02-.85-4.02-1.4-5.99-1.1-3.93-2.48-7.79-4.13-11.51-.81-1.83-1.69-3.63-2.65-5.38-.93-1.7-1.97-3.37-3.37-4.69-1.37-1.29-2.95-1.92-4.79-1.58-1.81.33-3.43,1.41-4.87,2.54-1.58,1.23-3.06,2.64-4.31,4.23-1.18,1.51-2.3,3.15-3.05,4.95,0,0,0,0,0,0-.05-.13-.12-.26-.18-.39-.75-2.86-2.09-5.54-3.89-7.83-.85-1.08-1.89-2.18-3.35-1.85-1.03.24-1.94,1-2.64,1.85-.08.07-.17.14-.26.21-.38.35-.71.75-.99,1.19-.28.45-.47.92-.63,1.44-.02.07,0,.13.04.18-.15.49-.28.99-.42,1.48-.32,1.12-.61,2.25-.88,3.38-.53,2.26-.97,4.55-1.31,6.86-.41,2.75-.77,5.69-.27,8.42-1.33-2.81-2.32-5.8-3.03-8.85,0-.61-.02-1.22-.06-1.83-.03-.44-.09-.97-.52-1.17-.19-.09-.36-.09-.53-.04-.05,0-.08.02-.12.05-.68.32-1.18,1.57-1.43,2.08-1.13,2.35-1.73,4.93-2.06,7.52-.35,2.81-.4,5.65-.37,8.48.03,3.06.2,6.11.57,9.15.35,2.93.77,5.9,1.63,8.73.82,2.7,2.19,5.15,3.66,7.51,2.7,4.32,6.05,8.32,10.32,11.01,2.42,1.52,5.11,2.59,7.91,3.02,1.56.24,3.21.28,4.81.05.72.94,1,2.23,1.14,3.42.25,2.13.34,4.29.51,6.43.37,4.71.74,9.42,1.1,14.13.52,6.77,1.02,13.55,1.52,20.32-1.03-3.95-2.41-7.8-4.02-11.53-3.05-7.06-6.87-14.27-12.58-19.38-2.86-2.56-6.16-4.42-9.75-5.59-3.65-1.19-7.49-1.69-11.3-1.9-3.85-.21-7.71-.13-11.57-.23-4.11-.1-8.3-.4-12.15-1.99-6.7-2.77-10.96-9.14-14.1-15.58-.39-.79-.77-1.59-1.13-2.39-.12-.26-.56-.07-.44.21-.13-.2-.48-.16-.47.14.01.37.03.73.04,1.1-.02-.05-.05-.1-.07-.15-.05-.11-.23-.03-.19.08.09.23.19.45.29.68.2,4.37.65,8.83,2.32,12.86.94,2.28,2.31,4.32,4.1,5.96,1.91,1.75,4.15,3.05,6.46,4.15,8.87,4.24,18.78,5.46,27.61,9.82,4.45,2.2,8.36,5.23,11.49,9.21,3.19,4.06,5.55,8.8,7.46,13.63,2.19,5.52,3.87,11.23,5.91,16.81,1.87,5.12,4.19,10,6.73,14.79,4.78,9.03,10.22,18.12,11.74,28.49.18,1.25.37,2.31.58,3.56.03.19.11.43.11.56,1.15,8.06,1.69,16.18,1.55,24.32.07,1.17.11,2.35.12,3.53,0,.68-.02,1.36,0,2.04l-.09,1.35c-.54,3.66-1,7.34-1.38,11.01-.58,5.6-.94,11.23-1.08,16.87-.07,2.8-.09,5.6-.06,8.4.02,1.42.04,2.83.08,4.25.03,1.03.03,2.31.97,2.93.54.35,1.18.36,1.79.29.71-.08,1.42-.2,2.12-.38.7-.17,1.38-.39,2.05-.66.55-.22,1.11-.47,1.53-.93,1.06-1.14.22-2.61-.24-3.83-.33-.89-.65-1.77-1.02-2.64-.04-.49-.09-.99-.12-1.48-.11-1.5-.21-3-.28-4.51-.15-3.05-.17-6.1-.18-9.15,0-2.89-.1-5.82-.02-8.74.94-5.99,1.95-12.15,5.23-17.3,1.74-2.74,4.01-5.08,5.91-7.7,1.84-2.54,3.28-5.36,4.53-8.25,2.5-5.75,4.31-11.81,7.38-17.29,2.84-5.07,6.64-9.5,11-13.2,3.88-3.3,8.24-6.05,12.76-8.31,4.25-1.36,8.66-1.91,13.1-2.18,4.78.19,9.56.24,14.27-.82.4-.09.79-.2,1.19-.31,2.24.15,4.5-.25,6.32-1.74,1.35-1.11,2.32-2.66,3.34-4.07,1.17-1.63,2.34-3.26,3.5-4.89,1.27-1.8,2.53-3.6,3.75-5.43,1.25-1.86,2.63-3.74,3.59-5.78.07-.16,0-.33-.13-.42ZM164.24,126.68c-.24-.05-.47-.12-.69-.19l3.11-1.63c1.14-.44,2.26-.93,3.34-1.47,1.56-.78,3.1-1.66,4.56-2.67l3.9-2.04c-1.68,2.03-3.41,4.05-5.49,5.62-2.47,1.86-5.64,3.07-8.71,2.38ZM202.45,82.61c.04-.24.07-.49.11-.73,0,.12,0,.24-.01.35-.06,1.67-.15,3.34-.38,5l-1.2,8.01c-.03.14-.06.29-.1.43-.62,2.72-1.3,5.42-2.26,8.04-1.61,4.42-4,8.54-6.91,12.16-2.96,3.68-6.63,6.98-10.76,9.15-.43.23-.88.43-1.32.62.04-.03.09-.06.13-.09l-3.05,1.06c-1.31.33-2.65.53-3.99.63-.72.05-1.44.05-2.16.04.09-.08.18-.17.26-.26,1.36-.4,2.69-.88,3.96-1.49,1.24-.6,2.41-1.35,3.46-2.27,1.2-1.05,2.23-2.28,3.29-3.47.64-.72,1.28-1.43,1.92-2.15.66-.74,1.26-1.55,1.92-2.29.05-.06-.03-.15-.09-.09-.56.61-1.18,1.16-1.75,1.76-.57.6-1.12,1.22-1.68,1.83-1.06,1.15-2.1,2.31-3.22,3.41-2.09,2.05-4.64,3.31-7.36,4.17,0-.01.02-.02.02-.03.02-.04,0-.09-.02-.12,2.78-1.44,5.01-3.84,7.04-6.24,5.07-6,9.97-12.16,14.78-18.38,2.24-2.91,4.51-5.79,6.16-9.12,1.54-3.11,2.62-6.48,3.2-9.93ZM186.67,84.36c-.05-.16-.12-.32-.18-.48.91-.91,1.83-1.83,2.8-2.67.03.19.06.39.1.6.09.56.18,1.12.25,1.68.13,1.03.21,2.07.26,3.1.11,2.08.11,4.15-.03,6.22-.29,4.23-1.44,8.42-3.17,12.25-.32.7-.66,1.39-1.01,2.07-.04.03-.07.07-.11.1-.34.27-.65.57-.96.88,1.97-5.26,2.51-11.14,2.71-16.78.08-2.33.08-4.74-.65-6.97ZM190.75,83.83c-.07-.61-.14-1.21-.24-1.82-.08-.51-.13-1.04-.33-1.52.61-.47,1.25-.91,1.93-1.28,1.1-.61,2.31-1.08,3.56-1.25.29-.04.58-.06.87-.07.21,0,.6-.07.8.02.21.1.11.41.09.63-.03.38-.07.76-.12,1.14-.6,5.45-1.89,10.84-3.85,15.93-.61,1.58-1.29,3.13-2.04,4.64,0,0-.01.01-.02.02-.44.77-.9,1.52-1.37,2.25-1.04,1.48-2.28,2.8-3.63,3.99,1.04-2.1,1.89-4.29,2.57-6.56,1.21-4.04,2.02-8.35,1.98-12.6,0-1.18-.08-2.35-.21-3.53ZM192.43,101.18c.04-.06.06-.09.07-.1-.02.03-.05.06-.07.1ZM191.82,71.86c1.39-.27,2.8-.42,4.21-.44.73-.01,1.46,0,2.19.06.71.05,1.46.1,2.13.36.21.08.39.2.55.33q.2.19.54.68c.46.86.5,2.01.54,2.97.08,1.67.03,3.35-.14,5.02-.35,3.37-1.24,6.69-2.59,9.77-1.41,3.22-3.37,6.06-5.48,8.82-.21.28-.42.55-.63.82.08-.13.16-.27.25-.42,1.53-2.49,2.99-5.12,4.08-7.85.56-1.4,1.06-2.82,1.49-4.26.43-1.43.87-2.9,1.07-4.39.04-.3-.37-.44-.45-.13-.38,1.43-.66,2.88-1.07,4.3-.41,1.42-.88,2.82-1.41,4.19-.57,1.47-1.22,2.88-1.91,4.28l-.97,1.94c-.65,1.29-1.91,3.04-2.67,4.26.96-1.8,1.8-3.67,2.56-5.58,2.13-5.4,3.53-11.11,4.18-16.91.07-.65.31-1.51.05-2.14-.26-.64-.9-.7-1.49-.72-1.45-.04-2.89.31-4.22.9-2.59,1.15-4.68,3.14-6.68,5.15-.25-.38-.56-.72-.96-.98-.91-.59-2.07-.75-3.09-.99-1.4-.32-2.82-.57-4.24-.79,3.69-4.29,8.71-7.18,14.14-8.26ZM174.33,61.88c.58-.24,1.3-.58,1.68.14.29.54.42,1.22.59,1.81.18.66.34,1.34.48,2.01.3,1.44.5,2.89.64,4.35.27,2.8.14,5.74-.32,8.53-.23.25-.45.51-.68.77.09-1.74.16-3.47.09-5.22-.07-1.77-.33-3.52-.57-5.27-.02-.15-.26-.11-.25.04.1,1.78.04,3.56,0,5.34-.04,1.78-.1,3.58-.3,5.34,0,.04,0,.08.01.13-.3-.04-.59-.07-.89-.11-2.37-.25-4.79-.44-7.18-.37-.45.01-.91.05-1.36.11l-1.09.19c-.3.07-.6.16-.89.27-.05.02-.09.04-.14.06.47-2.5,1.21-4.94,2.14-7.3.52-1.31,1.1-2.59,1.71-3.86.6-1.24,1.21-2.5,1.98-3.63.71-1.04,1.65-1.89,2.71-2.52.52-.31,1.07-.58,1.64-.81ZM163.03,80.5s0,.02,0,.03c-.15.03-.49.23-.56.29-.25.2-.5.37-.73.59-.04.03-.07.05-.11.08-1.69,1.34-3.17,2.99-4.62,4.59-3.05,3.36-5.76,7.05-7.57,11.29-.33.78-.62,1.57-.88,2.37-.02.07-.08.13-.15.17h0c.02-.07.03-.15.04-.22.53-2.19,1.35-4.3,2.25-6.34.45-1.02.87-2.05,1.38-3.03.52-1.01,1.1-1.99,1.63-3,.55-1.05,1.11-2.1,1.65-3.16.55-1.06,1.04-2.14,1.64-3.17.33-.57.68-1.13.98-1.72.3-.59.54-1.2.87-1.78.68-1.21,1.38-2.4,2-3.64.09-.17-.15-.31-.25-.15-.64,1.03-1.27,2.08-1.81,3.18-.54,1.1-1.25,2.09-1.81,3.18-1.12,2.17-2.33,4.28-3.45,6.46-.53,1.03-1.01,2.08-1.51,3.12-.5,1.02-1.05,2.02-1.53,3.05-.92,1.99-1.73,4.04-2.3,6.18-.08.32-.34,1.3-.52,2-.04.17-.29.16-.31-.02-.02-.15-.03-.27-.03-.3q-.05-.67-.04-.81l-.04-.43s0-.01,0-.02c0-.06,0-.11.01-.17-.02-.05-.03-.1-.03-.17,0-1.08.19-2.15.27-3.22.05-.59.1-1.18.23-1.74,0-.17,0-.33.01-.45.19-1.73.17-1.22.34-2.1.2-1.03.46-2.02.81-3.01.35-1,.82-1.94,1.28-2.9.08-.18.17-.36.25-.54.49-1.13,1.05-2.23,1.7-3.29,2.58-4.19,6.12-7.59,9.15-11.41.89-1.12,1.68-2.33,2.56-3.47.92-1.19,1.96-2.03,3.25-2.74,1.44-.79,2.97-1.4,4.53-1.9-.38.26-.76.54-1.1.86-1.05.97-1.73,2.26-2.36,3.54-.68,1.38-1.35,2.76-1.98,4.17-1.39,3.12-2.53,6.37-3.13,9.76ZM160.43,59.51c.82-.97,1.73-1.91,2.87-2.46,1.16-.56,2.48-.61,3.71-.28,2.42.64,3.93,2.56,5.4,4.51-1.62.47-3.21,1.09-4.7,1.82-1.14.56-2.2,1.27-3.14,2.15-.97.91-1.71,2.02-2.51,3.09-3.01,4.04-6.7,7.48-9.63,11.59-.38.54-1.79,2.81-2.13,3.37,1.14-3.76,2.49-9.16,4.27-12.67.97-1.91,2.19-3.67,3.18-5.57.05-.1-.07-.21-.15-.12-1.28,1.36-2.19,3.1-3.07,4.75-.28.54-.55,1.08-.82,1.62h0c1.01-2.14,1.31-4.13,2.59-6.09,1.28-1.97,2.62-3.91,4.13-5.7ZM148.6,115.97c-2.05-4.02-3.37-8.48-3.97-12.99-1.28-9.74,1.01-19.44,5.14-28.17,1.57-3.31,3.46-6.47,5.53-9.47-.58,1-1.3,3.63-1.74,4.71-1.35,3.3-2.17,5.95-2.95,8.92-.77,2.28-1.45,4.6-2.08,6.93-.11.42-.21.84-.32,1.26l-.54,2.49c-.52,3.19-.51,3.2-.58,4.43-.1,1.72-.32,3.68-.41,5.48,0,.05,0,.09-.02.13.05,1.08-.03.17-.03,1.25,0,0,0,.02,0,.02,0,.02,0,.04,0,.07-.05,1.16.12,4.31.26,5.46,0,.02,0,.03.01.04l1.87,8.57c.04.11.07.23.11.34.05.16.1.33.16.49.15.43.31.85.47,1.27.04.1.07.2.11.3,0,.01,0,.02.01.03.12.31.25.62.38.93-.51-.82-.99-1.65-1.42-2.51ZM145.42,179.94c.64-4.45,1.37-8.89,2.12-13.33,1.52-8.91,3.23-17.78,4.85-26.67.45-2.46.9-4.92,1.34-7.38.36-2.02.77-4.09.8-6.16.13.27.53.4.78.58.5.35,1.54.32.42.28-.04,0,.7.23,1.14.35,0,0,0,0,0,0-.28-.09-.37-.48-.21-.73,0,0,0,0,0,0,.03-.05.08-.09.13-.13.1-.06.2-.11.3-.16-.02,0-.05-.01-.07-.02-.41-.11-.82-.21-.94-.34-.26-.29-.49-.59-.73-.89l-.54-.75s-.02-.03-.03-.04c-1.38-5.09-1.42-10.41-.38-15.58.53-2.66,1.25-5.31,2.26-7.82,1-2.48,2.14-4.92,3.36-7.3.68-1.34,1.39-2.66,2.09-3.98.73-1.37,1.53-2.72,2.21-4.13.12-.26-.22-.47-.37-.23-1.48,2.32-2.78,4.82-4.03,7.29-1.24,2.43-2.43,4.9-3.38,7.47-.95,2.56-1.88,5.14-2.47,7.82-.57,2.62-.91,5.3-.93,7.99-.01,2.59.29,5.18,1,7.66-.51-.74-.99-1.5-1.43-2.28-.24-.49-.48-.97-.71-1.46-.68-1.43-1.33-2.86-1.9-4.34-.07-.18-.14-.37-.2-.55-.01-.03-.02-.07-.04-.1-.17-.48-.33-.96-.48-1.44-.63-2.06-1.07-4.2-1.1-6.37-.03-2.19.31-4.37.93-6.46,1.25-4.23,3.61-7.93,6.34-11.28.25-.3.51-.59.76-.89l.07-.04c.3-.39.61-.76.96-1.1.25-.28.51-.55.77-.83.07-.09.14-.18.22-.26.6-.7,1.21-1.43,1.91-2.03.12-.11.24-.22.37-.33.28-.33.59-.64.91-.92.02-.03.05-.06.07-.08.92-.82,1.92-1.55,3.06-1.96.93-.34,1.91-.48,2.9-.52.05-.02.1-.03.16-.03.05,0,.09,0,.13.02.19-.04.39-.04.57,0,.97,0,1.93.06,2.86.11,2.34.12,4.67.35,6.98.72,1.13.18,2.26.38,3.39.62.86.18,1.88.3,2.71.69,0,0,0,.02,0,.03.63.25,1.18.81,1.32,1.5,0,.02,0,.03,0,.05.01,0,.02.01.04.02.18.46.3.95.4,1.38.26,1.11.36,2.26.38,3.4.05,2.14-.09,4.29-.24,6.42-.15,2.08-.38,4.16-.74,6.21-.43,2.4-1.05,4.79-1.96,7.06-.15.34-.29.68-.44,1.02-.52,1.17-1.12,2.3-1.83,3.36-2.33,3.5-5.62,6.2-9.14,8.31-3.15,1.89-6.56,3.29-10.09,4.17,3.61-2.22,6.71-5.33,9.43-8.63.51-.62,1.02-1.25,1.51-1.89.45-.58,1.04-1.19,1.33-1.87.05-.13-.08-.23-.18-.15-.65.54-1.14,1.4-1.67,2.07-.55.7-1.11,1.39-1.69,2.07-1.11,1.31-2.27,2.58-3.51,3.77-1.95,1.88-4.08,3.53-6.4,4.86-.02.01-.03.02-.05.03-.01,0-.03.01-.04.02,0,0-.01,0-.02.01,0,0,0,0,0,0-.31.16-.66.18-1,.24l-1.05.12c-.12.01-.3.05-.42.07-.03,0-.06.01-.07.01q-.42.07-.92.22s0,0,0,0c-.03.01-.06.02-.09.04-.04.02-.07.03-.11.05.51.14.99.31.9.57h0c-.05.15-.29.32-.81.54,0,.02-.13-.02-.32-.07-1.15,3.19-1.68,6.61-2.24,9.96-.67,4.02-1.43,8.01-2.26,12-1.69,8.12-3.68,16.16-5.42,24.27-.72,3.36-1.43,6.72-1.97,10.12-.06.24-.13.48-.19.73.2-1.58.4-3.16.63-4.74ZM148.84,46.35c.43,2.26.92,4.53,1.26,6.81.35,2.33.25,4.58-.41,6.85-.32,1.09-.71,2.15-1.1,3.22-.36.98-.76,1.95-1.31,2.82l-2.02,1.95c-.08.12-.16.23-.24.35-.77.56-1.6,1.05-2.41,1.52-1.23.71-2.51,1.32-3.82,1.86,2.66-1.91,4.8-4.65,5.98-7.73,1.27-3.3,1.19-6.84,1.01-10.33-.2-3.83-.65-7.58-1.34-11.34-.39-2.14-.76-4.31-1.31-6.41-.27-1.04-.55-2.08-.8-3.12-.25-1.03-.46-2.07-.86-3.06-.09-.23-.4-.05-.37.16.32,1.83,1.02,3.57,1.39,5.39.37,1.82.82,3.63,1.12,5.46.61,3.67,1.04,7.37,1.46,11.07.4,3.5.74,7.19-.22,10.63-.75,2.72-2.23,5.22-4.17,7.21-.94.97-2,1.79-3.12,2.48.53-.59,1.02-1.23,1.46-1.89.93-1.4,1.72-3.02,1.97-4.71.01-.09-.1-.12-.13-.04-.59,1.57-1.18,3.12-2.07,4.53-.45.7-.95,1.37-1.5,1.98-.14.16-.3.31-.46.45-1.37.47-2.77.85-4.18,1.15,0,0,0,0,0,0-.04,0-.08,0-.12,0,0,0,0,0-.01,0-.06.03-.13.05-.21.05-.02,0-.03,0-.05,0-.01,0-.03,0-.04,0,0,0-.01,0-.02,0-.19.08-.38.13-.57.11-.04.02-.07.04-.11.06-.03,0-.07.01-.1.02-.06.04-.14.06-.23.06-.02,0-.05,0-.07,0-.04,0-.08.01-.12.02-.19.03-.38.05-.57.08l.05-.07c.14-.17.22-.38.27-.6.02-.08.06-.16.12-.22,0,0,0-.02.01-.02-.03.02-.05.04-.08.07.13-.17.27-.34.38-.53,1.01-1.75.81-3.9.37-5.8-.51-2.2-1.31-4.32-1.97-6.48-.67-2.19-1.24-4.41-1.47-6.7-.61-6.06.79-11.91,2.53-17.66,0,.15-.02.29-.02.44,0,.95.13,1.89.22,2.83.17,1.85.29,3.7.4,5.55.01.18.27.18.26,0-.03-1.85-.06-3.7-.04-5.55.03-1.81.08-3.65.45-5.43.36-1.74.89-3.44,1.34-5.16.25-.92.49-1.83.74-2.75.22-.85.54-1.82.49-2.71,0-.06.33-1.91.17-1.26,0-.02,0-.03.01-.05.11-.51.17-1.12.54-1.52.31-.34.76-.48,1.22-.51h0s.01,0,.02,0c.48-.07,1-.02,1.38.21.88.29,1.66.86,2.33,1.52,1.47,1.44,2.5,3.33,3.36,5.21.94,2.06,1.7,4.19,2.33,6.38,1.25,4.33,2.14,8.75,2.99,13.18ZM119.45,15.61c.95-1.49,1.85-2.99,2.97-4.35,1.09-1.33,2.28-2.58,3.58-3.69,1.35-1.15,2.84-2.29,4.51-2.9.85-.31,1.76-.49,2.66-.33.91.17,1.68.69,2.35,1.33,1.31,1.25,2.28,2.83,3.16,4.43.91,1.67,1.75,3.38,2.53,5.12,1.58,3.52,2.91,7.16,3.94,10.89.16.57.3,1.15.44,1.72-.46-1.11-.92-2.23-1.36-3.35-.57-1.45-1.13-2.9-1.71-4.34-.58-1.42-1.2-2.82-1.8-4.23-.06-.14-.28-.04-.24.1.49,1.5.95,3,1.47,4.49.47,1.36.96,2.7,1.45,4.05-.06-.1-.11-.21-.16-.31-1-1.77-2.29-3.54-4.04-4.56-1.21-.7-3.11-1.15-4.31-.21,0,0,.01,0,.01-.01l-1.04.71s-.05.04-.08.06c-.01-.12-.02-.23-.03-.35-.22-1.99-.58-3.92-1.01-5.87-.04-.17-.32-.14-.29.04.23,1.96.32,3.95.4,5.92-.04-.12-.08-.24-.11-.36-.1-.7-.21-1.4-.36-2.09-.23-1.03-.52-2.04-.9-3.02-.35-.9-.72-1.83-1.27-2.62-.49-.7-1.16-1.28-2.03-1.31-1-.04-1.84.61-2.59,1.22-2.12,1.72-4.05,3.66-5.84,5.74-.04-.36-.08-.73-.15-1.08-.06-.27-.12-.54-.2-.8.03-.01.06-.03.08-.06ZM108.1,10.39c.02-.15.05-.3.08-.45.18-.83.7-1.67,1.21-2.35.55-.73,1.3-1.25,2.1-1.65,0,0,.01,0,.02,0,0,0,0,0,0,0,.18-.08.37-.14.56-.17.83-.14,1.5.37,2.04.96,2.17,2.38,3.64,5.49,4.45,8.64,0,.04.02.08.03.11.1.38.19.76.25,1.15.06.38.09.76.1,1.15,0,.2.01.39,0,.59,0,.02,0,.05,0,.07-.67.8-1.31,1.63-1.94,2.47-.69.93-1.36,1.88-2.01,2.85,0,0,0,0,0,0-.2.14-1.43,2.03-1.76,2.91,0,0-.22.34-.48.75,0,.01-.01.03-.02.04-.38.59-.83,1.28-.83,1.29-.03,0-.03-.74-.03-1.45-.25-.64-.15-1.31-.17-1.97-.17-.83-.41-1.98-.53-2.49-.53-2.31-1.23-4.53-2.16-6.7-.06-.14-.3-.04-.25.11.73,2.17,1.41,4.39,1.92,6.63.19.84.34,1.69.47,2.54-.02,0-.03,0-.05,0,0,0,0-.01,0-.02-.26-.97-.59-1.92-.94-2.86-.17-.47-.39-.92-.55-1.4l-.76-1.9c-.91-2.86-1.6-5.86-.74-8.83ZM105.42,22.66c.22-2.29.55-4.57,1.04-6.81.21-.99.45-1.98.71-2.96-.04,1.3.1,2.63.34,3.92.66,3.51,2.21,6.78,2.77,10.31.32,2.02.32,4.12.32,6.17-.24,1.15-.37,2.33-.37,3.51-.22-.92-.41-1.85-.62-2.78-.44-1.96-.68-3.94-.82-5.95-.01-.15-.22-.15-.23,0-.08,2.02,0,4.05.2,6.06.08.83.22,1.65.39,2.47-.41-.5-.82-1-1.22-1.5,0,0,0,0,0-.01l-.62-.8c-1.14-1.6-1.84-3.39-2.06-5.38-.22-2.08-.04-4.19.16-6.26ZM123.08,74.05s-.03-.09-.08-.12h-.79s-.04,0-.06,0c-.9-.17-1.78-.39-2.65-.67-1.74-.56-3.41-1.37-4.95-2.38-3.16-2.07-5.74-5.03-7.45-8.48-1.22-2.46-2.35-4.97-3.61-7.41-.05-.1-.23-.03-.19.08.92,2.32,1.9,4.61,2.92,6.88.87,1.93,1.82,3.81,3.12,5.46,2.33,2.94,5.41,5.2,8.81,6.59-1.13-.31-2.24-.73-3.3-1.24-4.2-2.04-7.59-5.56-10.34-9.39-1.42-1.98-2.76-4.08-3.84-6.29-1.21-2.48-1.84-5.16-2.32-7.88-.99-5.53-1.46-11.19-1.3-16.82.08-2.78.31-5.58,1.04-8.26.32-1.2.76-2.37,1.31-3.48-.21.76-.39,1.54-.56,2.31-.36,1.57-.62,3.17-.8,4.78-.35,3.18-.38,6.45.06,9.63.13.91.35,1.8.55,2.7.21.93.39,1.87.69,2.77.02.06.11.04.09-.03-.16-.78-.37-1.55-.52-2.34-.15-.8-.21-1.61-.3-2.43-.17-1.59-.33-3.17-.38-4.78-.09-3.18.19-6.36.85-9.47.35-1.63.88-3.2,1.35-4.79.39-.13.37.39.39.62.07.76.13,1.49.27,2.24.02.11.11.15.2.13.63,3.45,1.8,6.77,3.39,9.88.92,1.8,1.97,3.54,3.15,5.16.93,1.28,1.94,2.49,2.95,3.7.2.66.65,1,.98,1.61-.05.06.7.89.74.98.89,1.63,1.79,2.75,2.7,4.37.92,1.62,1.54,3.27,2.3,4.97,1.54,3.41,2.16,6.94,3.15,10.57.21.77.28,1.54.46,2.32.15,2.05.32,4.15.86,6.13.24.88.62,1.75,1.26,2.38-.05,0-.1-.01-.15-.02ZM125.61,74.25c-.46.01-.94-.1-1.32-.33-.08-.05-.14-.11-.17-.18-.02-.02-.04-.03-.07-.05,0-.02.01-.05,0-.07-.25-.93-.52-1.84-.66-2.8-.14-.94-.19-1.89-.21-2.83-.05-1.9.04-3.8-.16-5.7-.39-3.76-1.75-7.52-3.49-10.82-.07-.13-.27-.04-.22.1.56,1.86,1.31,3.65,1.89,5.51.59,1.88,1.08,3.79,1.27,5.76.18,1.89.15,3.8.24,5.7.07,1.47.2,3.07.73,4.46-.53-.82-.8-1.95-.95-2.83-.04-.24-.07-.48-.1-.73.02-.02.03-.05.03-.09-.06-.74-.15-1.48-.27-2.21-.08-1.1-.16-2.2-.3-3.29-.51-3.87-1.43-7.65-2.91-11.24-1.47-3.56-3.34-7.02-5.64-10.06-.42-.55-.86-1.09-1.3-1.62-.21-.61-.37-1.25-.48-1.89.11-.67.12-1.36.12-2.04,0-.85,0-1.7.01-2.56,0-.33,0-.65,0-.98.63-2.84,1.93-5.44,3.45-7.89.37-.48.73-.97,1.03-1.5.03-.06.05-.11.06-.17.18-.27.37-.55.56-.82,2.23-3.23,4.77-6.24,7.65-8.87.06-.05.11-.1.17-.15,0,.03.02.05.02.08.04-.11.11-.22.21-.31.04-.03.08-.06.13-.09.55-.49,1.1-.97,1.69-1.41.72-.53,1.58-.97,2.33-.26.61.57.95,1.44,1.28,2.21.38.89.7,1.83.97,2.76.98,3.43,1.19,6.97,1.13,10.51-.55,1.87-1.13,3.73-1.71,5.59-1.4,4.47-2.73,8.98-3.25,13.67-.26,2.32-.32,4.67-.06,7,.26,2.34.89,4.58,1.63,6.8.73,2.16,1.53,4.33,2.03,6.56.46,2.02.56,4.39-.85,6.01,0-.03.01-.06.02-.09-.2.26-.46.48-.77.65-.79.41-1.8.5-2.68.52-.12,0-.25,0-.38-.02-.02,0-.04,0-.05,0-.05.02-.11.04-.18.04-.06,0-.12-.01-.17-.03h-.17s-.07,0-.1-.01ZM132.6,162.57c-.48-1.29-.98-2.58-1.51-3.85-1.28-3.11-2.8-6.13-4.36-9.1-.09-.18-.34-.02-.26.16,1.42,3.07,2.68,6.2,3.94,9.34.49,1.23.96,2.47,1.43,3.71.01.04-.04.06-.06.02-1.37-2.89-2.87-5.71-4.34-8.46-2.48-4.63-5.01-9.25-7.06-14.12-2.32-5.5-4.03-11.25-6.03-16.88-3.48-9.83-8.15-19.72-16.88-25.56-8.2-5.49-18.12-6.94-27.19-10.21-4.68-1.69-9.74-3.78-12.97-7.87-2.59-3.28-3.66-7.47-4.2-11.62.34,1.18.77,2.33,1.24,3.43,1.35,3.11,3.27,5.9,5.7,8.19,5.07,4.78,11.76,6.89,18.16,8.94,1.8.57,3.59,1.14,5.37,1.75,1.83.63,3.61,1.37,5.41,2.08.1.04.17-.14.08-.19-2.91-1.5-6.11-2.45-9.2-3.44-3.12-1.01-6.25-2.03-9.3-3.27-3.07-1.25-6.02-2.93-8.64-5.02-2.65-2.11-4.85-4.77-6.49-7.79-1.23-2.27-2.01-4.67-2.5-7.16l-.2-1.12s-.01-.09-.02-.12c-.07-.82-.15-1.64-.21-2.46,0,0,0-.02,0-.02,2.36,6.53,6.21,13.08,11.98,16.9,6.78,4.49,15.23,3.79,22.92,4.04,5.01.16,10.2.5,15.03,2,.03.02.06.05.09.07.31.07.58.24.89.29,0,0,0,0,.01,0-.02-.02-.05-.04-.07-.06,2.07.72,4.07,1.67,5.94,2.93,6.27,4.24,10.38,11.23,13.75,18,3.63,7.29,6.16,15.02,7.16,23.16.17,2.24.35,6.72.52,8.95l.12,1.22h0s.54,5.5.54,5.5h0s.05.48.05.48c.03.12.05.25.08.37h0s0,.02,0,.03h0s0,.02,0,.02c0,.05,0,.1.01.16v.02c0,.07.01.15.02.22v.02c.16,1.87.34,3.74.52,5.61l-.37-3.65.75,7.57c.1.92.21,1.83.32,2.74l-.19,4.03ZM138.03,185.21c-.08-.53-.1-1-.21-1.7-.1-1.02-.27-1.43-.44-2.49-.76-4.35-.65-4.37-1.02-6.27-.85-5.39-1.98-10.99-2.62-16.42-1.09-9.39-1.65-18.84-2.43-28.25-.79-9.52-1.65-19.03-2.45-28.54-.4-4.76-.79-9.51-1.19-14.27-.19-2.34-.36-4.68-.59-7.02-.14-1.48-.35-3.08-1.18-4.33-.03-.04-.06-.08-.09-.12.57-.11,1.14-.26,1.69-.45.1.14.25.23.48.21.74-.05,1.48-.13,2.21-.23-.83,1.88-.54,4.7-.51,6.4.05,4.4.21,8.8.43,13.19.45,8.79,1.13,17.57,1.94,26.33.82,8.77,1.77,17.53,2.72,26.29.96,8.82,1.9,17.64,2.88,26.46.98,8.84,1.92,17.67,2.94,26.5.02.15.04.3.06.45-.25,1.13-.49,2.27-.72,3.41,0,.03-.05.03-.05,0,0-.73,0-1.46-.03-2.18-.15-4.51-.54-9.05-1.35-13.48-.22-1.22-.26-2.01-.48-3.49ZM142.55,253.03c.07.19.15.35.19.52.02,0,.04,0,.05,0,.11.29.21.57.32.86.17.45.41.88,0,1.26-.37.33-.89.5-1.34.67-.56.21-1.14.38-1.72.52-.58.14-1.17.25-1.77.32-.42.05-.95.15-1.18-.32-.19-.4-.18-.91-.19-1.35-.03-.69-.05-1.38-.07-2.07-.04-1.32-.07-2.64-.08-3.95-.03-2.64-.01-5.27.05-7.91.2-8.6.85-17.18,1.99-25.7.08-.3.15-.56.19-.71.56-2.16.77-3.98.85-6.21,0-.01,0-.02,0-.03.33-1.96.68-3.91,1.05-5.86.01-.06.09-.06.11,0,.05.15.12.29.15.47,0,.04,0,.11,0,.16,0,.06.01.12,0,.19-.2,1.53-.37,3.06-.51,4.59,0,0,0,.01,0,.01-.19,1.37-.37,2.73-.49,4.11-.2,2.22-.33,4.49-.05,6.71.14,1.12.4,2.2.77,3.26.09.52.18,1.03.28,1.55.03.36.05.4.05,1.05l.03,2.43s-.05.26,0,.27c-.07,1.97-.08,3.95-.1,5.91-.03,3.09-.02,6.17.09,9.26.06,1.73.16,3.46.34,5.18-.02,0-.03.01-.05.02.02.05.03.11.03.17.02,1.11.33,2.17.63,3.23.13.46.2.97.37,1.42ZM189.59,153.16c-.95.41-1.87.86-2.77,1.38,0,0,0,.01-.01.02-3.21,1.72-6.29,3.73-9.12,6.02-4.45,3.58-8.49,7.7-11.7,12.53-3.48,5.24-5.55,11.2-7.94,17.01-1.21,2.94-2.54,5.84-4.21,8.52-.9,1.44-1.93,2.78-2.98,4.09,2.1-4.87,4.18-9.75,6.23-14.64,1.07-2.56,2.05-5.17,3.14-7.72.97-2.27,2.12-4.45,3.41-6.54.73-1.18,1.46-2.34,2.33-3.42.88-1.09,1.87-2.04,2.88-2.99.1-.1-.03-.29-.15-.2-1.89,1.41-3.39,3.34-4.75,5.28-1.44,2.05-2.46,4.37-3.51,6.66-2.41,5.26-4.65,10.6-6.86,15.95-1.18,2.84-2.33,5.7-3.48,8.56-.75.92-1.51,1.85-2.22,2.8-.36.47-.62.96-.9,1.45,0,0,0,.02-.01.02-.02.04-.05.08-.07.12,0,0,0,0,0,0-.04.06-.08.12-.12.17-.02.03-.04.07-.06.1.03-.04.05-.07.08-.11-.06.09-.11.18-.17.28-.89,1.58-2.04,3.31-2.73,4.94-.02.05-.1.03-.09-.03.15-.71.3-1.42.46-2.13,1.16-5.25,2.84-10.39,4.95-15.31,1.18-2.74,2.51-5.39,3.87-8.04.13-.25-.23-.47-.37-.23-2.67,4.61-4.79,9.65-6.54,14.7-1.78,5.13-3.19,10.38-4.07,15.76-.2,1.21-.39,2.43-.58,3.64-.01.06-.1.06-.11,0-.03-.16-.06-.32-.09-.48-.08-1.37-.11-2.75-.12-4.13l.34-7.23s0,0,0,0c0,.02,0,.03,0,.05,0-.02,0-.04.01-.06h0s0-.01,0-.02c.07-.67.05-.97.12-1.65.51-3.53,1.26-7.02,2.24-10.44,2.17-7.54,5.45-14.81,9.73-21.31,4.31-6.55,9.64-12.58,15.89-17.17,3.12-2.29,6.5-4.23,10.11-5.55.73-.27,1.48-.5,2.22-.71l2.39-.66c1.85-.44,5.02.07,6.92,0-.53.23-1.06.47-1.58.72ZM207.94,150.67c-1.79-.09-3.56-.16-5.36-.09-1.54.06-3.08.19-4.62.39-1.36-.06-2.73-.11-4.09-.12-4.14-.04-8.29.27-12.29,1.44-3.72,1.09-7.24,2.83-10.5,4.98-6.5,4.3-12.04,10.16-16.61,16.58-1.53,2.16-2.95,4.4-4.27,6.7l-3.65,6.9s-.08.01-.07-.03c.31-.8.62-1.6.93-2.4,1.04-2.63,2.08-5.27,3.14-7.89.96-2.37,1.91-4.73,3.05-7.01,1.22-2.44,2.64-4.79,4.49-6.76.13-.14-.07-.35-.21-.22-3.54,3.51-5.47,8.19-7.55,12.7-1.2,2.59-2.34,5.22-3.42,7.87-.95,2.33-1.9,4.67-2.7,7.05.2-1,.46-1.51.68-2.5.14-.55.14-.58.17-.7.23-1.16.45-2.32.67-3.48.09-.35.18-.71.28-1.06,2.42-8.74,6.21-17.25,12.03-24.11,3.04-3.59,6.66-6.83,10.89-8.78,4.53-2.08,9.48-2.78,14.39-3.05,2.81-.16,5.62-.18,8.44-.21.05.08.12.13.23.13,3.79-.04,7.61-.11,11.37.44,1.12.16,2.23.38,3.33.63-1.42-.11-2.84-.19-4.27-.22-3.53-.08-7.05.17-10.55.66-2,.28-3.99.67-5.98,1.08-.18.04-.1.31.07.28,3.47-.56,7.04-.85,10.55-.85,3.49,0,6.97.01,10.46.34,1.96.18,3.9.52,5.86.56.04,0,.08-.01.12-.02.47.15.95.29,1.43.42.45.12.92.23,1.4.32-1.79-.21-6.31.12-7.86.04ZM234.54,133.34c-1.1,1.64-2.22,3.27-3.36,4.88-1.12,1.59-2.25,3.17-3.39,4.74-1.08,1.5-2.11,3.09-3.34,4.46-1.15,1.29-2.56,2.08-4.23,2.35-.22.04-.45.06-.68.08-.04,0-.04.03-.12.03-.11,0-.19,0-.28,0-1.38.05-2.77-.2-4.09-.56-1.8-.48-3.54-1.16-5.33-1.68-.65-.19-1.31-.36-1.96-.51l-1.18-.25-2.23-.75c2.56-.36,5.09-.89,7.59-1.68,8.58-2.71,16.32-7.61,23.34-13.34.53-.43,1.05-.88,1.57-1.32-.8,1.16-1.54,2.38-2.32,3.55ZM131.47,145.32c-.03-.12-.05-.25-.08-.37l.05.47c.03.12.05.25.08.37l-.05-.47ZM131.47,145.32c-.03-.12-.05-.25-.08-.37l.05.47c.03.12.05.25.08.37l-.05-.47ZM131.47,145.32c-.03-.12-.05-.25-.08-.37l.05.47c.03.12.05.25.08.37l-.05-.47Z" fill="#974b06"/>
    <path d="M140.66,200.96c-.25,1.13-.49,2.27-.72,3.41,0,.03-.05.03-.05,0,0-.73,0-1.46-.03-2.18-.15-4.51-.54-9.05-1.35-13.48-.22-1.22-.26-2.01-.48-3.49-.08-.53-.1-1-.21-1.7-.1-1.02-.27-1.43-.44-2.49-.76-4.35-.65-4.37-1.02-6.27-.85-5.39-1.98-10.99-2.62-16.42-1.09-9.39-1.65-18.84-2.43-28.25-.79-9.52-1.65-19.03-2.45-28.54-.4-4.76-.79-9.51-1.19-14.27-.19-2.34-.36-4.68-.59-7.02-.14-1.48-.35-3.08-1.18-4.33-.03-.04-.06-.08-.09-.12.57-.11,1.14-.26,1.69-.45.1.14.25.23.48.21.74-.05,1.48-.13,2.21-.23-.83,1.88-.54,4.7-.51,6.4.05,4.4.21,8.8.43,13.19.45,8.79,1.13,17.57,1.94,26.33.82,8.77,1.77,17.53,2.72,26.29.96,8.82,1.9,17.64,2.88,26.46.98,8.84,1.92,17.67,2.94,26.5.02.15.04.3.06.45Z" fill="#974b06"/>
    <path d="M156.87,127.62c-1.15,3.19-1.68,6.61-2.24,9.96-.67,4.02-1.43,8.01-2.26,12-1.69,8.12-3.68,16.16-5.42,24.27-.72,3.36-1.43,6.72-1.97,10.12-.06.24-.13.48-.19.73.2-1.58.4-3.16.63-4.74.64-4.45,1.37-8.89,2.12-13.33,1.52-8.91,3.23-17.78,4.85-26.67.45-2.46.9-4.92,1.34-7.38.36-2.02.77-4.09.8-6.16.13.27.53.4.78.58.5.35,1.54.32.42.28-.04,0,.7.23,1.14.35Z" fill="#974b06"/>
    <path d="M143.12,255.66c-.37.33-.89.5-1.34.67-.56.21-1.14.38-1.72.52-.58.14-1.17.25-1.77.32-.42.05-.95.15-1.18-.32-.19-.4-.18-.91-.19-1.35-.03-.69-.05-1.38-.07-2.07-.04-1.32-.07-2.64-.08-3.95-.03-2.64-.01-5.27.05-7.91.2-8.6.85-17.18,1.99-25.7.08-.3.15-.56.19-.71.56-2.16.77-3.98.85-6.21,0-.01,0-.02,0-.03.33-1.96.68-3.91,1.05-5.86.01-.06.09-.06.11,0,.05.15.12.29.15.47,0,.04,0,.11,0,.16,0,.06.01.12,0,.19-.2,1.53-.37,3.06-.51,4.59,0,0,0,.01,0,.01-.19,1.37-.37,2.73-.49,4.11-.2,2.22-.33,4.49-.05,6.71.14,1.12.4,2.2.77,3.26.09.52.18,1.03.28,1.55.03.36.05.4.05,1.05l.03,2.43s-.05.26,0,.27c-.07,1.97-.08,3.95-.1,5.91-.03,3.09-.02,6.17.09,9.26.06,1.73.16,3.46.34,5.18-.02,0-.03.01-.05.02.02.05.03.11.03.17.02,1.11.33,2.17.63,3.23.13.46.2.97.37,1.42.07.19.15.35.19.52.02,0,.04,0,.05,0,.11.29.21.57.32.86.17.45.41.88,0,1.26Z" fill="#974b06"/>
    <path d="M215.8,150.63c-1.79-.21-6.31.12-7.86.04-1.79-.09-3.56-.16-5.36-.09-1.54.06-3.08.19-4.62.39-1.36-.06-2.73-.11-4.09-.12-4.14-.04-8.29.27-12.29,1.44-3.72,1.09-7.24,2.83-10.5,4.98-6.5,4.3-12.04,10.16-16.61,16.58-1.53,2.16-2.95,4.4-4.27,6.7l-3.65,6.9s-.08.01-.07-.03c.31-.8.62-1.6.93-2.4,1.04-2.63,2.08-5.27,3.14-7.89.96-2.37,1.91-4.73,3.05-7.01,1.22-2.44,2.64-4.79,4.49-6.76.13-.14-.07-.35-.21-.22-3.54,3.51-5.47,8.19-7.55,12.7-1.2,2.59-2.34,5.22-3.42,7.87-.95,2.33-1.9,4.67-2.7,7.05.2-1,.46-1.51.68-2.5.14-.55.14-.58.17-.7.23-1.16.45-2.32.67-3.48.09-.35.18-.71.28-1.06,2.42-8.74,6.21-17.25,12.03-24.11,3.04-3.59,6.66-6.83,10.89-8.78,4.53-2.08,9.48-2.78,14.39-3.05,2.81-.16,5.62-.18,8.44-.21.05.08.12.13.23.13,3.79-.04,7.61-.11,11.37.44,1.12.16,2.23.38,3.33.63-1.42-.11-2.84-.19-4.27-.22-3.53-.08-7.05.17-10.55.66-2,.28-3.99.67-5.98,1.08-.18.04-.1.31.07.28,3.47-.56,7.04-.85,10.55-.85,3.49,0,6.97.01,10.46.34,1.96.18,3.9.52,5.86.56.04,0,.08-.01.12-.02.47.15.95.29,1.43.42.45.12.92.23,1.4.32Z" fill="#974b06" opacity=".42"/>
    <path d="M236.86,129.79c-.8,1.16-1.54,2.38-2.32,3.55-1.1,1.64-2.22,3.27-3.36,4.88-1.12,1.59-2.25,3.17-3.39,4.74-1.08,1.5-2.11,3.09-3.34,4.46-1.15,1.29-2.56,2.08-4.23,2.35-.22.04-.45.06-.68.08-.04,0-.04.03-.12.03-.11,0-.19,0-.28,0-1.38.05-2.77-.2-4.09-.56-1.8-.48-3.54-1.16-5.33-1.68-.65-.19-1.31-.36-1.96-.51l-1.18-.25-2.23-.75c2.56-.36,5.09-.89,7.59-1.68,8.58-2.71,16.32-7.61,23.34-13.34.53-.43,1.05-.88,1.57-1.32Z" fill="#974b06" opacity=".42"/>
    <path d="M191.17,152.44c-.53.23-1.06.47-1.58.72-.95.41-1.87.86-2.77,1.38,0,0,0,.01-.01.02-3.21,1.72-6.29,3.73-9.12,6.02-4.45,3.58-8.49,7.7-11.7,12.53-3.48,5.24-5.55,11.2-7.94,17.01-1.21,2.94-2.54,5.84-4.21,8.52-.9,1.44-1.93,2.78-2.98,4.09,2.1-4.87,4.18-9.75,6.23-14.64,1.07-2.56,2.05-5.17,3.14-7.72.97-2.27,2.12-4.45,3.41-6.54.73-1.18,1.46-2.34,2.33-3.42.88-1.09,1.87-2.04,2.88-2.99.1-.1-.03-.29-.15-.2-1.89,1.41-3.39,3.34-4.75,5.28-1.44,2.05-2.46,4.37-3.51,6.66-2.41,5.26-4.65,10.6-6.86,15.95-1.18,2.84-2.33,5.7-3.48,8.56-.75.92-1.51,1.85-2.22,2.8-.36.47-.62.96-.9,1.45,0,0,0,.02-.01.02-.02.04-.05.08-.07.12,0,0,0,0,0,0-.04.06-.08.12-.12.17-.02.03-.04.07-.06.1.03-.04.05-.07.08-.11-.06.09-.11.18-.17.28-.89,1.58-2.04,3.31-2.73,4.94-.02.05-.1.03-.09-.03.15-.71.3-1.42.46-2.13,1.16-5.25,2.84-10.39,4.95-15.31,1.18-2.74,2.51-5.39,3.87-8.04.13-.25-.23-.47-.37-.23-2.67,4.61-4.79,9.65-6.54,14.7-1.78,5.13-3.19,10.38-4.07,15.76-.2,1.21-.39,2.43-.58,3.64-.01.06-.1.06-.11,0-.03-.16-.06-.32-.09-.48-.08-1.37-.11-2.75-.12-4.13l.34-7.23s0,0,0,0c0,.02,0,.03,0,.05,0-.02,0-.04.01-.06h0s0-.01,0-.02c.07-.67.05-.97.12-1.65.51-3.53,1.26-7.02,2.24-10.44,2.17-7.54,5.45-14.81,9.73-21.31,4.31-6.55,9.64-12.58,15.89-17.17,3.12-2.29,6.5-4.23,10.11-5.55.73-.27,1.48-.5,2.22-.71l2.39-.66c1.85-.44,5.02.07,6.92,0Z" fill="#974b06" opacity=".42"/>
    <path d="M126.47,149.78c1.42,3.07,2.68,6.2,3.94,9.34.49,1.23.96,2.47,1.43,3.71.01.04-.04.06-.06.02-1.37-2.89-2.87-5.71-4.34-8.46-2.48-4.63-5.01-9.25-7.06-14.12-2.32-5.5-4.03-11.25-6.03-16.88-3.48-9.83-8.15-19.72-16.88-25.56-8.2-5.49-18.12-6.94-27.19-10.21-4.68-1.69-9.74-3.78-12.97-7.87-2.59-3.28-3.66-7.47-4.2-11.62.34,1.18.77,2.33,1.24,3.43,1.35,3.11,3.27,5.9,5.7,8.19,5.07,4.78,11.76,6.89,18.16,8.94,1.8.57,3.59,1.14,5.37,1.75,1.83.63,3.61,1.37,5.41,2.08.1.04.17-.14.08-.19-2.91-1.5-6.11-2.45-9.2-3.44-3.12-1.01-6.25-2.03-9.3-3.27-3.07-1.25-6.02-2.93-8.64-5.02-2.65-2.11-4.85-4.77-6.49-7.79-1.23-2.27-2.01-4.67-2.5-7.16l-.2-1.12s-.01-.09-.02-.12c-.07-.82-.15-1.64-.21-2.46,0,0,0-.02,0-.02,2.36,6.53,6.21,13.08,11.98,16.9,6.78,4.49,15.23,3.79,22.92,4.04,5.01.16,10.2.5,15.03,2,.03.02.06.05.09.07.31.07.58.24.89.29,0,0,0,0,.01,0-.02-.02-.05-.04-.07-.06,2.07.72,4.07,1.67,5.94,2.93,6.27,4.24,10.38,11.23,13.75,18,3.63,7.29,6.16,15.02,7.16,23.16.17,2.24.35,6.72.52,8.95l.12,1.22c-1.18-3.95-4.06-12.43-5.62-16.08-.46-1.08-.94-2.16-1.45-3.23-.52-1.09-1.02-2.2-1.64-3.23-.09-.15-.36-.05-.29.13.76,1.92,1.72,3.76,2.54,5.65.84,1.95,1.61,3.92,2.35,5.91,1.36,3.66,2.38,6.89,3.35,10.69.18,1.01.5,2.54.8,3.51.02.06.05.1.08.14.15.66.29,1.33.43,1.99h0s.05.48.05.48c.03.12.05.25.08.37h0s.05.46.05.46v.02c.16,1.87.34,3.74.52,5.61l-.37-3.65.75,7.57c.1.92.21,1.83.32,2.74l-.19,4.03c-.48-1.29-.98-2.58-1.51-3.85-1.28-3.11-2.8-6.13-4.36-9.1-.09-.18-.34-.02-.26.16Z" fill="#974b06" opacity=".42"/>
    <path d="M189.87,92.82c-.29,4.23-1.44,8.42-3.17,12.25-.32.7-.66,1.39-1.01,2.07-.04.03-.07.07-.11.1-.34.27-.65.57-.96.88,1.97-5.26,2.51-11.14,2.71-16.78.08-2.33.08-4.74-.65-6.97-.05-.16-.12-.32-.18-.48.91-.91,1.83-1.83,2.8-2.67.03.19.06.39.1.6.09.56.18,1.12.25,1.68.13,1.03.21,2.07.26,3.1.11,2.08.11,4.15-.03,6.22Z" fill="#974b06" opacity=".7"/>
    <path d="M197.42,78.54c-.03.38-.07.76-.12,1.14-.6,5.45-1.89,10.84-3.85,15.93-.61,1.58-1.29,3.13-2.04,4.64,0,0-.01.01-.02.02-.44.77-.9,1.52-1.37,2.25-1.04,1.48-2.28,2.8-3.63,3.99,1.04-2.1,1.89-4.29,2.57-6.56,1.21-4.04,2.02-8.35,1.98-12.6,0-1.18-.08-2.35-.21-3.53-.07-.61-.14-1.21-.24-1.82-.08-.51-.13-1.04-.33-1.52.61-.47,1.25-.91,1.93-1.28,1.1-.61,2.31-1.08,3.56-1.25.29-.04.58-.06.87-.07.21,0,.6-.07.8.02.21.1.11.41.09.63Z" fill="#974b06" opacity=".7"/>
    <path d="M167.01,56.76c-1.23-.33-2.55-.28-3.71.28-1.14.55-2.05,1.49-2.87,2.46-1.51,1.79-2.85,3.73-4.13,5.7-1.28,1.97-1.59,3.95-2.59,6.08h0c.26-.54.53-1.08.82-1.61.87-1.65,1.79-3.39,3.07-4.75.08-.09.21.02.15.12-.98,1.9-2.21,3.65-3.18,5.57-1.78,3.51-3.13,8.9-4.27,12.67.34-.56,1.75-2.83,2.13-3.37,2.92-4.11,6.61-7.55,9.63-11.59.8-1.07,1.54-2.18,2.51-3.09.94-.88,2-1.59,3.14-2.15,1.5-.74,3.08-1.35,4.7-1.82-1.47-1.95-2.98-3.86-5.4-4.51ZM150.34,83.2c.02-.05.27-.47.53-.91l-.53.91ZM150.92,82.21l.52-.89c-.02.05-.27.46-.52.89Z" fill="#974b06" opacity=".7"/>
    <path d="M177.39,78.73c-.23.25-.45.51-.68.77.09-1.74.16-3.47.09-5.22-.07-1.77-.33-3.52-.57-5.27-.02-.15-.26-.11-.25.04.1,1.78.04,3.56,0,5.34-.04,1.78-.1,3.58-.3,5.34,0,.04,0,.08.01.13-.3-.04-.59-.07-.89-.11-2.37-.25-4.79-.44-7.18-.37-.45.01-.91.05-1.36.11l-1.09.19c-.3.07-.6.16-.89.27-.05.02-.09.04-.14.06.47-2.5,1.21-4.94,2.14-7.3.52-1.31,1.1-2.59,1.71-3.86.6-1.24,1.21-2.5,1.98-3.63.71-1.04,1.65-1.89,2.71-2.52.52-.31,1.07-.58,1.64-.81.58-.24,1.3-.58,1.68.14.29.54.42,1.22.59,1.81.18.66.34,1.34.48,2.01.3,1.44.5,2.89.64,4.35.27,2.8.14,5.74-.32,8.53Z" fill="#974b06" opacity=".7"/>
    <path d="M127.35,46.83c-.26,2.32-.32,4.67-.06,7,.26,2.34.89,4.58,1.63,6.8.73,2.16,1.53,4.33,2.03,6.56.46,2.02.56,4.39-.85,6.01,0-.03.01-.06.02-.09-.2.26-.46.48-.77.65-.79.41-1.8.5-2.68.52-.12,0-.25,0-.38-.02-.02,0-.04,0-.05,0-.05.02-.11.04-.18.04-.06,0-.12-.01-.17-.03h-.17s-.07,0-.1-.01c-.46.01-.94-.1-1.32-.33-.08-.05-.14-.11-.17-.18-.02-.02-.04-.03-.07-.05,0-.02.01-.05,0-.07-.25-.93-.52-1.84-.66-2.8-.14-.94-.19-1.89-.21-2.83-.05-1.9.04-3.8-.16-5.7-.39-3.76-1.75-7.52-3.49-10.82-.07-.13-.27-.04-.22.1.56,1.86,1.31,3.65,1.89,5.51.59,1.88,1.08,3.79,1.27,5.76.18,1.89.15,3.8.24,5.7.07,1.47.2,3.07.73,4.46-.53-.82-.8-1.95-.95-2.83-.04-.24-.07-.48-.1-.73.02-.02.03-.05.03-.09-.06-.74-.15-1.48-.27-2.21-.08-1.1-.16-2.2-.3-3.29-.51-3.87-1.43-7.65-2.91-11.24-1.47-3.56-3.34-7.02-5.64-10.06-.42-.55-.86-1.09-1.3-1.62-.21-.61-.37-1.25-.48-1.89.11-.67.12-1.36.12-2.04,0-.85,0-1.7.01-2.56,0-.33,0-.65,0-.98.63-2.84,1.93-5.44,3.45-7.89.37-.48.73-.97,1.03-1.5.03-.06.05-.11.06-.17.18-.27.37-.55.56-.82,2.23-3.23,4.77-6.24,7.65-8.87.06-.05.11-.1.17-.15,0,.03.02.05.02.08.04-.11.11-.22.21-.31.04-.03.08-.06.13-.09.55-.49,1.1-.97,1.69-1.41.72-.53,1.58-.97,2.33-.26.61.57.95,1.44,1.28,2.21.38.89.7,1.83.97,2.76.98,3.43,1.19,6.97,1.13,10.51-.55,1.87-1.13,3.73-1.71,5.59-1.4,4.47-2.73,8.98-3.25,13.67Z" fill="#974b06" opacity=".7"/>
    <path d="M163.12,80.46s0,0,0,0c.03-.01.05-.02,0,0Z" fill="#974b06"/>
    <path d="M192.55,101.49s0-.02.02-.03c0,.02,0,.04-.02.03Z" fill="#974b06"/>
    <path d="M147.33,100.74s0-.02,0-.02c0,0,0,.01,0,.02Z" fill="#974b06"/>
    <path d="M147.72,101.12s0,0,0,0c0,0,0,0,0,0Z" fill="#974b06"/>
    <path d="M131.4,144.94h0c-.14-.67-.29-1.33-.43-1.99-.03-.04-.06-.08-.08-.14-.3-.98-.62-2.51-.8-3.51-.97-3.8-1.99-7.03-3.35-10.69-.74-1.99-1.51-3.96-2.35-5.91-.82-1.89-1.77-3.74-2.54-5.65-.07-.18.2-.27.29-.13.63,1.02,1.13,2.14,1.64,3.23.5,1.06.99,2.14,1.45,3.23,1.56,3.64,4.44,12.13,5.62,16.08h0c.02.06.03.12.05.18l.57,5.7c-.03-.12-.05-.25-.08-.37Z" fill="#974b06"/>
    <path d="M131.76,148.15l-.19-1.88v-.02s-.05-.45-.05-.45h0s-.05-.47-.05-.47c0,.01,0,.02,0,.03l.05.47h0s.02.18.02.18v.02s.21,2.13.21,2.13Z" fill="#974b06"/>
    <path d="M157.23,127.61s-.13-.02-.32-.07c0,0,0,0,0-.01-.34-.11-.4-.67-.08-.87.1-.06.2-.11.3-.16.79.22,1.53.5.09,1.11Z" fill="#974b06"/>
  </g>
</svg>