<?xml version="1.0" encoding="UTF-8"?>
<svg id="Capa_1" data-name="Capa 1" xmlns="http://www.w3.org/2000/svg" viewBox="0 0 295.95 224.55">
  <path d="M101.34,113.86c-1.63,2.18-3.14,4.07-4.37,6.34-.14.26-.74.57-.97.63s-.23-1-.42-1.13c-1.25-.89-2.16-2.24-1.97-3.98.15-1.44-.37-3.22.4-4.54.93-1.61,2.53-2.73,3.9-3.92s2.52-2.72,4.44-3.22c-.51,2.06-2.04,3.1-3.11,4.58l-3.19,4.44c-.15,1.13.43,2.31.76,3.39.85-1.99,2.02-3.37,3.29-4.94,5.23-6.45,14.82-14.2,22.14-18.17.53-.29,1.11-.68,1.93-.27l-5.95,5.65c8.28-4.1,15.14-7.98,25.07-7.78,1.59.03,3.24-.48,4.53.66-.95.75-2.01.85-3.03,1.05-4.67.93-9.12,2.02-13.57,3.61-3.88,1.39-7.11,3.34-10.06,6.19-1.34,1.29-2.77,2.37-4.03,3.79-1.31,1.48-2.87,2.7-4.34,4.13-4.4,4.26-7.98,9.11-11.5,14.15-2.05,2.93-3.88,5.76-6.33,8.41-.74-.49-.64-1.25-.29-1.76,1.35-2.02,2.26-4.11,3.21-6.31,1.95-4.5,5.2-7.95,8.45-11.51,2.88-3.16,5.74-5.95,9.44-8.19,1.63-.98,2.88-2.25,4.12-3.61,1.75-1.93,3.92-3.24,5.45-5.57-6.39,2.65-11.68,6.74-16.88,11.02-2.57,2.12-5.08,4.11-7.14,6.87Z" fill="#33351f"/>
  <path d="M151.92,124.26c-4.31-.52-8.2.51-12.18,1.91-2.15,1.58-4.38,3.19-5.93,5.46-2.08,3.04-3.85,6.18-5.25,9.59l-1.75,5.71c-1.37,4.47-.47,11.4-1.31,11.87-.2.11-.69-.1-.8-.51-1.73-6.48-.91-13.13,1.94-19.14,1.41-2.98,2.76-5.82,5.21-8.01,1.45-3.57,4.09-6.12,7.49-7.56,5.5-2.33,11.36-3.78,17.1-1.68l2.38.87c5.64,2.07,9.61,6.63,12.12,12.07,3.37,7.32,3.94,17.09,1.99,24.97-.52,2.08-.64,4.18-1.98,6.15-1.07-.63.1-3.66.19-7.7.15-6.58-.09-13.03-1.99-19.29-2.44-8.07-8.62-13.68-17.23-14.72Z" fill="#33351f"/>
  <path d="M196.17,134.21c.2.31-.88,1.36-.63,1.68,1.58,2.05,2.92,4.03,4.79,5.78l3.97,2.46c.21.63-.53,1.45-.97,1.52-.55.09-1.61.13-2.21-.41-3.35-3.01-6.14-6.69-8.3-10.68l-4.41-8.15c-4.8-8.87-17.59-17.78-27.55-21.08-4.01-1.33-7.93-2.23-12.11-2.88-.59-.09-.5-1.18-.27-1.54.87-1.37,5.86-.26,9.11.42,7.86,1.66,14.79,5.19,21.06,10.04,1.37,1.06,2.82,1.88,3.83,3.48.52.19,1.42.05,2.09.07,3.37,2.53,12.79,10.15,12.02,11.68-.22.43-.93,1.05-1.41.64l-3.7-3.2c-2.55-2.21-3.97-5.19-7.01-7,2.34,3.21,4.42,6.04,6.5,9.23l5.18,7.94Z" fill="#33351f"/>
  <path d="M127.55,129.35c-.84.74-1.79.74-2.44,1.78-1.13,1.81-2.12,3.71-1.35,5.97-2.87,9.14-3.8,18.42-.99,27.64,1.12,3.67,3.91,5.57,2.45,6.91-.31.29-.93.28-1.37-.23-3.06-3.64-4.7-7.93-5.16-12.67-1.05-11,.37-21.69,6.5-30.94,2.87-4.32,6.55-7.52,11.14-9.91,2.93-1.53,5.77-2.78,8.96-3.61,1.63-.43,2.7-.27,4.32.08,2.22.49,4.59.34,6.62,1.63.31.2.8.63.69.92-.13.34-.7.71-1.13.65l-5.66-.86c-4.92-.35-9.91,1.13-14.02,4.22,3.28-1.13,6.61-2.33,10.37-1.88-.6,1.16-1.85,1.13-2.93,1.42-2.55.69-4.94,1.37-7.56,1.13-.8.97-1.89,1.31-2.85,1.97-2.2,1.52-3.49,3.94-5.59,5.79Z" fill="#33351f"/>
  <path d="M131.17,179.51c0,1.01-.64,1.8-1.05,2.17-.56.52-1.52.56-2.34.35-12.82-3.16-16.65-15.83-16.3-28.19.06-1.98.3-3.6,1.14-5.4v-3.15c.07-.79,1.07-.48.71.45l2.44-5.83c.08,2.85-.66,5.21-1.02,7.79-.96,6.76-.57,13.35,1.44,19.83,1.81,5.83,6.06,10.23,11.87,11.7l-.25-15.09c-.1-6.02-.89-12.2,1.26-18.23l1.67,19.98c.38,4.53.47,8.91.43,13.61Z" fill="#33351f"/>
  <path d="M186.06,162.87c-.2-7.03-.5-14.84-1.86-21.44-3.22-15.53-12.25-25.59-27.64-29.79-2.09-.57-3.89-1.42-6.08-1.63-.69-.06-1.52-1.24-1.1-1.66,2.37-.5,4.76-.65,7.12-.13,12.42,2.74,22.83,11.09,27.68,22.83,1.33,3.22,1.75,6.4,2.52,9.75,1.29,5.66,1.95,11.33,1.22,17.11-.22,1.73-.3,3.58-1.85,4.95Z" fill="#33351f"/>
  <path d="M100.76,171.03c-3.16,4.65-7.08,7.55-7.42,4.77-.06-.49-.15-1.5.45-1.92,1.49-1.04,2.86-2.41,4.5-3.09,2.83.57,1.26-3.85,5.22-8.14.28-.31.99-.27,1.4-.3-.23-2.35.29-4.43.21-6.85-2.93,3.97-5.49,7.75-8.77,11.1-.63.64-1.54.92-2.18.5s-.85-1.29-.54-2.11c.53-1.38,9.09-5.86,13.81-20.69.21-.67,1.01-1.01,1.48-.95.56.07,1.22,1.05.77,1.74-.74,1.14-1.05,2.93-1.77,3.87-1.23,1.62-.29,2.75-.03,4.03-.34,4.38-.46,8.56.4,12.97,1.32,6.77,3.81,12.21,10.56,14.49.42.14.29,1.19,0,1.36-2.33,1.3-6.23-1.2-8.38-3.85-3.11-3.84-4.59-8.5-5.25-13.49l-4.45,6.55Z" fill="#33351f"/>
  <path d="M114.17,119.28c-3.77,4.95-7.11,9.72-10.41,14.82-2.46,3.8-5.05,7.27-7.92,10.7-.47.56-1.62.55-1.97.01-.62-.95-.39-2.18.34-2.97,2.37-2.57,4.59-5.11,6.45-8.08l5.1-8.13c2.43-3.87,4.94-7.47,8.2-10.55.32.54.84.61,1.19.3,2.19-1.93,4.62-3.3,7.1-4.79,3.24-1.94,6.43-3.62,10.16-4.52.84-.2,2.46-.08,2.57,1.02-.17,1.19-2.01,1.81-3.14,2.34-3.24,1.51-6.41,3.07-9.05,5.47l-6.46,7.27c-.46-.25-.75-.61-.78-.86-.1-.81,1.78-3.96,3.68-5.23,1.05-.7,1.73-1.69,2.27-2.6l-1.14-.21c-2.26,1.74-4.33,3.61-6.18,6.03Z" fill="#33351f"/>
  <path d="M170.16,171.91c3.84-3.99,5.89-8.67,7.22-13.9,1.96-7.72-.11-16.98-3.27-24.36-2.78-6.49-7.47-11.5-13.83-14.54-.53-.28-.76-.78-.67-1.09.14-.47.62-.86,1.23-.62,8.1,3.2,13.87,9.66,16.84,17.86,3.73,10.33,4.4,19.78.35,30.09-1.4,3.56-3.9,6.5-6.62,9.08-.41.39-1.42-.32-1.44-.7s-.34-1.26.19-1.82Z" fill="#33351f"/>
  <path d="M159.53,83.51c-6.29-1.38-12.99-2.73-18.52-.76-.77.28-1.58-.1-1.81-.8,2.6-1.75,5.54-1.37,7.08-2.62-7.58.75-14.75,2.79-21.69,5.93-.57.26-1.13.58-1.96-.2,1.63-1.51,3.16-3.62,5.34-4.65,3.92-1.85,8.36-2.16,12.69-2.13,2.37.01,4.65-.01,6.99.34l3.08.46,11.45,2.15c2.58.48,5.05,1.58,7.29,2.87l3.92,2.25,5.9,5.21c.37.33.49.73.31.99-.67.96-3.93-1.47-6.37-3.01-4.22-2.67-8.62-4.91-13.69-6.02Z" fill="#33351f"/>
  <path d="M193.3,108.05c-1.87-1.54-3.89-2.64-5.99-3.84-1.12-.64-2.04-1.45-3.41-1.67.72,1.47,2.36,1.38,3.5,2.26l5.58,4.28c.17.61-.73,1.43-1.22,1.59-.75.25-1.31-.37-1.89-.87-1.36-1.17-2.67-2.26-3.89-3.57-1.3-1.39-2.84-2.33-4.26-3.52-3.02-2.55-6.12-4.46-9.54-6.4-8.96-5.09-18.87-7.73-29.06-8.11,1.88-1.02,3.57-.23,5.39-.69-.09-.72.53-1.98,1.22-1.79,5.34,1.51,10.48,1.91,15.45,4.41,1.61.81,3.06,1.63,4.77,2.32,2,.81,4.09,1.75,5.71,3.1.03.68-.07,1.64.76,1.89-.01-.34.63-1.23,1-1.05,3.82,1.81,7.2,4.01,10.41,6.7.4.1,1.04-.19,1.56-.41,3.04,1.99,6.75,3.75,6.87,7.12-1.27-.39-2.09-.99-2.96-1.71Z" fill="#33351f"/>
  <path d="M75.26,114.81c3.21-.17,7.71-4.81,10.22-7.77.31-.36.91-.4,1.14-.57.29-.21,1.41.4,1.25.83-1.19,3.22-3.59,5.62-6.2,7.75-2.1,1.71-4.69,2.8-7.42,2.52s-4.82-2.16-5.22-4.92c-.47-3.23,1.09-6.08,3.33-8.27,2.45-2.39,4.85-4.55,7.48-6.74l8.88-7.39c.32-.27.7-.38.93-.44.28-.07.91.63.67.86l-3.83,3.8-.65,1.37c-2.27,2.57-4.93,4.51-7.39,6.85l-4.14,3.94c-1.18,1.12-1.98,2.46-2.3,4.06-.43,2.08.98,4.24,3.26,4.12Z" fill="#33351f"/>
  <path d="M116.26,139.63c-1.95.4-2,1.76-2.3,1.85s-.75-.18-.65-.75c1.99-11.57,7.63-20.31,17.27-26.87,3.11-2.12,6.59-3.03,10.32-3.07.55,0,1.5,1,1.15,1.15l-7.33,3.13c-9.72,4.82-15.85,13.8-18.47,24.56Z" fill="#33351f"/>
  <path d="M145.19,54.66c-3.52.28-6.46,1.23-9.68,1.97-.6.14-1.08.2-1.57-.27-3.23,1.02-9.18,4.69-9.83,4.48-1.37-.46,2.86-4.7,6.61-6.16.15-1.62.84-2.74,2.21-3.86,3.14-2.57,5.68-6,9.63-7.61,1.31-.53,3.22-.29,4.74-.72,1.16-.33,2.38-.38,3.39.56l-3.56,1.05c-4.49,2.09-8.36,4.67-11.98,7.99-.72.66-2,.8-2.05,2.1,1.62-.94,3.2-1.33,4.76-.53,3.79-.75,9.99-1.93,9.71-.03-.15.98-1.55.97-2.38,1.03Z" fill="#33351f"/>
  <path d="M127.2,63.81c.24-.6-.9-1.01-1.35-.68l-18.02,12.73c-.49.35-.86.18-1.07,0-1.23-1.1,4.64-5.28,7.27-7.69,3.84-2.71,7.87-5.01,12.3-6.79.31.42.43.98.59,1.14.16.14.59-.48.82-.6,3.46-1.84,7.22-3.01,11.08-3.91.74-.17,2,.14,2,.84-1.19,1.04-2.25,2.82-3.74,3.3l-10.79,3.47c-1.38.44-2.46,1.17-4.17,1.04,1.26-1.6,2.71-2.68,5.08-2.83Z" fill="#33351f"/>
  <path d="M157.73,57.03c2.85,2.92,8.32,3.61,10.45,7.65-2.01-.55-3.21-1.67-4.89-1.93.7.65.03,1.16-.45.68-1.86.12-3.14-.69-4.33-1.88-.91-.9-2.11-1.56-2.81-2.77-.5-.86,1.08-1.33.94-2.09-.13-.72-4.1.81-6.06-1.99,1.14-1.97,5.15-.79,8.36-.52,4.67.4,12.34,2.38,15.27,5.18.98.94,1.83,1.96.82,3.52-2.8-1.88-5.98-2.68-8.72-4.3l-5.74-3.41c.98.98,2.35,1.36,3.2,2.83-2.11.61-3.82-.72-6.04-.98Z" fill="#33351f"/>
  <path d="M87.14,95.83c2.86-2.92,6.11-5.45,9.42-7.83.95.37,1.56.06,2.29-.45,2.18-1.53,4.66-1.96,5-4.15l5.14-2.69,11.2-5.09c.31-.14.77.2.84.36.08.21.08.45-.12.71-2.02,2.63-4.68,3.82-7.59,5.13-5.37,2.41-9.93,5.99-15,8.9l-9.73,5.58c-.32.18-.71.24-.95.23-.21,0-.64-.53-.49-.69Z" fill="#33351f"/>
  <path d="M74.85,110.91c-1.54-1.32,1.59-4.28,4.64-4.79,2.46-1.74,4.73-3.36,7.26-4.98l10.47-6.73c1.29-.83,2.49-1.52,3.7-2.43l5.98-4.53c1.56-1.18,2.8-2.94,5.18-2.95-2.38,2.99-5.18,5.05-8.16,7.14-1.63,1.82-3.29,4.12-5.6,5.12-3.53,1.54-6.74,3.18-9.77,5.55l-6.07,4.75-6.25,3.97c-.44.28-1.12.09-1.38-.13Z" fill="#33351f"/>
  <path d="M200.46,153.38c2.02.25,3.39,1.86,3.96,3.45.31.87-.27,1.57-.87,1.82-.95.38-1.13-.35-1.72-.91-3.63-3.47-6.94-7.91-8.91-12.56-2.61-6.18-6.01-11.81-9.33-17.62-.51-.89-.76-2.5.28-2.7,1.48.7,1.98,2.74,2.82,4l2.32,3.46,4.99,9.53c1.02-.41,1.84-.31,2.31.63.32.65-.17,1.5-1.12,2.01,1.26,3.19,3.15,6.31,5.27,8.89Z" fill="#33351f"/>
  <path d="M119.2,92.93l-6.35,3.33c-.35.18-.72.06-.9.03-1.42-.26,2.21-3.72,4.68-5.55,4.85-2.28,9.98-3.04,15.07-4.06,4.61-2.45,17.27-3.15,16.91-.87-.07.46-.6.73-1.26.71-7.65-.18-14.94,1.47-22.09,4.15l-6.06,2.27Z" fill="#33351f"/>
  <path d="M203.37,97.9c1.95.95,3.82,1.97,5.5,3.86-3.06.54-6.73-.13-9.07-2.23l-7.31-6.57c-.84-.75-1.5-1.33-2.32-2.11l-5.14-4.9c1.45.24,2.78-.05,3.86.48l7.92,3.87c-.16.74-.18,1.24.14,1.92l-3.23-1.09c2.91,2.72,6.01,5.01,9.65,6.78Z" fill="#33351f"/>
  <path d="M220.87,111.15l2.38,1.42c1.12.67,3.87.2,3.48,2.28-.47,2.48-7.16.34-10.38-3.41.12.72-.26,2.3-.9,2.1-1.47-.79-3.01-2.26-3.65-3.67-.51-1.13-.46-1.87-1.77-2.37-1.89-.71-4.03-1.9-5.23-3.65-.37-.54,1.22-1.79,1.68-1.38,1.01.91,1.9.81,3.07.91s4.47,1.54,4.78,2.42c.11.31-.15.9-.63.86l-2.4-.19c1.95,2.53,4.38,2.04,5.49,4.08.71-.47,1.22-.21,1.9.09.51.23,1.23-.08,2.19.5Z" fill="#33351f"/>
  <path d="M162.57,78.36c1.06,2.46-7.22-3.1-10.6-3.07-1.35.01-2.37-.66-3.22-1.61-4.82.16-9.88.98-14.49,2.43-.38-.05-.57-.07-.68-.18-.49-.5,2.88-4.26,6.5-4.79,1.51-.22,2.84-.97,4.5-.55-.5.93-1.39.56-1.75,1.53,2.63-.7,4.7-.87,7.14-.45,1.25.21,1.78.93,2.82,1.33l4.34,1.68c1.89.73,3.99,1.23,5.18,3.08l.26.6Z" fill="#33351f"/>
  <path d="M101.54,148.85c-.3.28-.95-.08-1.11-.31s-.47-.91-.21-1.32l3.96-6.27,7.49-11.78c.45-.71,1.13-1.38,1.6-1.81-.03-.86.16-1.55.9-2.04.5-.34,2.03.5,1.86,1.1-1.06,1.9-2.34,3.52-3.22,5.54-1.54,3.53-3.74,6.57-5.69,9.87-1.54,2.61-3.38,4.93-5.58,7.01Z" fill="#33351f"/>
  <path d="M202.19,171.74l-4.38-5.21c-2.91-3.46-4.35-6.29-5.65-10.74-.93-3.2-2.1-6.22-2.65-9.55-.14-.87,1.58-2.03,1.8-1.4,1.95,5.66,3.2,11.31,5.78,16.61,1.18,2.43,2.74,4.39,4.7,6.16,1.75,1.58,3.21,3.71,2.16,4.53-.62.48-1.18.27-1.74-.4Z" fill="#33351f"/>
  <path d="M132.14,103.44l-8.66,2.9c.4-1.74,1.92-2.83,3.4-3.68,4.79-2.75,10.12-4.4,15.72-4.63l4.57.51c.34.04.86.55.84.8-.05.64-11.62,3.11-15.87,4.11Z" fill="#33351f"/>
  <path d="M183.35,176.98c-1.47,1.87-2.65,3.51-4.98,4.45-.35.14-.67.35-.96.17s-.58-.82-.24-1.14c3.31-3.14,6.18-6.46,8.72-10.28,3.79-5.7,2.5-12.21,3.83-13.24.44-.34,1.43-.91,2.07-.37.68.58.42,1.65.29,2.42l-.79,4.68-2.12,4c-1.33,3.49-3.44,6.3-5.81,9.31Z" fill="#33351f"/>
  <path d="M170.78,179.11c4.32-1.91,7.39-5.32,9.44-9.48l2.69-5.46,2.09-4.57c.36,8.59-5.27,19-13.14,22.02-.82.31-1.44.09-1.8-.49-.48-.8-.15-1.64.72-2.02Z" fill="#33351f"/>
  <path d="M191.44,85.65c-4.57,1.22-5.17-4.59-8.93-3.97,1.18,1.14,2.47,1.55,3.15,3.06-1.77-.24-3.76-1.21-4.6-2.69-.53-.93-.68-1.01-1.57-1.54-2.44-1.48-4.34-3.76-6.4-5.75-1.09-1.05-2.66-1.74-2.88-3.57,2.81.59,4.9,2.23,6.96,3.88l7.52,6.02c2.06,1.65,4.21,3.09,6.76,4.56Z" fill="#33351f"/>
  <path d="M213.19,95.87c.77.29,2.96,2.14,2.59,3.07-.14.35-.77.82-1.34.58l-17.35-7.12c.05-.93.41-1.58,1.06-2.21l15.05,5.68Z" fill="#33351f"/>
  <path d="M164.58,97.48c5.17-.49,16.24,6.25,16.59,8.58.08.51-.6,1.91-1.28,1.52-3.16-1.84-5.89-4.14-9.22-5.64-2.25-1.02-4.77-1.86-6.1-4.45Z" fill="#33351f"/>
  <path d="M112.62,75.26c.96-1.77,4.34-3.79,6.57-4.23l-3.13,2.41c1.72-.19,2.97-1.13,4.33-2l.02-.95c0-.22.58-.55.84-.55,1.14,0,1.63-.79,2.49-1.18l7.06-3.16c.32-.14.73.15.84.3.51.7-1.24,2.17-3.27,3.09-1.1.5-1.81,1.36-2.73,1.99-2.65,1.83-5.68,2.74-8.62,3.97-1.47.61-2.93,1.08-4.4.29Z" fill="#33351f"/>
  <path d="M202.32,86.12c1.37.45,4.09,2.82,3.02,4.1-.61.73-1.26.39-2.06.07-4.23-1.68-8.28-3.31-12.05-5.88-.74-.5-1.64-.77-1.76-2.13,2.28.24,4.29,1.05,6.44,1.75l6.42,2.09Z" fill="#33351f"/>
  <path d="M153.88,97.22c-2.97-.55-5.67-1-8.58-.95-.46,0-.96-.37-1.03-.7-.36-1.61,6.9-2.6,13.05-.75,1.63.49,3.51.88,4.56,2.44.39.58-.95,1.28-1.66,1.15l-6.33-1.18Z" fill="#33351f"/>
  <path d="M223.93,105.81c.18.9-1.3.64-1.71.47l-6.67-2.78c-2.97-1.24-6.31-1.79-8.57-4.58l12.12,2.34c2.02.39,4.14,2.85,4.84,4.55Z" fill="#33351f"/>
  <path d="M197.9,81.88c.59.5.67,1.15.43,1.4-.32.35-.99.53-1.54.34-5.38-1.85-10.36-4.33-15.29-7.29.76-1.07,1.84-.85,2.72-.58,4.07,1.25,7.87,2.84,11.78,4.51l1.89,1.61Z" fill="#33351f"/>
  <path d="M176.49,63.87c3.23,1.16,8.08,5.07,5.8,6.13l-5.06-2.08c-2.8-1.15-5.13-3.01-7.91-4.24-1.05-.47-1.61-1.77-.72-2.68,1.32.87,2.6.97,3.9,1.43l4,1.44Z" fill="#33351f"/>
  <path d="M188.34,73.73c3.8,1.8,1.65,4.79-6.34-.55-.37.01-.3.81-.19,1.43-3.17-1.43-6.37-3.24-8.26-6.3,1.03-1.9,3.57,1.72,6.89,3.13-.08-.67-.56-.89-.93-1.39,1.29-.06,2.21.54,3.3,1.06l5.53,2.62Z" fill="#33351f"/>
  <path d="M103.06,176.1c-1.95,2.87-4.04,6.47-6.61,6.05-.3-.05-.9-.7-.6-1.06,1.08-1.3,2.83-1.94,3.69-3.43l2.49-4.3c.23-.4.77-.57,1.1-.56.36.02,1.07.39,1.18.92,1.01,5.08,5.82,6.14,5.14,7.49-1.12,2.22-4.54-1.18-6.39-5.13Z" fill="#33351f"/>
  <path d="M201.58,176.97c1.2,1.45,4.57,4.39,2.08,5.17-.49.15-1.15-.26-1.43-.79-1.02-1.93-2.47-3.3-3.8-4.98l-4.63-5.86c-.99-1.25-.14-3.09,1.26-3.56l1.62,2.76,1.4,3.04,3.5,4.23Z" fill="#33351f"/>
  <path d="M193.12,118.89l-4.46-4.16c-2.14-2-4.75-3.34-6.77-5.56-.3-.59.48-1.94.93-2.32l4.6,3.69c2.62,2.1,7.83,7.22,7.08,8.41-.21.33-.86.42-1.37-.06Z" fill="#33351f"/>
  <path d="M159.91,49.29c-3.87-1.85-10.02-2.66-14.16-2.39-.3.02-.78-.52-.77-.76.01-.45.8-.4,1.02-.57.88-.68,2.17-.52,3.14-.56,4.9-.24,11.9-.08,13.39,3.92-.28.88-1.86.72-2.61.36Z" fill="#33351f"/>
  <path d="M204.41,119.46c-1.46,1.19-3.28-.29-4.38-1.17l-7.29-5.87c.28-.89,1.31-1.55,2.12-1.63,3.35,1.78,4.91,5.02,8.48,5.81,1.03.23,2.14,1.98,1.06,2.86Z" fill="#33351f"/>
  <path d="M147.36,108.27l-10.91,1.08c-.59.06-.58-1.1-.25-1.47,2.16-2.32,7.95-3,11.62-2.26.59.12.96,1.12.94,1.52-.02.44-.6,1.04-1.41,1.12Z" fill="#33351f"/>
  <path d="M94.64,87.05c-.43.22-.76-.12-.82-.27-.58-1.35,3.53-4.38,5.97-6.39,2.01-1.66,4.29-4.04,5.33-3.17.29.24.54.93.09,1.44-2.23,2.58-4.6,4.95-7.46,6.82l-3.1,1.57Z" fill="#33351f"/>
  <path d="M182.87,179c1.47-.69.65-2,1.99-3.31.73-.72,1.84-.62,2.8-.29l1.65-5.81,1.93-4.59c.43-.17,1.19.38,1.26.7.25,1.15-1.98,8.37-4.52,10.91l-4.13,3.39c-.3.24-.59.47-.83.48-.36.02-.53-.32-.57-.58-.06-.36,0-.7.43-.9Z" fill="#33351f"/>
  <path d="M226.22,108.76c.83.28.92,1.56.71,2.03-.93,2.07-4-1.46-9.93-2.28-.91-.13-1.78-1.89-.87-2.19,1.79-.59,3.95.39,5.64.95l4.46,1.49Z" fill="#33351f"/>
  <path d="M204.67,133.49c-.52,1.41-2.02.85-2.79.21-2.29-1.91-6.11-5.29-5.34-6.2.19-.22.85-.59,1.25-.34l5.41,3.48c.83.53,1.92,1.6,1.47,2.84Z" fill="#33351f"/>
  <path d="M171.4,70.3l-3.26-1.72c-1.99-1.05-3.97-1.87-5.5-3.56l1.62-1.46c3.27,1.35,6.27,3.41,8.68,6.11.11.37-.98.92-1.53.63Z" fill="#33351f"/>
  <path d="M192.87,182.25c-.96.29-1.7-1.37-2.25-3.35-2.02,2.18-4.59,4.39-6.32,2.86,1.91-1.4,3.33-2.87,4.56-4.62l3.52.18.67,3.11.47.85c.16.29-.35.88-.64.97Z" fill="#33351f"/>
  <path d="M156.63,50.66c-5.02-.48-9.49,1.07-13.72-.38,1.23-2.1,7.45-1.67,11.25-1.23.85.1,1.87.62,2.47,1.61Z" fill="#33351f"/>
  <path d="M99.57,151.6c-.85,2.91-4.43,7.06-5.64,5.34-1.65-2.34,2.47-4.21,4.54-7.23.54.48,1.26,1.33,1.1,1.89Z" fill="#33351f"/>
  <path d="M154.23,67.56c-2.56,1.44-4.85-2.63-8.5-.37-.45.28-1.68.04-1.43-.51,1.01-2.15,3.74-2.83,5.99-2.24,1.63.42,3.02,1.8,3.93,3.12Z" fill="#33351f"/>
  <path d="M126.96,175.68c.12.63-1.1,1.27-1.8.83-3.82-2.45-7.95-7.54-5.97-8.52,1.16-.57,2.25,4.29,5.01,5.73.89.46,2.46.32,2.76,1.96Z" fill="#33351f"/>
  <path d="M203.93,165.81c-.99.96-2.38-2.36-4.53-5.34-.67-.92-1.45-1.92-.86-3.26,2.67,1.73,4.73,4.33,5.97,7.15.19.44-.34,1.21-.58,1.45Z" fill="#33351f"/>
  <path d="M194.35,174.74c2.36,4.76,5.37,6.18,3.85,7.26-.42.3-1.15.2-1.61-.43l-4.18-5.64c-.39-.53-.18-1.45.26-1.82s1.33-.12,1.69.62Z" fill="#33351f"/>
  <path d="M161.58,50.19c3.53-.03,6.71,2.05,6.01,4.73-2.36-1.46-4.69-2.75-7.4-3.41-.97-.24-1.88-.52-2.39-1.4,1.34-.58,2.58.09,3.79.09Z" fill="#33351f"/>
  <path d="M203.37,125.63c-1.68-.77-2.55-2.46-3.81-3.53-.84-.72-1.63-1.46-1.07-2.79,2.91,1.44,6.43,3.17,6.25,5.37-.03.4-.58,1.31-1.37.95Z" fill="#33351f"/>
  <path d="M181.18,164.96c-.42,1.11-1.29,2.16-2.51,1.97,1.31-2.99,2.98-5.53,3.71-8.57l.34-6.03c1.02.21,1.16,1.18,1.03,2l-.95,6.37-1.62,4.25Z" fill="#33351f"/>
  <path d="M178.94,170.13c-.78,3.12-6.35,7.5-8.43,6.34,1.04-1.54,2.43-2.11,3.73-3.03,1.55-1.1,2.7-2.67,4.71-3.31Z" fill="#33351f"/>
  <path d="M113.96,172.03c.17.48.12.68-.06.84-1.18,1.03-4.22-6.84-3.14-11.28l1.45,5.6,1.75,4.84Z" fill="#33351f"/>
  <path d="M96.78,147.96c-.76.47-1.39.44-1.79-.03-.36-.42-.15-1.14.39-1.55l5.39-4.16c-.63,2.51-2.36,4.01-3.98,5.74Z" fill="#33351f"/>
  <path d="M169.57,90.74l-3.73-1.58c-.97-.41-1.9-1.26-2.44-2.3,2.64-.3,4.75,1.14,6.62,2.5.53.39.12,1.62-.44,1.39Z" fill="#33351f"/>
  <path d="M203.31,115.45l-3.51-3.03,2.8-.69c.73-.18,2.04,1.14,2.08,1.93s-.65,1.35-1.38,1.8Z" fill="#33351f"/>
  <path d="M162.64,122.26c-1.01.93-2.04.61-3.18.01-1.26-.66-2.88-.44-3.92-2.03,2.52-.55,4.98.39,7.11,2.02Z" fill="#33351f"/>
  <path d="M203.27,176.09c-1.26.16-2.05-1.79-2.68-2.46-.92-.97-1.9-1.38-2.23-2.82l4.93,3.08c.68.42,1.36,2.02-.02,2.2Z" fill="#33351f"/>
  <path d="M204.11,139.47c-.75,1.19-2.23.02-3.83-1.78.52-.6,1.27-1.04,1.99-.95s1.56.61,1.93,1.42c.24.53.12.98-.09,1.31Z" fill="#33351f"/>
  <path d="M203.71,149.63c-1.21.74-2.25-.16-3.39-1.82,1.16-.96,3.05-.86,3.84.52.3.54-.07,1.08-.44,1.3Z" fill="#33351f"/>
  <path d="M118.2,164.5c-.82-.22-.52-.82-.64-1.35-.65-2.87-1.04-5.43-.53-8.19.8,2.8.88,6.11,1.17,9.53Z" fill="#33351f"/>
  <path d="M79.76,111.3c-.32,1.25-1.01,1.5-1.59,1.83-.62.36-1.35.23-1.97-.55.89-.9,2.01-1.7,3.56-1.27Z" fill="#33351f"/>
  <path d="M100.49,164.79c-1.06,1.07-1.82,2.03-3.44,2.11.93-1.24,1.9-2.14,3.29-2.87.44-.13.72.56.15.76Z" fill="#33351f"/>
</svg>