<?xml version="1.0" encoding="UTF-8"?>
<svg id="Capa_1" data-name="Capa 1" xmlns="http://www.w3.org/2000/svg" viewBox="0 0 354.62 342.33">
  <g>
    <g>
      <path d="M190.36,165.37s-71.04-28.98-78.48-35.65-23.08-43.08-19.23-46.42c3.85-3.33,38.73,5.64,56.93,17.95,18.21,12.31,40.78,64.11,40.78,64.11Z" fill="#44722d"/>
      <path d="M100.24,91.61c3.84,2.96,7.63,5.97,11.41,9,3.77,3.05,7.55,6.07,11.27,9.18l5.56,4.68c1.85,1.56,3.7,3.13,5.57,4.67,3.74,3.08,7.51,6.12,11.31,9.13,3.8,3.01,7.58,6.03,11.35,9.08,3.77,3.05,7.54,6.09,11.28,9.16,7.48,6.16,14.92,12.37,22.27,18.69-7.7-5.88-15.26-11.95-22.79-18.05-3.76-3.06-7.49-6.15-11.22-9.24-3.74-3.08-7.45-6.19-11.16-9.32-3.71-3.12-7.43-6.22-11.2-9.27-1.88-1.52-3.78-3.03-5.68-4.53l-5.69-4.52c-3.79-3.02-7.5-6.13-11.24-9.22-3.72-3.1-7.43-6.22-11.09-9.4l.05-.06Z" fill="#26441e"/>
      <path d="M110.22,119.3c2.37.21,4.72.48,7.08.79,2.35.31,4.7.63,7.04,1.03l3.5.63c1.17.21,2.33.42,3.51.6,1.17.19,2.35.35,3.52.51l3.53.43-.26.28c-.3-1.1-.6-2.19-.88-3.29-.29-1.1-.57-2.2-.84-3.3l-.83-3.3c-.27-1.1-.54-2.21-.8-3.31-.51-2.21-1.01-4.43-1.48-6.65-.47-2.22-.93-4.45-1.33-6.68.73,2.16,1.32,4.35,1.92,6.55.59,2.19,1.15,4.39,1.69,6.6.27,1.1.53,2.21.79,3.31l.76,3.32c.25,1.11.5,2.21.74,3.32.25,1.11.48,2.22.71,3.33l.07.34-.33-.06-3.51-.61c-1.17-.19-2.34-.38-3.52-.54-1.17-.17-2.35-.31-3.53-.44l-3.53-.41c-2.35-.29-4.7-.67-7.03-1.06-2.34-.39-4.67-.82-7-1.31v-.08Z" fill="#26441e"/>
      <path d="M139.2,135.97c1.52.03,3.03.1,4.53.2,1.51.11,3.01.23,4.52.38,1.5.15,3,.39,4.5.59,1.5.22,3,.39,4.5.51l-.14.13c-.14-1.98-.38-3.96-.53-5.95-.09-.99-.16-1.98-.23-2.98-.07-.99-.15-1.98-.21-2.98-.13-1.99-.2-3.97-.26-5.96-.05-1.99-.08-3.98-.06-5.97.33,1.97.53,3.95.71,5.94.17,1.98.32,3.97.43,5.95.06.99.09,1.99.14,2.98.04.99.09,1.99.11,2.98.07,1.99.07,3.98.15,5.97v.15s-.14-.02-.14-.02c-1.5-.17-3.01-.3-4.52-.38-1.51-.09-3.02-.15-4.53-.3-1.5-.14-3-.32-4.5-.51-1.5-.19-3-.42-4.49-.68v-.08Z" fill="#26441e"/>
    </g>
    <g>
      <path d="M192.93,164.09s-91.81-8.21-102.33-1.03c-10.51,7.18-37.44,36.16-33.6,38.73,3.85,2.56,33.6,15.13,43.6,12.57,10-2.56,92.33-50.27,92.33-50.27Z" fill="#37692c"/>
      <path d="M71.74,196.75c4.75-1.41,9.52-2.76,14.29-4.08,4.78-1.3,9.55-2.63,14.35-3.86l7.2-1.81c2.4-.6,4.8-1.2,7.2-1.83,4.79-1.26,9.56-2.58,14.33-3.92,4.77-1.35,9.54-2.68,14.31-3.98,4.78-1.3,9.55-2.61,14.34-3.88,9.58-2.52,19.17-4.99,28.8-7.31-9.49,2.87-19.03,5.51-28.59,8.1-4.78,1.29-9.57,2.54-14.37,3.79-4.79,1.26-9.59,2.48-14.39,3.69-4.8,1.21-9.6,2.45-14.38,3.75-2.39.65-4.77,1.33-7.15,2l-7.15,2.02c-4.77,1.33-9.57,2.55-14.36,3.81-4.8,1.23-9.6,2.44-14.42,3.59l-.02-.07Z" fill="#26441e"/>
      <path d="M87.92,173.67c2.1.89,4.17,1.83,6.22,2.8,1.03.48,2.05.98,3.07,1.48,1.02.49,2.04,1.01,3.05,1.53,2.01,1.06,4,2.16,6.02,3.21,2.02,1.04,4.08,2.01,6.14,2.96l.18.08-.08.19c-.94,2.12-1.9,4.24-2.89,6.33-.99,2.1-1.97,4.2-2.98,6.29-1.03,2.08-2.06,4.16-3.13,6.22-1.07,2.06-2.14,4.12-3.27,6.15.82-2.18,1.77-4.3,2.72-6.42.95-2.12,1.94-4.22,2.93-6.31,1-2.09,2.04-4.17,3.08-6.24,1.03-2.08,2.1-4.14,3.17-6.2l.09.27c-2.01-1.07-4.02-2.12-6.07-3.1-2.05-.98-4.14-1.89-6.19-2.85-1.03-.48-2.05-.98-3.06-1.5-1.02-.51-2.03-1.03-3.03-1.55-2.02-1.05-4.02-2.13-5.99-3.26l.03-.07Z" fill="#26441e"/>
      <path d="M119.98,166.49c1.85.81,3.66,1.68,5.46,2.59,1.79.91,3.58,1.83,5.31,2.86l2.61,1.52c.88.5,1.75.98,2.65,1.45,1.78.94,3.61,1.79,5.41,2.68l.28.14-.17.28c-.84,1.39-1.7,2.77-2.56,4.14-.43.69-.86,1.38-1.3,2.06-.43.68-.88,1.36-1.33,2.04-.89,1.36-1.81,2.69-2.73,4.03l-1.4,1.99c-.48.66-.95,1.32-1.44,1.97.32-.76.73-1.46,1.13-2.17l1.23-2.1c.83-1.39,1.68-2.78,2.54-4.15.43-.69.86-1.37,1.31-2.05.44-.68.89-1.36,1.34-2.03.9-1.35,1.79-2.7,2.71-4.04l.11.42c-1.75-1-3.47-2.04-5.25-2.99-.88-.48-1.78-.94-2.68-1.39l-2.72-1.31c-1.82-.86-3.59-1.83-5.34-2.8-1.76-.98-3.5-1.99-5.2-3.07l.04-.07Z" fill="#26441e"/>
    </g>
    <g>
      <path d="M192.16,164.6c-1.28.51-62.32,52.32-61.81,62.83.51,10.51,1.03,43.85,12.31,42.57,11.28-1.28,38.98-21.8,40.26-25.65,1.28-3.85,9.23-79.76,9.23-79.76Z" fill="#44722d"/>
      <path d="M148.14,260.63c1.58-3.82,3.23-7.6,4.89-11.38,1.67-3.77,3.36-7.54,5.11-11.28l2.66-5.59c.89-1.86,1.78-3.72,2.64-5.6,1.73-3.75,3.4-7.52,5.05-11.3,1.64-3.79,3.3-7.57,4.99-11.33,1.68-3.77,3.36-7.54,5.08-11.29,3.45-7.5,6.95-14.97,10.59-22.38-3.13,7.65-6.46,15.2-9.84,22.72-1.7,3.76-3.44,7.5-5.17,11.25-1.73,3.75-3.49,7.48-5.26,11.21-1.77,3.73-3.52,7.47-5.2,11.23-.84,1.88-1.66,3.78-2.48,5.67l-2.47,5.68c-1.67,3.78-3.4,7.52-5.15,11.26-1.76,3.73-3.52,7.46-5.36,11.16l-.07-.03Z" fill="#26441e"/>
      <path d="M142.27,230.86c1.85-.59,3.71-1.12,5.58-1.62,1.87-.5,3.75-.98,5.64-1.38l2.85-.58c.95-.19,1.9-.38,2.84-.6,1.89-.43,3.76-.94,5.62-1.46l.13-.04.1.12c1.21,1.46,2.4,2.93,3.57,4.42,1.17,1.49,2.35,2.97,3.49,4.48,1.14,1.51,2.27,3.03,3.37,4.57,1.1,1.54,2.2,3.09,3.25,4.67-1.31-1.38-2.52-2.84-3.73-4.3-1.2-1.46-2.38-2.95-3.54-4.44-1.16-1.49-2.29-3.01-3.42-4.53-1.14-1.51-2.25-3.05-3.34-4.59l.23.08c-1.9.39-3.79.79-5.67,1.27-.94.24-1.87.5-2.8.76l-2.8.79c-1.87.5-3.76.93-5.65,1.35-1.89.41-3.79.79-5.71,1.11l-.02-.07Z" fill="#26441e"/>
      <path d="M157.63,207.03c.07-.24.24-.41.4-.57.17-.16.34-.3.53-.43.36-.27.74-.51,1.13-.75.77-.46,1.56-.89,2.37-1.28,1.6-.8,3.24-1.52,4.92-2.13l2.52-.91c.84-.31,1.67-.63,2.5-.97,1.66-.67,3.28-1.41,4.93-2.1l.29-.12.11.31c.46,1.35.9,2.7,1.34,4.05.44,1.35.86,2.71,1.26,4.08.4,1.36.78,2.74,1.14,4.11.36,1.38.71,2.76,1.02,4.15-.6-1.3-1.09-2.64-1.56-3.98-.47-1.34-.93-2.69-1.36-4.04-.44-1.35-.85-2.71-1.25-4.08-.39-1.37-.79-2.73-1.16-4.1l.39.19c-1.69.57-3.39,1.11-5.05,1.76-.83.32-1.65.67-2.47,1.03-.81.37-1.62.75-2.42,1.14-1.61.77-3.25,1.46-4.87,2.18-.81.36-1.62.72-2.42,1.1-.4.19-.79.39-1.18.6-.19.11-.38.22-.56.34-.17.13-.36.26-.45.44l-.07-.02Z" fill="#26441e"/>
    </g>
    <g>
      <path d="M190.62,161.01c-.25,1.26,54.63,34.62,62.58,46.68,7.95,12.05,23.59,52.83,13.08,53.6-10.51.77-47.19-9.75-53.6-17.95s-21.29-86.17-22.06-82.32Z" fill="#37692c"/>
      <path d="M263.82,255.03c-.25-.21-.43-.43-.64-.65-.2-.22-.4-.45-.6-.67l-1.18-1.36c-.78-.91-1.57-1.82-2.33-2.75-1.54-1.85-3.08-3.69-4.6-5.55-1.52-1.86-3.03-3.73-4.54-5.6-1.51-1.87-3-3.75-4.48-5.65l-4.41-5.71c-1.46-1.91-2.93-3.81-4.41-5.7-2.97-3.78-5.99-7.52-9.03-11.24-3.04-3.72-6.07-7.45-9.07-11.21-3-3.75-6.01-7.5-8.98-11.28-5.93-7.56-11.82-15.16-17.58-22.86,6.2,7.35,12.23,14.83,18.22,22.35,2.99,3.76,5.94,7.55,8.91,11.34,2.96,3.78,5.9,7.58,8.83,11.39,2.93,3.81,5.89,7.6,8.89,11.35,1.5,1.87,3.03,3.73,4.55,5.59l4.57,5.57c3.03,3.73,6.01,7.5,8.98,11.28l4.45,5.67,2.22,2.84,1.12,1.41.56.7c.19.23.38.48.58.67l-.04.07Z" fill="#26441e"/>
      <path d="M211.74,217.55l.28-3.05c.1-1.02.21-2.03.32-3.04.12-1.01.24-2.03.37-3.04.13-1.01.26-2.02.41-3.03.31-2.02.68-4.02,1-6.04.31-2.02.56-4.04.77-6.07l.02-.19.2.04,3.27.69,3.26.72c2.17.5,4.34.98,6.5,1.52,2.16.54,4.31,1.09,6.46,1.67,2.15.59,4.29,1.19,6.42,1.84-2.21-.32-4.39-.77-6.57-1.24-2.18-.47-4.34-.96-6.51-1.48-2.16-.52-4.31-1.09-6.47-1.63l-3.23-.85-3.22-.89.22-.15c-.33,2.01-.62,4.03-.85,6.06-.22,2.03-.39,4.06-.62,6.09-.12,1.01-.25,2.02-.4,3.03-.14,1.01-.3,2.02-.45,3.03-.33,2.02-.66,4.03-1.11,6.03h-.08Z" fill="#26441e"/>
      <path d="M232.77,243.2c.16-1.81.38-3.6.65-5.39.27-1.79.54-3.57.93-5.34.37-1.77.8-3.53,1.08-5.32.3-1.78.52-3.58.76-5.37l.03-.25.27.02,2.31.2,2.3.23c1.54.15,3.07.31,4.6.52,1.53.19,3.06.42,4.59.64l2.29.37c.76.13,1.52.26,2.28.41-.78.05-1.55,0-2.33-.05l-2.31-.16c-1.54-.13-3.08-.26-4.61-.43-1.54-.15-3.07-.35-4.6-.56l-2.3-.3-2.29-.33.3-.23c-.38,1.77-.77,3.54-1.07,5.32-.32,1.78-.51,3.58-.74,5.37-.22,1.8-.55,3.57-.9,5.35-.34,1.77-.73,3.54-1.18,5.3h-.08Z" fill="#26441e"/>
    </g>
    <g>
      <path d="M190.62,166.14c-.14,1.27-22.31-51.29-18.98-71.04,3.33-19.75,18.46-37.19,26.93-36.42,8.46.77,12.82,26.42,14.62,42.06,1.8,15.64-21.29,53.6-22.57,65.4Z" fill="#37692c"/>
      <path d="M190.71,166.28c-1.2-4.07-1.71-8.31-2.02-12.53-.29-4.23-.34-8.47-.2-12.7.15-4.23.44-8.45.76-12.67.3-4.22.59-8.44.93-12.65.33-4.22.72-8.43,1.19-12.63.47-4.2.97-8.4,1.55-12.59,1.18-8.38,2.53-16.73,4.21-25.02-1.12,8.39-2.29,16.76-3.39,25.13-.56,4.19-1.12,8.38-1.64,12.57-.52,4.19-1.01,8.39-1.49,12.59-.22,2.1-.46,4.2-.63,6.31-.19,2.1-.35,4.21-.47,6.32l-.16,3.17-.1,3.17c-.04,1.06-.05,2.11-.07,3.17-.02,1.06-.04,2.11-.04,3.17l-.02,3.17v3.16s.07,3.16.07,3.16c.01,1.05.08,2.11.12,3.16.03,1.05.13,2.1.19,3.16.05,1.05.19,2.1.29,3.15l.08.79c.03.26.08.52.11.78l.23,1.56c.06.53.18,1.04.29,1.55l.31,1.55-.07.02Z" fill="#26441e"/>
      <path d="M175.88,91.34c.29.04.54.2.77.35.23.16.44.34.65.53.41.37.8.77,1.17,1.18.74.82,1.44,1.68,2.11,2.55.67.87,1.32,1.76,1.96,2.66.64.9,1.26,1.81,1.86,2.73l1.77,2.78c.59.93,1.18,1.85,1.8,2.76.63.9,1.27,1.8,1.98,2.62.18.2.37.4.56.57.09.08.22.16.28.17-.02,0,.09-.22.09-.22.31-.5.69-.89,1.05-1.31,1.47-1.65,3.04-3.2,4.62-4.72,1.59-1.52,3.19-3.03,4.82-4.5,3.28-2.93,6.62-5.79,10.08-8.52-3.08,3.15-6.29,6.15-9.52,9.12-3.24,2.97-6.54,5.87-9.69,8.91-.38.39-.78.78-1.08,1.2l-.09.15c-.02.05-.05.11-.12.16-.07.05-.15.05-.21.04-.21-.06-.3-.16-.42-.26-.21-.2-.39-.41-.57-.62-.7-.86-1.34-1.75-1.99-2.64l-3.9-5.32c-1.28-1.79-2.5-3.61-3.77-5.39-.63-.89-1.27-1.78-1.94-2.64-.34-.43-.68-.86-1.04-1.26-.18-.2-.37-.39-.58-.57-.2-.17-.42-.35-.67-.42v-.08Z" fill="#26441e"/>
      <path d="M178.73,117.77c.99,1.29,1.94,2.62,2.86,3.96.46.67.91,1.35,1.36,2.03.45.68.89,1.36,1.31,2.05.84,1.39,1.64,2.81,2.48,4.2.85,1.39,1.74,2.74,2.68,4.07l-.3-.02,1.62-2.05c.55-.68,1.09-1.36,1.64-2.03,1.11-1.34,2.21-2.69,3.34-4.01,1.14-1.31,2.29-2.62,3.46-3.9,1.18-1.28,2.36-2.56,3.59-3.8-.97,1.46-2.04,2.83-3.12,4.2-1.08,1.36-2.19,2.71-3.31,4.04-1.12,1.33-2.28,2.63-3.43,3.93-.57.65-1.16,1.3-1.74,1.94l-1.77,1.92-.18.19-.12-.21c-.82-1.4-1.69-2.78-2.6-4.13-.92-1.34-1.88-2.65-2.8-4-.46-.67-.9-1.36-1.33-2.04-.44-.69-.86-1.38-1.28-2.07-.84-1.39-1.66-2.8-2.43-4.24l.06-.04Z" fill="#26441e"/>
    </g>
    <g>
      <path d="M190.88,164.09s50.01-49.5,58.73-52.06c8.72-2.56,45.91-6.41,48.21.51,2.31,6.92-18.72,41.03-32.06,42.32-13.34,1.28-74.89,9.23-74.89,9.23Z" fill="#44722d"/>
      <path d="M289.24,117.83c-3.57,1.88-7.18,3.69-10.79,5.49-3.61,1.79-7.24,3.57-10.89,5.28l-5.5,2.53c-1.83.84-3.67,1.68-5.49,2.55-3.64,1.73-7.26,3.52-10.86,5.33-3.6,1.82-7.21,3.62-10.83,5.39-3.62,1.78-7.24,3.56-10.88,5.3-7.28,3.47-14.59,6.89-21.96,10.18,7.13-3.79,14.35-7.38,21.6-10.92,3.63-1.76,7.28-3.49,10.92-5.21,3.64-1.73,7.3-3.44,10.97-5.12,3.66-1.69,7.31-3.41,10.94-5.18,1.81-.89,3.61-1.8,5.41-2.71l5.4-2.72c3.61-1.79,7.26-3.52,10.91-5.24,3.66-1.7,7.32-3.4,11.01-5.02l.03.07Z" fill="#26441e"/>
      <path d="M251.31,116.53c-.76,2.16-1.57,4.29-2.41,6.42-.42,1.06-.85,2.12-1.28,3.18-.43,1.06-.87,2.11-1.33,3.16-.92,2.09-1.89,4.16-2.82,6.25-.92,2.09-1.79,4.2-2.62,6.33l-.13-.24,3.75.59,3.74.62c2.49.44,4.98.85,7.47,1.31,2.48.47,4.96.96,7.44,1.47,2.47.52,4.94,1.05,7.41,1.64-2.52-.25-5.02-.64-7.52-1.03-2.5-.4-4.99-.83-7.47-1.28-2.49-.45-4.96-.96-7.44-1.44l-3.71-.76-3.71-.79-.22-.05.09-.19c.94-2.08,1.83-4.18,2.68-6.31.83-2.13,1.63-4.27,2.47-6.39.43-1.06.87-2.11,1.32-3.16.45-1.05.91-2.1,1.36-3.14.92-2.09,1.88-4.17,2.88-6.22l.07.03Z" fill="#26441e"/>
      <path d="M230.53,132.69c-.6,1.62-1.25,3.22-1.94,4.8-.34.79-.69,1.58-1.05,2.36-.18.39-.35.79-.54,1.17-.18.39-.37.78-.56,1.17-.77,1.54-1.59,3.06-2.35,4.61-.76,1.55-1.46,3.12-2.12,4.72l-.15-.27,2.7.22c.9.09,1.8.16,2.7.25,1.8.19,3.59.36,5.38.57,1.79.23,3.58.46,5.37.73,1.79.27,3.57.56,5.35.9-1.82,0-3.62-.14-5.42-.29-1.8-.15-3.6-.33-5.39-.53-1.79-.2-3.58-.45-5.37-.69-.9-.11-1.79-.25-2.68-.38l-2.68-.41-.27-.04.12-.23c.79-1.53,1.54-3.09,2.23-4.67.69-1.58,1.32-3.19,2-4.77.17-.4.35-.79.53-1.18.18-.39.36-.78.55-1.17.37-.78.74-1.55,1.13-2.33.76-1.55,1.56-3.08,2.41-4.58l.07.03Z" fill="#26441e"/>
    </g>
  </g>
  <g>
    <g>
      <path d="M188.73,166.97s-41.95-43.85-45.17-51.06c-3.22-7.21-2.77-38.56,1.08-39.73,3.85-1.17,26.15,16.57,35.32,31.33,9.18,14.76,8.76,59.46,8.76,59.46Z" fill="#4e7e2f"/>
      <path d="M147.44,84.63c1.82,3.37,3.59,6.78,5.34,10.18,1.74,3.42,3.5,6.82,5.18,10.27l2.5,5.17c.83,1.73,1.67,3.45,2.52,5.17,1.7,3.43,3.45,6.84,5.22,10.24,1.77,3.4,3.53,6.8,5.26,10.22,1.74,3.42,3.48,6.83,5.19,10.26,3.41,6.86,6.79,13.74,10.05,20.68-3.67-6.74-7.17-13.55-10.63-20.39-1.73-3.42-3.42-6.86-5.12-10.29-1.7-3.43-3.38-6.88-5.05-10.33-1.67-3.45-3.36-6.89-5.1-10.3-.87-1.71-1.75-3.41-2.64-5.11l-2.65-5.1c-1.76-3.41-3.44-6.85-5.14-10.28-1.68-3.44-3.36-6.89-4.98-10.37l.05-.03Z" fill="#325c27"/>
      <path d="M145.72,107.84c1.64.91,3.26,1.87,4.86,2.85,1.6.98,3.19,1.97,4.75,3.02l2.32,1.59c.77.53,1.55,1.06,2.34,1.57.79.51,1.58,1.01,2.38,1.5l2.41,1.45-.27.12c.14-.89.28-1.78.43-2.66.15-.89.3-1.77.46-2.66l.47-2.65c.16-.88.32-1.77.49-2.65.34-1.76.7-3.52,1.07-5.28.38-1.76.77-3.51,1.19-5.26-.17,1.79-.45,3.57-.73,5.34-.28,1.77-.59,3.54-.91,5.31-.16.88-.33,1.77-.5,2.65l-.53,2.64c-.17.88-.35,1.76-.54,2.64-.18.88-.37,1.76-.56,2.64l-.06.27-.22-.15-2.33-1.57c-.78-.52-1.57-1.03-2.37-1.52-.79-.5-1.6-.98-2.41-1.46l-2.42-1.44c-1.61-.97-3.17-2-4.74-3.03-1.56-1.04-3.11-2.1-4.63-3.2l.03-.05Z" fill="#325c27"/>
      <path d="M161.27,129.23c1.08.51,2.15,1.05,3.21,1.61,1.05.56,2.1,1.14,3.14,1.73,1.04.59,2.04,1.25,3.06,1.88,1.01.64,2.04,1.25,3.09,1.82l-.14.05c.54-1.48,1.01-2.98,1.53-4.47.26-.74.53-1.48.8-2.22.27-.74.53-1.48.81-2.22.55-1.47,1.14-2.93,1.74-4.39.6-1.45,1.22-2.9,1.89-4.33-.4,1.53-.89,3.03-1.41,4.52-.52,1.49-1.05,2.97-1.61,4.44-.28.74-.58,1.46-.86,2.2-.29.73-.58,1.46-.88,2.19-.59,1.46-1.24,2.9-1.82,4.36l-.04.11-.1-.06c-1.03-.61-2.07-1.19-3.14-1.73-1.06-.55-2.13-1.08-3.17-1.67-1.04-.59-2.07-1.2-3.09-1.82-1.02-.62-2.03-1.27-3.02-1.94l.03-.05Z" fill="#325c27"/>
    </g>
    <g>
      <path d="M192.15,167s-63.66-35.55-73.57-33.75-38.71,14.03-36.76,17.13c1.95,3.09,19.38,21.77,27.43,23.14s82.89-6.52,82.89-6.52Z" fill="#548430"/>
      <path d="M94.1,151.49c3.89.51,7.76,1.08,11.63,1.66,3.87.6,7.75,1.18,11.61,1.84l5.79,1.01c1.93.34,3.86.68,5.79,1,3.86.64,7.74,1.23,11.61,1.79,3.88.56,7.75,1.14,11.62,1.74,3.87.6,7.74,1.2,11.61,1.82,7.73,1.27,15.45,2.58,23.16,4.01-7.78-.99-15.52-2.16-23.26-3.37-3.87-.61-7.73-1.26-11.6-1.9-3.86-.64-7.73-1.3-11.58-1.98-3.86-.67-7.72-1.33-11.59-1.93-1.94-.3-3.87-.58-5.81-.86l-5.81-.85c-3.87-.58-7.73-1.24-11.6-1.88-3.86-.66-7.72-1.33-11.57-2.06v-.06Z" fill="#325c27"/>
      <path d="M113.23,140.04c1.23,1.32,2.42,2.66,3.59,4.03.59.68,1.17,1.37,1.74,2.06.58.69,1.15,1.38,1.71,2.09,1.11,1.41,2.19,2.85,3.31,4.26,1.12,1.4,2.29,2.77,3.48,4.12l.1.12-.12.11c-1.37,1.23-2.74,2.45-4.13,3.64-1.39,1.2-2.78,2.4-4.18,3.58-1.41,1.17-2.83,2.34-4.26,3.48-1.44,1.14-2.88,2.28-4.35,3.39,1.3-1.31,2.66-2.53,4.03-3.76,1.37-1.22,2.76-2.42,4.16-3.61,1.4-1.19,2.82-2.35,4.24-3.52,1.42-1.17,2.85-2.31,4.29-3.45l-.02.23c-1.1-1.42-2.22-2.83-3.39-4.2-1.17-1.37-2.38-2.7-3.55-4.06-.59-.68-1.16-1.37-1.73-2.07-.57-.7-1.13-1.4-1.69-2.1-1.12-1.41-2.21-2.83-3.28-4.29l.05-.04Z" fill="#325c27"/>
      <path d="M138.7,145.2c1.07,1.18,2.1,2.4,3.1,3.63,1,1.24,2,2.48,2.91,3.78l1.39,1.94c.47.64.95,1.28,1.45,1.9.98,1.25,2.03,2.45,3.04,3.68l.16.19-.21.15c-1.05.73-2.12,1.45-3.18,2.16-.53.36-1.06.72-1.6,1.07-.53.35-1.08.7-1.62,1.04-1.08.69-2.17,1.36-3.27,2.03l-1.66.98c-.56.32-1.11.65-1.67.96.48-.44,1-.82,1.52-1.2l1.57-1.12c1.05-.74,2.11-1.47,3.17-2.18.53-.36,1.07-.71,1.61-1.06.54-.35,1.08-.69,1.62-1.04,1.08-.69,2.17-1.37,3.26-2.04l-.06.34c-.94-1.28-1.85-2.59-2.82-3.85-.48-.63-.98-1.25-1.49-1.87l-1.54-1.82c-1.04-1.21-2-2.48-2.96-3.75-.95-1.27-1.88-2.57-2.76-3.9l.05-.04Z" fill="#325c27"/>
    </g>
    <g>
      <path d="M191.23,166.73c-1.09-.04-61.88,17.68-64.91,25.44-3.02,7.76-13.41,32-4.84,34.72s35.18-3.17,37.35-5.53c2.17-2.36,32.4-54.62,32.4-54.62Z" fill="#4e7e2f"/>
      <path d="M128.47,221.87c2.37-2.25,4.78-4.44,7.2-6.64,2.42-2.19,4.86-4.36,7.33-6.5l3.72-3.18c1.24-1.06,2.49-2.12,3.72-3.19,2.46-2.15,4.88-4.33,7.29-6.54,2.41-2.21,4.82-4.4,7.26-6.57,2.43-2.18,4.86-4.36,7.31-6.51,4.91-4.3,9.85-8.57,14.87-12.75-4.72,4.51-9.57,8.89-14.44,13.23-2.44,2.17-4.9,4.31-7.36,6.46-2.46,2.15-4.93,4.28-7.42,6.39-2.48,2.12-4.95,4.26-7.38,6.43-1.22,1.09-2.42,2.19-3.62,3.3l-3.61,3.31c-2.42,2.19-4.88,4.34-7.35,6.47-2.47,2.13-4.95,4.25-7.47,6.33l-.04-.05Z" fill="#325c27"/>
      <path d="M133.83,198.48c1.53.17,3.04.39,4.56.63,1.51.25,3.02.5,4.52.82l2.24.5c.75.17,1.49.34,2.25.48,1.5.3,3.02.54,4.53.76l.11.02.03.11c.4,1.44.79,2.89,1.15,4.34.37,1.45.74,2.9,1.08,4.36.33,1.46.66,2.92.96,4.39.3,1.47.59,2.94.84,4.42-.5-1.42-.91-2.86-1.3-4.31-.4-1.45-.76-2.9-1.13-4.35-.36-1.45-.68-2.92-1.01-4.38-.33-1.46-.64-2.93-.93-4.4l.14.13c-1.5-.33-2.99-.65-4.5-.91-.75-.13-1.51-.24-2.27-.35l-2.27-.33c-1.51-.24-3.02-.54-4.52-.85-1.5-.31-2.99-.65-4.48-1.04v-.06Z" fill="#325c27"/>
      <path d="M152.61,186.23c.13-.15.31-.22.48-.28.17-.06.35-.11.52-.14.35-.08.7-.13,1.06-.18.71-.09,1.41-.14,2.12-.16,1.42-.06,2.83-.05,4.24.05l2.11.16c.7.05,1.41.09,2.11.11,1.41.05,2.82.04,4.24.07h.24s-.02.27-.02.27c-.1,1.12-.22,2.24-.34,3.36-.12,1.12-.25,2.23-.41,3.35-.15,1.11-.32,2.23-.5,3.34-.18,1.11-.38,2.22-.6,3.32,0-1.13.07-2.26.16-3.38.1-1.12.2-2.24.32-3.36.12-1.12.26-2.23.42-3.35.16-1.11.31-2.23.48-3.34l.22.27c-1.4-.13-2.81-.29-4.22-.35-.7-.04-1.41-.05-2.11-.06-.71,0-1.41.02-2.12.04-1.41.04-2.82,0-4.22,0-.7,0-1.4,0-2.11.02-.35.01-.7.02-1.05.05-.17.02-.35.04-.52.07-.17.03-.34.07-.47.17l-.05-.04Z" fill="#325c27"/>
    </g>
    <g>
      <path d="M191.37,165.38c-.59.83,28.28,42.63,30.13,53.9,1.85,11.27,0,45.76-7.85,42.93-7.84-2.84-30.93-22.26-32.92-30.26-1.98-7.99,12.43-69.1,10.63-66.57Z" fill="#548430"/>
      <path d="M213.9,256.9c-.11-.23-.17-.45-.25-.68-.07-.23-.15-.45-.22-.68l-.41-1.37c-.27-.91-.54-1.82-.8-2.74-.51-1.83-1.03-3.66-1.53-5.49-.5-1.83-.99-3.67-1.47-5.51-.49-1.84-.96-3.68-1.41-5.52l-1.34-5.54c-.44-1.85-.89-3.7-1.35-5.54-.93-3.69-1.9-7.36-2.89-11.03-1-3.67-1.98-7.34-2.93-11.02-.96-3.68-1.92-7.36-2.85-11.04-1.84-7.37-3.64-14.76-5.32-22.18,2.11,7.31,4.05,14.66,5.95,22.02.94,3.68,1.86,7.37,2.77,11.06.92,3.69,1.82,7.38,2.7,11.08.89,3.7,1.8,7.39,2.76,11.06.48,1.84.98,3.67,1.49,5.5l1.5,5.5c.98,3.67,1.92,7.36,2.85,11.04l1.38,5.53.69,2.77.35,1.38.18.69c.06.23.12.47.2.67l-.05.03Z" fill="#325c27"/>
      <path d="M188.38,213.02l1.19-2.11c.4-.7.81-1.4,1.22-2.09.41-.69.82-1.39,1.25-2.07.42-.69.84-1.38,1.28-2.06.88-1.35,1.79-2.69,2.67-4.04.87-1.36,1.71-2.74,2.51-4.14l.08-.13.13.1,2.14,1.55,2.12,1.57c1.4,1.06,2.82,2.11,4.2,3.19,1.39,1.08,2.76,2.18,4.13,3.29,1.36,1.12,2.72,2.24,4.04,3.4-1.49-.95-2.92-1.98-4.34-3.01-1.42-1.04-2.83-2.1-4.22-3.17-1.4-1.07-2.77-2.18-4.15-3.27l-2.05-1.66-2.04-1.68.21-.04c-.89,1.35-1.75,2.71-2.57,4.1-.81,1.39-1.59,2.81-2.41,4.2-.41.69-.84,1.38-1.27,2.06-.43.68-.87,1.36-1.3,2.04-.88,1.35-1.78,2.69-2.75,3.99l-.05-.04Z" fill="#325c27"/>
      <path d="M195.29,238.33c.7-1.25,1.44-2.48,2.21-3.68.77-1.2,1.54-2.41,2.4-3.56.84-1.16,1.71-2.29,2.5-3.49.79-1.19,1.53-2.41,2.28-3.63l.1-.17.19.1,1.6.89,1.59.91c1.06.61,2.12,1.22,3.16,1.86,1.04.63,2.08,1.29,3.1,1.95l1.53,1.01c.51.34,1.01.68,1.51,1.04-.58-.22-1.12-.5-1.66-.78l-1.62-.86c-1.07-.59-2.14-1.18-3.19-1.8-1.06-.61-2.1-1.24-3.14-1.88l-1.56-.96-1.55-.98.29-.07c-.84,1.16-1.69,2.31-2.49,3.49-.81,1.18-1.52,2.42-2.27,3.64-.74,1.23-1.55,2.4-2.37,3.57-.82,1.17-1.67,2.32-2.56,3.45l-.05-.03Z" fill="#325c27"/>
    </g>
    <g>
      <path d="M190.57,166.8c-.51.88.43-44.24,9.21-57.42,8.78-13.19,25.33-20.9,31.2-17.61,5.86,3.29.74,23.21-3.01,35.09s-32.66,31.84-37.4,39.95Z" fill="#548430"/>
      <path d="M190.59,166.93c.44-3.33,1.45-6.55,2.58-9.7,1.15-3.15,2.49-6.23,3.95-9.24,1.47-3.01,3.05-5.96,4.63-8.91,1.58-2.95,3.15-5.9,4.76-8.84,1.6-2.94,3.24-5.86,4.94-8.74,1.69-2.88,3.41-5.76,5.18-8.6,3.56-5.67,7.22-11.27,11.11-16.71-3.51,5.7-7.06,11.36-10.56,17.06-1.75,2.84-3.51,5.69-5.24,8.55-1.73,2.86-3.44,5.73-5.14,8.61-.84,1.44-1.69,2.89-2.49,4.35-.81,1.46-1.61,2.93-2.38,4.41l-1.14,2.23-1.09,2.26c-.37.75-.72,1.51-1.07,2.27-.35.76-.71,1.51-1.05,2.28l-1.04,2.28-1.02,2.29-.98,2.3c-.33.77-.62,1.55-.94,2.32-.32.77-.59,1.56-.88,2.34-.3.78-.54,1.58-.8,2.37l-.19.59c-.06.2-.11.4-.17.6l-.34,1.2c-.12.4-.2.81-.29,1.22l-.28,1.22h-.06Z" fill="#325c27"/>
      <path d="M204.06,108.03c.19.13.33.31.44.5.11.19.21.39.3.59.18.4.33.81.47,1.23.27.83.5,1.68.7,2.52.2.85.39,1.7.56,2.55.17.85.33,1.71.46,2.57l.38,2.58c.13.86.25,1.72.41,2.57.16.85.34,1.71.59,2.53.06.2.13.41.22.6.04.09.11.19.15.21-.01,0,.13-.13.13-.13.39-.26.78-.42,1.18-.61,1.6-.72,3.23-1.33,4.86-1.92,1.64-.59,3.28-1.16,4.93-1.7,3.31-1.06,6.65-2.05,10.02-2.9-3.24,1.28-6.53,2.41-9.82,3.52-3.29,1.1-6.62,2.13-9.87,3.31-.4.16-.82.31-1.16.52l-.11.08s-.07.07-.14.08c-.07.01-.13-.01-.17-.04-.13-.11-.17-.22-.22-.32-.09-.21-.15-.42-.21-.63-.23-.85-.4-1.7-.58-2.55l-1.1-5.1c-.35-1.7-.65-3.41-.98-5.11-.17-.85-.35-1.7-.55-2.54-.11-.42-.21-.84-.35-1.24-.07-.2-.14-.4-.23-.6-.09-.19-.19-.39-.35-.52l.03-.05Z" fill="#325c27"/>
      <path d="M197.58,128.04c.3,1.25.55,2.52.78,3.78.11.63.22,1.27.33,1.9.11.63.2,1.27.28,1.91.16,1.28.28,2.56.43,3.84.17,1.28.37,2.54.62,3.81l-.21-.11,1.83-.96c.61-.31,1.22-.63,1.84-.93,1.23-.61,2.46-1.23,3.71-1.82,1.25-.58,2.5-1.15,3.76-1.7,1.26-.55,2.53-1.08,3.82-1.58-1.17.74-2.39,1.39-3.61,2.02-1.22.64-2.45,1.25-3.69,1.85-1.24.6-2.5,1.16-3.75,1.73-.63.29-1.26.56-1.89.84l-1.9.81-.19.08-.02-.19c-.14-1.28-.32-2.55-.55-3.82-.23-1.27-.5-2.52-.73-3.79-.11-.63-.21-1.27-.3-1.91-.09-.64-.18-1.27-.26-1.91-.16-1.28-.29-2.56-.38-3.84h.06Z" fill="#325c27"/>
    </g>
    <g>
      <path d="M189.55,166s52.08-19.61,59.21-18.65c7.12.96,35.22,10.18,34.65,15.92-.57,5.75-26.76,23.59-36.8,20.22-10.04-3.38-57.06-17.49-57.06-17.49Z" fill="#4e7e2f"/>
      <path d="M275.51,164.33c-3.19.21-6.37.35-9.56.49-3.19.13-6.38.24-9.57.3l-4.79.06c-1.6.02-3.19.03-4.79.07-3.19.08-6.38.2-9.57.35-3.19.15-6.38.29-9.56.4-3.19.11-6.38.23-9.57.32-6.38.16-12.76.27-19.14.27,6.37-.44,12.75-.7,19.12-.92,3.19-.1,6.38-.17,9.57-.24,3.19-.08,6.38-.13,9.57-.16,3.19-.04,6.38-.1,9.57-.21,1.59-.06,3.19-.13,4.78-.21l4.78-.22c3.19-.13,6.38-.2,9.57-.26,3.19-.05,6.38-.09,9.57-.08v.06Z" fill="#325c27"/>
      <path d="M248.53,151.15c-1.25,1.31-2.52,2.59-3.81,3.86-.65.63-1.3,1.26-1.95,1.88-.65.62-1.31,1.24-1.98,1.85-1.34,1.21-2.71,2.39-4.05,3.6-1.34,1.21-2.65,2.46-3.93,3.73l-.02-.21,2.52,1.63,2.5,1.65c1.66,1.12,3.32,2.22,4.97,3.36,1.64,1.14,3.28,2.29,4.9,3.46,1.62,1.17,3.23,2.36,4.82,3.58-1.74-1-3.42-2.08-5.1-3.17-1.67-1.09-3.33-2.21-4.99-3.33-1.65-1.13-3.28-2.29-4.91-3.44l-2.44-1.75-2.42-1.77-.14-.1.12-.11c1.35-1.2,2.67-2.43,3.97-3.69,1.29-1.27,2.55-2.56,3.85-3.82.65-.63,1.31-1.25,1.97-1.86.66-.62,1.33-1.22,2-1.83,1.34-1.21,2.7-2.4,4.09-3.56l.04.04Z" fill="#325c27"/>
      <path d="M228.32,156.12c-.96.98-1.94,1.92-2.95,2.84-.5.46-1.01.92-1.52,1.37-.25.23-.51.45-.77.67-.26.22-.52.44-.78.66-1.05.87-2.13,1.7-3.18,2.57-1.05.87-2.06,1.79-3.05,2.72l-.02-.25,1.88,1.03c.62.35,1.25.69,1.87,1.05,1.24.71,2.48,1.42,3.7,2.15,1.22.74,2.44,1.49,3.64,2.26,1.2.77,2.4,1.55,3.57,2.37-1.31-.59-2.57-1.27-3.82-1.96-1.25-.69-2.49-1.4-3.72-2.12-1.23-.73-2.44-1.48-3.66-2.23-.61-.37-1.21-.76-1.82-1.14l-1.8-1.16-.18-.12.16-.13c1.06-.85,2.11-1.73,3.11-2.65,1.01-.92,1.98-1.88,2.98-2.8.25-.23.5-.46.76-.68.25-.23.51-.45.77-.67.52-.44,1.04-.88,1.56-1.32,1.05-.87,2.12-1.72,3.22-2.53l.04.05Z" fill="#325c27"/>
    </g>
  </g>
  <g>
    <path d="M233.45,206.15c0,6.92-23.08,3.59-30.09-.76-2.36-1.46-4.98-5.59-7.41-10.43-4.8-9.54-8.89-21.81-8.89-21.81,0,0-5.52,8.75-10.89,15.46-3.14,3.93-6.22,7.16-8.11,7.54-5.13,1.03-31.54-4.87-32.38-10.32-.83-5.45,1.86-10.2,8.27-17.63,3.12-3.62,13.38-4.14,23.11-3.72,10.29.44,19.97,1.93,19.97,1.93,0,0-3.29-5.88-6.74-13.27-2.5-5.34-5.09-11.47-6.59-16.74-3.59-12.57,13.34-21.54,16.41-20.77,3.08.77,9.75,12.57,12.05,15.39,1.3,1.59-2.21,11.99-5.43,21.23-2.49,7.15-4.8,13.6-4.58,14.76,0,0,9.5,3.64,18.34,7.67,5.17,2.35,10.1,4.84,12.79,6.81,7.28,5.33,10.16,17.75,10.16,24.67Z" fill="#699b3a"/>
    <path d="M210.5,174.67c-5.92-.37-12.36-.32-13.91,1.46-1.69,1.94-1.31,11.25-.64,18.83-4.8-9.54-8.89-21.81-8.89-21.81,0,0-5.52,8.75-10.89,15.46,1.79-6.27,3.42-14.23,1.53-17.8-1.37-2.59-5.84-4.72-10.64-6.34,10.29.44,19.97,1.93,19.97,1.93,0,0-3.29-5.88-6.74-13.27,1.94,2.42,4.01,4.34,6.1,5.19,3.05,1.24,6.82-1.82,10.34-6.08-2.49,7.15-4.8,13.6-4.58,14.76,0,0,9.5,3.64,18.34,7.67Z" fill="#589232"/>
    <path d="M188.46,118.57c-.27,4.03-.55,8.06-.88,12.08-.18,2.01-.37,4.02-.48,6.04-.11,2.02-.16,4.04-.16,6.06.01,4.04.06,8.07.3,12.1.12,2.01.25,4.02.52,6.02.26,1.99.6,3.98,1.2,5.91-.81-1.86-1.26-3.86-1.6-5.85-.33-2-.54-4.02-.67-6.04-.13-2.02-.18-4.05-.18-6.07,0-2.02.04-4.05.14-6.07l.27-6.06c.08-2.02.12-4.04.22-6.06.11-2.02.28-4.03.49-6.04.21-2.01.45-4.02.76-6.02h.05Z" fill="#45742e"/>
    <path d="M143.04,183.94c1.75-.89,3.53-1.71,5.32-2.51.9-.4,1.79-.79,2.7-1.17.9-.38,1.81-.76,2.72-1.11.92-.35,1.83-.7,2.75-1.03.92-.33,1.84-.67,2.76-1.02,1.84-.68,3.65-1.41,5.49-2.11,3.65-1.43,7.35-2.72,11.12-3.82l1.41-.41c.47-.13.95-.25,1.43-.36l1.43-.35.71-.18c.24-.06.48-.1.72-.15.96-.19,1.93-.38,2.89-.55.97-.13,1.95-.26,2.92-.38-3.85.74-7.62,1.79-11.36,2.9-1.88.54-3.74,1.13-5.61,1.72-1.85.62-3.72,1.21-5.57,1.84-1.86.62-3.7,1.29-5.52,2-1.82.73-3.61,1.51-5.41,2.29-3.61,1.52-7.24,2.98-10.88,4.43l-.02-.05Z" fill="#45742e"/>
    <path d="M227.15,204.75c-3.26-2.8-6.44-5.69-9.55-8.65-1.55-1.49-3.07-3.01-4.62-4.49-1.56-1.48-3.15-2.92-4.75-4.35-1.6-1.43-3.2-2.86-4.78-4.32-1.58-1.45-3.17-2.9-4.73-4.37-3.12-2.95-6.23-5.92-9.26-8.97,3.29,2.77,6.47,5.65,9.63,8.56,1.58,1.46,3.13,2.94,4.69,4.42,1.56,1.48,3.11,2.97,4.64,4.47,1.54,1.5,3.09,2.98,4.67,4.43,1.58,1.45,3.21,2.86,4.8,4.3,3.17,2.9,6.27,5.87,9.3,8.92l-.03.04Z" fill="#45742e"/>
    <path d="M176.64,129.82c.12.03.16.11.22.17.06.06.12.13.17.2.11.13.22.27.32.41.21.28.42.55.62.84.4.56.79,1.14,1.18,1.71.78,1.15,1.54,2.29,2.3,3.45.37.58.74,1.16,1.13,1.74.38.57.78,1.14,1.2,1.69.43.54.88,1.07,1.38,1.53.25.23.52.45.82.59.15.07.3.11.43.1.03-.01.06-.01.09-.03.09-.06.3-.21.3-.21,2.18-1.69,4.32-3.45,6.5-5.15,2.19-1.69,4.39-3.36,6.66-4.97-2.03,1.89-4.16,3.67-6.32,5.4-1.08.86-2.19,1.7-3.29,2.53-1.11.83-2.22,1.66-3.39,2.42l-.22.14s-.08.05-.13.07c-.05.03-.11.03-.16.04-.22.01-.4-.06-.56-.15-.32-.18-.58-.42-.84-.66-.5-.49-.95-1.02-1.39-1.55-.88-1.07-1.74-2.16-2.55-3.29-.81-1.13-1.55-2.3-2.28-3.48-.36-.59-.72-1.18-1.08-1.77l-.53-.89c-.09-.15-.18-.29-.28-.44-.05-.07-.1-.14-.15-.21-.05-.06-.11-.15-.16-.17v-.05Z" fill="#45742e"/>
    <path d="M146.13,170.6c2.44.52,4.89,1.14,7.22,2.09,1.16.49,2.29,1.06,3.36,1.72.54.33,1.06.69,1.52,1.12.23.22.44.46.62.74.16.28.29.61.28.95,0,.17-.03.34-.06.49l-.1.46c-.07.31-.15.61-.23.92-.17.61-.34,1.21-.53,1.81-.38,1.2-.78,2.39-1.21,3.56-.88,2.35-1.84,4.66-2.91,6.93.73-2.41,1.56-4.76,2.4-7.12.42-1.18.86-2.35,1.27-3.53l.6-1.77.28-.89.13-.45c.04-.15.09-.29.09-.43.04-.57-.31-1.14-.74-1.56-.43-.44-.95-.79-1.49-1.11-.54-.31-1.11-.57-1.68-.81-.58-.24-1.16-.45-1.75-.66-1.17-.42-2.35-.83-3.53-1.23-1.18-.4-2.38-.76-3.56-1.22l.02-.05Z" fill="#45742e"/>
    <path d="M164.33,167.27c1.25-.12,2.52-.15,3.78-.05.63.05,1.26.12,1.89.24.63.12,1.25.28,1.84.53.59.25,1.17.57,1.64,1.02.48.44.8,1.07.87,1.71.08.65-.11,1.29-.31,1.87-.2.6-.4,1.19-.6,1.79-.42,1.19-.86,2.37-1.34,3.52-.48,1.16-.97,2.32-1.49,3.46-1.06,2.28-2.18,4.53-3.42,6.71.9-2.35,1.91-4.65,2.92-6.94,1.03-2.28,2.07-4.56,3.07-6.86.24-.58.49-1.15.7-1.74.12-.29.2-.59.28-.89.02-.15.05-.3.06-.46,0-.15,0-.31-.02-.46-.08-.6-.42-1.15-.89-1.52-.47-.38-1.03-.64-1.61-.84-1.15-.4-2.38-.62-3.61-.78-1.24-.15-2.48-.23-3.74-.29v-.05Z" fill="#45742e"/>
    <path d="M207.39,203.2c.06-1.25.21-2.48.36-3.71.16-1.23.33-2.46.53-3.68.21-1.22.46-2.44.69-3.65.23-1.22.42-2.44.58-3.67v-.1s.12.02.12.02c1.45.29,2.9.55,4.34.86,1.44.31,2.89.61,4.33.93,1.44.33,2.87.68,4.3,1.04,1.43.37,2.86.75,4.28,1.16-1.47-.19-2.92-.46-4.37-.75-1.45-.29-2.89-.59-4.33-.92-1.44-.33-2.87-.68-4.31-1.03-1.43-.35-2.86-.74-4.29-1.11l.12-.08c-.22,1.22-.41,2.44-.56,3.67-.15,1.23-.28,2.46-.45,3.69-.18,1.23-.39,2.45-.6,3.67l-.34,1.83-.35,1.82h-.05Z" fill="#45742e"/>
    <path d="M198.16,189.09c-.13-1.21-.2-2.42-.24-3.63-.04-1.21-.05-2.42,0-3.64.04-.61.09-1.21.16-1.82.04-.3.08-.6.13-.91.03-.15.06-.3.09-.45.04-.15.08-.3.19-.45.03-.04.08-.08.14-.09h.13s.23.02.23.02l.45.06.9.13,1.8.25c1.2.16,2.4.34,3.59.55,1.19.2,2.39.41,3.57.64,2.37.47,4.74,1,7.08,1.62-2.42-.26-4.8-.65-7.18-1.08-1.19-.22-2.37-.46-3.56-.7-1.19-.24-2.37-.49-3.55-.75-.59-.12-1.18-.25-1.78-.35-.3-.06-.6-.1-.89-.14-.15-.02-.3-.04-.45-.06l-.22-.02h-.1c-.11.13-.14.28-.18.42-.03.14-.05.29-.07.44-.03.3-.05.6-.06.9-.02.6-.02,1.2-.02,1.81,0,1.21-.02,2.41-.04,3.62-.02,1.21-.05,2.42-.1,3.63h-.05Z" fill="#45742e"/>
    <path d="M178.71,141.37c.24.25.43.53.62.81.19.28.38.56.56.85.37.57.71,1.16,1.05,1.75.68,1.18,1.34,2.36,1.95,3.57.61,1.21,1.18,2.45,1.8,3.65.62,1.2,1.29,2.39,2,3.54.09.14.18.29.28.42.02.03.05.08.06.08,0,0-.06,0-.07,0,.02-.01.09-.07.15-.12.24-.22.47-.47.69-.72.45-.5.89-1.01,1.33-1.53l2.62-3.11c1.76-2.06,3.53-4.12,5.37-6.12-1.54,2.24-3.22,4.38-4.95,6.48-.87,1.04-1.76,2.07-2.67,3.08-.45.51-.92,1-1.4,1.49-.24.24-.48.48-.76.7-.08.06-.13.11-.26.16-.09.02-.17.01-.21-.02-.03-.03-.05-.05-.07-.07-.05-.05-.06-.08-.08-.12-.1-.15-.18-.3-.26-.45-.64-1.2-1.24-2.42-1.9-3.6-.66-1.19-1.36-2.35-2.03-3.53-.67-1.18-1.29-2.38-1.92-3.58l-.94-1.8c-.32-.6-.62-1.21-.99-1.77l.04-.03Z" fill="#45742e"/>
  </g>
  <path d="M197.1,205.12c.24-.04.27-.02.25.03-.02.04-.1.09-.11.11-.05.19-.11.2-.14.19-.23-.17-.21-.19-.17-.21.1-.13.16-.14.18-.1ZM197.12,205.16s.09.05.12.01c.11-.03.14-.03.15-.02-.22-.02-.28-.02-.31,0-.02.08-.1.1-.13.12.17-.08.18-.1.17-.11Z" fill="#2f5c28"/>
</svg>