<?xml version="1.0" encoding="UTF-8"?>
<svg id="Capa_1" data-name="Capa 1" xmlns="http://www.w3.org/2000/svg" viewBox="0 0 295.95 224.55">
  <path d="M107.49,123.94c3.07-1.09,6.29,2.73,8.75,4.44,3.98,2.79,7.89,6.41,8.98,11.42,2.16,9.9-8.09,17.42-17.1,20.83-4.1,1.55-8.01,3.37-12.41,4.07-5.68.9-11.34.72-17.03-.73l4.54-1.22c-2.18-.88-5.07-.04-7.92-1.86l.7,1.84c-4.64-1.46-7.94-7.34-9.34-12.05-2.32-7.84-2.24-15.8-.4-23.78,1.34-5.81,3.19-11.26,6.32-16.3,1.24-1.99,2.84-3.23,4.75-4.53l8.11-5.52c1.26-.86,2.06-1.55,3.01-2.7,1.26-1.53,3.46-2.01,5.16-2.8,2.31-8.14,4.58-16,7.52-23.85,1.95-5.21,5.12-12.04,10.09-13.5,1.63,1.57,1.58-1.27,5.49-1.83,7.52-1.08,15.05-1.32,22.69-1.68l7.07-.32,20.7.16c2.65.02,5.72.75,5.18,1.62-.18.29-.42.34-.87.35l-21.86.25c-11.14.13-21.98.43-32.96,1.82-5.84.7-10.04,4.48-12.03,9.86-3.11,8.43-5.89,16.62-8.1,25.74,11.07-4,22.38-5.99,34.13-6.88,15.18-1.16,32.4-1.46,47.42.35,7.93.96,15.45,2.55,22.64,5.67l-.37-4.25c-.06-.69-1.03-1.31-1.05-1.99-.02-.77.43-1.48,1.52-1.63.26,2.5,1.22,4.55,1.72,6.82.33,1.5.83,2.55,2.79,2.59-1.15-2.84-1.58-5.83-2.17-8.98-1.15-6.09-2.79-11.79-4.89-17.6-1.32-3.67-2.89-6.98-5.79-9.71-4.97-4.69-16.15-5.84-23.4-6.43-.42-.03-.56-.49-.69-.64-1.39-1.56,11.88-2.06,22.02,3.11,3.38,1.72,5.51,4.39,7.28,7.63,3.01,5.52,3.06,8.65,4.28,12.31,2.38,7.11,4.05,14.3,5.33,21.61l4.21,2.32,2.23-2.71,1.43-2.14c.39-.59.61-2.28,1.76-2.15,1.75.19,3.04,1.79,4.35,2.68.39.27,1.34.08,1.62.39.25.28.69,1.16.31,1.44-.92.69-2.46-.04-3.34.01-.98.79-1.32,2.39-3.09,2.02,1.09-2.69,3.45-4.23,1.98-4.94-.49-.24-2.63,1.62-3.67,3.31-.66,1.07-1.29,1.83-2.44,2.83l3.33,2.18-.05-1.22c-.02-.58.46-1.04.86-.91.52.17,1.04.5,1.03,1.1l-.07,2.75c3.38,2.29,5.56,5.54,7.54,9.06,1.09,1.93,2.06,3.77,2.41,5.91-.6.54-1.07,1.24-1.92,1.42-3.07-9.04-10.55-16.32-18.77-20.38l-11.77-4.8c-19.95-6.51-41.66-5.86-62.53-4.67-8.5.48-16.54,1.92-24.78,3.96-9.18,2.27-17.8,5.65-25.5,11.04-4.76,3.33-8.25,7.64-10.24,13.03-1.46,3.97-2.78,7.75-3.48,11.94l-1.13,6.68c-.88,5.2.27,10.52,2.08,15.52,1.34,3.72,3.74,6.75,7.18,8.55,2.57,1.34,5.15,1.81,7.97,2.29,5.28.89,10.4.72,15.54-1.01,8.04-2.7,18.33-7.39,22.66-14.55,1.5-2.48.85-5.23-.02-7.8-1.24-3.64-3.25-6.46-6.39-8.76-.98-.72-1.76-1.79-3.02-2.2-.87-.29-1.21-1.32-1.91-1.69l-4.19-2.22ZM127.34,88.58c1.86.11,3.79-.02,5.34-.75-.05-.59-.64-.54-1.12-.45l-4.51.88c-.16.03-.48-.13-.67.15-.09.14.04.54.17.49l.8-.33Z" fill="#33351f"/>
  <path d="M223.45,146c2.52-6.28,1.94-12.97-1-18.92-1.31-2.64-3.12-4.95-5.21-7.04l-2.64-2.64c-4.13-3.29-9.37-4.51-14.4-5.41-1.33-.24-2.16-.35-3.5-.2-6.31.73-12.04,2.87-17.62,5.91-9.61,5.25-18.17,13.27-20.43,24.18-1.52,7.32,1.38,14.45,7.52,18.59,3.36,2.27,7.15,2.69,11.13,4.22-3.83,1.48-8.13.32-11.29-1.53-8.84-5.18-12.71-15.37-8.5-25.06.79-1.82,1.48-3.78,3.24-4.9-.15-.87.18-1.47.68-2.15,6.65-9.16,14.4-15.46,25.03-19.47,2.89-1.09,5.82-1.35,8.83-1.85,6.51-1.1,12.77.8,18.26,4.42,4.74,3.12,8.26,7.09,10.78,12.22,2.1,4.28,3.42,8.81,2.58,13.64s-2.74,9.89-6.54,13.31c-7.7,6.91-28.97,6.02-38.03,1.31-2.08-1.08-3.98-1.85-5.88-3.43-2.51-2.07-4.85-5.45-4.53-9.04.43-4.77,3.85-8.98,7.92-11.12-.4,1.87-1.91,2.88-2.9,4.21-1.14,1.53-2.12,3.15-2.66,5.06-.47,1.64-.59,4.28.37,5.68,4.16,6.02,14.46,8.76,21.81,9.79,6.23.87,14.55-.37,20.29-2.94,1.28-.57,2.22-.96,3.24-2.02,1.37-1.4,2.62-2.76,3.45-4.84Z" fill="#33351f"/>
  <path d="M170.46,137.75c-.08,3.03-2.89,6.1-1.69,8.23.66,1.16,1.11,2.65,1.99,3.67,4.2,4.8,9.82,8.14,15.95,9.99,10.75,3.25,18.87,4.66,30.05,1.66,4.23-1.13,7.15-3.95,9.1-7.78.54-.4,1.44-1.36,1.97-1.55.79,0,1.02,1.06.73,1.78-2.01,4.95-5.97,9.14-11.51,10.35-15.69,3.44-29.94-.32-43.25-9.02-3.32-2.17-6.11-5.37-6.62-9.4-.29-2.32.11-5.56,1.25-7.63,5.48-9.94,18-19.63,29.59-19.03l7.02,1.2-4.85-2.33c4.57-.14,8.16,2.17,11.75,4.23,3.9,2.24,6.23,5.51,7.23,9.9,1.18,5.2,0,10.66-3.91,14.42-2.89,2.77-5.93,5.11-9.63,6.69-1.07.46-1.95-.05-2.75-.67-2.33,1.25-5.27,1.87-7.99.49l7.88-1.45c1.67-.31,3.26-.72,4.64-1.62,2.39-1.54,4.69-2.89,6.52-5.07,4.63-5.53,4.72-13.71-.48-18.8-7.41-7.25-21.73-.81-30.38,4.45.8-2.45,2.87-3.53,4.69-4.83,2.88-2.05,5.91-3.12,9.38-4.57-4.7-.17-8.84,1.56-12.71,3.75-5.6,3.17-10.56,7.22-13.95,12.94Z" fill="#33351f"/>
  <path d="M106.76,124.09c5.21,3.24,9.71,7.42,13.51,12.13,4.22,5.23.27,11.76-5.11,15.55l-4.56,2.51c-.46.25-.79.33-1.21.11-.39-.21-.45-.79.01-1.34,2.44-2.87,7.94-3.97,9.77-7.79,1.45-3.05.56-6.44-1.34-8.96-.84-1.12-1.66-1.81-2.61-2.71-4.91-4.67-10.51-7.77-17.02-9.75-5.36-1.63-11.09-1.21-15.56,2.47-2.63,2.16-4.28,5.94-3.91,9.25.65,5.77,3.71,10.36,8.53,13.28,4.31,2.61,8.89,2.77,9.76,3.44.96.74-2.38,1.96-8.32-.56-2.83-1.2-5.17-2.58-7.23-4.86-2.7-2.98-4.65-6.47-4.78-10.77-.14-4.69,2.1-9.49,5.79-12.43,3.12-2.48,6.85-3.34,10.76-3.87,9.82-3.7,17.61-.02,26.16,5.01,5.18,3.05,8.99,7.75,11.03,13.35,1.54,4.24,1.08,8.39-.98,12.3-1.32,2.51-2.68,4.87-4.9,6.83-3.74,3.3-8.1,5.92-12.87,7.52-2.62.88-8.91.59-9.42.33-.14-.07-.31-.23-.09-.5.11-.14.2-.32.57-.39l4.62-.77c10.24-1.71,25.41-12.48,21.07-24.17-1.56-4.19-4.19-7.73-7.51-10.75-9.76-8.89-15.89-6.88-18.96-8.08l-3.61-.35c-1.27-.12-2.32-.64-3.41.04l6.75,1.93c1.68.48,3.57,1.05,5.07,1.99Z" fill="#33351f"/>
  <path d="M157.43,100.64c3.93-1.49,7.84-2.21,11.97-1.44-.26.53-.8.74-1.41.79-3.75.6-7.3,1.27-10.9,2.48h-17.65c-2.44,0-4.68.36-7.06.51l-10.22.67c-1.95.13-3.98-.58-5.79-1.12,3.24-1.1,6.17-.29,9.43-.66-3.82-.93-7.65-1.02-11.69-1.3-3.23-.22-6.32.47-9.54.93l-4.59-.08-6.02,1.33c-.55.12-1.47-.25-1.44-.82.96-.96,2.61-.75,3.87-1.06,2.68-.66,5.12-1.26,7.79-1.68l9.61-1.5c7.44-1.16,14.54-2.69,22.15-2.78l28.52-.34,11.59,1.01,13.19,2.25c3.86.66,18.5,2.77,17.22,4.67-.17.25-.78.51-1.15.36-3.72-1.51-7.45-2.1-11.4-2.08-4.89.02-9.49-1.29-14.25-2.07-8.02-1.32-15.82-1.94-24.01-1.85-7.63.09-14.94-.04-22.49.66-5.75.53-11.21.97-16.7,2.18,3.74.33,7.14.65,10.69,1.41,2.22.48,4.33.49,6.58.59,1.72.07,3.44.54,4.93-.23-1.99-1.69-6.06-.29-9.02-2.15,3.19-.92,6.35-.31,9.5.39,6.05,1.35,11.91,1.77,18.29.91Z" fill="#33351f"/>
  <path d="M123.5,123.57c-9.59-7.74-23.13-12.34-34.92-7.55l-5.83,2.37c-3.09,1.26-7.85,4.92-9.85,7.92-.73,1.11-.78,1.9-2.12,2.75-.65.41-.49,2.43-2.11,2.33,1.62-4.87,4.37-8.88,8.42-11.78,12.86-9.25,23.63-8.47,37.97-4.31-1.18-.97-2.48-1.06-3.75-1.42-2.12-.6-4.13-1.43-6.37-1.62l-9.52-.79c-2.24-.19-4.41,1.28-7.01.48,8.61-3.24,16.44-1.89,24.78,1.41,1.44.57,3.07.62,4.04,2.2l-1.15.37c8.71,3.46,15.94,11.08,19.48,19.96,2.35,5.9,1.82,11.91-.97,17.58-2.08,4.22-5.2,7.8-9.45,10.02-2.07,1.08-4.59,2.2-7.09.73,3.59-1.74,6.99-2.91,9.78-5.42,6.47-5.83,8.74-16.28,4.53-24.03-2.31-4.26-5.07-8.14-8.85-11.19Z" fill="#33351f"/>
  <path d="M139.39,154.48c-5.49,11.88-12.78,10.25-11.46,9.12,1.67-1.44,2.97-.81,6.36-5.07,2.92-3.68,4.84-7.66,5.65-12.3.63-.76.71-1.3.62-2.45-.54-6.88-2.82-13.32-7.49-18.58-7.36-8.3-17.11-14.22-28.01-16.55-9.58-2.05-25.22,2.41-31.09,10.86-1.15-1.09-.38-2.16.29-3.05l1.97-2.61c2.36-1.81,4.63-3.71,7.42-4.97,6.95-3.13,14.71-3.7,22.18-1.88,7.94,1.93,15.4,5.32,21.86,10.16,6.81,5.1,11.95,11.03,13.45,19.44.83,4.68.9,9.26-.69,13.96-.39,1.06-.4,2.06.65,2.83-.16,3.1.12,6.14,1.45,8.88.24.49.71,1.02.53,1.54-.12.36-1.1.77-1.46.46-2.6-2.26-1.91-5.92-2.24-9.8Z" fill="#33351f"/>
  <path d="M92.92,76.76c-1.38.74-1.55,1.94-2.01,3.12-1.34,3.48-1.96,6.85-2.53,10.51l-2.6,6.55c-.18.44-.63.6-.83.47-.24-.15-.43-.61-.3-1.06l6.14-21.12c1.66-5.7,3.73-11.08,6.77-16.11,6.02-9.96,13.77-12.03,25.05-12.43l10.54-.37,22.42-.13c.36,0,.76.5.81.7.36,1.42-6.8,1.33-11.02,1.49-9.59.38-18.94.44-28.46,1.57-3.92.47-7.83,1.45-10.95,3.78-6.99,5.21-10.18,14.56-13.04,23.02Z" fill="#33351f"/>
  <path d="M181.69,105.84c-.89,2.14-2.21,1.85-3.81,2.3-7,1.97-13.9,3.38-21.22,3.72-6.87.32-13.51.37-20.33-.38-5.85-.65-11.37-1.91-17.1-2.9-1.53-.27-2.1-.84-2.78-1.97-3.35-1.72-7.89-.62-10.49-2.57,2.07-1.1,4.06-.67,6.07-.21l15.89,3.6c16,3.63,32.37,3.22,48.24-1.31,5.3-1.51,10.08-3.35,15.81-2.87,1.07.09,2.47-.35,3.32,1.13-1.88-.55-3.29-.02-4.88.66-1.18.5-2.55-.26-3.78-.05l-4.95.85Z" fill="#33351f"/>
  <path d="M138.67,121.91c7.97,8.53,8.85,19.94,8.16,31.2-.2,3.2-.31,6.28,1.54,9.03.26.39,1.23.75,1.02,1.52-.16.58-.82.89-1.32.79-2.43-.46-3.73-5.85-3.68-9.31l.16-10.5c.07-4.83-.58-9.52-2.53-13.93-.31-.69-.3-1.52-.4-2.09l-3.53-4.91c-.4-.56-.22-1.68-1.02-2.12-.87-.47-3.02-1.32-2.68-2.55.41-1.49,1.71-.17,2.32.09,6.88,2.99,13.13,2.72,20.29,1.36,3.1-.59,5.04-3.35,5.87-2.12.16.24.16.9-.25,1.19-2.98,2.08-5.58,4.5-7.64,7.5-1.35,1.96-2.91,3.78-3.68,6.03-1.02,2.97-1.65,6.83-2.21,6.78-.3-.03-.68-.4-.64-.89l.34-4.4-1.35-3.03c-.44-.99-1.47-2-.25-3.25,1.75,1.21,1.08,3.68,2.43,4.29,1.52-3.04,3.88-7.79,6.34-8.83.72-.3,1.19-.93,1.27-1.57l-4.21.86c-3.48.71-7.15.63-10.55-.49-1.31-.43-2.41-1.05-3.8-.65Z" fill="#33351f"/>
  <path d="M96.69,77.02c-2.33,4.7-4.11,18.9-5.72,18.53-1.45-.33-.17-3.82.23-6.41.32-2.08.86-3.93,1.52-5.91l2.71-8.21c1.81-5.49,4.11-10.67,7-15.55,2.48-2.7,4.94-5.12,8.46-6.15l4.07-1.19c7.29-1.66,14.5-1.83,22.01-2.06s15.41-.77,23.2-.25l6.73.79c.29.03-.13.97-.73.98l-27.05.5-9.55.37c-4.49.17-13.15.74-15.97,1.94-.94.4-2.08.39-3.04.21-3.93,2.31-7.23,5.53-9.08,9.77l-3.91,8.97c-.45,1.04-.17,2.26-.87,3.67Z" fill="#33351f"/>
  <path d="M94.42,180.18c-4.74.31-9.18.08-13.17-3.25-.28,1.33.35,4.12,1.89,4.06,1.64-.06,2.73-.94,4.27.55.86.83,2.93.1,4.1.14,2.12.06,4.54.78,6.45-.29,1.31-.74,2.55-1.35,4.14-1.14.59.08,2.05-.61,2.13.76.05.83-1.33,1.83-2.03,2-.35-.31-.45-.56-.61-.92l-3.98,1.82c-3.08,1.41-11.68.9-15.29-.43-2.1-.77-3.52-2.42-3.7-4.63l-1.05-13.08c-.03-.38.52-.74.73-.79.3-.07.86.25,1,.73l1.49,4.88c1.63.32,2.69,1.21,3.97,1.85,1.72.86,3.8.45,5.55.83,1.08.24,1.47.46,2.73.28l4.68-.67c.42.2.58,1.6.19,1.75-5.5,2.03-13.04,1.17-17.04-2.83-.15,1.29-.24,2.94.38,3.8l3.48,1.38c4.49,1.78,9.73,1.45,14.21-.27,1.33-.51,2.38-.63,3.15.49-2.2,2.36-4.79,2.78-7.68,2.97Z" fill="#33351f"/>
  <path d="M213.16,129.77c-2.98-4.23-8.27-5.7-13.02-3.75-1.78-.25-3.42.42-5.02,1.16.26,1.08.73,1.21,1.3,1.18.09-.1.22-.17.4-.2,1.38-.21,2.72-.6,4.12-.75.2-.02.41-.04.61-.06,3.77-.83,8.27.72,10.08,4.18,1.99,3.82-.86,9.4-4.21,12.04-1,.79-2.05,1.56-2.49,3.08,7.37-2.74,12.54-10.76,8.23-16.88Z" fill="#33351f"/>
  <path d="M172.19,116.41c-5.91,4.32-12.89,11.25-16.02,17.83-.5-.08-1.46-.96-1.3-1.26,3.9-7.34,9.56-13.4,16.35-18.21l6.33-3.9c5.29-2.52,10.99-4,16.82-4.78l6-.13c8.45-.19,20.62,6.47,24.61,14.5.21.42.05.89-.22,1.14-.2.18-.74.03-.96-.37-2.67-4.79-6.69-7.96-11.55-10.28-4.11-1.96-8.11-3.3-12.68-3.41-10.01-.24-19.33,3.01-27.37,8.88Z" fill="#33351f"/>
  <path d="M200.06,61.61c-1.41-2.43-2.57-4.72-4.63-6.42-2.95-2.42-6.23-3.91-9.96-4.85-8.08-2.05-16.18-2.57-24.55-2.52-1.16,0-2.99-.14-3.43-1.26.18-1.16,2.01-1.11,3.08-1.14,8.29-.27,16.21.25,24.27,1.88,7.25,1.47,14.01,6.06,16.89,12.86-.12.5-.71,1.15-1.67,1.45Z" fill="#33351f"/>
  <path d="M127.79,93.19c-3.97-.5-7.64.85-11.38,1.24-4.01.43-7.7.86-11.5,2.43-.84.35-2.08.77-2.82-.35,3.92-1.85,8.06-3.1,12.31-3.63l9.16-1.15,11.85-.97,6.19-.46,14.39.02,15.08,1.13c1.72.13,3.81-.08,4.86,1.65-14.79-.88-28.96-1.24-43.34-.27-1.64.11-3.01.59-4.81.36Z" fill="#33351f"/>
  <path d="M98.21,154.97l10.15-3c-.32,3.34-8.79,4.78-13.5,5.6-4.81.84-9.73.08-14.49-1.58-2.92-1.02-5.13-3.78-7.11-6.15-4.17-4.99-5.22-14.99-1.61-20.57-.1,8.37-1.58,14.44,4.17,20.81,3.28,3.63,9.45,4.89,14.63,5.01l4.16.09c1.34.03,2.21.19,3.6-.22Z" fill="#33351f"/>
  <path d="M194.96,146.91l10.25-1.69c-.6.69-1.35.9-1.24,1.9-3.11,1.52-6.34,1.95-9.77,2.05-5.69.18-15.29-.48-17.19-5.06-.81-1.95-.12-3.5.83-5.06,1.92-3.17,4.53-5.14,7.78-6.79,2.28-1.15,4.26-2.64,6.77-3.46.65-.21,1.16-.53,1.77.63l-6.41,3.27c-1.98,1.01-3.49,2.22-5.1,3.72-2.71,2.53-5.03,4.8-2.7,8.35.85,1.3,2.16.83,3.5,1.15,3.78.89,7.38,1.26,11.51.99Z" fill="#33351f"/>
  <path d="M136.04,116.95c-4.03-.74-10.49-2.78-10.17-4.18.05-.22.52-.62.85-.52l6.48,1.88c11.1,2.49,22.52,2.44,33.39-.76l3.71-1.31.68-.37c.22-.12.69.37.7.69,0,.68-1.26.52-3.27,2.03-2.43,1.84-5.37,2.13-8.32,2.71-7.94,1.58-15.89,1.32-24.04-.18Z" fill="#33351f"/>
  <path d="M168.55,155.03c9.62,9.5,21.31,8.51,21.74,9.49.49,1.11-5.75,1.52-8.47.81-5.65-1.48-10.58-4.48-14.78-8.5-2.59-2.47-4.24-5.82-4.82-9.36-.37-2.21.36-4.3.7-6.4.27-1.64,1.2-2.97,2.97-3.25l-1.39,3.99c-.59,1.68-.68,2.9-.34,4.57.68,3.32,1.91,6.21,4.38,8.65Z" fill="#33351f"/>
  <path d="M84.51,138.79c4.07,6.14,10.31,6.97,10.92,8.16.14.26-.32.96-.81.93-2.17-.13-4.03-1.21-5.9-2.2-3.55-1.88-6.12-4.9-7.25-8.74-1.38-4.67,1.02-8.91,5.52-10.7,4.3-1.7,9.2-1.34,13.47,1.18-.51.77-1.69.93-2.57.63-5.63-1.89-15.91.43-14.69,6.73.23,1.19.51,2.81,1.3,4Z" fill="#33351f"/>
  <path d="M147.81,107.5l-7.31-.43c-1.45-.09-2.76.19-4-.36l4.06-.61c-4.01-.43-7.75-.5-11.88-1.83,3.05-.98,6.19-.69,9.39,0,2.58.56,5.09.59,7.7.81,6.45.54,14.01-.65,20.04-2.91,2.33-.87,11.02-2.15,13.05-1.65l4.8,1.18c-2.02,1-4.26.76-6.46,1.2-1.75.35-3.23.18-5.01.22l-8.23.15c2.31.96,4.44.38,6.98.51-.69.95-1.81,1-2.93,1.2-3.68.64-7.19,1.72-10.94,1.95l-9.25.56Z" fill="#33351f"/>
  <path d="M207.89,177.56l4.35-1.17c.46-.12.81.55.7.83s-.38.53-.75.77c-3.26,2.16-7.2,2.55-11.1,2.39-1.32-.05-2.22-.61-3.36-.94-1.83-.54-3.4-.95-5.25-2.3.19,1.74.25,3.41-.82,4.61-.62-.14-.84-.96-.95-1.45-.97-4.47-1.16-8.85-1.13-13.63,2.55-.45,1.3,3.02,2.97,4.06,1.06.66,2.38.89,3.07,2.13.16.29-.36.97-.72,1.01-1.29.12-1.77-1.95-3-1.98l.45,3.68c4.92,1.95,10.06,3.07,15.53,1.99Z" fill="#33351f"/>
  <path d="M179.83,121.84c-5.29,3.17-9.38,7.38-12.77,12.36-1.03,1.52-1.75,3.13-3.41,4.21,1.06-4.04,3.29-7.13,5.89-10.19,5.23-6.17,12.3-10.08,19.98-12.46,4.74-1.47,9.26-1.74,13.95.08,1.05.41,2.53.35,3,1.89-9.76-3.04-17.98-1.07-26.65,4.12Z" fill="#33351f"/>
  <path d="M214.42,171.08c-3.56,6.13-18.23,4.94-18.36,2.61-.02-.36.66-1.04,1.24-.96,4.28.58,8.39.57,12.82.17-.06-.2-.25-.77-.14-1.11,1.46-.74,2.96-1.39,4.58-1.72l.68-3.2c.17-.77,1.16-2.33,1.95-2.22,1.14.15.51,1.48.46,2.02l-1.33,12.88c-.08.75-2.48.72-2.5.05l.6-8.51Z" fill="#33351f"/>
  <path d="M227.35,150.3c.71-5.12,1.42-10,1.32-15.19-.09-4.84-1.17-9.38-2.34-14.04l1.83-2.29,1.57,5.08c1.72,8.53,1.8,17.2.07,25.72-.12.62-.55,1.04-.82,1.28-.31.27-1.71-.05-1.64-.56Z" fill="#33351f"/>
  <path d="M153.83,154.53c2,6.96,7.99,7.81,8.21,9s-2.01,1.8-5.72-1.26c-5.1-4.19-6.88-12.83-5.08-19.46.91-3.35,2.43-9.1,3.73-8.66.85.29.91.73.55,1.5-1.37,2.97-2.15,6.03-2.66,9.32s.09,6.52.96,9.56Z" fill="#33351f"/>
  <path d="M198.94,84.77l-4.02-13.35-2.27-6.16c-1.24-3.36-3.83-6.34-7.3-7.35l-4.71-1.37c-.62-.18-1.07-.92-1.58-1.52,7.26.75,12.85,3.46,15.75,9.99,2.37,5.33,3.63,10.93,5.27,16.57.35,1.21.34,2.48-1.12,3.19Z" fill="#33351f"/>
  <path d="M79.41,97.29c.11.85-1.46.63-2.76-1.95-1.43.77-2.78.28-4.2.21-2.9-.16-5.65-.9-5.45-2.51.04-.28.23-.73.69-.87.34-.1.88.22,1.47.52.2-.71.93-2.36,1.87-2.23,1.42.19-1.61,3.15.1,3.23.98.04,1.3-4.76,6.55-5.21,1.16-.1,1.8-.7,2.67-1.25,1.12-.7,1.71.96,1.97,1.71.5,1.43-.09,2.39-.79,3.33.27,3.58,3.77,4.91,2.31,6.07-1.24,1-2.89-3.03-4.47-5.47-.44-.67-2.09.15-1.85.98.36,1.28,1.73,2.21,1.9,3.45ZM80.79,90.14c.02-.29-.48-.76-.94-.95-2.76.28-5.59,1.75-7.02,4.38.82.41,1.75.28,2.64.09,1.49-3.39,5.22-2.13,5.31-3.52Z" fill="#33351f"/>
  <path d="M209.51,90.24c1.13,1.41,1.54,3.65,1.03,4.44-.23.37-1.3.81-1.49-.04-1.78-8.25-3.34-16.39-5.8-24.45-.83-2.71-1.64-5.13-2.92-7.66.89-.06,1.53-.29,2.12-.74,1.36,1.74,1.47,3.85,2.12,5.79.34,1.01.92,1.91,1.19,3.04l3.68,15.06c.37,1.51-.12,2.93.06,4.56Z" fill="#33351f"/>
  <path d="M104.31,146.79l6.67-.82c.82-.1,2.03-.9,2.71-1.39,1.88-1.36,1.5-4.16.18-5.72l-3.09-3.65c.24-.23.59-.55.58-.7-.01-.21-.61-.43-.38-.94,2.2.85,3.47,2.81,4.93,4.62,1.3,1.62,1.87,3.53,1.29,5.7-1.03,3.88-9.25,5.46-13.98,5.25-2.24-.1-4.57.1-6.46-1.92,2.6.06,4.95-.11,7.55-.43Z" fill="#33351f"/>
  <path d="M227.92,94.85c-1.45.34-1.1-1.37-1.35-1.93-1.46-3.35-2.84-4.52-5.89-5.49-1.1-.35-2.88.47-3.59,1.19-.42.43-.48.96-.76,1.09-.43.2-.98.12-1.48.01.59.73.51,1.69-.34,2.14-.95-2.17,0-4.11,1.82-5.38,2.5-1.74,6.4-1.57,8.51.93.83.99,1.09,2.51,2.59,3.08.18.55.17,1.37.82,1.78,1.14-1.25.7-2.97-.5-3.93l-2.35-1.86c1.91-1.63,5.61,1.14,5.52,4.41-.05,1.6-1.07,3.49-3.01,3.94Z" fill="#33351f"/>
  <path d="M195.19,181.47l-.35.73c-.09.19.01.48.38.39.63-.17.51-1.05.86-1.23,0,0,6.56,1.44,12.97.11.97-.2,1.79-1.19,3.03-.57l.73,2.57c-4.96,1.45-9.87,1.49-14.91.82-1.71-.23-3.66-.04-5.1-1.14-.54-.41-.05-1.37.31-1.69.46-.41,1.87-.54,2.08,0Z" fill="#33351f"/>
  <path d="M193.8,168.15c.22-1.34,1.69-.4,2.25-.23,4.32,1.26,11.9,1.31,15.77-.66.47-.24.87-.11,1.13.21,1.14,1.41-7.36,5.48-16.76,2.58-.86-.27-2.58-.74-2.39-1.9Z" fill="#33351f"/>
  <path d="M102.21,167.2c-1.05,2.58-3.95,2.94-6.32,3.46-5.21,1.38-14.28-.98-13.48-2.86.23-.53.88-.9,1.49-.51,3.98,2.57,12.3,1.53,18.31-.1Z" fill="#33351f"/>
  <path d="M103.35,172.11c-1.32.55-2.24,1.7-3.79,1.96-.38.06-.68-.7-.59-1.04.28-.97,2.56-2.04,4.42-2.86-.07-1.51.25-3.51,1.83-4.01.71-.22.77.85.73,1.28l-.72,8.8c-.13,1.6-1.18,2.86-2.87,3.01l.97-7.13Z" fill="#33351f"/>
  <path d="M85.41,151.06c-.68,1.06-2.37,1.04-3.22.81-6-2.53-9-9.16-8.3-15.82,1.38.2.88,1.4,1,2.23.77,5.53,4.44,11.55,10.52,12.78Z" fill="#33351f"/>
  <path d="M218.16,149.23c-.88.78-1.39,1.71-2.52,2.28s-2.62.61-3.17-.97c6.37-2.11,8.6-8.01,9.18-14.41.73,1.87.94,3.88.67,6.03l-.95,1.87c-.17,2.37-1.51,3.68-3.22,5.21Z" fill="#33351f"/>
  <path d="M77.19,126.97c-.88,1.34-.99,3-2.32,4.1-.5-2.68.68-4.67,2.02-6.66,3.07-4.54,6.1-6.28,11.67-7.1l-5.5,3.43c-2.36,1.47-4.23,3.72-5.87,6.23Z" fill="#33351f"/>
  <path d="M78.43,86.95c-2.87-.22-8.87.96-9.86,2.34-.58.82-.83,1.99-2.19,2.13-.66-1.91.31-4.09,2.3-4.96,3.64-1.6,9.76-1.68,10.46-.5.14.24-.24,1.02-.71.99Z" fill="#33351f"/>
  <path d="M92.74,160.94c-2.02.23-3.86.21-5.79-.58,7.28-.62,14.13-1.4,21.39-3.85-2.8,2.87-6.72,3.42-10.4,3.84l-5.2.59Z" fill="#33351f"/>
  <path d="M215.6,119.41c2.23,1.98,4.68,4.2,4.77,7.63-2.56-3.19-4.77-5.9-7.94-8.17-.98-.7-1.5-2.06-3.07-2.55,1.73-.7,3.06.26,4.27,1.33l1.98,1.76Z" fill="#33351f"/>
  <path d="M81.15,108.94c-.34.28-.81.12-1.01-.03-.18-.13-.6-.53-.24-.87l2.56-2.42c2.68-1.71,5.61-2.75,8.61-3.63.12-.03.55.46.47.55-.98,1.11-5.82,2.61-10.39,6.41Z" fill="#33351f"/>
  <path d="M109.35,132.41c.73.58,1.05,1.39.79,2.37-1.69-.62-2.74-1.87-4.25-2.79l-5.36-3.27c.56-2.2,6.05,1.48,8.81,3.7Z" fill="#33351f"/>
  <path d="M191.06,95.83l-8.31-1.51c-1.88-.34-3.86-.18-5.44-1.37,1.59-.77,3.09-.29,4.55.05l9.19,2.13c.36.08.35.6,0,.71Z" fill="#33351f"/>
  <path d="M222.93,91.08c1.84,1.65,3.8,3.87,2.75,4.33-1.56.67-2.93-4.31-7.09-5.74,1.92-1.14,3.15.35,4.34,1.42Z" fill="#33351f"/>
  <path d="M126.6,157.44l2.69-3.53c1.59-2.09,2.61-4.02,3.52-6.77.39,2.97-1.07,5.64-2.98,7.61l-2.88,2.97-.34-.28Z" fill="#33351f"/>
  <path d="M207.96,102.91c1.71-.24,4.68,2.06,6.77,3.99-.61.75-1.34.37-1.91-.04-2.65-1.91-6.65-3.7-4.86-3.95Z" fill="#33351f"/>
  <path d="M226.57,148.72c-.08,2.29-1.23,3.46-2.75,4.65-.34-1.95.61-4.53,2.75-4.65Z" fill="#33351f"/>
  <path d="M80.89,100.66l-1.87,2.21c-.8-.94-.83-2.46-.04-3.54.36-.5.94-.43,1.38-.23.37.17,1.1.88.53,1.56Z" fill="#33351f"/>
  <path d="M206.39,142.08c-.86,2.48-4.29,3.32-7.1,3.06.78-.2,1.48-.39,2.26-.76l4.83-2.3Z" fill="#33351f"/>
  <path d="M156.2,154.28c.75,1.51,1.76,2.7,1.9,4.51-2.12-1.45-3.11-3.89-2.84-6.48.73.47.63,1.35.94,1.97Z" fill="#33351f"/>
  <path d="M178.74,56.15c-2.06.5-3.89.29-5.05-1.59,1.87-.46,3.78-.02,5.05,1.59Z" fill="#33351f"/>
  <path d="M221.28,112.54c-1.77-1.04-3.36-2.28-4.88-4.16,1.95.2,4.12,1.8,4.88,4.16Z" fill="#33351f"/>
  <path d="M99.2,97.44c-4.46,3.03-6.95,2.02-5.43,1.35,1.74-.77,3.76-2.04,5.43-1.35Z" fill="#33351f"/>
  <path d="M200.49,97.33c-1.64.63-3.37-.12-4.61-1.48,1.63-.58,3.41-.04,4.61,1.48Z" fill="#33351f"/>
  <path d="M215.35,181.5c0,.57-1.37,1.62-1.95,1.49-.79-.18-.53-1.54.11-2.1.5-.44,1.85-.25,1.84.61Z" fill="#33351f"/>
</svg>