<?xml version="1.0" encoding="UTF-8"?>
<svg id="Capa_1" data-name="Capa 1" xmlns="http://www.w3.org/2000/svg" viewBox="0 0 295.95 224.55">
  <path d="M144.87,53.78c.26.19,1.17,4.62,1.97,6.11,3.48,6.42,8.27,13.47,11.15,20.05.68,1.56,1.65,7,1.96,7.2.24.16,2.48-1.48,3.12-1.05,1.03.7,10.87,19.18,12.13,21.83,7.53,15.78,11.8,30.46.84,46.16-20.8,29.78-68.63,11.27-61.88-28.27,1.08-6.32,7.28-14.61,7.84-17.87.19-1.13-1.09-2.82-.69-3.42.25-.37,2.35-.63,3.16-1.71,1.66-2.19,7.88-14.52,10.19-14.57,5.8-.12-4.43,10.1-5.05,11.06-4,6.23-11,21.55-12.22,28.66-4.53,26.27,23.88,46.77,46.82,31.75,22.4-14.66,15.04-36.54,4.53-56.09-8.11-15.08-18.8-29.12-26.52-44.51-1.92-1.97.69-6.8,2.65-5.33Z" fill="#33351f"/>
  <path d="M137.36,61.31c1.7-1.33,7.59,12.27,8.38,13.66,10.48,18.25,37.58,51.43,23.27,72.34-13.74,20.09-44.63,13.04-46.6-11.36-1.01-12.49,5.98-23.6,12.25-33.75,5.87,1.52-.16,5.84-1.37,8.32-6.59,13.49-13.44,28.22.8,39.58,16.99,13.56,38.57-1.97,35.46-22.55-2.73-18.11-25.43-43.41-32.86-60.85l.66-5.39Z" fill="#33351f"/>
  <path d="M135.18,68.84c.94.92.47,5.79,1.17,7.89,5.47,16.29,25.72,33.83,27.65,52.13.87,8.25-3.43,18.84-12.37,20.43-17.74,3.14-25.44-15.88-15.91-28.81l2.17-10.73c1.74.08,4.09,7.38,3.84,8.95-.11.68-2.5,1.32-3.56,3.12-5.02,8.52-3.99,22.53,7.53,24.28,7.78,1.18,14.77-6.01,15.27-13.3,1.05-15.35-23.49-42.57-30.98-56.07l-.17-2.51,4.29,1.07c.24-.3-2.5-9.94,1.07-6.45Z" fill="#33351f"/>
  <path d="M187.91,125.86l-5.5-14.39c-11.55-20.49-23.08-41.08-36.27-60.6-.58-4.53,1.56-6.48,4.34-2.16,7.28,11.32,37.23,59.37,38.32,69.36.3,2.73-1,5.08-.89,7.77Z" fill="#33351f"/>
  <path d="M139.49,177.51v-3.22c23.55,2.23,43.12-10.81,48.13-34.19.98-4.58,0-12.16,3.51-15.31,1.75,9.08.87,18.15-2.91,26.67-2.25,5.06-12.35,18.09-17.53,20.14-1.14.45-2.72-.27-3.99.27-2.74,1.16-3.56,3.89-7.78,5.16-6.69,2.02-12.69,1.04-19.43.48Z" fill="#33351f"/>
  <path d="M153.14,138.44c-3.4,3.72-10.4,3.35-12.09-1.75-1.92-5.8,3.11-10.12,1.68-16.21h3.22c2.89,5.8-6.21,12.79-1.7,16.24,6.75,5.18,7.52-4.12,7.1-9.24-.35-4.32-2.94-8.59-4.83-12.4-1.66-3.35-9.67-14.32-10.07-15.77-.96-3.5,1.44-4.77,4.32-1.08,6,7.68,20.22,31.62,12.37,40.2Z" fill="#33351f"/>
  <path d="M110.45,115.11c-2.33,12.37-4.63,20.6-.2,33.01,4.61,12.88,13.02,18.39,24.75,23.72,1.54.7,2.93-.63,2.34,2.44-20.86-4.56-34.41-20.7-33.33-42.48.07-1.49,3.3-20.42,6.43-16.69Z" fill="#33351f"/>
  <path d="M110.46,111.87c.87-4.39,15.78-32.12,17.75-32.25,2.4,1.66,1.02,1.9.53,3.72-1.5,5.57-10.98,21.26-14.82,26.08-1.02,1.28-1.21,2.94-3.46,2.45Z" fill="#33351f"/>
</svg>