<?xml version="1.0" encoding="UTF-8"?>
<svg id="Capa_1" data-name="Capa 1" xmlns="http://www.w3.org/2000/svg" viewBox="0 0 295.95 224.55">
  <path d="M142.35,96.66c2.93-.98,4.75-1.29,7.89-.11,1.63.61,6.83,4.56,8.01,5.91,1.09,1.26,4.01,7.41,4.38,7.66.71.48,1.99.15,2.84.22-1.15-5.24-4.93-9.2-8.74-12.73-.57-.53-4.53-2.63-3.26-3.31,1.9-1.02,5.49,2.21,6.83,3.52,3.84,3.78,5.85,8.19,7.17,13.36,3.08.42,7.78,3,10.5,3.42.96.15.62-.09.71-.7.14-1.01.16-4.2-.1-5.1-.12-.42-3.56-7.39-3.82-7.74-1.67-2.23-12.4-8.7-15.19-9.11-1.38-.2-.05,1.37.27,1.63,1.15.92,6.62,3.71,7.05,4.75.62,1.51-3.57-.58-3.95-.77-2.78-1.44-2.93-2.66-4.95-4.9l.88-1.17c-2.81.31-2.1-1.59-2.36-1.9-.06-.06-.92.48-1.54.4-.35-.05-5.88-1.99-6.7-2.3-2.08-.78-2.23-1.91.33-1.75,3.53.21,18.18,7.57,21.94,9.69,3.03,1.71,6.62,5.57,7.22,9.07,1.63-.62.53-2.63,1.17-3.77.72.84,1.89,1.42,2.12,2.6.37,1.93-.4,11.9.07,12.44,2.37.64,4.91,1.9,7.03,3.11,3.56,2.03,14.02,9.06,14.99,12.85.63,2.44-.97,1.8-.87,2.69.11.97,1.05,1.62.97,2.63l-5.65-4.61-.48-1.05h1.89c.75-.67-3.79-4.24-4.48-4.73-3.57-2.53-7.39-5.26-11.55-7.32-2.88-1.42-5.85-2.76-8.97-3.53l2.83,2.6c-1.9.19-5.27-1.12-6.6-2.59l2.83.46c.36-.33-2.75-4.88-2.12-1.88-5.01-.72-10.05-2.32-15.1-2.83-3.45-.35-8.84-.59-12.29-.49-1.61.05-13.25,1.82-13.67,2.38-.31.41.33.92.48.94,1.32.17,4.41-1.21,5.68-1.39.95-.13,5-.04,6.14,0,.92.04,1.23,1.16,2.33,1.38,2.7.54,7.5.09,10.79.54,16.49,2.26,35.38,9.72,45.04,23.85.99,1.45,2.16,3,1.97,4.87-1.09,1.19-6.48-7.13-7.3-8.03-13.06-14.26-38.78-18.66-57.05-18.92-2.66-.04-4.49-2.16-4.76-2.18-.35-.03-1.79.91-2.58,1.07-8.92,1.76-16.48,2.27-24.24,7.37-3.78,2.49-7.28,5.34-9.75,9.03-.27.41-1.6.29-.9,1.24.05.07.87-.05.93.31.17.97-2.27,5.12-3.1,5.87-.58.53-1.07.31-1.19-.25-.29-1.39,2.71-4.15,1.89-4.94-.12-.12-1.99.59-1.83-2.15.11-1.96,6.52-7.3,8.29-8.63,4.42-3.33,9.4-5.83,14.28-8.4l-.44-22.82c-.46-.5-8.3,3.71-9.28,4.4-.69.48-3.45,4.56-4.84,2.63-.77-1.06,2.15-4.15,2.96-4.98,4.33-4.49,10.27-8.83,14.94-13.14,9.48-8.75,18.83-17.67,28.31-26.43v-15.34h-8.97v-2.83h8.26c.05,0,.71-.66.71-.71v-8.26h2.83v8.26c0,1.08,8.38.13,8.92.75.36.41-.03,2.79-.66,2.79h-7.55c-.05,0-.71.66-.71.71v14.63c13.45,13.16,27.44,26.06,41.56,38.66.88.72.43,4.54-.73,4.04-.69-.3-1.89-2.13-2.91-2.76-1.49-.92-4.58-2-6.3-2.43v8.02c-3.17-.15-1.85-1.15-2.46-2.25-.15-.27-1.99-.99-2.26-1.77l1.88.24c.97-3.89-.23-2.01-1.84-2.58-5.35-1.89-11.96-7.84-16.91-10.64-2.32-1.31-5.06-1.87-7.2-3.53,1.68-1.37,4.78.53,6.63,1.4,4.96,2.34,11.82,6.82,16.47,9.96.99.67,2.27,3.13,2.91,1.45,1.24-3.22.12-2.17-1.24-3.1-6.89-4.7-15.87-10.57-23.79-13.03-2.43-.76-5.84-1.85-8.31-1.65-.5.04-2.1.04-2.09.73.03,2.06,9.07.8,8.95,4.01-.37.32-6.29-.84-7.09-1.16-1.33-.54-1.31-1.55-1.88-1.9-2.86-1.77-15.15,2.25-18.83,2.86l-13.25,11.76c1.4.73,6.6-4.09,6.6-.95v7.55c0,.19-.87.79.46,1.18l1.9-1.17c-1.49,2.2-2.75,3.8-2.85,6.63-.04,1.14.47,2.1.44,2.86-.04,1.16-1.25,7.17.28,7.25.59-.74,2.46-.82,2.87-1.38.15-.21-.32-4.2-.07-5.21.36-1.47,1.91-2.78,2.37-3.81.6-1.35.61-3.03,1.49-4.65,1.95-3.6,9.97-11.69,14.16-12.27,1.21-.17,2.98-.13,4.21-.04,2.72.2.37,1.52-1.06,1.78-3.78.68-4.67.21-8.12,2.73-5.62,4.12-8.91,10.22-10.98,16.86-.4,1.29-1.88,1.54-.84,4.12,4.41-.11,2.9-.74,3.43-3.88.28-1.61,2.94-10.25,4.35-10.27.08,0,1.08.99,1.09,1.17.01.31-2.52,4.1-2.97,5.43-.27.8-1.49,5.83-1.18,6.13,1.66.2,2.45-.1,2.36-1.88.93-.15.25,1.18.47,1.42.1.11,2.58-.38,2.74-.57.49-.57,1.4-6.77,2.89-8.53.85-1.01,2.17-.94,1.72.63-.38,1.31-4.3,6.24-3.1,7.52,3.92.24,2.56-2.34,3.88-4.84.65-1.22,2.77-2.96,2.23-.6-.31,1.35-1.96,2.83-1.87,4.5,4.93.37,2.59-.21,3.4-2.97.6-2.04,2.5-1.47,2.29.78-.03.3-1.06.29-1.21,1.24-.25,1.59,2.58.12,3.78.11,1.34-.01,3.59.48,4.95.84-.34-3.86-3.9-4.41-7.07-3.31,1.82-2.7,4.8-2.27,6.61.23,1.46,2.01.53,3.71,4.24,3.07.55-.49-3.47-5.84-4.28-6.33-2.81-1.7-7.72.04-7.98-.27-.96-1.13,1.63-2.29,2.58-2.39,3.6-.38,8.16,2.74,9.86,5.75.48.85,1.14,3.54,1.29,3.67.44.39,3.66-.39,4.66.53.27-1.73-1.49-2.4-2.36-3.54-.51-.67-.72-1.5-1.23-2.09-3.68-4.22-9.33-8.54-15.28-6.65-.19-.13.44-.68.47-.94-2.04.68-3.61,1.73-5.52,2.28-.33.09-1.56.98-1.55-.15.01-1.59,5.46-3.84,7.06-3.54-.03.46.05.95,0,1.41ZM151.78,60.34c-1.1-1.3-6.98-2.5-7.07.46,2.13-.54,4.98.71,6.84.48.41-.05.31-.85.24-.94ZM156.97,65.99c-1.32-2.7-7.48-3.54-10.28-3.64-2.4-.09-4.73.5-6.71,1.77.27,1.05.68.64,1.3.63,5.34-.08,10.36.84,15.69,1.24ZM164.52,73.06c-2.43-3.39-6.8-4.74-10.75-5.53-5.17-1.03-11.72-1.44-16.75-.03-1.18.33-2.47,2.37-3.64,2.97-.24,1.11.97.77,1.61.66,1.79-.29,3.72-1.38,5.35-1.73,8.15-1.76,16.26,2.17,24.18,3.65ZM171.6,80.15c.68-.65-4.15-4.85-5.06-5.08-1.16-.29-2.38.04-3.54-.23-4.82-1.11-15.59-5.28-19.84-4.14-.5.13-.41,1.01-1.01,1.24-1.85.72-9.25,1.02-12.11,1.8-.72.2-2.46,2.37-3.25,2.87,3.53.09,7.08-1.64,10.67-2.07,1.63-.2,3.77.24,5.11-.02.57-.11-.05-1.37.52-1.48.77-.15,2.84-.04,3.72.07,13.65,1.77,24.87,11.92,36.84,17.9l.48-.48-8.95-8.04c-.83.09-10.88-4.15-10.17-4.69l6.6,2.35Z" fill="#33351f"/>
  <path d="M136.21,171.69c-1-.34-2.87.96-3.24-.3l.28-14.9c-.54-2.94-1.34-6.16-2.38-8.95-.63-1.68-4.26-6.29.02-4.49l2.48,5.53c.15-1.29.98-2.75.96-4.02-.01-1.17-.95-2.22-.95-2.35.11-1.97,1.53.76,1.64.71l1.65-2.83c-1.48.51-4.86-.57-5.84-.37-.58.12-.93,1.14-1.95,1.32-.63.11-2.11-.11-2.1-.72.02-.92,7.15-2.61,8.26-2.61,1.55,0,2.6,1.49,3.22,1.38.29-.05,2.86-2.25,3.6-2.55-2.8-2.02-6.31-1.51-9.43-.71-.23-.21,1.23-2.38-.23-1.88-6.28,2.15-12.39,4.3-18.44,7.05-.6.22-.91-.11-.67-.67.93-2.2,9.35-6.3,11.8-7.08,6.32-2,11.39-1.57,17.46.93,1.02.42,1.64,1.51,2.61,1.67,1.21.19,2.21-.49,3.28-.48s2.06.68,3.28.48,3.33-3.11,1.9.46c3.13,1.41,4.99,3.54,7.09,6.12,3.07-2.27.6-4.32-1.65-6.37-6.2-5.65-8.76-3.01-15.72-4.58-1.4-.32-2.25-1.98-2.9-2.07-.79-.12-2.5.63-3.56.28-.78-.59.05-.86.7-.94,1.57-.2,3.53.07,5.19,0,.93-.04,1.85-.5,2.84-.51,6.05-.06,18.14,5.17,18.66,12.09.06.86-.42,1.66-.29,2.6.14.99,1.22,2.18,1.19,3.04-.03,1.1-2.19,3.78-2.36,5.66-.19,2.1.83,3.21.89,4.7.11,2.82-.52,3.28.05,6.64.42,2.43-1.57,5.84-1.14,8.73-.21.37-2.61.11-2.61-.03v-23.36c0-.35-1.25-3.56-1.54-4.12-3.95-7.52-14.91-8.13-19.9-1.27-.31.43-2.15,3.75-2.15,3.98v24.77ZM162.17,149.04c1.88-.99.62-4.98-.94-5.66l.94,5.66Z" fill="#33351f"/>
  <path d="M144.53,119.5c3.49,1.6,7.11,1.47,11.14,2.3,7.59,1.56,18.19,4.83,24.02,9.97.21.18,1.72.52.88,1.23-.35.3-7.33-3.1-8.5-3.52-10.94-3.97-19.99-5.38-31.37-6.85-1.62-.21-4.14.69-4.95-.95l1.41-.95c-2.18.8-4.33-.05-6.23.09-8.1.58-23.95,8.41-29.16,14.77-7.41,9.04-7.2,16.9-7.06,27.82.01,1.11.52,11.45-2.17,7.81.28-8.55-1.73-18.96,1.31-27.02,7.51-19.91,28.92-25.51,48.25-25.4,1.2,0,1.49.28,2.42.7Z" fill="#33351f"/>
  <path d="M174.43,164.61c-.68.15-.95,2.57-.94,3.07,0,1.23.8,2.63.47,4.01l-1.41-1.18c.48-3.29.29-6.6.48-9.9.19-3.42.21-3.63,0-7.09-.03-.54-.27-8.29,1.41-6.36.06,1.49-.08,3,0,4.49.03.53-.31,1.3.47,1.17.33-2.44,2.56-5.37,4.86-6.24,1.02-.38,3.6-.06,3.17-1.07-1.99-1.94-4.14-4.27-6.38-5.89-2.14-1.55-6.27-4.29-8.55-5.61-3.13-1.82-8.46-2.15-10.9-3.69-1.58-1-1.33-1.97.83-1.83,7.62.52,19.61,6.92,24.77,12.52,2.73,2.96,7.9,9.77,8.61,13.56.45,2.36.38,14.86-.62,16.62-.7,1.22-2.27,1.36-3.09.3-1.21-1.57.08-9.28.06-11.86-.01-1.72-.27-5.9-.52-7.5-.61-3.9-5.63-4.61-8.25-1.7-.43.47-1.63,2.67-1.63,3.09v17.93c0,.94-2.83.94-2.83,0v-6.84Z" fill="#33351f"/>
  <path d="M105.07,158.24c.13-1.39,1.24-6.99,1.79-8.12,1.11-2.3,6.39-7.65,8.96-8.5,5.32-1.74,8.98,1.37,11.19,6,2.2,4.6,2.73,15.53,3.07,21.01.26,4.08-3.15,4.09-3.57,2.13.71-6.47.76-23.28-5.6-26.94-2.23-1.28-6.18-.26-7.34,2.14,5.61.16,7.95,4.86,8.07,9.92.09,3.67.29,9.75-.02,13.23-.21,2.37-1.25,4.51-3.13,1.89.15-5.08.74-11.06.3-16.08-.38-4.25-4.18-8.82-8.29-4.95-.33.31-1.64,2.43-1.64,2.61v18.87c0,1.09-3.77.44-3.77.24,0-4.23-.37-9.34,0-13.45Z" fill="#33351f"/>
  <path d="M142.82,125.45c-.19.91-.95.83-1.65.94-25.08,3.98-40.39,9.61-41.2,38.45-.06,1.99,1.91,8.19-1.94,6.79.35-2.73-.52-5.6-.54-8.18-.04-6.35.4-12.4,3.15-18.13,6.84-14.3,26.93-22.42,42.17-19.87Z" fill="#33351f"/>
  <path d="M198.02,171.69c-.49.48-1.27-.45-1.41-1.18-.74-4.06.34-10.59,0-15.09-.49-6.41-2.89-10.89-7.06-15.59-2.93-3.3-7.35-5.29-8.98-9.19.71-.64,5.09,2.2,5.9,2.83,6,4.71,10.67,10.9,12.83,18.31.99,3.39-.22,3.92-.33,6.46-.14,3.28.39,7.24-.02,10.36-.04.3-.81,2.98-.92,3.1Z" fill="#33351f"/>
  <path d="M169.72,171.69h-3.31s.95-25.48.95-25.48c1.93-.39,2.19,1.61,2.36,3.07.33,2.88.02,7.28.02,10.36,0,4.02-.05,8.04-.02,12.05Z" fill="#33351f"/>
  <path d="M148.88,82.42c.08-.06.02-.8.37-.88,1.76-.39,6.63,2.32,8.3,3.32.42.25.67,1.04,1.43,1.52,2.75,1.75,7.03,2.12,8.37,5.56-.5.41-9.07-4.04-10.08-4.78-1.14-.84-1.25-1.86-2.65-2.54-3.91-1.89-16.14-3.85-20.48-3.47-4.87.43-9.32,2.64-13.97,3.71-.78-.67,2.43-2.4,2.83-2.59,6.33-2.95,16.64-4.34,23.12-1.43.94.42,2.16,1.97,2.76,1.57Z" fill="#33351f"/>
  <path d="M146.59,84.87l-8.67.05c-6.25.89-11.93,2.48-17.9,4.28-.88.27-1,.7-1.74-.34-.19-.94,1.73-1.61,2.37-1.87,4.56-1.85,17.21-4.16,21.94-3.56,1.58.2,2.51,1.14,4,1.43Z" fill="#33351f"/>
  <path d="M202.48,157.79c.25.27.84.27.77.9-.29,2.08,1.38,11.84,0,12.79-.35.24-1.28.33-1.67.23-.88-.24-.95-11.03-.75-12.55.1-.77.46-1.82,1.21-2.1.34-.12.15.42.44.72Z" fill="#33351f"/>
  <path d="M171,100.11c.9.82,3.39,5.34,3.93,6.68.77,1.93,1.72,4.15.45,5.91l-2.1-5.68c-.31-1.46-3.76-5.23-3.96-5.96-.38-1.39.71-1.84,1.68-.96Z" fill="#33351f"/>
  <path d="M120.64,97.13c-.16-2.28,2.12-2.43,3.04-3.33,1.6-1.58,3.05-4.5,5.72-4.68,4.34-.29-2.04,3.12-2.85,3.77-1.87,1.5-3.22,3.97-5.91,4.23Z" fill="#33351f"/>
  <path d="M143.29,91.48c1.44,1.29-5.88,2.58-6.4,2.8-1.73.74-3.07,2.83-5.39,2.39.38-2.68,3.66-2.56,5.3-3.33.39-.18.41-.82.95-1.05,1.86-.8,3.54-1.25,5.54-.81Z" fill="#33351f"/>
  <path d="M123.94,166.26c-.03.13-.7.92-.94.48-1.09-3.91-1.25-8.38-.47-12.51.81.15,1.41,3.13,1.41,3.54,0,2.06.4,6.9,0,8.49Z" fill="#33351f"/>
  <path d="M174.9,146.21c-2.97.6-2.51-1.13-3.77-2.59-.55-.64-5.28-4.65-1.87-3.81,1.65.41,6.98,5.07,5.64,6.4Z" fill="#33351f"/>
  <path d="M154.14,93.36l-2.27.16-9.05-3.22c.6-.93,1.11-.65,1.97-.6,2.91.17,7.52,1.31,9.35,3.66Z" fill="#33351f"/>
  <path d="M203.21,153.76c-1.09.23-.76-.12-1.06-.6-.45-.72-3-7.59-2.71-7.89,3.67.64,4.04,5.43,3.77,8.49Z" fill="#33351f"/>
  <path d="M168.12,105.33c-.09-.15-.58-.21-.76-.51-.87-1.41-1.19-3.1-2.83-4.38,2.36-.93,7.16,8.48,7.08,9.19-.09.75-.87.76-1.42.02-.76-1.01-1.26-3-2.06-4.32Z" fill="#33351f"/>
  <path d="M123.94,89.59c.36,2.07-1.49,2.09-2.54,2.91-1.14.89-1.29,2.28-3.59,1.81-.73-.65,5.09-5.71,6.13-4.71Z" fill="#33351f"/>
  <path d="M120.63,105.16c-.54.54-.95.02-.96-.72,0-1.1,1.83-7.08,3.08-6.83,1.57,1.12-.43,2.57-.94,3.77-.3.7-1.05,3.63-1.19,3.77Z" fill="#33351f"/>
  <path d="M133.15,98.55c2.52-.54-.4,3.82-1.42,4.24-2.29-.52.74-4.09,1.42-4.24Z" fill="#33351f"/>
</svg>