<?xml version="1.0" encoding="UTF-8"?>
<svg id="Capa_1" data-name="Capa 1" xmlns="http://www.w3.org/2000/svg" viewBox="0 0 295.95 224.55">
  <path d="M189.22,82.08l.06-.37c0-.06.13-.13.21-.1.29.12.08.81.79.86l.08,5.53-.07,9.14v11.07s0,17.42,0,17.42l-.04,16.6-.09,1.81c-.03.67-.58,1.31-1.3,1.31h-12.88c-.78.01-1.45-.6-1.46-1.41l-.1-16.94v-27.24s.12-19.63.12-19.63c0-.16.12-.41.18-.49s.25-.04.38.02c.05-.43.06-.77.36-1.2.32.38.34.76.42,1.19.13-.04.26-.07.33-.05.11.04.2.26.2.42l.03,11.99v19.22s-.01,13.71-.01,13.71l.06,18.45,5.18.04,6.69-.04.03-9.48v-14.25s.03-21.16.03-21.16l.04-14.91c0-.43.04-.93.27-1.21h.31c.06.01.14-.14.16-.32Z" fill="#33351f"/>
  <path d="M60.98,108.85c-.13.2-.52.31-.63.74-.89-.73-.67-1.68-.55-2.9.03-.26.24-.41.43-.56-.25-.23-.33-.62-.08-.93,1.81-2.27,5.03-3.06,7.71-1.9.99.43,2.01.98,2.74,1.81-.69,1.06-1.8-.22-2.79-.44l-1.25-.27c-1.92-.41-3.72.25-5.09,1.57-.26.25-.5.46-.24.83,2.05-1.83,5.18-2.33,7.25-.49.43.39,1.04.58,1.49,1.07.31-.4.27-.83-.06-1.29.76.3,1.27.84,1.78,1.46,2.27,2.71,3.62,5.87,4.71,9.34l.03-4.81c-.37-.23-.59-.57-.72-.97-.58-1.65-1.41-3.07-2.4-4.5-1.6-2.32-3.73-3.95-6.39-4.98-1.97-.76-4.23-.27-5.8,1.22-.16.15-.4.67-.69.42-.15-.13-.34-.28-.57-.25-.24-.33-.09-.93.09-1.35.15-.36.58-.44.99-.67,2.71-1.53,4.67-1.82,7.59-.4l.93.45c3.11,1.83,5.44,4.59,6.95,7.95l.1-2.84-.59-.64c-.76-.82-1.29-1.81-2.13-2.56-2.39-2.13-4.86-3.96-8.11-4.48-1.52-.24-3.28.23-4.5,1.2-.33.27-.44.72-.83.56-.55-.22-.64-.48-.63-1.03l.06-3.47c0-.35.23-.61.55-.56.1-.38-.34-.28-.41-.38-.3-.42-.19-1.3-.07-1.73.19-.71.59-.58,1.07-.69,5.27-1.23,11.42.45,15.72,3.7.37-.08.73-.14.97.06.29.25.44.56.39.98-.05.34-.24.64-.48.76-.31.16-.72.07-1.03-.13-1.04-.68-2.06-1.25-3.15-1.85-3.88-2.12-7.8-2.94-12.19-2.05.1.48-.11.87-.51,1.04,0,.37.44.51.51.74.21.78,0,1.44,0,2.29,2.92-1.95,7.04-.88,9.94.91,2.14,1.32,3.82,3.02,5.38,4.96l.02-3.39-.45.31c-.13.09-.33,0-.47-.13l-1.9-1.58c-2.27-1.88-5.35-3.09-8.31-3.4l-2.51.24c-.13.01-.39.19-.44.13l-.23-.33c-.24.04-.56.16-.8-.03.2-.44.7-.45.94-.66.12-.17.11-.39.45-.48,2.34-.62,4.71-.31,6.93.6,2.67,1.1,5.42,2.54,6.82,5.11-.05-.86,0-1.56.77-2.01.19.2.62.54.63.89l.2,12.14v9.41c0,.57-.04,1.22-.6,1.55-.31.18-1.15.01-1.35-.33-1.04-4.98-2.72-10.36-6.29-14.05-.38.06-.77.14-1.12-.1-.61-.42-1.32-.65-2-.89-2.04-.73-4.62.24-5.75,2.03Z" fill="#33351f"/>
  <path d="M104.49,143.43c.13-3.78.1-7.5-.02-11.29-.02-.61.28-.97.69-1.23.1-.06.13-.4.23-.42.21-.05.28.29.41.39.22.17.61.38.62.87l.03,12c0,1.01-.7,1.65-1.73,1.68-4.04.12-8.04.13-12.08-.01-.94-.03-1.55-.66-1.55-1.62l-.06-19.56.03-34.55c0-1.44-.07-2.7.06-4.09.07-.72.38-1.2,1.06-1.52,3.25-1.52,6.63-2.64,10.19-3.23.6-.1,1.13-.17,1.69-.09-.31.81.69.22.86.52.08.13,0,.36-.17.46-.32.17-.52.38-.7.75-3.83.65-7.51,1.73-11.04,3.44l.02,10.64-.05,20.56v8.25s0,6.16,0,6.16l.04,11.87,5.39.03,6.09-.03Z" fill="#33351f"/>
  <path d="M193.6,81.99l-.02,7.13-.04,13.9-.03,18.31c0,.35-.32.54-.57.51-.08.29-.13.52-.39.77-.22-.18-.28-.44-.32-.77-.17,0-.28.02-.35-.03-.08-.05-.24-.28-.24-.41l-.08-11.14.06-22.25.06-6.65c.05-.24.5-.57.41-.96.27-.05.72-.02.84-.49l6.68,1.48c2.61.84,5.1,1.8,7.45,3.22.49.73.52,1.8.51,2.7l-.06,13.47-.05,10.73c0,.62-.2,1.3-.9,1.44-.5.1-1.01-.49-1.01-1.04l.07-10.51-.03-11.75.12-3.6c-3.82-1.89-7.75-3.34-12.12-4.08Z" fill="#33351f"/>
  <path d="M227.98,78.95c-.05-.15-.78.08-.67-.27s.92.04.6-.7c1.3-.25,2.64-.02,3.94.37l1.74.52c-.44-1.09-1.8-1.63-1.19-2.46.2-.27.81-.49,1.19-.16,3.38,2.87,3.57,8.25.39,11.31-.13.13-.74-.1-.76.17-.24-.41-.31-.76-.39-1.23-2.96-1.89-6.08-1.79-8.99.21-.44.31-1.09.75-1.17,1.28.17.64.54,1.3.29,1.99-.14.39-.62.64-1.01.67l-2.04.15-.12,1.53c-.02.31-.5.46-.71.66l-.64-.77-.09-1.88c-.07-1.44,1.19-1.14,3.02-1.25-.11-.34-.12-.64-.03-.98-.69-.86-1.49-1.59-2.01-2.62-1.7-3.4-.52-7.55,2.58-9.7.41-.29.94-.04,1.09.28.19,0,.26-.02.35-.13-.34-.29-.44-.84-.14-1.22.87-1.11,1.92-2.1,3.14-2.81.8-.56,1.75-.4,2.24.43.83.23,1.5.65,2.06,1.28.47.31.97.84,1.21,1.36-.2.21-.25.44-.29.71-.04.37-.64.19-.89-.02l-2.34-1.97c-.16-.13-.16-.44-.29-.49-.79-.3-2.05,1.09-2.91,2.01l2.29-.33,1.91.18c.32.03.59.41.86.59-.21.69-.74.81-1.35.81-2.46-.03-4.74.72-6.98,1.62-.45.68-.88,1.24-1.17,2.06,1.73-.97,5.83-2.71,6.31-1.34.15.43-.52.94-.94,1-1.09.15-1.96.56-2.96.92-1.07.39-1.98.98-2.91,1.64l.22,1.31c1.03-.82,2.08-1.59,3.33-2.07,3.01-1.14,6.6-1.31,9.38.31.38.22.88.21,1.33.62.16-.57.07-.98-.03-1.52-2.03-1.03-4.23-1.65-6.49-1.7.03-.19.07-.32.05-.39ZM233.77,85.23l.38-.98c-.78-.81-1.79-1.12-2.82-1.44-3.68-1.17-7.57-.21-10.31,2.43l.81,1.12c3.69-3.22,7.8-3.84,11.94-1.12Z" fill="#33351f"/>
  <path d="M155.67,157.25c-.65.14-1.1-.62-1.11-1.17l-.02-5.7.06-26.11.08-25.87.13-13.56c0-.15.1-.4.17-.49s.25-.06.4,0c.06-.38.07-.72.36-1.1.26.3.29.72.39,1.09.11-.01.28-.07.34-.03.08.06.18.31.18.48l-.02,21.02-.09,28.24-.08,21.84c0,.54-.19,1.21-.78,1.33Z" fill="#33351f"/>
  <path d="M108.49,124.04c0-.17.08-.61.28-.62.24-.01.36.4.35.6.21.01.3-.01.38.03.15.09.21.31.27.49l.02,5.52.04,13.41h12.62s.07-5.48.07-5.48l.04-24.24c0-.18.13-.39.18-.49.06-.1.32-.02.44-.03.02-.24.17-.57.39-.56.21.34.41.57.83.72l.05,9.33-.06,18.49v2.55c-.02,1-.64,1.65-1.66,1.65h-12.97c-1.04.01-1.89-.53-1.89-1.7v-19.17c0-.18.15-.4.22-.5.06-.08.21-.06.41-.02Z" fill="#33351f"/>
  <path d="M74.97,87.73c.32.42.07,1.02.11,1.44.78,0,1.58-.04,2.28.19.81.26.82,2.15.07,2.72l-.14.22s-1.14-.48-.86-1.46l-2.38-.18c-.5-.04-.9-.63-.69-1.12.11-.27.43-.66.32-.94-1.32-1.73-3.23-2.69-5.34-3.19-1.74-.41-3.5-.37-5.04.56-.15.09-.4.26-.39.36l.08.67c-.33.17-.7.23-.85.71-1.17-.82-1.84-1.97-2.22-3.32-.9-3.21.42-6.63,3.21-8.48.33.31.56.34.99.13-.13.41-.09.66-.1.96-.02.43-.47.58-.76,1,1.78-.3,4.38-.9,5.41.47.56-.24,1.06-.13,1.62-.02,1.9.35,3.57,1.16,5.28,2.06-.23-.62-.46-1.45-.98-1.91-2.25-1.18-4.69-1.84-7.21-2.3l-2.31-.23c-.42-.04-.73-.96-.45-1.34.84-1.14,1.92-2.02,3.08-2.77.63-.41,1.32-.48,1.98-.05.94.61,1.84,1.41,2.59,2.23-.23.57.53,1.44.1,1.25-.36-.16-.82-.17-1.17-.16-.8-.64-1.52-1.36-2.41-1.92l-1.82,1.4c2.05.13,3.93.68,5.85,1.51.16-.21.28-.4.43-.48.73-.38,1.63.61,2.38,1.42,2.31,2.5,2.44,6.61,1.12,6.55-.66-.03-.65-.75-.89-.97-1.9-1.41-4.12-2.25-6.39-2.86-.5-.13-.79-.36-.98-.85-.31.16-.62.32-.96.28-1.48-.17-2.92-.07-4.34.38-.34.11-.63-.07-.89-.47-.44.76-.76,1.52-.89,2.46,1.48-.63,2.9-1.02,4.47-.93l.84.74c-.2.31-.49.71-.86.74-1.57.12-3,.5-4.37,1.31.11.46.24.88.49,1.38,3.95-2.69,10.02-1.06,12.97,2.81Z" fill="#33351f"/>
  <path d="M192.25,124.24c.02-.46.09-.69.34-.94.29.32.33.57.37.94.14-.04.22-.15.29-.28.33.63.28,1.17.28,1.84v16.29c0,.52-.02.92-.21,1.39l12.1-.02.06-7.99.03-13.27.09-7.46c0-.11.12-.29.16-.37.04-.09.25,0,.36.2.07-.36.12-.74.42-.97.26.22.27.57.38.78h.3c.08,0,.2.21.2.38v17.39s-.06,11.76-.06,11.76c0,.89-.72,1.48-1.59,1.48l-12.57-.05c-.99,0-1.53-.72-1.54-1.64l-.05-7.12.03-11.06c0-.6.04-1.12.35-1.56.04.18.11.28.26.3Z" fill="#33351f"/>
  <path d="M224.28,100.26c-.39.34-.66.66-1.02.82-.99.45-1.87.92-2.78,1.57l-.51.07c-.12.02-.17.35-.17.55l.02,2.92.65-1.12c1.48-1.7,3.48-2.91,5.74-3.29.5-.08,1.09.43.88.87-.34.74-3.38.76-5.54,3.36-.62.75-1.02,1.61-1.79,2.22l.09,3.25c1.34-2.91,3.1-6.3,6.38-6.49l-.5,1.19c-.91.77-1.92,1.38-2.62,2.37-1.66,2.36-2.73,5.08-3.23,7.93l-.24,2.74c-.12.23-.63.44-.57.93-.39-.22-.35-.47-.4-.8-.14,0-.23,0-.28-.01-.1-.04-.16-.22-.16-.39v-16.35s.03-4.91.03-4.91c0-.85.29-1.44,1.03-1.75,3.14-1.33,7.15-3.03,10.52-2.13l.81.57c.48-.49.97-.45,1.53-.29,1,.29,1.96.57,2.73,1.32l.63-.08.58.97-.1,3.18-.5.83c-.54-.12-.86-.47-1.28-.77-3.35-2.37-8.41-1.75-11.99.24-.31-.22-.57-.36-.95-.32-.08-.31.11-.48.3-.66,1.49-1.35,3.37-1.78,5.31-2.13,2.71-.48,5.47-.28,7.73,1.31l.04-1.16c-1.02-.63-2.12-1.15-3.33-1.42-.4-.09-.63-.37-.73-.76l-1.01.49c-1.75-.19-3.41.03-5.11.48-1.61.48-3.11,1.11-4.62,1.85l.06,3.81c1.36-.96,3.31-2.18,4.41-1.04Z" fill="#33351f"/>
  <path d="M74.21,130.28c0-.32.23-.51.36-.08.04-.47.3-1.22.06-1.71-.22-.43-.4-.73-.44-1.28-.31-5.04-1.36-10.61-4.27-14.74-.76-1.08-1.66-1.96-2.8-2.59-1.59-.87-3.46-.55-4.51,1.05-.99,1.5-1.43,3.42-1.43,5.3v9.26c0,3.26.07,6.39-.19,9.61-.19.23-.49.54-.65.93-.11-.44-.37-.69-.6-.89l-.06-6.94-.02-16.37c0-.75.12-1.54.68-2.02.32.05.6.43.69.79,1.42-2.54,4.16-3.54,6.69-2.17,1.72.93,2.91,2.44,3.94,4.08,1.23,1.95,1.93,3.97,2.56,6.19.87,3.09,1.42,6.25,1.15,9.46-.95.46-.08,1.83,0,2.19.35,1.76.2,3.45.1,5.24-.23,4.05-1,7.97-2.57,11.71l-.46,1.09c-.81,1.93-2.25,3.71-3.95,4.91-.6-.48-1.24.23-1.23-.23,0-.35.6-.46.68-1.14,1.67-1.58,2.86-3.42,3.73-5.57,2.12-5.28,2.53-10.32,2.53-16.09Z" fill="#33351f"/>
  <path d="M140.92,136.79c.21.16.61.36.77.62.33.72.19,1.54.19,2.33v4.42c0,.75-.64,1.21-1.39,1.23-4.39.12-8.72.18-13.11.02-.98-.04-1.62-.67-1.62-1.67l-.06-8.75.02-11.44.1-15.15c0-.13.07-.31.12-.4s.24-.08.41,0c.11-.36.12-.7.44-1.01l.46,1.07c.04-.23.19-.27.23-.23.05.05.21.25.21.35v10.38s0,7.34,0,7.34l-.03,10.09.04,7.42,5.32.04,6.97-.07.05-5.44c0-.24.11-.46.25-.62.25-.11.41-.15.66-.55Z" fill="#33351f"/>
  <path d="M109.78,113.86v7.63c-.01.58-.48,1.28-1.09,1.19-.56-.08-.83-.75-.84-1.31l-.12-16.22-.05-23.64c0-.73.18-1.63,1.01-1.76,4.52-.74,8.39-1.16,12.82-2.85.07-.03.27-.03.32,0,.06.05.05.19-.04.35l1.17.05c-.16.38-.37.54-.68.72-.04.18,0,.33.03.57-2.37.99-4.74,1.85-7.31,2.23l-5.25.77.03,14.02v18.25Z" fill="#33351f"/>
  <path d="M158.74,133.25c.14-.53.11-.76.37-1.12.3.37.33.69.33,1.1.15-.02.24-.09.31-.3.17.28.28.6.29,1.01v9.49s7.39,0,7.39,0l3.79-.04.04-15.27.12-13.56c0-.45.31-.68.56-.85.12-.08.2-.41.41-.34.11.04.2.29.32.37.27.18.56.31.56.74l-.07,29.38c0,.8-.63,1.48-1.42,1.48l-10.39.07c-.86,0-1.71.09-2.48-.31-.51-.27-.74-1.04-.73-1.65v-9.66c.02-.32.13-.6.33-.85l.27.3Z" fill="#33351f"/>
  <path d="M139.95,74.27l.07-6.74-4.64,3.38c-2.15,1.56-4.22,3.1-6.52,4.47l-.41-.31-.56.11c-.32-.17-.12-.58.06-.78-.02-.15-.16-.42-.09-.55.08-.16.23-.28.41-.4l5.67-4.01,6.22-4.41c.62-.44,1.7-.12,1.74.63l.16,2.44-.04,9.67.02,6.52-.12,14.67c0,.52-.61.88-.98.87s-.93-.4-.93-.93l-.02-12.54-.05-12.07Z" fill="#33351f"/>
  <path d="M66.79,116.46c-.57-.15-.89-1.05-1.48-1.09-1.72-.13-1.78,4.04-1.77,6.12l.02,8.3c0,.16-.03.34-.08.42-.06.1-.31.14-.44.19-.09.37.25.81.46,1.12.02,2.03-.24,4.04-1.01,5.92-.51,1.26-1.34,2.99-2.18,2.73-.18-.06-.45-.32-.47-.59-.1-1.07,1.59-2.01,2.03-5.35l.37-2.89c.31-.11.35-.38.41-.59.11-.38-.11-.5-.45-.69l-.09-8.98c-.02-1.53.12-2.96.45-4.42.28-1.23,1.09-2.34,2.29-2.73s3.02,1.1,2.65,2.2c.69.92,1.19,1.84,1.5,2.97.95,3.51,1.64,7,1.74,10.67.13,4.55-.4,8.99-1.97,13.23-1.35,3.64-4.23,7.14-7.99,8.21l-.95-.57c.39-.26.59-.49.61-.91,3.76-1.18,6.38-5.03,7.46-8.8,1.93-6.72,1.74-13.97.07-20.74-.16-.66-.27-1.29-.58-1.9-.44-.83.41-1.6-.03-1.71l-.57-.15Z" fill="#33351f"/>
  <path d="M219.8,150.28c2.5-1.36,4.84-2.96,6.73-5.13,3.28-3.76,5.03-8.45,5.36-13.41.05-.75.29-1.28.91-1.59.05.4.3.44.47.73-.05,5.94-2.16,11.81-6.3,16.05-1.76,1.8-4.78,4.07-7.1,4.83l-.02,2.39c5.62-3.1,9.77-6.65,12.51-12.42,1.07-2.26,1.86-4.57,2-7.09l.29-5.08c.71.16.11-.81.77-.62-.22.42.28.75.33.99l.15,3.84c.08,2.06-.42,3.91-1.07,5.84-1.06,3.16-2.64,5.96-4.76,8.52l-1.61,1.59-3.07,2.75-5.49,3.49c-.34.22-.56.43-1.03.26-.26-.09-.6-.41-.6-.86v-4.46c-.01-.62.38-1.19,1.04-1.16.16,0,.33.26.51.56Z" fill="#33351f"/>
  <path d="M106.43,128.67c0,.56-.38,1.22-.98,1.21-.56-.01-.98-.62-.98-1.24v-41.99c0-1.08,0-2.03.18-3.04.28-.19.68-.35.83-.78.26.19.28.39.32.7.15-.05.31-.09.38-.03.09.08.27.36.27.54v14.89s0,17.98,0,17.98v11.75Z" fill="#33351f"/>
  <path d="M143.51,119.33l-.03-17.9-.02-9.02.06-16.51c0-.56.39-1.16.95-1.22.49-.05.96.5.96,1.01l.02,18.11.02,25.41c0,.57-.41,1.06-.82,1.12-.56.08-.95-.33-1.15-1.02Z" fill="#33351f"/>
  <path d="M120.74,156.75l-5.31-.02-5.69-.04c-.96,0-1.81-.45-1.84-1.47l-.05-1.92c-.04-1.81-.13-3.58.09-5.36.08-.67.58-1.06,1.25-1.09,4.53-.17,9-.15,13.52.04.97.04,1.52.72,1.52,1.65v6.64c0,1.63-1.78,1.57-3.51,1.56ZM122.39,154.83v-6.15s-6.42-.05-6.42-.05l-6.17.04v2.29s.05,3.82.05,3.82l12.54.05Z" fill="#33351f"/>
  <path d="M140.01,156.72h-8.1s-4.52.01-4.52.01c-.89,0-1.67-.54-1.66-1.5v-6.89c.02-.95.6-1.52,1.5-1.53l7.14-.05,6.02.08c.97.01,1.47.71,1.48,1.62v6.36c0,.53-.1.97-.42,1.34-.29.34-.81.56-1.44.56ZM139.94,154.82l.03-6.16-12.33.02-.03,3.38.06,2.71,12.27.05Z" fill="#33351f"/>
  <path d="M190.11,155.1c-.03,1.95-2.16,1.63-4.34,1.63h-5.44s-4.3-.07-4.3-.07c-.87-.01-1.5-.66-1.5-1.53l-.02-6.89c0-.82.58-1.43,1.42-1.43l12.85.02c1.5,0,1.44,1.81,1.41,3.57l-.08,4.7ZM188.28,154.75l.04-6.08-7.6-.03-4.28.03.02,6.11,6.48-.02h5.36Z" fill="#33351f"/>
  <path d="M160.31,67.61l-.1,13.03-.11,10.41c-.23.36-.89.72-.87,1.33-.37-.55-.4-.87-.98-1.1l-.05-13.77.11-7.08c.02-1.35-.07-2.77.23-4.07.29-.32.65-.99.88-1.33.55-.23,1.26.33,1.66.68,2.12,1.86,4.2,3.52,6.53,5.1l4.71,3.21c-.38.81.45,1.06.19,1.41-.33.44-.79-.33-1.35.02-2.96-1.58-5.59-3.54-8.17-5.65l-2.66-2.19Z" fill="#33351f"/>
  <path d="M110.91,78.06l-8.38,1.23c-1.91.28-3.65.92-5.5,1.4-.49.13-1-.25-1.15-.6-.13-.3,0-.93.44-1.13,2.16-.98,4.43-1.55,6.81-1.89l9.33-1.34c5.78-.83,11.18-2.96,15.98-6.24l3.31-2.26c.07-.05.25-.04.33,0,.05.02.11.09.05.18-.03.05-.1.1-.08.26.35-.21.64-.36,1.12-.43-.06.43-.28.62-.56.9.1.17.22.26.27.51-4.38,3.67-9.39,6.41-14.88,7.96-2.36.66-4.59,1.09-7.08,1.46Z" fill="#33351f"/>
  <path d="M199.46,156.74l-6.43-.1c-.74-.01-1.34-.56-1.34-1.33v-6.39c-.01-.53-.01-1.1.26-1.57.19-.33.72-.53,1.14-.53l12.93.09c.79,0,1.27.7,1.27,1.45v6.85c0,1.05-.97,1.53-1.9,1.53h-5.92ZM205.39,154.74l.04-6.07h-5.35s-6.56.02-6.56.02l.02,6.12h10.96s.89-.06.89-.06Z" fill="#33351f"/>
  <path d="M97.53,156.73l-4.65-.07c-.95-.01-1.67-.61-1.66-1.59l.02-6.81c0-.72.46-1.34,1.24-1.37,4.2-.18,8.34-.17,12.56-.02.85.03,1.39.61,1.39,1.48l.02,6.89c0,.94-.72,1.51-1.63,1.51h-7.29ZM104.49,154.74v-6.06s-11.4,0-11.4,0v6.08s5.46,0,5.46,0l5.95-.03Z" fill="#33351f"/>
  <path d="M171.92,156.65l-7.61.08-4.62-.06c-.82-.01-1.52-.61-1.52-1.46v-7.27c.01-.72.69-1.11,1.35-1.11l12.3-.02c.84,0,1.35.75,1.35,1.51l-.03,6.92c0,.67-.45,1.41-1.23,1.42ZM171.23,154.75l.03-3.1-.04-2.98h-11.21s0,6.11,0,6.11l6.99-.02h4.21Z" fill="#33351f"/>
  <path d="M60.39,152.25c4.97-.59,7.85-4.17,9.42-8.71,1.11-3.2,1.74-6.44,1.91-9.84.28-5.87-.15-12.85-2.68-18.15-.57-1.19-1.34-2.26-2.44-2.92s-2.35-.43-3,.6l-1.15.41c.01-1.17.59-1.95,1.34-2.43,1.68-1.07,3.75-.15,5,1.4,1.4,1.74,2.22,3.68,2.78,5.82l.81,3.08c1.29,7.32,1.41,14.52-.82,21.63-1.66,5.31-4.82,9.69-10.54,10.56-.6.09-1.09,0-1.23-.72l.6-.74Z" fill="#33351f"/>
  <path d="M159.59,130.41c-.17.31-.21.61-.5.94-.19-.18-.22-.4-.26-.7-.16.04-.33.08-.4.02-.09-.08-.27-.34-.27-.54l.03-30.47.06-5.16c0-.84.94-1.42.97-1.42.11.02.21.28.32.34.39.23.63.47.63.96l-.04,13.97-.1,21.7c0,.13-.05.24-.1.3s-.15.09-.33.06Z" fill="#33351f"/>
  <path d="M143.54,156.31l-.05-13.25.03-19.55c0-.55.03-1.03.22-1.52.09-.06.3-.02.44,0,.08-.39.06-.74.45-.99.1.65.25,1.02.81,1.18l.02,19.22-.02,15.05c0,.5-.55.88-.89.89-.46.01-.99-.4-1-1.03Z" fill="#33351f"/>
  <path d="M141.89,135.22c0,.56-.64.93-.96.92-.38,0-.93-.46-.93-1l-.08-14.35v-18.24c0-.46.07-1.05.28-1.35.7.21.45-.74.87-.66.11.02.16.39.27.45.42.22.65.57.65,1.15l.02,20.18-.12,12.91Z" fill="#33351f"/>
  <path d="M172.3,112.78c-.53-.2-.93-.64-.92-1.29l.1-24.01.06-10.28c0-.55.45-1.17.99-1.1.57.07.9.68.9,1.25l-.07,20.17-.16,13.84c0,.64-.17,1.15-.89,1.41Z" fill="#33351f"/>
  <path d="M88.53,122.98l-.33-.03c-.12-.01-.24-.19-.24-.37l-.05-15.27.05-16.8c0-.44.11-.8.34-1.1.14.09.18.18.24.29l.36-1.04c.27.2.31.5.48.79l.26.02c.06,0,.2.12.2.27l-.03,32.85c-.59.27-.67.73-.84,1.3-.3-.19-.38-.51-.45-.9Z" fill="#33351f"/>
  <path d="M127.72,105.46c0,.62-.6.99-1.02.95-.5-.05-.94-.55-.94-1.16v-14.34s.03-14.38.03-14.38c0-.58.2-1.22.88-1.43.57-.18,1.14.64,1.14,1.27l-.03,6.66.07,11.89-.12,10.54Z" fill="#33351f"/>
  <path d="M123.71,111.9c-.62.19-1.15-.48-1.15-1.07v-10.24s.03-17.41.03-17.41l.06-3.66c0-.13.11-.38.2-.44.08-.05.23,0,.42.04.02-.36-.03-.67.37-.92.12.54.39.86.79,1.11.23,2.18.06,4.38.06,6.63l-.03,22.1-.05,2.67c0,.41-.19,1.03-.71,1.19Z" fill="#33351f"/>
  <path d="M124.21,159.91l-8.25-.07-12.58.04-5.24-.04c-.52,0-.92-.6-.88-.93.05-.48.46-.83.99-.83l4.36-.04,15.57-.09,10.8.1c.51,0,.93.25,1.03.73.08.37-.27.99-.82,1.01l-4.98.13Z" fill="#33351f"/>
  <path d="M217.8,144.5c-.18.58-.7.88-1.26.88l-6.09-.02c-.82,0-1.69-.51-1.69-1.5l.02-21.5c0-.56.52-1.23.97-1.16.31.04.88.54.89.84l.08,8.74.02,12.65,6.01.1c.52,0,.95.43,1.05.98Z" fill="#33351f"/>
  <path d="M210.65,119.45c0,.56-.61.92-.93.91-.37,0-.94-.44-.94-1.02l.07-28.55c0-.15.23-.43.29-.41.07.02.15.24.17.28.11-.48.16-.87.47-1.25.3.38.23.72.36,1.04.35-.13.58.21.58.56v17.42s-.07,11.03-.07,11.03Z" fill="#33351f"/>
  <path d="M79.67,145.41c-.1-.83-1.27-.71-.56-1.18.41-.09.69-.25.89-.65l7.88-.08.02-14.25.04-3.21c0-.47.23-1.11.81-1.26.66-.17,1.02.63,1.02,1.29v16.65c.02.61.12,1.13-.08,1.72-.21.63-.7.96-1.4,1-2.89.17-5.74.08-8.62-.03Z" fill="#33351f"/>
  <path d="M74.14,149.25c-.13-.12-.31-.46-.67-.41l1.09-2.64c.86-3.02,1.67-6.07,1.72-9.25l.21-12.7c0-.13.08-.31.15-.34.08-.04.17-.02.35-.02.02-.26.14-.53.29-.59.71.41.9,1,.9,1.77.02,6.02.14,11.95-.15,17.97-.08,1.73-1.2,3.17-2.18,4.43l-.94,1.2c-.15.19-.39.69-.78.58Z" fill="#33351f"/>
  <path d="M161.96,159.91l-5.42-.12c-.29,0-.28-.23-.46-.32l-1.15-.54,1.4-.5-.32-.26,1.61-.15,20.71-.03,3.62.12c.43.01.8.48.82.81.02.29-.32.89-.75.89l-12.66.05-7.42.07Z" fill="#33351f"/>
  <path d="M79.97,156.73c-.5,0-1.11-.92-1.09-1,.03-.1.35-.15.4-.24.21-.34.38-.65.86-.57l7.74-.12-.03-6.04-5.33-.02-2.78-.06c-.49-.08-.85-.41-.88-.84s.36-.92.91-.92h8.52c.73,0,1.37.45,1.37,1.2l.03,7.39c0,.64-.61,1.18-1.24,1.18l-8.47.05Z" fill="#33351f"/>
  <path d="M218.58,148.17l.4-1.01c2.14-1.21,4.12-2.65,5.71-4.51,3.06-3.57,4.79-8.97,4.78-13.58v-5.35s-.26-5.63-.26-5.63l.43-1.19c.31.45.35.77.79,1.03.43,6.23,1.02,12.16-.67,18.28-1.45,5.23-4.97,9.6-9.78,12.07-.33.17-.5.3-.78-.07-.08.16-.21.16-.27.22-.08.08-.42-.1-.35-.26Z" fill="#33351f"/>
  <path d="M72.02,90.47c1.92.87,3.83,1.74,5.56,3,.43.31.32,1.14.13,1.51-.42-.06-.65-.12-1.02-.05-1.72-1.48-3.74-2.44-5.84-3.29-.81-.32-1.56-.56-2.48-.57l-7.99-.04c-.43,0-.73-.44-.75-.76-.03-.4.28-.86.74-.88l2.14-.08c-.17-.64.08-1.1.54-1.55,1.82-1.76,4.78-1.66,6.89-.1.45.33.67.92.25,1.43-.32.38-1.03.08-1.41-.24-1.31-1.06-3.07-1.16-4.43-.2-.22.15-.33.44-.38.73h3.31c1.2-.01,2.37.15,3.56.02.6-.06,1.17.03,1.42.65l-.23.39Z" fill="#33351f"/>
  <path d="M195.42,78.86l-5.73-.91c-2.64-.42-5.16-.94-7.7-1.75-.01-.17.03-.3.08-.48l-.72-.72c.4-.23.75-.14,1.21-.04l.08-.47c2.93.77,5.74,1.24,8.69,1.64,3.98.53,8.45,1.14,11.93,3.03l.87,1.21c-.37.56-1.07.7-1.68.46-2.29-.89-4.58-1.58-7.03-1.96Z" fill="#33351f"/>
  <path d="M216.98,154.89c.3.07.64.58.76.85.06.33-.5.94-.9.94h-6.65c-.77.01-1.4-.54-1.4-1.32v-7.15c.02-.83.53-1.39,1.37-1.39l6.68.02c.52,0,.92.39.94.87.01.36-.36.85-.86.86l-6.28.11.02,1.85.02,4.2,6.31.15Z" fill="#33351f"/>
  <path d="M224,127.68c-.38,2.26-1.07,4.98-2.45,6.69-.17.21-.61.31-.82.43-.11-.18-.06-.37-.07-.45s-.13-.13-.32-.09c-.14-.33-.05-.74.18-1.04.86-1.15,1.39-2.4,1.74-3.8l.71-2.86c.43-.38.44-.93.07-1.35l.35-5.8c.12-2.02.46-3.92,1.42-5.68.31-.57.79-1,1.47-.91.03.28.32.23.22-.07-.14-.09-.39-.2-.42-.34-.13-.49,1.83-2.32,3.68-2.06,1.09.16,2.14.79,2.75,1.66.33.47.37,1.05.6,1.64-.29.09-.62.08-.84,0l-1.05-1.03c-.96-.94-2.44-.99-3.53-.15l-.93.71c-1.94,2.52-2.09,5.8-2.18,9-.03,1.21-.04,2.38-.36,3.51l-.3.03c-.34.03.18,1.24.06,1.97Z" fill="#33351f"/>
  <path d="M63.48,141.47c-.81,1.38-2.49,3.74-3.33,2.98-.32-.29-.4-.81-.09-1.13l1.15-1.2c1.95-2.54,2.94-5.5,3.18-8.72.31-4.27.27-8.45.17-12.73-.03-1.48-.06-3.03,1-3.52-.02.46.17.72.45.94-.1,1.13-.15,2.34-.12,3.54.09,3.76.13,7.38-.04,11.12-.14,3.1-.81,6.06-2.37,8.72Z" fill="#33351f"/>
  <path d="M221.99,159.02c-.63.9-1.67.91-2.9.75-.46-.06-.68-.52-.69-.86-.01-.39.17-.88.62-1.09,2.49-1.16,4.94-2.34,7.08-4.09l3.04-2.49c1.02-.83,1.75-1.83,2.55-2.86,1.37-1.75,2.42-3.64,3.02-5.76.37-.13.54-.44.88-.75-.09.51.31.98.29,1.33-.11,2.58-3.71,7.36-5.94,9.23l-3.47,2.92c-1.59,1.34-3.45,2.21-5.29,3,.18.3.3.46.81.68Z" fill="#33351f"/>
  <path d="M156.7,80.72c0,.65-.26.98-.69,1.25-.09.05-.18.3-.27.31-.14,0-.26-.32-.26-.48-.46-.14-.73-.43-.72-1.01l.11-18.39c0-.17.07-.39.15-.54.06-.11.2-.09.4-.1.07-.39.12-.7.43-.99.31.43.3.83.44,1.23.09-.13.14-.25.15-.3,0-.05.24.15.24.2l.07,5.72-.04,13.1Z" fill="#33351f"/>
  <path d="M235.18,127.81c-.23-.42-.2-.86-.59-1.14l-.17-8.55c-.07-3.45-.75-8.57-4.46-9.03-.57-.07-1.38-.17-1.59-.67.28-.79,1.15-.99,1.94-.86,1.89.31,3.43,1.67,4.19,3.44.15-.13.17-.37.26-.4.12-.04.51-.02.63.11.48.51.55,1.32.55,2.07l-.11,13.81c-.34.36-.3.66-.65,1.22Z" fill="#33351f"/>
  <path d="M219.84,141.42c0,.63-.09,1.4-.81,1.61-.32-.06-.79-.56-.79-.94l-.06-9.67.05-10.36.51-.58c.14-.16.22-.47.42-.39.05.38.22.68.63.79l.04,7.63.06,7.88-.05,4.03Z" fill="#33351f"/>
  <path d="M80.59,89.63c-.17.12-.41.2-.52.2-.1,0-.24-.13-.32-.27-.27.2-.51.32-.87.25.1-.35.24-.57.43-.86-.21-.34-.1-.65.21-.89,4.19-3.4,9.04-6.74,14.26-8.09.11.76.83.15,1.06.49.2.29-.52.52-.51.63v.39c.02.19-.33.33-.54.41-5.24,1.93-8.75,4.46-13.19,7.74Z" fill="#33351f"/>
  <path d="M200.13,159.81c-5.39.17-10.59.18-15.88-.03l-.78-.78c-.02-.31.48-.38.67-.48.12-.06.19-.43.44-.43l5.3-.05h7.41s4.73.07,4.73.07c.41,0,.73.39.82.7.1.35-.24.78-.62.93-.66.25-1.28.06-2.09.08Z" fill="#33351f"/>
  <path d="M219.11,144.5l-.5.06c-.09-.33,0-.95.35-1.16,4.95-2.99,7.64-8.22,8.5-13.88.29-1.89.59-3.61.59-5.5,0-1.51.09-2.99.34-4.49.03-.2.13-.35.32-.41l.1,2.36-.22,7.62c-.29,9.99-8.7,16.4-9.48,15.92-.08-.05-.2-.23,0-.51Z" fill="#33351f"/>
  <path d="M225.89,106.34c.38-.05.23-.49.37-.59,1.42-1.06,3.49-1.08,5.25-.61,1.18.31,2.05,1.09,2.99,1.85.09-.24.03-.47.01-.72-2.7-3.14-6.05-2.12-6.64-2.54-.19-.14-.57-.61-.33-.8,1.1-.84,2.49-.62,3.72-.35,1.41.31,2.58.82,3.61,1.83.35.34,1.03.62,1.03,1.18v4.7s-.73-.09-.73-.09l-1.17-1.76c-1.66-1.94-4.25-2.62-6.67-1.86-.55.17-1.04.04-1.45-.24Z" fill="#33351f"/>
  <path d="M179.92,73.74c.51.22.69.86.58,1.19-.61,1.97-9.45-3.32-11.64-4.94l-1.45-1.08c-.49-.36-1.13-.77-1.46-1.28l.15-.23c.12-.18-.54-.56-.34-.97l1.01.25v-.23c.02-.09.24-.15.35-.05,1.85,1.58,3.85,2.78,5.94,4.03,2.19,1.31,4.46,2.27,6.84,3.29Z" fill="#33351f"/>
  <path d="M95.61,159.78l-6.47.14-9.32-.12-1.01-.95c.46-.19.78-.29.99-.72,5.28-.17,10.51-.23,15.83-.03.1,0,.13.25.04.33.34.18.67.21.99.52-.46.21-.81.34-1.05.83Z" fill="#33351f"/>
  <path d="M231.79,119.8c-.05-1.79-.42-4.58-1.8-4.92-1.07-.26-1.7,1.09-2.16,2.36l-.52.6-.33,1.21c-.32-.46-.15-.86-.12-1.31l-.35-.54c.25-1.87,1.56-3.89,3.31-3.86,2.19.04,3.25,2.86,3.29,5.04l.2,10.93c0,.18-.09.36-.18.49-.07.1-.72.15-.82.08-.08-.06-.25-.25-.25-.42l-.25-9.66Z" fill="#33351f"/>
  <path d="M225.68,90.3l-1.26.32c-.39.1-.73-.33-.79-.67-.08-.38.38-.76.8-.81l2.36.03,4.85-.1c-1.38-1.32-3.36-1.44-5.04-.54-.26.14-.87.49-1.09.21-.42-.53.11-1.15.59-1.45,2.11-1.33,4.69-.96,6.59.61.41.34.77.64.67,1.27l2.37.1.6.8c-.2.69-.74.79-1.39.78l-7.73-.14c-.59-.01-.97-.14-1.53-.42Z" fill="#33351f"/>
  <path d="M221.66,126.24l-.64,1.14c-.11-.56-.29-.86-.61-1.07-.19-.71.03-1.48.08-2.21l.38-6.02c.59-4.02,2.24-8.85,6.21-10.26.48-.17,1.04.39,1.12.72-.58.62-1.25.86-1.87,1.3-1.32.94-2.2,2.28-2.84,3.79-2.09,4.99-.97,9.15-1.83,12.62Z" fill="#33351f"/>
  <path d="M189.69,80.69c-.31.61-1.03.54-1.57.48-4.22-.5-8.29-1.6-12.15-3.3-.44-.2-.64-.82-.56-1.14.09-.38.67-.87,1.18-.67,3.99,1.51,8.02,2.59,12.24,3.23.62.09,1.16.81.86,1.41Z" fill="#33351f"/>
  <path d="M217.62,89.38c-.36-.49-1.14-.35-1.53-.61-2.45-1.95-4.81-3.89-7.61-5.26l-2.98-1.45c-.45-.22-.71-.74-.59-1.17s.71-.79,1.25-.61c2.44.82,4.64,2.12,6.74,3.63,1.28.92,4.67,3.48,4.65,4.02,0,.1-.14.25-.28.36.15.34.54.32.37,1.09Z" fill="#33351f"/>
  <path d="M220.72,138.66l-.38-.3c-.37-.28,1.32-1.51,2.2-2.87,1.08-1.67,1.82-3.46,2.32-5.41.68-2.6.78-5.22,1.12-7.88l.32-2.57c.03-.26.44-.57.6-.45.47.32.43.68.41,1.11l-.25,4.48c-.24,4.23-1.36,9.03-3.94,12.41-.65.85-1.91,2.09-2.21,1.86-.07-.05-.06-.28-.2-.39Z" fill="#33351f"/>
  <path d="M143.79,159.82l-1.67.11-6.88-.02-3.37-.04c-.48,0-1.11-.28-1.21-.77-.13-.64.5-1.02,1.08-1.03l3.24-.03,5.34-.04,3.84.13-.05.39c.4.1.79.12,1.16.46-.41.26-.76.31-1.14.45.01.13.01.21-.02.26-.04.07-.2.12-.32.13Z" fill="#33351f"/>
  <path d="M70.92,158.53c-.71.49-1.25.96-2.01,1.27-.5.21-1.3,0-1.42-.6-.13-.68.67-.89,1.13-1.11,2.15-1.05,3.81-2.65,5.46-4.35.64-.66,1.1-1.5,1.92-1.95.43-.24.79-.27.95-.87.06-.24.42-.46.64-.42.8.14.74,2.78.46,4.27l-.93,1.13c-.25-.28-.05-.48-.03-.6.04-.26-.31-.36-.44-.48l-.07-1.86c-1.57,2.24-3.43,4.03-5.65,5.56Z" fill="#33351f"/>
  <path d="M223.21,158.54c.25-.21.93-.03,1.23-.24l2.6-1.86c.25-.12.63-.03.93-.04.19.96-1.02.98-1.85,1.82,1.06.32,2-.07,2.93-.59l2.66-1.5,1.33-1.01c.6-.45,1.07-.92,1.52-1.52.24-.33.93-.48,1.11-.13.07.14-.02.51.23.68-.9,1.77-3.41,3.23-5.31,4.21l-1.5.99c-.46.31-.91.52-1.5.51h-4.4c-.19-.31-.35-.55-.8-.67l.81-.67Z" fill="#33351f"/>
  <path d="M65.75,139.12c.82-3.02,1.14-5.91,1.09-8.92l-.11-6.65c-.02-1.45.15-2.83-.02-4.25l.21-1.25c.45.73.46,1.54.58,2.43.59,4.41.81,8.79.59,13.22-.07,1.37-.26,2.59-.53,3.92-.19.93-.7,1.72-1.8,1.5Z" fill="#33351f"/>
  <path d="M204.55,159.81c-.25-.41-.54-.59-1.08-.69.15-.8,1.23-.22.94-1l3.07-.07,9.64.06c.22.23.51.51.63.8.07.25-.39.87-.7.87l-12.49.03Z" fill="#33351f"/>
  <path d="M135.7,66.46c-.49-.6-1.05.28-1.34-.11-.13-.18.37-.61.37-.82,0-.09-.16-.24-.25-.38l1.11-.99,5.96-4.68c.67-.53,1.28-1,2.09-1.32l.13.42c.43-.12.69-.38,1.16-.39l-.61,1.06.27.04c.08.01.01.3-.09.38l-4.8,3.77-3.99,3.02Z" fill="#33351f"/>
  <path d="M144.49,74c-.25-.31-.24-.58-.33-.9-.16.07-.33.11-.4.04-.09-.08-.2-.32-.21-.48-.08-2.17-.22-10.86.3-10.8.07,0,.18.14.28.26.08-.34.08-.67.33-1.06.33.33.37.65.46,1.1.04-.07.12-.23.19-.26.08-.03.3.21.3.34l.03,10.49c0,.13-.08.31-.13.38-.05.08-.28.04-.4.01-.14.24-.06.52-.43.87Z" fill="#33351f"/>
  <path d="M88.58,87.97c-.43.54-1.03.85-1.59,1.22-2.23,1.46-4.33,2.97-6.38,4.68-.42.35-1.09.68-1.53.15-.37-.44-.11-1.25.32-1.64,2.46-2.21,5.11-4.05,7.95-5.74.13-.08.36-.06.43,0s.14.16.17.37c.25-.06.44-.18.8-.12-.02.33-.24.54-.41.75-.02.07.15.23.24.33Z" fill="#33351f"/>
  <path d="M163.41,65.72l-7.08-6.16c-.1-.09-.19-.24-.21-.32-.03-.09.08-.24.24-.32-.2-.31-.4-.54-.41-.98l.94.31c.02-.12-.05-.22-.08-.26-.04-.05-.02-.16.07-.16.42-.02,1.32.78,1.99,1.38l5.61,5.03c.1.09.17.2.19.3s-.17.26-.23.36c.12.27.51.55.37,1.03-.48-.26-.89-.38-1.39-.23Z" fill="#33351f"/>
  <path d="M66.81,159.09l-1.03.82-5.25-.08c-.35,0-.66-.52-.62-.76.04-.32.37-.51.74-.69-.2-.13-.71-.33-.68-.65s.61-.62.94-.66c2.25-.21,4.36-.74,6.38-1.71l1.38.31c-.52.07-.48.73-.68.84-2.07,1.25-4.47,1.59-6.83,1.87l4.73.17.93.54Z" fill="#33351f"/>
  <path d="M217.14,92.1c.29.36.61.67.43,1.18-.48-.34-.86-.44-1.35-.29-2.05-1.8-4.29-3.45-6.53-5.01-.4-.28-.37-.94-.2-1.2.21-.3.84-.62,1.24-.34l4.67,3.36,1.93,1.85c.11.1-.03.36-.2.43Z" fill="#33351f"/>
  <path d="M234.92,103.5c-2.13-2.89-5.65-2.85-9.12-2.43-.29.03-.37-.26.01-.31-.24-.1-.49.19-.95-.12l1.27-.84c2.68-.9,6.47-.54,8.65,1.31.22-.13.45-.18.62-.11.67.27,1.03,2.61.01,2.76-.13.02-.36-.08-.49-.25Z" fill="#33351f"/>
  <path d="M77,85.1c-.39,1.29-1.28,2.37-1.91,1.8-.33-.29-.26-.75-.12-1.15-1.19-1.2-2.76-2.08-4.41-2.55l-2.57-.72c0-.14.04-.3,0-.36-.04-.08-.19-.16-.4-.29.2-.32.56-.44.91-.71,2.71.31,5.26,1.34,7.27,3.1.32-.11.65-.17.87-.03.24.15.45.53.34.89Z" fill="#33351f"/>
  <path d="M73.77,152.13c-1.04,1.27-2.12,2.37-3.43,3.27-.36.25-1.23.35-1.24-.15-.02-.82.82-1.34,1.34-1.83l3.1-2.98.87-.38,2.26-2.31c.19-.19.5-.72.84-.54.1.19.39.55.52.73.14.5-.34,1.21-.75,1.54l-2.44,2.01c-.31.26-.77.27-1.08.65Z" fill="#33351f"/>
  <path d="M234.61,93.78c-2.72-.76-5.57-.91-8.35-.68-.31-.66-.65-.45-1.09-.64-.07-.03-.09-.29-.02-.29.46-.01.85-.02,1.15-.49,3.12-.33,6.31-.2,9.34.73.64.2.65,1.87.22,2.19-.15.11-.35.35-.59.2-.41-.25-.63-.49-.66-1.03Z" fill="#33351f"/>
  <path d="M60.11,146.88c2.68-1.58,4.06-3.8,5.24-6.55.19-.44.61-.67,1.04-.46.19-.28.3-.54.66-.68-.19,2.5-2.16,5.72-3.98,7.42l-1.99,1.47c-.35.26-.81.15-1.02-.1-.17-.2-.32-.87.05-1.09Z" fill="#33351f"/>
  <path d="M229.15,155.34c.12-.28-.09-.68.38-.84.39-.13.68-.49,1-.76,1.24-1.04,2.4-2.11,3.33-3.44l.81-1.58.88-.79.36,1.1c.16.5-.22,1.11-.49,1.57-1.34,2.19-3.23,3.93-5.51,5.14l-1.46.54c-.13-.59.55-.62.7-.95Z" fill="#33351f"/>
  <path d="M77.29,159.84l-4.38.02c-.18-.17-.18-.61-.67-.55l.58-.88c.47.07.64-.23.92-.44,1.91-1.51,2.93-3.25,2.87-1.91.13-.06.61-.26.65,0,.04.23-.12.68-.26.84l-1.42,1.47c.63.16,1.11-.1,1.65-.27s.93.33.91.8c-.01.35-.22.94-.84.94Z" fill="#33351f"/>
  <path d="M219.53,94.77c-.3-.21-.55-.28-1.02-.05l.3-1.29c1.62-.83,3.26-1.55,5.1-1.81.35-.05.88.33.9.65.03.51-.45.72-.87.82-1.53.34-2.99,1.02-4.41,1.68Z" fill="#33351f"/>
  <path d="M231.92,159.83c-.18-.21-.34-.45-.68-.6.2-.24.44-.54.7-.67.84-.24,1.68-.18,2.58-.2l.07-1.33c.02-.4.16-.7.47-.83.24-.1.87-.08.88.28l.05,2.49c.01.61-.45.92-1.04.91l-3.03-.05Z" fill="#33351f"/>
  <path d="M65.3,154.95c-1.37.59-4.47,1.48-5.02,1.13-.18-.12-.57-.44-.37-.67l.61-.69c1.75-.08,3.34-.65,4.92-1.32.28.25.51.31.98.16-.05.63-.5,1.13-1.12,1.4Z" fill="#33351f"/>
</svg>