<?xml version="1.0" encoding="UTF-8"?>
<svg id="Capa_1" data-name="Capa 1" xmlns="http://www.w3.org/2000/svg" viewBox="0 0 295.95 224.55">
  <path d="M148.18,31.39c3.23,13.95,19.58,31.28,4.99,43.73-1.05.89-3.56,1.3-3.81,1.7-.87,1.37.27,6.8-.15,8.9,7.03.32,20.85-3.06,21.67,6.95.13,1.64-1.22,2.61-1.16,3.59.12,1.94,1.68,7.61,1.53,10.15-.09,1.55-1.99,2.51-1.78,3.78.35,2.15,4.13,1.53-1.15,4.2l3.01,5.53-12.79-10.84c-15.85-7.21-25.11,2.96-33.47,14.87-1.18-5.44,1.71-9.66,6.1-12.58,1.79-1.19,3.58-.63,3.75-.77,2.04-1.57,3.48-5.56,7.95-6.56,2.96-.66,13.05-.39,15.73.77,1.18.51.28,2.22,1.29,3.12,1.37,1.2,5.8,2.61,7.41,4.96-1.52-2.16.45-6.97-.4-8.1s-9.06-1.6-9.66-3.48c-.67-2.11,1.25-1.5,2.52-1.46,2.36.07,5.12.85,7.54.97v-9.06c-2.52,2.72-6.16,3.6-9.04,5.56-2.97,2.02-1.76,5.17-9.06,3.49-.51-2.67.56-1.75,2.01-2.46,4.46-2.17,11.7-3.98,13.07-9.6-6.75-1.19-4.04,1.6-5.66,3.09-1.79,1.64-10.56,5.31-12.44,2.93,2.17-3.61,9.1-1.03,11.07-6.01-7.42.87-15.4-.67-22.68-.05-5.38.46-6.64,1.22-6.49,7.08,1.73-.16,1.15-2.31,3.04-3.48.74-.46,7.39-2.79,5.99-.05-1.06,2.08-8.51,4.06-8.89,4.69-.63,1.04-.17,7.77-1.16,9.91,3.79-3.26,9.53-7.43,14.64-8.01,1.95-.22,2.14,1.28,1.45,1.96-.24.23-3.82.85-5.02,1.53-6.35,3.61-6.62,4.91-10.78,10.29-.65.83.02,1.84-2.3,1.27,1.77-5.92-1.83-20.88,1.11-25.55,3.57-5.66,18.45,0,19.87-4.26,2.59-7.79-4.82-8.12-7.75-13.09-6.05-10.27,1.11-18.32,4.64-27.25,1.43-3.64,1.73-8.03,3.01-11.08.6-1.44.23-1.52,2.25-1.25ZM149.21,72.63c12.85-5.39,2.7-22.56-1.51-31.18-4.8,8.99-13.59,23.62-2.53,31.19-.43-10.82,5.3-12.31,4.04,0Z" fill="#33351f"/>
  <path d="M158.63,132.65c6.31,6.72,5.2,13.35,9.46,20.23.98,1.59,3.25,2.38,3.32,2.93.14,1.05-.97,2.6-.89,3.86.16,2.47,1.82,5.11.31,7.55-1.54,2.49-11.89,9.31-15.59,9.05,5.14-5.91,11.4-6.41,14.08-14.59-2.38-1.72-3.85,2.95-5.53,4.53-.88.83-6.79,5.78-7.24,5.89-2.24.57-4.49-1.93-7.39-1.45s-21.75,13.02-24.09,10.65c-.95-.95.23-2.95,1.7-3.82,3.34-2,9.8-3.57,14.09-6.04,1.78-1.02,7.32-6.03,8-6.15,2.67-.48,2.63,5.71,8.66,2.69,3.99-1.99,5.35-6.84,9.37-8.82l.33-1.32c-3.86-5.36-6.27-22.51-12.21-25.08-10.08-4.36-10.62,8.75-13.64,15.02-2.87,5.95-9.27,12.24-16.28,12.38-1.47-1.32,9.66-8.25,10.91-9.71,5.31-6.22,5.34-19.7,13.99-21.21,5.35-.93,5.8.34,8.67,3.4Z" fill="#33351f"/>
  <path d="M171.33,150.11c-4.25-.09-3.55-7.27-4.6-9.98-3.16-8.19-11.79-17.7-21.53-13.63-6.26,2.62-5.56,22.7-17.46,26.83-2.92,1.01-4.06-1.78-1.38-3.45,6.25-3.91,9.31-8.47,11.54-15.6.72-2.29-.21-5.2,1.19-7.61,2.38-4.09,11.99-4.34,16.19-3.24,4.8,1.26,14.56,12.11,15.64,16.59.5,2.07-.83,7.25.42,10.1Z" fill="#33351f"/>
  <path d="M171.33,170.24c-1.05,5.55.9,14.65-3.45,19.18-2.93,3.05-14.03,3.46-18.5,3.72-1.62.09-3.28.64-4.2-1.29-1.04-2.18,5.93-1.8,6.77-3.28,6.93.85,4.48-2.04,7.34-4.71,1.45-1.35,7.55-3.25,7.84-3.72.57-.93.83-4.68-1.32-3.85-.71.27-12.98,10.95-12.57,5.52l18.08-11.57ZM167.31,183.32c-.5-.54-9.72,4.47-8.04,6.03.52.48,10.7-3.17,8.04-6.03Z" fill="#33351f"/>
  <path d="M135.12,119.93c3.52-2.66,11.04-4.3,15.46-3.94,5.8.47,12.7,5.07,15.73,9.98-3.37.38-12.18-7.98-18.63-7.89-10.16.14-14.8,17.22-22.12,22.96-2.22.15-.34-5.16.08-5.94,3.44-6.28,7.07-6.57,9.48-15.17Z" fill="#33351f"/>
  <path d="M135.12,119.93c-3.58,2.71-5.71,8.81-10.05,11.07-.32-1.9.13-2.94.97-4.56.78-1.51,8.35-11.15,9.7-12.44,6.96-6.66,19.1-4.72,26.49.46,1.75,1.23,8.49,8.52,8.84,10.13.32,1.5-.76,6.17.27,8.41-3.58.49-4.36-5.96-5.03-7.04,2.04-.23.59-1.77.2-2.72-3.78-9.14-21.67-13.7-29.61-8.34-1.97,1.33-1.28,3.23-1.78,5.02Z" fill="#33351f"/>
  <path d="M147.19,145.09c-3.11,2.85,4.73,1.4,5.08,1.53,2.48.94,3.83,5.15-2.03,2.74-.16-.07-.21-1.2-.52-1.28-3.5-.9-1.93,1.18-2.89,2.63-1.66,2.52-4.61,7.05-6.64,9-1.82,1.75-12.05,8.35-14.13,7.02-.99-.63-1.69-1.62-.4-2.57,1.92-1.41,6.38-2.5,8.8-4.15,4.6-3.14,8.35-9.08,11.05-13.91.56-.99-.04-2.84.88-3.77,1.17-1.18,4.47-1.74,4.82.26.49,2.72-3.72,2.24-4.02,2.51Z" fill="#33351f"/>
  <path d="M151.22,161.17c-6.8.84-10.38,7.43-17.44,10.24-4.7,1.87-13.73,2.59-6.27-1.24,3.33-1.71,7.61-2.86,10.96-5.13,3.45-2.34,12.02-13.67,12.75-3.87Z" fill="#33351f"/>
  <path d="M126.07,187.33c-.51-2.6.55-1.76,1.96-2.52,2.9-1.57,18.34-8.29,20.78-8.49,1.29-.11,4.43.02,4.4,1.46-.02,1.45-23.81,10.04-27.14,9.55Z" fill="#33351f"/>
  <path d="M149.21,134.02c4.96-.6,7.7,5.2,9.57,9.03.63,1.29,6.09,13.17,1.99,13.08-.92-.02-5.29-14.42-7.1-17.03-1.45-2.09-4.67-2.15-4.47-5.08Z" fill="#33351f"/>
  <path d="M151.21,182.31c1.38,1.22-1.65,2.68-2.45,3.08-2.69,1.35-11.93,5.43-14.39,5.76-1.3.18-4.29.26-4.27-1.3.02-1.12,20.26-8.28,21.1-7.54Z" fill="#33351f"/>
  <path d="M126.07,146.08c-1.2-1.22,8.1-13.7,10.05-15.09-.13,2.14-6.61,18.58-10.05,15.09Z" fill="#33351f"/>
  <path d="M142.15,94.78c.51,2.67-.57,1.75-2.01,2.46-1.23.6-9.65,4.95-10.05,4.57-2.16-2.04,9.8-8.38,12.06-7.03Z" fill="#33351f"/>
  <path d="M157.27,163.18c-2.43-6.63.98-7.89,5-2.51l-5,2.51Z" fill="#33351f"/>
  <path d="M147.19,155.14c-2.31-1.81,4.7-3.02,5.45-2.85.82.19,2.59,3.05,2.58,3.36-.06,2.77-6.86-1.66-8.03-.52Z" fill="#33351f"/>
</svg>