<?xml version="1.0" encoding="UTF-8"?>
<svg id="Capa_1" data-name="Capa 1" xmlns="http://www.w3.org/2000/svg" viewBox="0 0 290 262">
  <path d="M27.85,123.31c1.57,3.54,3.99,6.66,6.93,9.18,5.39,4.62,12.2,7.31,19.18,8.35,8.68,1.29,17.45.38,26.11-.61-.22,2.06-.25,4.16-.09,6.27.66,8.42,3.76,16.39,6.87,24.16,3.15,7.89,6.38,16.1,6.74,24.69.07,1.59.24,2.99,1.33,4.24.92,1.06,2.27,1.71,3.66,1.82,1.54.13,2.82-.5,4.02-1.4,1.5-1.12,2.98-2.27,4.44-3.44,3.3-2.65,6.45-5.47,9.57-8.32,2.82-2.57,5.63-5.15,8.27-7.9,4.57-4.75,8.44-10.03,10.87-16.18,3.24-8.19,3.94-17.11,2.29-25.65,7.26,13.08,12.79,27.19,17.58,41.34,2.4,7.08,4.58,14.24,6.41,21.48.42,1.64.81,3.28,1.18,4.93.09.42.22.85.28,1.27.05.37-.04.77-.1,1.21-.17,1.11-.33,2.23-.48,3.34-.62,4.48-1.15,8.97-1.59,13.47-.46,4.72-.82,9.44-1.1,14.17-.28,4.73-.63,9.51-.6,14.24.02,3.54,3.42,6.32,6.91,5.25,1.59-.49,2.88-1.69,3.48-3.25.38-1,.35-2.07.4-3.12.04-1.03.08-2.06.13-3.09.87-18.62,3.23-37.16,7.05-55.4,3.82-18.23,9.09-36.14,15.74-53.53,0-.02.01-.05.02-.07,2-1.12,3.95-2.35,5.84-3.66,3.82-2.64,7.43-5.58,10.88-8.68,1.78-1.59,3.52-3.23,5.24-4.88,1.49-1.44,3.59-2.99,4.24-5.04,1.27-4.08-3.53-6.02-6.3-7.54-1.35-.74-2.62-1.6-3.82-2.53,1.16-2.27,3.33-4.19,5.52-5.47.52.29,1.05.55,1.6.77,4.63,1.92,10.15,1.34,14.25-1.56,2.42-1.72,4.13-4.16,5.92-6.48,1.9-2.47,3.8-4.95,5.66-7.45,7.3-9.79,14.24-20.19,17.87-31.97.89-2.88,1.68-5.9,1.98-8.91.12-1.24.03-2.59-.69-3.65-.79-1.16-2.1-1.67-3.46-1.74-2.97-.15-5.98,1.42-8.44,2.92-2.62,1.6-5.15,3.37-7.66,5.14-9.95,6.99-19.51,14.82-27.12,24.37-3.4,4.26-7.26,8.96-7.6,14.62-.13,2.22.26,4.41,1.08,6.42-2.37,1.49-4.47,3.78-5.85,6.25-4.6-5.14-8.8-10.62-14.32-14.79.49-3.23,1.38-6.4,2.7-9.39.04-.08.06-.17.08-.25.5.04,1,.06,1.5.05,4.84-.1,9.4-2.6,12.12-6.6,1.57-2.3,2.19-4.95,2.82-7.62.74-3.14,1.45-6.28,2.13-9.43,2.74-12.66,4.92-25.75,3.02-38.7-.43-2.94-.89-6.2-2.16-8.91-.54-1.14-1.46-2.14-2.7-2.48-1.31-.36-2.7.07-3.84.73-2.43,1.4-4.23,3.76-5.75,6.06-1.68,2.55-3.24,5.19-4.78,7.83-6.25,10.73-11.74,22.13-14.58,34.27-1.21,5.18-2.51,10.73-.33,15.82.64,1.5,1.54,2.87,2.62,4.07-.04.07-.07.15-.09.24-.77,2.99-1.54,5.98-2.31,8.97-5.29-2.13-10.99-3.24-16.68-3.21-4.43.02-8.79.78-12.94,2.17,7.04-6.45,12.84-14.34,16.99-22.9,2.12-4.38,3.85-8.97,4.94-13.72,1.03-4.47,1.31-8.91,1.07-13.48-.32-6.05-1.09-12.2-3.21-17.91-1.02-2.75-2.31-5.48-4.06-7.85-.8-1.08-1.85-2.06-3.27-2.14-1.5-.09-2.75.79-3.93,1.6-5.12,3.52-11.33,4.75-16.97,7.16-4.99,2.13-9.61,5.04-13.76,8.53-7.93,6.66-13.99,15.51-17.25,25.35-2.59-2.97-5.56-5.58-8.97-7.61-13.34-7.96-29.81-6.3-43.9-12.2-.5-.21-1.27.23-1.35.77-.88,5.78-1.57,11.58-2.04,17.4-.42,5.11-.79,10.27-.5,15.41.25,4.54,1.13,9.04,2.53,13.37,1.05,3.27,2.48,6.41,4.34,9.29,1.79,2.77,3.91,5.31,6.11,7.76-6.93,2.62-13.19,6.97-18,12.61-3.05,3.58-5.69,7.46-8.94,10.88-3.19,3.36-6.74,6.35-10.58,8.95-.54.36-.65.93-.39,1.5ZM58.15,43.28c1.11,2.01,2.49,3.92,3.42,6.03.81,1.85.89,3.8.6,5.78-.61,4.13-2.33,8.01-2.76,12.18-.43,4.19,1.27,8.12,3.02,11.85,1.62,3.45,3.82,6.49,6.44,9.21-.17.05-.34.1-.51.15-.11.04-.23.07-.34.11-2.59-2.84-5.1-5.77-7.09-9.08-4.09-6.78-5.89-15-6.03-22.85-.09-4.97.3-9.96.74-14.9.14-1.53.29-3.06.46-4.59.29,2.16.98,4.16,2.06,6.11ZM115.61,58.7c3.57,7.44,5.96,15.48,6.07,23.78.03,2.01-.07,4.03-.28,6.04-.22,2.04-.71,4.04-.92,6.08-.27,2.61.21,5.3,1.32,7.69-1.11-.4-2.21-.8-3.32-1.2-.27-.1-.54-.2-.82-.3.35.12-.14-.09-.33-.2-1.04-.59-2.08-1.18-3.12-1.77-3.41-1.93-6.83-3.79-10.34-5.47-5.19-4.17-9.71-9.15-13.37-14.73-.39-.59-1.34-.04-.95.55,3.03,4.63,6.63,8.83,10.71,12.53-1.72-.74-3.46-1.43-5.24-2.06-3.37-1.19-6.84-2.16-10.38-2.65-4.97-3.84-9.25-8.53-12.63-13.83-.38-.6-1.33-.04-.95.55,3.15,4.94,7.06,9.34,11.56,13.06-.49-.04-.97-.07-1.46-.09-3.73-.15-7.49.35-11.1,1.32-3.12-3.16-5.56-6.73-7.33-10.83-.83-1.93-1.77-4.01-2.15-6.08-.38-2.07-.12-4.22.32-6.25.81-3.81,2.41-7.56,2.52-11.5.12-4.18-2.59-7.39-4.49-10.89-2.43-4.49-2.08-9.43-1.2-14.29,7.45,2.8,15.43,3.74,23.22,5.2,7.28,1.36,14.63,3.24,20.76,7.59,6.23,4.43,10.64,10.97,13.91,17.78ZM155.13,8.08c-2.61,1.94-5.29,3.77-7.99,5.58-7.84,5.25-15.89,10.41-22.26,17.47-5.29,5.86-9.42,12.97-10.38,20.87-1.01-1.65-2.1-3.26-3.29-4.79,0-.01,0-.02.01-.04.37-1.22.77-2.43,1.23-3.62,3.65-9.58,10.22-18.1,18.47-24.18,4.27-3.15,8.96-5.61,13.94-7.4,2.77-.99,5.58-1.87,8.29-3.01.66-.28,1.32-.57,1.97-.89ZM141.54,83.83c-.06.04-.11.09-.16.14-7.33,4.18-13.44,10.48-17.2,18.14-.67-1.23-1.15-2.57-1.4-3.96-.28-1.55-.14-3.03.08-4.52,4.97-10.24,10.43-20.2,16.4-29.89.37-.6-.58-1.15-.95-.55-5.37,8.73-10.33,17.67-14.89,26.84.53-4.05.62-8.15.18-12.22-.06-.57-.14-1.15-.22-1.72,3.98-10.37,9.26-20.22,15.69-29.29.41-.58-.54-1.13-.95-.55-6.11,8.61-11.17,17.93-15.09,27.72-.41-2.26-.97-4.49-1.65-6.68.86-1.86,1.73-3.71,2.59-5.57.3-.64-.65-1.19-.95-.55-.71,1.53-1.42,3.06-2.13,4.6-1.34-3.96-3.06-7.8-5.06-11.45-.12-.23-.25-.46-.38-.68.31-4.72,1.82-9.26,4.14-13.37,9.25-16.45,27.69-23.67,41.47-35.48,1.19-.11,1.93,1.22,2.51,2.11.77,1.19,1.45,2.44,2.05,3.72,1.23,2.62,2.09,5.41,2.73,8.23,1.18,5.27,1.72,10.88,1.58,16.28-.24,8.91-3.57,17.7-7.89,25.39-5.09,9.08-12.05,17.22-20.49,23.34ZM181.63,69.63c-1.18-1.68-1.96-3.64-2.21-5.72-.3-2.51.23-5.06.7-7.51.52-2.75,1.19-5.48,1.99-8.17.06,7.15,1.61,14.5-.48,21.4ZM206.57,56.81c-.28-1.79-.76-3.57-1.25-5.28-1.21-4.16-2.34-8.32-2.95-12.62-.6-4.28-.33-8.39,1.06-12.49,1.87-5.49,5.1-10.78,5.86-16.56.21.83.4,1.67.57,2.51.59,2.91.94,5.86,1.1,8.83.64,12.02-1.76,23.95-4.39,35.61ZM192.72,75.11c1.4-3.55,1-7.56.48-11.3-.65-4.64-1.6-9.23-2.14-13.89-.53-4.63-.55-9.27.15-13.89,1.11-7.3,3.63-14.28,6.54-21.05,1.02-1.7,2.06-3.38,3.23-4.97.77-1.04,1.63-2.01,2.61-2.84.87-.74,2.13-1.71,3.35-1.49.66.12,1.09.62,1.39,1.21.11,3.76-1.09,7.36-2.53,10.82-1.38,3.33-2.98,6.59-3.96,10.07-1.11,3.93-1.07,7.92-.47,11.94.64,4.23,1.78,8.31,2.96,12.41.8,2.79,1.52,5.71,1.34,8.59-.38,1.66-.77,3.32-1.22,4.96-.59,2.13-1.67,4.07-3.22,5.64-2.28,2.31-5.35,3.63-8.53,3.78ZM189.39,74.84c-.99-.22-1.97-.55-2.88-1-1.56-.77-2.94-1.86-4.07-3.16,1.78-5.18,1.41-10.77,1.04-16.16-.22-3.34-.47-6.78-.15-10.14,2.75-8.04,6.52-15.72,10.72-23.11-.34.91-.66,1.82-.97,2.74-1.39,4.14-2.49,8.39-3.07,12.72-.61,4.51-.55,9.03,0,13.54.54,4.52,1.44,8.98,2.08,13.48.53,3.74,1.01,7.83-.56,11.36-.72-.03-1.44-.12-2.15-.27ZM186.18,85.53c-1.77-1.16-3.62-2.18-5.54-3.07.01-.03.02-.06.03-.09.71-2.77,1.43-5.53,2.14-8.3,1.73,1.38,3.76,2.38,5.93,2.88-1.18,2.77-2.04,5.63-2.56,8.59ZM218.98,72.9c-2.91,6.53-4.54,13.84-9.33,19.22-.42-2.4-.18-4.92.78-7.21,1-2.38,2.69-4.55,4.21-6.62,1.37-1.86,2.82-3.65,4.34-5.39ZM237.66,90.89c.42-1.49.71-3.02.95-4.53.7-4.49,1.37-8.95,2.66-13.32,1.26-4.26,3.24-7.97,6.31-11.19,3.99-4.17,9.07-7.63,12.15-12.54-.25,1.35-.56,2.69-.9,4.01-.71,2.68-1.61,5.31-2.66,7.88-4.31,10.55-11.09,19.93-17.94,28.95-.19.25-.38.49-.56.74ZM217.46,101.71c2.76-2.66,4.07-6.48,5.16-10.11,1.37-4.59,2.45-9.27,3.95-13.82,1.46-4.42,3.42-8.59,5.99-12.47,4.01-6.06,9.15-11.26,14.53-16.12,1.94-1.33,3.91-2.67,6.03-3.7,1.59-.77,6.16-2.7,6.88.09.06.21.09.43.1.65-1.46,3.49-4.11,6.27-6.85,8.81-2.66,2.46-5.48,4.77-7.82,7.55-2.66,3.15-4.29,6.84-5.4,10.78-1.23,4.36-1.83,8.79-2.56,13.24-.42,2.55-.99,5.16-2.2,7.43-.85,1.1-1.71,2.2-2.59,3.28-1.51,1.86-3.23,3.42-5.47,4.35-3.17,1.33-6.65,1.26-9.74.03ZM212.11,97.71c-1-1.29-1.72-2.76-2.16-4.3,1.54-1.62,2.82-3.47,3.88-5.43,3.07-5.66,4.57-12.41,7.82-18.02,5.88-6.2,12.53-11.64,19.47-16.63-.65.66-1.3,1.32-1.94,1.99-2.9,3.08-5.6,6.37-7.9,9.92-2.46,3.81-4.35,7.91-5.77,12.22-1.48,4.5-2.56,9.12-3.9,13.66-1.07,3.6-2.33,7.54-5.22,10.08-.7-.35-1.37-.77-2.01-1.24-.8-.61-1.62-1.44-2.26-2.27ZM207.73,107.02c-1.29-1.13-2.51-2.35-3.69-3.61,1.1-2.32,3.11-4.54,5.28-5.97.93,1.59,2.16,3.01,3.62,4.18-2.09,1.38-3.96,3.24-5.21,5.4ZM139.19,136.08c2.64,2.37,5.48,4.5,8.52,6.33,1.7,1.03,3.46,1.94,5.27,2.71,0,.13.02.28.08.43,1.31,3.23,2.53,6.49,3.68,9.78,4.17,11.92,7.52,24.19,9.77,36.62.19,1.06,1.9,1.03,2.12,0,.74-3.52,1.54-7.02,2.41-10.51.2-.82.41-1.64.62-2.45.21-.8.2-1.22-.06-2.01-.41-1.29-.78-2.59-1.1-3.9-.69-2.77-1.2-5.58-1.54-8.41-.66-5.53-.73-11.14-.04-16.67,1.59-.05,3.18-.18,4.77-.39.39-.05.77-.11,1.16-.17-.29,5.24-.58,10.48-.87,15.72-.07,1.29,1.8,1.42,2.16.29,1.9-6,3.98-11.94,6.22-17.82,2.77-.89,5.47-2.01,8.08-3.31-.53,1.4-1.05,2.81-1.56,4.22-6.17,17.08-11,34.65-14.45,52.47-3.44,17.76-5.53,35.78-6.21,53.85-.07,1.72-.2,3.43-2.03,4.18-1.41.57-3.08.01-3.88-1.27-.49-.79-.48-1.6-.46-2.51.03-1.2.07-2.4.11-3.6.08-2.37.19-4.74.31-7.11.47-9.07,1.25-18.13,2.41-27.14.29-2.25.61-4.49.95-6.74.25-1.63-.34-3.28-.72-4.87-.79-3.33-1.66-6.63-2.6-9.92-2.06-7.26-4.41-14.43-6.99-21.52-2.61-7.19-5.45-14.29-8.59-21.26-2.3-5.1-4.76-10.15-7.54-15.02ZM176.62,154.98c.15-2.66.29-5.31.44-7.97.89-.19,1.78-.4,2.66-.63-1.07,2.85-2.11,5.72-3.1,8.6ZM166.25,157.21c.1,5.63.83,11.29,2.21,16.75.18.71.37,1.42.57,2.12.17.57.46,1.19.54,1.77.1.66-.27,1.47-.44,2.13-.18.7-.35,1.4-.52,2.1-.34,1.39-.67,2.78-.98,4.17-.36-1.71-.73-3.42-1.13-5.12-2.76-11.9-6.34-23.65-10.87-35,1.48.5,3.01.91,4.56,1.2,2.16.4,4.33.62,6.52.67-.38,3.06-.52,6.14-.47,9.22ZM135,128.64c-.09-.2-.22-.34-.37-.43-2.64-3.15-4.97-6.57-6.94-10.18-.13-.23-.25-.47-.38-.7,2.64,2.14,5.57,3.92,8.7,5.27.64.28,1.2-.67.55-.95-3.9-1.68-7.45-4.01-10.54-6.9-.32-.69-.63-1.39-.92-2.09-.2-.49-.53-1.04-.54-1.46-.01-.34.09-.73.13-1.07.22-1.77.44-3.55.66-5.33.07-.12.11-.25.12-.38.18-.4.36-.79.55-1.18,1.95-2.22,4.47-3.88,6.83-5.64.09-.07.15-.15.19-.24-.4,0-.77-.45-.52-.81-.07.01-.15.04-.22.1-1.53,1.14-3.11,2.24-4.57,3.46.05-.09.1-.17.15-.26,3.57-5.8,8.63-10.63,14.53-14.02.07-.03.14-.07.21-.12.61-.34,1.23-.68,1.85-.99,7.14-3.59,15.28-4.88,23.19-3.8,8.01,1.1,15.75,4.5,21.82,9.86,4.52,3.99,8.13,8.85,12.18,13.3.07.15.19.27.34.37,1.18,1.28,2.4,2.53,3.7,3.71.45.41.91.81,1.38,1.2.08.1.18.18.3.25.92.75,1.87,1.45,2.85,2.1,0,0,0,0,.01,0-.75-.21-1.5-.42-2.25-.62-3.37-.9-6.57-1.96-9.42-4.04-4.9-3.58-8.28-8.78-12.74-12.82-4.57-4.14-10.26-7.02-16.28-8.33-5.99-1.3-12.3-.93-18.26.4-6.2,1.39-13.9,5.94-18.68,10.13-.04.04-.07.07-.1.11.38-.06.68.43.52.81.12,0,.24-.05.35-.14,5.37-4.7,13.89-9.23,20.9-10.37,6.13-.99,12.34-.9,18.28,1.01,5.96,1.91,11.04,5.4,15.3,9.95,3.89,4.15,7.41,8.91,12.5,11.7,5.21,2.85,11.63,2.78,16.49,6.35.04.03.09.05.13.07.45.56.69,1.22.42,1.98-.34.97-1.25,1.71-1.97,2.41-.76.74-1.51,1.48-2.28,2.21-6.48,6.22-13.38,12.12-21.26,16.51-7.64,4.25-16.23,6.91-25.03,6.75-4.34-.08-8.67-.88-12.7-2.53-3.83-1.57-7.43-3.87-10.68-6.42-3.1-2.44-5.95-5.21-8.52-8.21ZM110.16,191.12c1.03-1.24,2.03-2.5,3.01-3.77,7.15-9.24,13.21-19.6,16.26-30.95,2.57-9.56,3.3-20.01,1.18-29.77.81,1.09,1.66,2.17,2.54,3.21.8,1.87,1.47,3.8,2.02,5.76,2.91,10.49,1.8,22.15-3.29,31.81-2.99,5.66-7.34,10.37-11.94,14.76-3.19,3.05-6.43,6.06-9.77,8.94ZM82.25,140c.76-6.95,4.23-13.3,9.06-18.27,3.41-3.52,7.46-6.31,11.81-8.53-1.26,1.45-2.37,3.04-3.3,4.75-.34.62.61,1.17.95.55,1.36-2.5,3.11-4.73,5.19-6.65,1.29-.57,2.61-1.1,3.93-1.58.26-.09.52-.18.77-.27-1.1,1.21-2.07,2.55-2.88,3.99-.35.62.6,1.17.95.55,1.13-2,2.56-3.79,4.25-5.31.8-.25,1.61-.5,2.42-.72,1.39-.39,2.83-.67,4.21-1.1,1.14-.36,2.27-.77,3.4-1.17-.01.11-.03.23-.04.34-.15,1.24-.31,2.47-.46,3.71-.04.35-.13.71-.13,1.06-.01.53.28,1.12.52,1.64.86,4.7,1.78,9.4,2.11,14.17.05.7,1.15.7,1.1,0-.24-3.38-.76-6.73-1.35-10.06,1.21,2.44,2.58,4.8,4.11,7.07,1.52,5.48,2.02,11.21,1.8,16.89-.44,11.52-3.96,22.53-9.59,32.54-2.84,5.05-6.15,9.83-9.76,14.37-1.75,2.21-3.56,4.4-5.47,6.47-.46.5-.94.99-1.43,1.45-.66.52-1.32,1.03-1.98,1.54-.26.2-.53.41-.8.62-.76.46-1.57.84-2.44,1.11-.07.02-.12.05-.17.08-.08,0-.16,0-.24,0-1.15-.07-2.25-.79-2.72-1.85-.31-.7-.25-1.45-.29-2.2-.04-.96-.12-1.91-.24-2.86-.23-1.96-.57-3.91-1.02-5.84-1.86-8-5.34-15.45-8.15-23.13-2.73-7.43-4.98-15.35-4.11-23.35ZM30.79,124.26c2.4,2.48,4.9,4.95,7.91,6.68,3.16,1.82,6.7,2.44,10.3,2.69,3.89.27,7.82.49,11.71.32,3.81-.17,7.44-1.02,11.13-1.91,3.46-.84,7.02-1.57,10.55-.91-.92,2.21-1.59,4.5-2.01,6.85-4.74.55-9.49,1.08-14.26,1.25-7.66.27-15.53-.43-22.55-3.71-5.26-2.46-9.91-6.22-12.78-11.26ZM30.77,122.72c3.63-2.59,7.01-5.52,10.05-8.78,3.56-3.82,6.38-8.25,9.96-12.04,5.62-5.96,13-10.19,20.97-12.07,4.38-1.03,8.89-1.29,13.35-.57.35.06.7.12,1.04.18.04.03.08.06.12.08.18.13.36.12.51.04,3.96.8,7.81,2.15,11.54,3.66,4.01,1.62,7.82,3.6,11.59,5.68-5.57-1.04-11.21-1.66-16.87-1.85-.71-.02-.7,1.07,0,1.1,6.73.23,13.42,1.06,20,2.5.7.39,1.4.79,2.1,1.19,1.97,1.12,4.1,1.89,6.24,2.64-2.01.69-4.05,1.22-6.09,1.79-.11-.02-.22,0-.34.09,0,0-.02.01-.02.02-.28.08-.56.16-.85.24-2.42.71-4.8,1.52-7.14,2.47-.12-.1-.27-.14-.47-.08-5.39,1.72-10.54,4.41-16.2,5.15-.69.09-.7,1.19,0,1.1,3.18-.41,6.18-1.41,9.16-2.51-4.31,2.52-8.24,5.68-11.47,9.48-2.23.97-4.57,1.62-6.98,1.97-.7.1-.4,1.16.29,1.06,1.82-.26,3.59-.7,5.31-1.31-.22.3-.45.59-.66.9-1.19,1.68-2.21,3.45-3.05,5.28-3.66-.75-7.36-.07-10.96.8-3.77.9-7.45,1.8-11.35,1.96-3.84.16-7.71-.06-11.54-.33-3.74-.26-7.31-.97-10.51-3.01-2.85-1.81-5.22-4.28-7.55-6.7-.05-.06-.11-.09-.17-.12ZM29.35,123.7c.13-.5.26-1,.39-1.5.11.25.23.5.35.75.03.06.06.12.09.18-.06.04-.12.08-.18.12-.22.15-.43.3-.65.45Z" fill="#53672b"/>
  <path d="M139.19,136.08c2.78,4.86,5.24,9.91,7.54,15.02,3.14,6.97,5.98,14.08,8.59,21.26,2.57,7.09,4.92,14.27,6.99,21.52.93,3.29,1.81,6.59,2.6,9.92.38,1.59.96,3.24.72,4.87-.34,2.24-.66,4.49-.95,6.74-1.16,9.01-1.93,18.07-2.41,27.14-.12,2.37-.23,4.74-.31,7.11-.04,1.2-.08,2.4-.11,3.6-.02.9-.04,1.72.46,2.51.8,1.29,2.47,1.85,3.88,1.27,1.83-.74,1.97-2.45,2.03-4.18.68-18.07,2.77-36.1,6.21-53.85,3.45-17.83,8.29-35.39,14.45-52.47.51-1.41,1.03-2.82,1.56-4.22-2.61,1.3-5.31,2.42-8.08,3.31-2.24,5.88-4.32,11.82-6.22,17.82-.36,1.13-2.23,1-2.16-.29.29-5.24.58-10.48.87-15.72-.38.06-.77.12-1.16.17-1.58.21-3.17.34-4.77.39-.68,5.53-.62,11.15.04,16.67.34,2.83.86,5.64,1.54,8.41.33,1.31.69,2.62,1.1,3.9.25.79.26,1.21.06,2.01-.21.82-.42,1.63-.62,2.45-.87,3.49-1.67,6.99-2.41,10.51-.22,1.03-1.92,1.06-2.12,0-2.25-12.43-5.6-24.7-9.77-36.62-1.15-3.29-2.37-6.55-3.68-9.78-.06-.16-.09-.3-.08-.43-1.81-.77-3.57-1.68-5.27-2.71-3.03-1.83-5.88-3.96-8.52-6.33Z" fill="#53672b" opacity=".8"/>
  <path d="M204.04,103.41c1.18,1.26,2.4,2.48,3.69,3.61,1.24-2.16,3.12-4.02,5.21-5.4-1.46-1.17-2.68-2.6-3.62-4.18-2.18,1.43-4.18,3.65-5.28,5.97Z" fill="#53672b" opacity=".8"/>
  <path d="M180.64,82.46c1.92.89,3.78,1.91,5.54,3.07.52-2.96,1.39-5.82,2.56-8.59-2.18-.5-4.21-1.5-5.93-2.88-.71,2.77-1.43,5.53-2.14,8.3,0,.03-.02.06-.03.09Z" fill="#53672b" opacity=".8"/>
  <path d="M124.58,111.21c.02.42.34.97.54,1.46.29.7.6,1.4.92,2.09,3.08,2.89,6.64,5.22,10.54,6.9.65.28.09,1.22-.55.95-3.13-1.35-6.06-3.13-8.7-5.27.12.23.25.47.38.7,1.97,3.61,4.29,7.02,6.94,10.18.15.09.27.23.37.43,2.57,3.01,5.42,5.77,8.52,8.21,3.24,2.55,6.85,4.86,10.68,6.42,4.03,1.65,8.36,2.45,12.7,2.53,8.8.16,17.39-2.5,25.03-6.75,7.88-4.39,14.78-10.29,21.26-16.51.76-.73,1.52-1.47,2.28-2.21.71-.7,1.63-1.43,1.97-2.41.26-.76.03-1.42-.42-1.98-.04-.02-.09-.04-.13-.07-4.86-3.56-11.28-3.49-16.49-6.35-5.08-2.78-8.61-7.55-12.5-11.7-4.26-4.54-9.34-8.03-15.3-9.95-5.95-1.91-12.16-2-18.28-1.01-7.02,1.13-15.54,5.66-20.9,10.37-.11.1-.23.14-.35.14-.04.09-.1.17-.19.24-2.35,1.77-4.88,3.43-6.83,5.64-.19.39-.37.78-.55,1.18,0,.14-.05.27-.12.38-.22,1.78-.44,3.55-.66,5.33-.04.34-.15.73-.13,1.07ZM162.68,128.23c1.26-.04,2.51-.13,3.76-.3.69-.09.99.96.29,1.06-1.35.19-2.69.3-4.05.34-.71.02-.71-1.08,0-1.1ZM133.04,103.04c-1.23.4-2.37.95-3.46,1.64-.6.38-1.15-.57-.55-.95,1.16-.75,2.41-1.33,3.72-1.76.67-.22.96.84.29,1.06ZM140.43,123.45c5.78,2.53,11.99,3.96,18.28,4.25.7.03.71,1.13,0,1.1-6.5-.29-12.87-1.79-18.84-4.4-.65-.28-.09-1.23.55-.95ZM152.29,109.76c-3.09-.17-6.18-.33-9.27-.5-.7-.04-.71-1.14,0-1.1,3.09.17,6.18.33,9.27.5.7.04.71,1.14,0,1.1ZM136.9,100.35c4.96-1.5,10.02-2.64,15.15-3.42.69-.11.99.95.29,1.06-5.13.78-10.18,1.92-15.15,3.42-.68.21-.97-.85-.29-1.06ZM128.89,107.56c2.05,0,4.1,0,6.16.01.71,0,.71,1.1,0,1.1-2.05,0-4.1,0-6.16-.01-.71,0-.71-1.1,0-1.1Z" fill="#53672b" opacity=".53"/>
  <path d="M86.36,163.35c2.82,7.68,6.29,15.13,8.15,23.13.45,1.93.79,3.87,1.02,5.84.11.95.19,1.9.24,2.86.03.74-.02,1.5.29,2.2.47,1.07,1.57,1.79,2.72,1.85.08,0,.16,0,.24,0,.05-.03.1-.06.17-.08.87-.27,1.68-.65,2.44-1.11.27-.21.53-.42.8-.62.67-.5,1.32-1.02,1.98-1.54.49-.47.97-.96,1.43-1.45,1.92-2.07,3.72-4.26,5.47-6.47,3.6-4.54,6.91-9.32,9.76-14.37,5.63-10.01,9.15-21.02,9.59-32.54.22-5.68-.29-11.41-1.8-16.89-1.53-2.26-2.9-4.62-4.11-7.07.59,3.34,1.11,6.68,1.35,10.06.05.7-1.05.7-1.1,0-.33-4.77-1.25-9.47-2.11-14.17-.23-.52-.53-1.11-.52-1.64,0-.35.09-.72.13-1.06.15-1.24.31-2.47.46-3.71.01-.11.03-.23.04-.34-1.13.4-2.26.81-3.4,1.17-1.38.43-2.81.71-4.21,1.1-.81.23-1.62.47-2.42.72-1.69,1.52-3.12,3.31-4.25,5.31-.35.62-1.3.06-.95-.55.82-1.44,1.78-2.77,2.88-3.99-.26.09-.52.18-.77.27-1.33.48-2.64,1.01-3.93,1.58-2.08,1.92-3.83,4.15-5.19,6.65-.34.62-1.29.07-.95-.55.93-1.7,2.03-3.29,3.3-4.75-4.35,2.22-8.4,5.01-11.81,8.53-4.82,4.97-8.3,11.32-9.06,18.27-.87,8,1.38,15.91,4.11,23.35ZM123.43,142.09c.1-2.4.49-4.77,1.17-7.08.2-.68,1.26-.39,1.06.29-.65,2.22-1.03,4.48-1.13,6.79-.03.7-1.13.71-1.1,0ZM102.88,136.87c.04-.7,1.14-.71,1.1,0-.07,1.28-.02,2.55.18,3.82.11.69-.95.99-1.06.29-.21-1.37-.29-2.73-.21-4.11ZM102.47,131.28c.41-3.83,1.5-7.51,3.28-10.92.33-.63,1.27-.07.95.55-1.68,3.23-2.74,6.74-3.13,10.37-.07.7-1.17.7-1.1,0ZM94.82,132.3c.4-2.2,1-4.35,1.8-6.44.25-.65,1.31-.37,1.06.29-.8,2.09-1.4,4.24-1.8,6.45-.13.69-1.18.4-1.06-.29Z" fill="#53672b" opacity=".53"/>
  <path d="M30.77,122.72c.06.03.11.07.17.12,2.33,2.42,4.7,4.88,7.55,6.7,3.2,2.04,6.78,2.74,10.51,3.01,3.83.27,7.7.48,11.54.33,3.89-.16,7.58-1.05,11.35-1.96,3.6-.86,7.3-1.55,10.96-.8.84-1.83,1.86-3.6,3.05-5.28.21-.3.44-.6.66-.9-1.72.61-3.49,1.05-5.31,1.31-.69.1-.99-.96-.29-1.06,2.42-.35,4.76-1.01,6.98-1.97,3.23-3.81,7.16-6.96,11.47-9.48-2.98,1.1-5.98,2.1-9.16,2.51-.7.09-.69-1.01,0-1.1,5.67-.74,10.82-3.42,16.2-5.15.19-.06.35-.02.47.08,2.33-.94,4.72-1.76,7.14-2.47.28-.08.57-.16.85-.24,0,0,.02-.01.02-.02.12-.08.24-.1.34-.09,2.04-.57,4.08-1.1,6.09-1.79-2.14-.75-4.26-1.52-6.24-2.64-.7-.39-1.4-.79-2.1-1.19-6.58-1.44-13.27-2.27-20-2.5-.7-.02-.71-1.12,0-1.1,5.67.19,11.31.81,16.87,1.85-3.77-2.08-7.58-4.06-11.59-5.68-3.73-1.51-7.58-2.86-11.54-3.66-.14.08-.32.09-.51-.04-.04-.03-.08-.06-.12-.08-.35-.06-.7-.13-1.04-.18-4.46-.72-8.96-.46-13.35.57-7.97,1.87-15.36,6.1-20.97,12.07-3.58,3.8-6.4,8.23-9.96,12.04-3.04,3.26-6.42,6.19-10.05,8.78ZM80.96,116.16c.96-.11,1.93-.23,2.89-.34.7-.08.69,1.02,0,1.1-.96.11-1.93.23-2.89.34-.7.08-.69-1.02,0-1.1ZM69.95,101.41c4.84-1.8,9.86-3.06,14.98-3.76.69-.09.99.96.29,1.06-5.12.7-10.14,1.96-14.98,3.76-.66.25-.95-.81-.29-1.06ZM62.66,105.21c.69-.34,1.38-.68,2.06-1.02.63-.31,1.19.63.55.95-.69.34-1.38.68-2.06,1.02-.63.31-1.19-.63-.55-.95Z" fill="#53672b" opacity=".53"/>
  <path d="M58.93,42.43c1.89,3.5,4.61,6.71,4.49,10.89-.11,3.94-1.7,7.68-2.52,11.5-.44,2.04-.7,4.19-.32,6.25.38,2.08,1.32,4.15,2.15,6.08,1.76,4.11,4.21,7.67,7.33,10.83,3.61-.96,7.37-1.47,11.1-1.32.49.02.98.05,1.46.09-4.5-3.72-8.41-8.12-11.56-13.06-.38-.6.57-1.15.95-.55,3.38,5.3,7.66,9.99,12.63,13.83,3.54.49,7.01,1.46,10.38,2.65,1.78.63,3.52,1.32,5.24,2.06-4.08-3.7-7.68-7.91-10.71-12.53-.39-.59.56-1.14.95-.55,3.66,5.58,8.18,10.55,13.37,14.73,3.51,1.68,6.94,3.54,10.34,5.47,1.04.59,2.08,1.18,3.12,1.77.19.11.68.32.33.2.27.1.55.2.82.3,1.11.4,2.21.8,3.32,1.2-1.11-2.39-1.59-5.08-1.32-7.69.21-2.04.7-4.04.92-6.08.21-2,.31-4.02.28-6.04-.11-8.3-2.5-16.33-6.07-23.78-3.26-6.81-7.68-13.35-13.91-17.78-6.13-4.35-13.48-6.23-20.76-7.59-7.79-1.46-15.77-2.4-23.22-5.2-.87,4.87-1.23,9.8,1.2,14.29ZM111.14,65.91c-.36-.61.59-1.16.95-.55,5.29,8.87,8.13,19.08,8.19,29.41,0,.71-1.09.71-1.1,0-.06-10.14-2.85-20.14-8.04-28.86ZM108.94,76.88c2.71,3.79,4.37,8.2,4.87,12.84.08.7-1.02.7-1.1,0-.49-4.44-2.13-8.65-4.72-12.28-.41-.58.54-1.12.95-.55ZM107.73,59.55c-1.51-2.26-3.21-4.38-5.07-6.37-.48-.51.29-1.29.78-.78,1.93,2.05,3.68,4.25,5.24,6.59.39.59-.56,1.14-.95.55ZM101.99,65.46c.71.5,1.33,1.08,1.87,1.76.18.23.23.55,0,.78-.19.19-.59.23-.78,0-.47-.61-1.02-1.15-1.64-1.59-.57-.41-.02-1.36.55-.95Z" fill="#53672b" opacity=".53"/>
  <path d="M115.44,53.62c.13.23.26.46.38.68,2,3.65,3.73,7.49,5.06,11.45.71-1.53,1.42-3.06,2.13-4.6.3-.64,1.24-.08.95.55-.86,1.86-1.72,3.71-2.59,5.57.68,2.2,1.24,4.43,1.65,6.68,3.92-9.8,8.98-19.11,15.09-27.72.41-.57,1.36-.02.95.55-6.43,9.07-11.71,18.91-15.69,29.29.08.57.16,1.14.22,1.72.44,4.07.35,8.17-.18,12.22,4.56-9.17,9.52-18.11,14.89-26.84.37-.6,1.32-.05.95.55-5.96,9.69-11.43,19.66-16.4,29.89-.22,1.49-.36,2.97-.08,4.52.25,1.4.72,2.73,1.4,3.96,3.76-7.66,9.87-13.96,17.2-18.14.05-.05.1-.1.16-.14,8.44-6.13,15.4-14.26,20.49-23.34,4.31-7.69,7.65-16.48,7.89-25.39.14-5.4-.4-11.01-1.58-16.28-.63-2.82-1.5-5.61-2.73-8.23-.6-1.28-1.28-2.53-2.05-3.72-.57-.89-1.31-2.22-2.51-2.11-13.78,11.81-32.22,19.03-41.47,35.48-2.31,4.12-3.83,8.65-4.14,13.37ZM141.77,40.24c1.04-1.37,2.08-2.73,3.12-4.1.42-.55,1.38,0,.95.55-1.04,1.36-2.08,2.73-3.12,4.09-.42.55-1.38,0-.95-.55Z" fill="#53672b" opacity=".53"/>
  <path d="M142.72,40.8c1.04-1.36,2.08-2.73,3.12-4.09.43-.56-.53-1.11-.95-.55-1.04,1.37-2.08,2.73-3.12,4.1-.43.56.53,1.11.95.55Z" fill="#53672b"/>
  <path d="M139.88,124.4c5.96,2.61,12.33,4.1,18.84,4.4.71.03.7-1.07,0-1.1-6.3-.29-12.51-1.72-18.28-4.25-.64-.28-1.2.66-.55.95Z" fill="#53672b"/>
  <path d="M162.68,129.33c1.36-.04,2.71-.16,4.05-.34.7-.1.4-1.15-.29-1.06-1.25.17-2.5.27-3.76.3-.71.02-.71,1.12,0,1.1Z" fill="#53672b"/>
  <path d="M129.58,104.68c1.09-.7,2.23-1.24,3.46-1.64.67-.22.38-1.28-.29-1.06-1.31.43-2.56,1.01-3.72,1.76-.59.38-.04,1.33.55.95Z" fill="#53672b"/>
  <path d="M137.19,101.4c4.96-1.5,10.02-2.64,15.15-3.42.7-.11.4-1.16-.29-1.06-5.13.78-10.18,1.92-15.15,3.42-.68.2-.39,1.26.29,1.06Z" fill="#53672b"/>
  <path d="M128.89,108.66c2.05,0,4.1,0,6.16.01.71,0,.71-1.1,0-1.1-2.05,0-4.1,0-6.16-.01-.71,0-.71,1.1,0,1.1Z" fill="#53672b"/>
  <path d="M143.02,109.26c3.09.17,6.18.33,9.27.5.71.04.7-1.06,0-1.1-3.09-.17-6.18-.33-9.27-.5-.71-.04-.7,1.06,0,1.1Z" fill="#53672b"/>
  <path d="M102.66,53.19c1.87,1.98,3.56,4.1,5.07,6.37.39.58,1.34.03.95-.55-1.57-2.34-3.32-4.54-5.24-6.59-.48-.52-1.26.26-.78.78Z" fill="#53672b"/>
  <path d="M111.14,65.91c5.19,8.71,7.98,18.71,8.04,28.86,0,.71,1.1.71,1.1,0-.06-10.33-2.91-20.54-8.19-29.41-.36-.61-1.31-.05-.95.55Z" fill="#53672b"/>
  <path d="M107.99,77.44c2.6,3.63,4.24,7.84,4.72,12.28.08.7,1.17.7,1.1,0-.51-4.63-2.16-9.04-4.87-12.84-.41-.57-1.36-.02-.95.55Z" fill="#53672b"/>
  <path d="M101.44,66.41c.63.44,1.17.99,1.64,1.59.18.23.59.19.78,0,.23-.23.18-.54,0-.78-.53-.68-1.16-1.26-1.87-1.76-.58-.41-1.13.54-.55.95Z" fill="#53672b"/>
  <path d="M70.24,102.47c4.84-1.8,9.86-3.07,14.98-3.76.7-.09.4-1.15-.29-1.06-5.12.7-10.14,1.96-14.98,3.76-.66.24-.37,1.31.29,1.06Z" fill="#53672b"/>
  <path d="M63.22,106.16c.69-.34,1.38-.68,2.06-1.02.63-.31.08-1.26-.55-.95-.69.34-1.38.68-2.06,1.02-.63.31-.08,1.26.55.95Z" fill="#53672b"/>
  <path d="M80.96,117.26c.96-.11,1.93-.23,2.89-.34.69-.08.7-1.18,0-1.1-.96.11-1.93.23-2.89.34-.69.08-.7,1.18,0,1.1Z" fill="#53672b"/>
  <path d="M103.57,131.28c.38-3.63,1.45-7.13,3.13-10.37.33-.63-.62-1.18-.95-.55-1.77,3.42-2.87,7.1-3.28,10.92-.07.7,1.02.7,1.1,0Z" fill="#53672b"/>
  <path d="M123.43,142.09c-.03.71,1.07.7,1.1,0,.1-2.31.48-4.57,1.13-6.79.2-.68-.86-.97-1.06-.29-.67,2.31-1.06,4.68-1.17,7.08Z" fill="#53672b"/>
  <path d="M103.1,140.98c.11.7,1.16.4,1.06-.29-.19-1.27-.24-2.54-.18-3.82.04-.71-1.06-.7-1.1,0-.07,1.38,0,2.74.21,4.11Z" fill="#53672b"/>
  <path d="M95.88,132.59c.4-2.2,1-4.35,1.8-6.45.25-.66-.81-.94-1.06-.29-.8,2.09-1.4,4.24-1.8,6.44-.13.69.93.99,1.06.29Z" fill="#53672b"/>
</svg>